<svg width="1600" height="900" viewBox="0 0 1600 900" fill="none" xmlns="http://www.w3.org/2000/svg">
  <rect width="1600" height="900" fill="#F6F8FB"/>
  <rect x="72" y="72" width="1456" height="756" rx="36" fill="#FFFFFF"/>
  <rect x="72" y="72" width="1456" height="756" rx="36" stroke="#D9E0EA" stroke-width="2"/>
  <rect x="116" y="116" width="1368" height="112" rx="20" fill="#182033"/>
  <circle cx="162" cy="172" r="14" fill="#FF7468"/>
  <circle cx="206" cy="172" r="14" fill="#FFD166"/>
  <circle cx="250" cy="172" r="14" fill="#4EC9A7"/>
  <text x="316" y="184" fill="#E8EEF7" font-family="Inter, Arial, sans-serif" font-size="30" font-weight="700">OOMOL Studio Updates</text>

  <text x="132" y="344" fill="#182033" font-family="Inter, Arial, sans-serif" font-size="92" font-weight="800">OOMOL Studio 1.5.10</text>
  <text x="136" y="412" fill="#526071" font-family="Inter, Arial, sans-serif" font-size="34" font-weight="500">OOPilot context, connector workflows, package search, and stability improvements</text>

  <rect x="136" y="500" width="380" height="126" rx="24" fill="#EEF6FF"/>
  <rect x="560" y="500" width="380" height="126" rx="24" fill="#EEF9F3"/>
  <rect x="984" y="500" width="380" height="126" rx="24" fill="#FFF6E8"/>
  <text x="180" y="552" fill="#1263B3" font-family="Inter, Arial, sans-serif" font-size="26" font-weight="800">OOPilot</text>
  <text x="180" y="592" fill="#182033" font-family="Inter, Arial, sans-serif" font-size="30" font-weight="700">Better context handling</text>
  <text x="604" y="552" fill="#168C58" font-family="Inter, Arial, sans-serif" font-size="26" font-weight="800">Connectors</text>
  <text x="604" y="592" fill="#182033" font-family="Inter, Arial, sans-serif" font-size="30" font-weight="700">Clearer node actions</text>
  <text x="1028" y="552" fill="#B76700" font-family="Inter, Arial, sans-serif" font-size="26" font-weight="800">Workflow</text>
  <text x="1028" y="592" fill="#182033" font-family="Inter, Arial, sans-serif" font-size="30" font-weight="700">Smoother daily work</text>

  <rect x="136" y="688" width="1228" height="64" rx="18" fill="#F1F4F8"/>
  <rect x="168" y="712" width="280" height="16" rx="8" fill="#1263B3"/>
  <rect x="480" y="712" width="208" height="16" rx="8" fill="#168C58"/>
  <rect x="720" y="712" width="160" height="16" rx="8" fill="#B76700"/>
  <rect x="912" y="712" width="316" height="16" rx="8" fill="#6C5CE7"/>
</svg>
