<svg width="20" height="20" viewBox="0 0 20 20" fill="none" xmlns="http://www.w3.org/2000/svg">
<g clip-path="url(#clip0_2875_5723)">
<path fill-rule="evenodd" clip-rule="evenodd" d="M4.55243 1.5449C4.50158 1.3279 4.31325 1.17075 4.09064 1.1596C3.86804 1.14844 3.66494 1.28597 3.59265 1.4968L3.44747 1.92023L3.20364 1.68977C3.10287 1.59453 2.96707 1.54541 2.82869 1.55414L2.435 1.57899C2.26879 1.58948 2.11871 1.68204 2.03473 1.82586C1.95074 1.96968 1.94388 2.14588 2.01643 2.29579L2.30746 2.89721L2.3425 3.95156L1.23465 6.10154L0.327364 6.43534C0.123777 6.51024 -0.00828827 6.70787 0.000404709 6.92462C0.00909769 7.14138 0.156566 7.3278 0.365497 7.38616L1.70782 7.76108L2.37391 8.76181L2.76694 10.2784C2.78888 10.3631 2.83264 10.4405 2.89386 10.503L4.11439 11.7484C4.15455 11.7893 4.20146 11.8231 4.25306 11.8482L5.0402 12.2304C4.95598 12.2907 4.8916 12.3765 4.85769 12.4767L4.31247 14.0885C4.23055 14.3307 4.34451 14.5956 4.57664 14.7027L6.3573 15.5243L8.67661 17.0755L10.2555 18.6906C10.3521 18.7894 10.4854 18.8439 10.6237 18.8409L14.5913 18.7561C14.8135 18.7514 15.0059 18.6006 15.0635 18.3859C15.1211 18.1713 15.0301 17.9443 14.8402 17.8289L9.33878 14.4866L10.8373 12.7633C10.8512 12.7473 10.8639 12.7307 10.8755 12.7135L11.0354 12.6509C11.0865 12.631 11.1339 12.6027 11.1759 12.5674L12.107 11.7815C12.1406 11.753 12.1704 11.7203 12.1955 11.6841L13.0036 10.5174L13.3612 10.2772L15.7208 10.638C15.9453 10.6723 16.1647 10.5511 16.2551 10.3428C16.3455 10.1344 16.2841 9.89137 16.1057 9.7509L15.3873 9.18529L16.0247 9.00964L19.5184 8.63296C19.7655 8.60632 19.9555 8.40231 19.9645 8.154C19.9667 8.09224 19.9576 8.03241 19.9389 7.97668C19.9955 7.87526 20.0168 7.7544 19.9924 7.63389C19.9458 7.40319 19.7446 7.23622 19.5093 7.23294L17.4824 7.20468C17.4621 7.2044 17.4418 7.20535 17.4217 7.20753L13.4756 7.63414L7.875 5.61822L6.4814 4.92271L6.1725 4.27545C6.11432 4.15353 6.00927 4.06034 5.88129 4.01711C5.83503 4.00148 5.7872 3.99286 5.7393 3.99113L5.81213 3.77917C5.88204 3.57569 5.81384 3.35091 5.64416 3.22041L5.72963 2.96745C5.79524 2.7733 5.73572 2.55877 5.57947 2.42617C5.42321 2.29356 5.20186 2.26974 5.02096 2.36605L4.77547 2.49676L4.55243 1.5449ZM8.08413 13.1369C8.08617 13.137 8.08821 13.137 8.09025 13.137L8.0966 13.1369H8.65583L8.3398 13.8797L7.40037 13.3089L8.06995 13.1369H8.08413ZM3.34627 4.04835L3.31718 3.17306L3.32507 3.18052C3.44864 3.29731 3.62308 3.3433 3.78817 3.30261C3.83664 3.29067 3.88235 3.27173 3.92415 3.24686L3.95008 3.35754C3.98549 3.50866 4.08906 3.63476 4.23042 3.69885C4.28841 3.72514 4.35007 3.73978 4.41208 3.74286L4.38564 3.82109C4.31762 4.02241 4.38441 4.24388 4.5503 4.37422L4.42008 4.75321C4.35379 4.94614 4.41137 5.16 4.56556 5.29358C4.71975 5.42717 4.93963 5.45367 5.12115 5.36056L5.49163 5.17053L5.65298 5.50864C5.70098 5.60923 5.78122 5.6909 5.88095 5.74067L7.45474 6.5261C7.47225 6.53484 7.49026 6.54254 7.50867 6.54917L13.2454 8.61409C13.3168 8.63978 13.3931 8.64889 13.4685 8.64074L13.9758 8.58589C13.8923 8.65726 13.833 8.75555 13.8104 8.86724C13.7731 9.05213 13.8431 9.24228 13.9913 9.35895L13.9959 9.36261L13.3198 9.25922C13.2906 9.25475 13.2613 9.25291 13.2321 9.25362L10.1905 8.86573C10.143 8.85968 10.095 8.86047 10.0478 8.86807L7.82641 9.22563L6.81626 8.518L6.69809 8.39789L7.92198 8.05745C8.18802 7.98345 8.3437 7.70778 8.2697 7.44174C8.19569 7.1757 7.92003 7.02002 7.65399 7.09403L5.61246 7.6619C5.44188 7.70935 5.30911 7.84348 5.2634 8.01454C5.21769 8.1856 5.26587 8.36808 5.39005 8.49429L6.13552 9.25195C6.15686 9.27364 6.18014 9.29333 6.20506 9.31079L7.41877 10.161C7.52529 10.2356 7.6567 10.2658 7.7851 10.2451L10.1355 9.86682L12.0671 10.1132L11.4112 11.0601L10.5941 11.7498L9.61576 12.1324L8.1441 12.1368L6.25054 11.7065L4.7679 10.9865L3.70148 9.89837L3.32081 8.42944C3.30683 8.37547 3.28392 8.32423 3.25303 8.27782L2.43739 7.05242C2.37102 6.95269 2.27105 6.88012 2.15567 6.84789L1.99118 6.80195C2.00737 6.78019 2.02185 6.75701 2.03442 6.73261L3.29101 4.29398C3.33008 4.21816 3.3491 4.1336 3.34627 4.04835ZM5.4038 13.9831L5.60501 13.3883L12.8551 17.793L10.819 17.8365L9.35534 16.3393C9.33117 16.3146 9.30451 16.2924 9.27578 16.2732L6.88051 14.6712C6.85872 14.6566 6.83581 14.6437 6.812 14.6328L5.4038 13.9831Z" fill="url(#paint0_linear_2875_5723)"/>
</g>
<defs>
<linearGradient id="paint0_linear_2875_5723" x1="0" y1="1.15897" x2="20.1119" y2="18.7155" gradientUnits="userSpaceOnUse">
<stop stop-color="#0D1116"/>
<stop offset="0.15" stop-color="#987DE9"/>
<stop offset="0.39" stop-color="#7D7FE9"/>
<stop offset="0.62" stop-color="white"/>
<stop offset="0.86" stop-color="#7DA6E9"/>
<stop offset="1" stop-color="#0D1116"/>
</linearGradient>
<clipPath id="clip0_2875_5723">
<rect width="20.0024" height="20" fill="white"/>
</clipPath>
</defs>
</svg>
