<?xml version="1.0" encoding="UTF-8"?>
<svg width="1014px" height="758px" viewBox="0 0 1014 758" version="1.1" xmlns="http://www.w3.org/2000/svg" xmlns:xlink="http://www.w3.org/1999/xlink">
    <title>编组 16</title>
    <g id="页面-1" stroke="none" stroke-width="1" fill="none" fill-rule="evenodd">
        <g id="编组-16" transform="translate(0.975210, 0.000000)">
            <g id="编组-6" transform="translate(0.050080, 207.239666)">
                <path d="M0,349.09388 C5.45455,243.11432 93.1087,158.86151 200.44463,158.86151 C206.545,158.86151 212.56894,159.17966 218.5307,159.71251 C266.247853,77.6205543 354.014998,27.0918843 448.967691,27.0469525 C543.920384,27.0020807 631.735278,77.4477205 679.53005,159.49451 C684.55965,159.11674 689.62305,158.86151 694.74924,158.86151 C802.08517,158.86151 889.73932,243.11432 895.19387,349.09388" id="路径" fill="#F2F2F2" fill-rule="nonzero"></path>
                <path d="M41.80613,322.046953 C47.26068,216.067343 134.91483,131.814533 242.25077,131.814533 C248.35113,131.814533 254.37507,132.132683 260.33683,132.665533 C308.053992,50.5735819 395.821143,0.0449214086 490.773835,0 C585.726528,-0.0448615353 673.541417,50.4007877 721.33618,132.447583 C726.36578,132.069813 731.42918,131.814583 736.55537,131.814583 C843.8913,131.814583 931.54546,216.067393 937,322.046953" id="路径" stroke="#3F3D56"></path>
            </g>
            <g id="编组-7" transform="translate(0.000000, 37.000009)">
                <path d="M0,101.96663 C1.68606959,69.749423 28.2999735,44.4914462 60.56127,44.4908399 C62.4044,44.4908399 64.22444,44.5869599 66.02569,44.7479499 C80.4426964,19.9451256 106.960193,4.67866433 135.648693,4.66509 C164.337192,4.65153377 190.869114,19.8929108 205.30957,44.6820899 C206.82919,44.5679599 208.35903,44.4908399 209.90782,44.4908399 C242.169115,44.4914513 268.783015,69.7494253 270.46909,101.96663" id="路径" fill="#F2F2F2" fill-rule="nonzero"></path>
                <path d="M12.63108,97.3015399 C14.3171496,65.084333 40.9310535,39.8263562 73.19235,39.8257499 C75.03548,39.8257499 76.85552,39.9218699 78.65677,40.0828599 C93.0737764,15.2800356 119.591273,0.0135743256 148.279773,-1.13686838e-13 C176.968272,-0.0135562304 203.500194,15.2278208 217.94065,40.0169999 C219.46027,39.9028699 220.99011,39.8257499 222.5389,39.8257499 C254.800195,39.8263613 281.414095,65.0843353 283.10017,97.3015399" id="路径" stroke="#3F3D56"></path>
            </g>
            <g id="编组-8" transform="translate(629.024790, 88.000000)">
                <path d="M-4.54747351e-13,137.966639 C2.28136099,94.3749386 38.2914732,60.1994725 81.94283,60.1986389 C84.4367,60.1986389 86.89931,60.3287089 89.33651,60.5465289 C108.843533,26.9868901 144.723216,6.33049441 183.54039,6.31213012 C222.357564,6.2937903 258.256763,26.9162502 277.79551,60.4574289 C279.85164,60.3029889 281.9216,60.1986389 284.0172,60.1986389 C327.668557,60.1994725 363.678669,94.3749386 365.96003,137.966639" id="路径" fill="#F2F2F2" fill-rule="nonzero"></path>
                <path d="M17.09057,131.654509 C19.371931,88.0628086 55.3820432,53.8873425 99.0334,53.8865089 C101.52726,53.8865089 103.98988,54.0165789 106.42708,54.2343889 C125.934107,20.6747554 161.813789,0.0183642935 200.63096,5.68434189e-14 C239.448131,-0.0183398165 275.347329,20.6041155 294.88608,54.1452889 C296.94221,53.9908589 299.01217,53.8865089 301.10777,53.8865089 C344.759127,53.8873425 380.769239,88.0628086 383.0506,131.654509" id="路径" stroke="#3F3D56"></path>
            </g>
            <g id="编组-15" transform="translate(2.024790, 418.570214)" fill-rule="nonzero">
                <g id="编组-10" transform="translate(195.736550, 0.000000)">
                    <path d="M542.79546,4.22021 L338.03882,4.22021 L338.03882,3.14805 C338.03882,1.40942999 336.62939,0 334.89077,0 L248.34225,0 C246.60365,0 245.19425,1.40944952 245.19425,3.14805 L245.19425,4.22021 L39.59352,4.22021 C31.9442515,4.22021 25.74328,10.4211615 25.74328,18.07043 L25.74328,298.4453 C25.74328,306.094576 31.9442437,312.29554 39.59352,312.29554 L542.7954,312.29554 C550.444706,312.29554 556.6457,306.094556 556.6457,298.44525 L556.6457,18.07043 C556.6457,10.4211615 550.444729,4.22021 542.79546,4.22021 Z" id="路径" fill="#3F3D56"></path>
                    <path d="M50.60824,33.69729 C49.892765,33.69729 49.31235,34.2782047 49.31235,34.99368 L49.31235,300.93557 C49.31235,301.650947 49.8928625,302.23147 50.60824,302.23147 L531.78061,302.23147 C532.496064,302.23147 533.07651,301.651024 533.07651,300.93557 L533.07651,34.99368 C533.07651,34.2781301 532.49616,33.69729 531.78061,33.69729 L50.60824,33.69729 Z" id="路径" fill="#7D7FE9"></path>
                    <circle id="椭圆形" fill="#7D7FE9" cx="290.77246" cy="16.0368" r="5.06425"></circle>
                    <path d="M565.86731,293.39919 L517.67909,293.39919 L517.67909,288.42271 C517.67909,288.14939 517.3709,287.92784 516.99069,287.92784 L500.46902,287.92784 C500.08881,287.92784 499.78061,288.14939 499.78061,288.42271 L499.78061,293.39919 L489.45461,293.39919 L489.45461,288.42271 C489.45461,288.14939 489.14641,287.92784 488.7662,287.92784 L472.24449,287.92784 C471.86428,287.92784 471.55609,288.14939 471.55609,288.42271 L471.55609,293.39919 L461.23004,293.39919 L461.23004,288.42271 C461.23004,288.14939 460.92185,287.92784 460.54164,287.92784 L444.01997,287.92784 C443.63976,287.92784 443.33156,288.14939 443.33156,288.42271 L443.33156,293.39919 L433.00556,293.39919 L433.00556,288.42271 C433.00556,288.14939 432.69736,287.92784 432.31715,287.92784 L415.79544,287.92784 C415.41523,287.92784 415.10704,288.14939 415.10704,288.42271 L415.10704,293.39919 L404.78099,293.39919 L404.78099,288.42271 C404.78099,288.14939 404.4728,287.92784 404.09259,287.92784 L387.57092,287.92784 C387.19071,287.92784 386.88251,288.14939 386.88251,288.42271 L386.88251,293.39919 L376.55651,293.39919 L376.55651,288.42271 C376.55651,288.14939 376.24831,287.92784 375.8681,287.92784 L359.34639,287.92784 C358.96618,287.92784 358.65799,288.14939 358.65799,288.42271 L358.65799,293.39919 L348.33194,293.39919 L348.33194,288.42271 C348.33194,288.14939 348.02375,287.92784 347.64354,287.92784 L218.22377,287.92784 C217.84356,287.92784 217.53536,288.14939 217.53536,288.42271 L217.53536,293.39919 L207.20936,293.39919 L207.20936,288.42271 C207.20936,288.14939 206.90116,287.92784 206.52095,287.92784 L189.99924,287.92784 C189.61903,287.92784 189.31084,288.14939 189.31084,288.42271 L189.31084,293.39919 L178.98479,293.39919 L178.98479,288.42271 C178.98479,288.14939 178.6766,287.92784 178.29639,287.92784 L161.77472,287.92784 C161.39451,287.92784 161.08631,288.14939 161.08631,288.42271 L161.08631,293.39919 L150.76031,293.39919 L150.76031,288.42271 C150.76031,288.14939 150.45211,287.92784 150.0719,287.92784 L133.55019,287.92784 C133.16998,287.92784 132.86179,288.14939 132.86179,288.42271 L132.86179,293.39919 L122.53574,293.39919 L122.53574,288.42271 C122.53574,288.14939 122.22755,287.92784 121.84734,287.92784 L105.32567,287.92784 C104.94546,287.92784 104.63726,288.14939 104.63726,288.42271 L104.63726,293.39919 L94.31126,293.39919 L94.31126,288.42271 C94.31126,288.14939 94.00306,287.92784 93.62285,287.92784 L77.10114,287.92784 C76.72093,287.92784 76.41274,288.14939 76.41274,288.42271 L76.41274,293.39919 L66.08667,293.39919 L66.08667,288.42271 C66.08667,288.14939 65.77848,287.92784 65.39827,287.92784 L48.87662,287.92784 C48.49641,287.92784 48.18821,288.14939 48.18821,288.42271 L48.18821,293.39919 L16.52167,293.39919 C7.39701,293.39919 0,298.71662 0,305.27599 L0,310.64643 C0,317.20577 7.397,322.5232 16.52167,322.5232 L565.86731,322.5232 C574.99197,322.5232 582.38898,317.20577 582.38898,310.64643 L582.38898,305.27602 C582.38898,298.71662 574.99197,293.39919 565.86731,293.39919 Z" id="路径" fill="#3F3D56"></path>
                    <rect id="矩形" fill="#FFFFFF" x="297.32565" y="81.19073" width="182.53915" height="175.81992" rx="3.35962"></rect>
                    <path d="M333.87767,174.24014 C335.121506,152.247241 352.101378,134.38656 374.00333,132.033013 C395.905283,129.679465 416.292228,143.52477 422.18035,164.75128 C422.72559,164.73172 423.27035,164.70981 423.82035,164.70981 C425.696764,164.727701 427.558347,165.044414 429.33511,165.64804 C451.72211,172.99916 445.82706,206.423262 422.26405,206.423262 L364.35507,206.423262 C356.079547,206.44654 348.151131,203.099828 342.395468,197.153639 C336.639805,191.20745 333.552974,183.174284 333.84577,174.90391 C333.85479,174.68299 333.865423,174.461733 333.87767,174.24014 Z" id="路径" fill="#7D7FE9"></path>
                    <polygon id="路径" fill="#FFFFFF" transform="translate(381.700930, 175.482040) scale(1, -1) translate(-381.700930, -175.482040) " points="386.66043 173.53904 386.66043 155.11804 376.74143 155.11804 376.74143 173.53904 368.82243 173.53904 375.26143 184.69304 381.70143 195.84604 388.14043 184.69304 394.57943 173.53904"></polygon>
                </g>
                <g id="编组-12" transform="translate(0.000000, 0.060246)">
                    <polygon id="路径" fill="#A0616A" points="6 321.715562 16.7958637 324.36954 32 283.28702 16.0666411 279.36954"></polygon>
                    <path d="M0,331.04446 L3.41064532,317.36954 L25.1409534,322.461687 C32.7553158,324.254726 37.435368,331.683887 35.6025774,339.068573 L35.5273649,339.36954 L0,331.04446 Z" id="路径" fill="#2F2E41"></path>
                    <polygon id="路径" fill="#A0616A" points="54.0015889 329.36954 65.5208187 329.368753 71 285.36954 54 285.370327"></polygon>
                    <path d="M51,325.370437 L73.0190274,325.36954 L73.0196405,325.36954 C80.7406122,325.36954 87,331.498782 87,339.059782 L87,339.36802 L51.000652,339.36954 L51,325.370437 Z" id="路径" fill="#2F2E41"></path>
                    <polygon id="路径" fill="#2F2E41" points="51.5188906 314.36954 53.3873278 246.60805 50.8705033 219.131242 45.9595249 240.276498 24.499907 309.811788 6 304.974329 27.4254447 229.998903 22.7720107 181.909323 36.1416436 173.36954 36.3220164 173.401923 82 181.768103 70.9656901 312.437433"></polygon>
                    <path d="M69.1133014,191.36954 C65.448512,191.36954 61.1625571,190.189537 56.3916123,186.823493 C41.1248451,176.053787 22.9214955,187.639314 22.7390924,187.756499 L22,188.236976 L22.0259327,187.356257 C22.0444158,186.728842 23.8727578,124.360631 23.8727578,104.291491 C23.8727578,83.5570743 37.406816,68.4180196 41.5550101,64.2721993 C45.6263198,60.2021267 49.0521321,60.292267 53.3888045,60.4049482 C54.1360101,60.4238832 54.9150049,60.4446133 55.7343627,60.4446133 C61.4015576,60.4446133 66.9113605,65.8867084 67.1431458,66.1183851 L67.2538496,66.2292633 L67.2743708,66.384318 L83,184.733018 L82.8795978,184.885364 C82.806774,184.978213 77.6428335,191.36954 69.1133014,191.36954 Z" id="路径" fill="#CCCCCC"></path>
                    <circle id="椭圆形" fill="#A0616A" transform="translate(58.428455, 30.697810) rotate(-61.336800) translate(-58.428455, -30.697810) " cx="58.4284546" cy="30.6978097" r="22.6199123"></circle>
                    <path d="M93.173473,209.401582 C91.0410057,207.740048 89.7500464,205.214165 89.647969,202.503602 C89.5458917,199.793039 90.6431822,197.176236 92.6445792,195.357327 L80,165.36954 L96.5562166,168.433215 L106.025463,196.440433 C108.904962,200.103876 108.604153,205.353745 105.325273,208.660476 C102.046394,211.967207 96.8258456,212.285594 93.1734807,209.401582 L93.173473,209.401582 Z" id="路径" fill="#A0616A"></path>
                    <path d="M89.0930043,192.36954 L66.0874435,145.140383 L56,109.593828 L56.0080268,78.7138508 C56.0307564,78.5918456 58.4021674,66.5800278 67.191681,67.4107168 C75.161792,68.18758 79.4543888,72.1095895 81.5449474,80.5250403 C83.3208718,87.6738593 80.892,108.882449 80.6568772,110.883824 C82.1990217,114.563617 105.336067,170.041364 101.505658,176.721875 C101.362365,176.982189 101.153548,177.199991 100.900169,177.353416 L105,186.064008 L89.0930043,192.36954 Z" id="路径" fill="#CCCCCC"></path>
                    <path d="M55.3584577,38.8830229 C58.0493574,39.2389945 60.0791818,36.439831 61.0206265,33.8523193 C61.9620713,31.2648076 62.6794045,28.2524131 65.018948,26.8546895 C68.2152638,24.945125 72.304811,27.2418286 75.95996,26.6117994 C80.0877672,25.900304 82.7716038,21.452623 82.9819446,17.2014146 C83.1922853,12.9502062 81.5282835,8.86143517 79.8955788,4.94185832 L79.3255823,9.81301578 C79.4805639,6.45582743 77.9081038,3.25805073 75.173626,1.36954 L75.9083002,8.51719362 C75.5925396,6.5255111 74.509499,4.74372542 72.8986237,3.56576455 C71.2877483,2.38780367 69.2817248,1.91069534 67.3240569,2.23992156 L67.439764,6.49875881 C62.6721481,5.92237518 57.8628721,5.3451823 53.0811454,5.78430143 C48.2994187,6.22342057 43.4842928,7.76157496 39.8601397,10.9632768 C34.4389829,15.7525202 32.4590564,23.6385784 33.1237639,30.9089617 C33.7884713,38.1793449 36.7403979,45.0093362 39.8169726,51.607154 C40.5910427,53.2671816 41.6616949,55.1404087 43.4566507,55.351872 C45.0694256,55.5418707 46.5451571,54.1711977 47.046516,52.6011922 C47.432811,50.9902873 47.4178494,49.3068668 47.0029857,47.703322 C46.5493687,45.2527369 45.9776102,42.7479249 46.4040876,40.2923194 C46.8305649,37.8367139 48.5681037,35.4100997 51.0028528,35.1091643 C53.4376019,34.8082289 55.9289101,37.6376957 54.7583385,39.8289624 L55.3584577,38.8830229 Z" id="路径" fill="#2F2E41"></path>
                </g>
                <g id="编组-13" transform="translate(829.000000, 0.429786)">
                    <path d="M112.779366,185.332523 C111.318007,183.623947 110.669569,181.339225 111.008534,179.093133 C111.347499,176.847041 112.639048,174.870306 114.535649,173.694829 L109,147 L121.874596,152.173793 L125.157533,176.730469 C126.910169,180.205568 125.851655,184.475961 122.69365,186.670582 C119.535644,188.865203 115.276348,188.290363 112.779366,185.332538 L112.779366,185.332523 Z" id="路径" fill="#FFB8B8"></path>
                    <path d="M111.17517,164 L111.102763,163.734882 C103.807742,137.044003 96.2668654,109.452699 87.0603945,79.4107857 L87,79.2139871 L87.2030998,79.0967803 C92.3345491,76.1347413 100.047337,76.3319877 105.1435,79.5551304 C109.869006,82.565778 112.189719,88.1760844 110.953166,93.5999576 L117.667915,128.232567 C120.397859,139.553313 123.223172,151.271276 125.923426,162.825462 L126,163.153017 L125.58182,163.179429 C120.665256,163.488702 115.585779,163.808567 111.516245,163.985153 L111.17517,164 Z" id="路径" fill="#CCCCCC"></path>
                    <polygon id="路径" fill="#FFB8B8" points="50 308 40.5139825 308 36 271 50 271"></polygon>
                    <path d="M52,316 L22,316 L22,315.622326 C22.0073149,309.206428 27.2311378,304.007164 33.6772238,304 L52,304 L52,316 Z" id="路径" fill="#2F2E41"></path>
                    <polygon id="路径" fill="#FFB8B8" points="139 299.100414 129.757326 302 114 268.280044 127.640895 264"></polygon>
                    <path d="M114.683028,316 L114.565012,315.648789 C112.564956,309.682474 116.043122,303.309194 122.340109,301.401949 L140.245755,296 L144,307.155102 L114.683028,316 Z" id="路径" fill="#2F2E41"></path>
                    <circle id="椭圆形" fill="#FFB8B8" cx="91" cy="36" r="19"></circle>
                    <path d="M98.9973634,33.4048159 C99.1050067,25.5479493 95.9081533,17.7667379 90.9653031,13.8545714 C86.1613902,9.93985005 79.3371064,10.0638922 74.6706671,14.1507522 C69.8043547,18.241211 66.7573615,26.1359172 67.0151735,33.9861454 C77.9188592,34.0180604 88.822545,34.0499436 98.9973634,33.4048159 Z" id="路径" fill="#2F2E41"></path>
                    <path d="M54.5409494,295 L54.162414,294.96309 C45.9513667,294.155553 37.4606482,293.321659 29.4364205,293.225954 L29,293.220686 L29.0595787,292.787536 C30.9607089,278.99093 31.7666499,264.648183 32.5460849,250.777 C33.3157505,237.080581 34.1113447,222.918251 35.9649289,209.467406 C36.7490601,205.865518 37.5132752,202.306573 38.2748574,198.760441 C44.5764986,169.415036 50.5287432,141.696792 62.8151475,114.259136 L62.9313026,114 L63.2126675,114.033902 C74.7406922,115.431633 85.8180003,119.645953 94.4034489,125.900189 L94.5697905,126.021094 L94.5617071,126.227121 C94.39612,130.488888 94.2247128,134.894533 94.4784478,138.907748 C102.378721,149.907146 104.647454,163.992369 100.601722,176.923558 C103.982228,188.243712 107.477187,199.945403 111.043203,211.488523 C119.702896,235.276467 128.663678,259.893414 137.849263,284.847082 L138,285.256119 L137.576167,285.355557 C130.967216,286.910355 124.149645,288.513372 117.423977,289.135594 L117.170058,289.158943 L117.049391,288.933702 C99.8979815,256.952428 85.9498572,223.347754 75.409238,188.611696 C73.1139675,195.62525 69.8075217,201.955945 66.6042588,208.088134 C63.5407419,213.665518 60.8450745,219.437952 58.5345638,225.368376 C57.1168458,237.032401 56.7407508,249.669684 56.377443,261.890403 C56.0336817,273.445201 55.7090896,284.358949 54.5826907,294.621093 L54.5409494,295 Z" id="路径" fill="#2F2E41"></path>
                    <path d="M84.7451513,13.6766228 C92.8312671,11.8987506 101.775547,13.5901676 108.125838,19.1576719 C114.476128,24.7251763 117.700891,34.3567771 115.092083,42.6170712 C112.483276,50.8773653 103.626153,56.6892755 95.6177608,54.556142 C97.9118233,47.9581986 95.330139,39.8574597 89.7221446,36.0569994 C83.0715325,31.5499385 81.2406286,20.7896928 84.7451513,13.6766228 Z" id="路径" fill="#2F2E41"></path>
                    <path d="M94.8532122,127 L94.553961,126.86255 C84.1171021,122.057578 73.8832354,118.370741 64.2947633,115.006882 L64.0007685,114.942892 L64,114.082612 L64.1908042,114.149635 C64.2309493,114.060279 64.2761663,113.958802 64.3215677,113.857706 C64.4525232,113.565357 64.5418275,113.366227 64.6178141,113.234453 L64.6157546,113.233321 C65.415182,111.589634 66.0506326,110.001206 66.6650731,108.465075 C67.2992173,106.879702 67.9538029,105.242831 68.7995769,103.51092 C64.609258,99.2705723 63.3176738,92.9225556 65.5133007,87.3591755 C67.6314821,82.2933155 73.0321819,78.3478627 78.706804,77.6931888 C80.7861468,71.9170001 85.4193185,59.7800037 85.4193185,59.7800037 C85.4193185,59.7800037 95.1621922,59.5100275 99.0803533,59.0083284 L99.1462038,59 L99.2109323,59.0143848 C107.764701,60.9057306 114.905916,69.0733977 116.576815,78.8768269 C117.98731,87.1509181 115.84549,96.6150838 110.54629,105.526052 C107.827509,109.883752 104.821248,114.051921 101.547875,118.00232 C99.1609969,121.014042 96.906642,123.858404 95.0342337,126.723215 L94.8532122,127 Z" id="路径" fill="#CCCCCC"></path>
                    <path d="M112.797538,24.8688198 C106.974141,23.9999864 102.40188,18.0501298 103.063831,12.202392 C103.725782,6.35465418 109.512446,1.576254 115.382852,2.02984091 C121.253259,2.48342782 126.236421,8.09397676 125.991326,13.973924 C125.746231,19.8538712 120.232754,25.978138 112.797538,24.8688198 Z" id="路径" fill="#2F2E41"></path>
                    <path d="M112.004364,22.0745946 C106.246876,21.1960836 101.726326,15.1798835 102.380823,9.26698797 C102.960996,5.17905083 105.551325,1.6807773 109.242653,0 C104.599511,1.03883409 100.603497,5.17469573 100.063115,10.0567176 C99.4086176,15.9696132 103.929168,21.9858132 109.686656,22.8643243 C111.832117,23.2084976 114.02924,22.8943768 116,21.9617107 C114.685504,22.2438224 113.332097,22.2820586 112.004364,22.0745946 L112.004364,22.0745946 Z" id="路径" fill="#2F2E41"></path>
                    <path d="M1.0437349,123.44533 C2.1905492,121.460591 4.18443964,120.070703 6.48888554,119.649659 C8.79333144,119.228616 11.1716115,119.819668 12.9837726,121.263775 L37,107 L36.5063417,121.190342 L13.7758006,132.559976 C11.0132502,135.415925 6.48595585,135.815551 3.2376759,133.490178 C-0.0106040526,131.164805 -0.953145249,126.849444 1.0437349,123.445368 L1.0437349,123.44533 Z" id="路径" fill="#FFB8B8"></path>
                    <path d="M20,114.316815 L20.226062,114.159356 C42.9830883,98.3018481 66.5079118,81.9096065 91.7940137,63.1231481 L91.9596351,63 L92.1370435,63.1519131 C96.6202133,66.9898622 98.9758096,74.3233962 97.6167357,80.2100235 C96.3358202,85.6758511 91.8118414,89.7508666 86.2914112,90.4114138 L55.8566745,108.395323 C46.0844129,114.778029 35.9691446,121.384288 25.9671003,127.817606 L25.6835541,128 L25.5208583,127.614871 C23.6091961,123.086492 21.6338589,118.408165 20.1263928,114.63319 L20,114.316815 Z" id="路径" fill="#CCCCCC"></path>
                </g>
                <g id="编组-14" transform="translate(294.000000, 138.429786)" fill="#FFFFFF">
                    <polygon id="路径" points="119 54.7585989 142.606066 31 119 7.24140114 126.196967 0 157 31 126.196967 62 119 54.7585989"></polygon>
                    <rect id="矩形" x="51" y="22" width="10" height="10"></rect>
                    <rect id="矩形" x="90" y="22" width="10" height="10"></rect>
                    <rect id="矩形" x="70" y="22" width="10" height="10"></rect>
                    <polygon id="路径" points="38 54.7585989 14.3699209 31 37.9759872 7.24140114 30.7790204 0 0 31 30.8030332 62"></polygon>
                </g>
            </g>
            <g id="编组-9" transform="translate(365.024790, -0.000000)" fill-rule="nonzero">
                <path d="M239.982955,93 L7.01704545,93 C3.14349774,92.9954963 0.00448551507,89.8437755 0,85.9545455 L0,7.04545455 C0.00449323156,3.15622767 3.14350095,0.00451142278 7.01704545,0 L239.982955,0 C243.856525,0.00444943926 246.995569,3.15620195 247,7.04545455 L247,85.9545455 C246.995569,89.843798 243.856525,92.9955506 239.982955,93 L239.982955,93 Z" id="路径" fill="#3F3D56"></path>
                <rect id="矩形" fill="#FFFFFF" x="37" y="21" width="62" height="7"></rect>
                <circle id="椭圆形" fill="#7D7FE9" cx="178.5" cy="24.5" r="4.5"></circle>
                <circle id="椭圆形" fill="#7D7FE9" cx="193.5" cy="24.5" r="4.5"></circle>
                <circle id="椭圆形" fill="#7D7FE9" cx="206.5" cy="24.5" r="4.5"></circle>
                <path d="M239.982955,193 L7.01704545,193 C3.14349774,192.995496 0.00448551507,189.843776 0,185.954545 L0,107.045455 C0.00449323156,103.156228 3.14350095,100.004511 7.01704545,100 L239.982955,100 C243.856525,100.004449 246.995569,103.156202 247,107.045455 L247,185.954545 C246.995569,189.843798 243.856525,192.995551 239.982955,193 L239.982955,193 Z" id="路径" fill="#3F3D56"></path>
                <rect id="矩形" fill="#FFFFFF" x="37" y="121" width="62" height="7"></rect>
                <circle id="椭圆形" fill="#7D7FE9" cx="178.5" cy="124.5" r="4.5"></circle>
                <circle id="椭圆形" fill="#7D7FE9" cx="193.5" cy="124.5" r="4.5"></circle>
                <circle id="椭圆形" fill="#7D7FE9" cx="206.5" cy="124.5" r="4.5"></circle>
                <path d="M239.982955,292 L7.01704545,292 C3.14349774,291.995496 0.00448551507,288.843776 0,284.954545 L0,206.045455 C0.00449323156,202.156228 3.14350095,199.004511 7.01704545,199 L239.982955,199 C243.856525,199.004449 246.995569,202.156202 247,206.045455 L247,284.954545 C246.995569,288.843798 243.856525,291.995551 239.982955,292 L239.982955,292 Z" id="路径" fill="#3F3D56"></path>
                <rect id="矩形" fill="#FFFFFF" x="37" y="220" width="62" height="7"></rect>
                <circle id="椭圆形" fill="#7D7FE9" cx="178.5" cy="224.5" r="4.5"></circle>
                <circle id="椭圆形" fill="#7D7FE9" cx="193.5" cy="224.5" r="4.5"></circle>
                <circle id="椭圆形" fill="#7D7FE9" cx="206.5" cy="224.5" r="4.5"></circle>
            </g>
        </g>
    </g>
</svg>