<svg width="40" height="40" viewBox="0 0 40 40" fill="none" xmlns="http://www.w3.org/2000/svg">
<path d="M4.625 3.5H23.375C24.824 3.5 26 4.676 26 6.125V20.375C26 21.0712 25.7234 21.7389 25.2312 22.2312C24.7389 22.7234 24.0712 23 23.375 23H14.0915L10.2305 26.8595C9.92458 27.1643 9.53528 27.3716 9.11168 27.4555C8.68808 27.5394 8.24913 27.4959 7.85017 27.3307C7.45121 27.1655 7.11009 26.8858 6.86982 26.527C6.62954 26.1682 6.50086 25.7463 6.5 25.3145V23H4.625C3.92881 23 3.26113 22.7234 2.76884 22.2312C2.27656 21.7389 2 21.0712 2 20.375V6.125C2 4.676 3.176 3.5 4.625 3.5ZM4.25 6.125V20.375C4.25 20.582 4.418 20.75 4.625 20.75H7.625C7.92337 20.75 8.20952 20.8685 8.4205 21.0795C8.63147 21.2905 8.75 21.5766 8.75 21.875V25.16L12.83 21.08C12.9343 20.9754 13.0582 20.8925 13.1946 20.8358C13.3311 20.7792 13.4773 20.75 13.625 20.75H23.375C23.4745 20.75 23.5698 20.7105 23.6402 20.6402C23.7105 20.5698 23.75 20.4745 23.75 20.375V6.125C23.75 6.02554 23.7105 5.93016 23.6402 5.85984C23.5698 5.78951 23.4745 5.75 23.375 5.75H4.625C4.52554 5.75 4.43016 5.78951 4.35984 5.85984C4.28951 5.93016 4.25 6.02554 4.25 6.125Z" fill="white"/>
<path d="M35.75 15.125C35.75 15.0255 35.7105 14.9302 35.6402 14.8598C35.5698 14.7895 35.4745 14.75 35.375 14.75H30.125C29.8266 14.75 29.5405 14.6315 29.3295 14.4205C29.1185 14.2095 29 13.9234 29 13.625C29 13.3266 29.1185 13.0405 29.3295 12.8295C29.5405 12.6185 29.8266 12.5 30.125 12.5H35.375C36.824 12.5 38 13.676 38 15.125V29.375C38 30.0712 37.7234 30.7389 37.2312 31.2312C36.7389 31.7234 36.0712 32 35.375 32H33.5V34.3145C33.4998 34.7466 33.3716 35.169 33.1314 35.5283C32.8913 35.8876 32.55 36.1676 32.1507 36.3329C31.7515 36.4983 31.3122 36.5415 30.8883 36.4573C30.4645 36.373 30.0751 36.165 29.7695 35.8595L25.9085 32H18.125C17.4288 32 16.7611 31.7234 16.2688 31.2312C15.7766 30.7389 15.5 30.0712 15.5 29.375V27.1775C15.5 26.8791 15.6185 26.593 15.8295 26.382C16.0405 26.171 16.3266 26.0525 16.625 26.0525C16.9234 26.0525 17.2095 26.171 17.4205 26.382C17.6315 26.593 17.75 26.8791 17.75 27.1775V29.375C17.75 29.582 17.918 29.75 18.125 29.75H26.375C26.6733 29.7503 26.9592 29.869 27.17 30.08L31.25 34.16V30.875C31.25 30.5766 31.3685 30.2905 31.5795 30.0795C31.7905 29.8685 32.0766 29.75 32.375 29.75H35.375C35.4745 29.75 35.5698 29.7105 35.6402 29.6402C35.7105 29.5698 35.75 29.4745 35.75 29.375V15.125Z" fill="white"/>
</svg>
