<svg width="40" height="40" viewBox="0 0 40 40" fill="none" xmlns="http://www.w3.org/2000/svg">
<path d="M26.6868 29.8889C26.6296 29.9456 26.5856 30.0141 26.5577 30.0897C26.5298 30.1652 26.5187 30.246 26.5253 30.3262C26.5319 30.4065 26.5559 30.4844 26.5957 30.5544C26.6356 30.6243 26.6902 30.6848 26.7559 30.7314C27.9542 31.8538 28.7256 33.3575 28.9382 34.9855C29.0486 35.3907 29.2675 35.758 29.5712 36.0478C29.875 36.3377 30.2522 36.5392 30.662 36.6305C31.0718 36.7218 31.4988 36.6995 31.8969 36.566C32.295 36.4325 32.6492 36.1929 32.9211 35.873C33.193 35.553 33.3725 35.1649 33.4401 34.7505C33.5077 34.3361 33.4609 33.9111 33.3048 33.5213C33.1486 33.1316 32.8891 32.7918 32.554 32.5387C32.219 32.2856 31.8212 32.1287 31.4036 32.085C29.8872 31.8015 28.505 31.0303 27.4672 29.8889C27.3636 29.7856 27.2233 29.7275 27.077 29.7275C26.9307 29.7275 26.7904 29.7856 26.6868 29.8889Z" fill="#FB6500"/>
<path d="M36.0513 26.2357C35.6776 26.6086 35.4435 27.0987 35.3884 27.6238C35.1081 29.1418 34.3394 30.5266 33.1992 31.5671C33.1431 31.6209 33.0989 31.6858 33.0696 31.7578C33.0403 31.8298 33.0265 31.9071 33.0291 31.9848C33.0317 32.0624 33.0507 32.1387 33.0848 32.2085C33.1189 32.2783 33.1673 32.3402 33.2269 32.39C33.2865 32.4399 33.356 32.4766 33.4307 32.4977C33.5055 32.5189 33.5839 32.5241 33.6608 32.5129C33.7377 32.5017 33.8113 32.4744 33.877 32.4329C33.9426 32.3913 33.9987 32.3363 34.0417 32.2716C35.1637 31.0727 36.6676 30.3013 38.2958 30.0893C38.6373 29.9968 38.953 29.8271 39.2184 29.5932C39.4838 29.3592 39.6919 29.0674 39.8264 28.7402C39.961 28.413 40.0185 28.0592 39.9945 27.7062C39.9705 27.3532 39.8656 27.0105 39.688 26.7045C39.5103 26.3986 39.2646 26.1376 38.97 25.9417C38.6753 25.7459 38.3396 25.6205 37.9887 25.5752C37.6378 25.5298 37.2812 25.5658 36.9465 25.6804C36.6117 25.7949 36.3078 25.9849 36.0583 26.2357H36.0513Z" fill="#0082EF"/>
<path d="M29.553 19.7303C29.2457 20.0383 29.0318 20.427 28.936 20.8514C28.8402 21.2758 28.8664 21.7186 29.0115 22.1288C29.1567 22.539 29.4149 22.8997 29.7563 23.1694C30.0978 23.4391 30.5085 23.6067 30.9412 23.6529C32.4591 23.9332 33.8439 24.7019 34.8845 25.8421C34.9382 25.8982 35.0032 25.9424 35.0751 25.9717C35.1471 26.001 35.2244 26.0148 35.3021 26.0121C35.3797 26.0095 35.456 25.9906 35.5258 25.9565C35.5956 25.9224 35.6575 25.874 35.7073 25.8144C35.7572 25.7547 35.7939 25.6853 35.8151 25.6105C35.8362 25.5358 35.8414 25.4574 35.8302 25.3805C35.819 25.3036 35.7918 25.2299 35.7502 25.1643C35.7086 25.0987 35.6536 25.0425 35.5889 24.9996C34.3905 23.8772 33.6192 22.3735 33.4066 20.7455C33.2989 20.3569 33.0913 20.0034 32.8044 19.7201C32.5174 19.4369 32.1613 19.2337 31.7714 19.131C31.3815 19.0283 30.9715 19.0296 30.5823 19.1347C30.1931 19.2399 29.8382 19.4452 29.553 19.7303Z" fill="#2DBC00"/>
<path d="M28.421 23.3353L28.3796 23.3767C27.2537 24.6169 25.7241 25.4172 24.0633 25.635C23.6716 25.7382 23.3142 25.9433 23.0274 26.2295C22.7407 26.5158 22.535 26.8728 22.4311 27.2644C22.3273 27.656 22.329 28.0681 22.4362 28.4588C22.5434 28.8495 22.7521 29.2048 23.0413 29.4885C23.3493 29.7958 23.7379 30.0097 24.1624 30.1055C24.5868 30.2013 25.0296 30.1752 25.4398 30.03C25.85 29.8849 26.2107 29.6267 26.4804 29.2852C26.7501 28.9438 26.9177 28.5331 26.9639 28.1004C27.2465 26.5817 28.0177 25.197 29.16 24.1571C29.269 24.0591 29.3346 23.9219 29.3423 23.7755C29.3501 23.6292 29.2994 23.4857 29.2014 23.3767C29.1034 23.2677 28.9662 23.2022 28.8198 23.1944C28.6735 23.1866 28.53 23.2373 28.421 23.3353Z" fill="#FFCC00"/>
<path d="M14.4841 3.42522C10.3474 3.88099 6.59741 5.64893 3.90407 8.41134C2.83363 9.50251 1.96347 10.7318 1.32123 12.0439C0.319563 14.0601 -0.125954 16.3071 0.0306498 18.553C0.187253 20.7989 0.940305 22.9623 2.21209 24.82C2.94414 25.925 4.14577 27.3062 5.24382 28.2868L4.74661 32.1956L4.69134 32.3614C4.67752 32.4097 4.67752 32.465 4.67064 32.5133L4.65681 32.6376L4.67064 32.7619C4.68891 32.9737 4.76061 33.1775 4.87903 33.354C4.99746 33.5306 5.15873 33.6742 5.34777 33.7715C5.53681 33.8688 5.74743 33.9165 5.95994 33.9103C6.17245 33.904 6.3799 33.8439 6.56288 33.7357H6.58358L6.65955 33.6804L7.8474 33.0865L11.3902 31.3048C13.0737 31.7887 14.818 32.0283 16.5697 32.0161C18.7357 32.021 20.886 31.647 22.9232 30.9111C22.4269 30.7473 22.0012 30.4193 21.7163 29.9812C21.4313 29.5431 21.3041 29.021 21.3555 28.5009C19.2486 29.1783 17.0216 29.3996 14.8225 29.1501L14.4703 29.1017C13.6763 28.9981 12.8914 28.8342 12.1222 28.6114C11.9148 28.547 11.6964 28.5253 11.4803 28.5479C11.2642 28.5704 11.055 28.6367 10.8653 28.7426L10.7687 28.791L7.85435 30.5036L7.73002 30.5796C7.66096 30.6211 7.62643 30.6349 7.5919 30.6349C7.54 30.6313 7.49151 30.6077 7.45671 30.5691C7.42191 30.5304 7.40351 30.4797 7.40542 30.4277L7.51593 29.9788L7.64717 29.4885L7.85435 28.6805L8.09606 27.7827C8.1746 27.5382 8.17417 27.2752 8.09483 27.031C8.01549 26.7868 7.86127 26.5738 7.65405 26.4222C6.50868 25.572 5.51421 24.5355 4.71211 23.3559C3.7067 21.8936 3.11002 20.1893 2.98375 18.4191C2.85748 16.649 3.2062 14.8772 3.99386 13.287C4.51873 12.2373 5.20933 11.2635 6.06566 10.3865C8.27559 8.10748 11.3833 6.65722 14.8225 6.2843C16.0113 6.15315 17.211 6.15315 18.3998 6.2843C21.8183 6.67792 24.9122 8.14892 27.1083 10.4141C27.9577 11.2912 28.6483 12.2787 29.1594 13.3284C29.8431 14.7235 30.1884 16.2013 30.1884 17.7137C30.1884 17.8726 30.1745 18.0314 30.1676 18.1833C30.6081 17.9121 31.1271 17.7973 31.6409 17.8574C32.1547 17.9176 32.6332 18.1492 32.9991 18.5148L33.1027 18.6391C33.2799 16.3835 32.8457 14.1219 31.8458 12.0923C31.1913 10.754 30.3288 9.52798 29.2906 8.45969C26.4638 5.61804 22.7397 3.84381 18.752 3.43901C17.3342 3.27767 15.9029 3.27307 14.4841 3.42522Z" fill="#0082EF"/>
</svg>
