<svg width="41" height="31" viewBox="0 0 41 31" fill="none" xmlns="http://www.w3.org/2000/svg">
<path d="M34.3617 2.92604C31.8122 1.75623 29.0783 0.894375 26.2198 0.400752C26.1678 0.391226 26.1158 0.415033 26.089 0.46265C25.7374 1.08801 25.3479 1.90384 25.0752 2.54508C22.0007 2.0848 18.942 2.0848 15.9305 2.54508C15.6577 1.88959 15.2541 1.08801 14.901 0.46265C14.8741 0.416622 14.8221 0.392814 14.7701 0.400752C11.9132 0.892797 9.17927 1.75466 6.62823 2.92604C6.60614 2.93556 6.58721 2.95144 6.57465 2.97206C1.38899 10.7193 -0.0315838 18.2762 0.6653 25.7393C0.668453 25.7758 0.68895 25.8108 0.71733 25.833C4.13868 28.3455 7.45285 29.8709 10.7055 30.8819C10.7575 30.8978 10.8127 30.8788 10.8458 30.8359C11.6152 29.7852 12.3011 28.6773 12.8891 27.5122C12.9238 27.444 12.8907 27.3631 12.8198 27.3361C11.7319 26.9234 10.696 26.4202 9.69955 25.8489C9.62073 25.8028 9.61442 25.6901 9.68693 25.6361C9.89662 25.479 10.1064 25.3155 10.3066 25.1504C10.3428 25.1203 10.3933 25.1139 10.4359 25.133C16.9821 28.1218 24.0692 28.1218 30.5383 25.133C30.5808 25.1123 30.6313 25.1187 30.6691 25.1489C30.8694 25.3139 31.0791 25.479 31.2904 25.6361C31.3629 25.6901 31.3581 25.8028 31.2793 25.8489C30.2829 26.4313 29.247 26.9234 28.1575 27.3345C28.0866 27.3615 28.055 27.444 28.0897 27.5122C28.6904 28.6757 29.3763 29.7836 30.1315 30.8343C30.163 30.8788 30.2198 30.8978 30.2718 30.8819C33.5402 29.8709 36.8544 28.3455 40.2757 25.833C40.3057 25.8108 40.3246 25.7774 40.3278 25.7409C41.1618 17.1127 38.9308 9.61781 34.4137 2.97364C34.4026 2.95144 34.3838 2.93556 34.3617 2.92604ZM13.8667 21.195C11.8958 21.195 10.2719 19.3856 10.2719 17.1635C10.2719 14.9414 11.8643 13.132 13.8667 13.132C15.8848 13.132 17.493 14.9572 17.4615 17.1635C17.4615 19.3856 15.869 21.195 13.8667 21.195ZM27.1579 21.195C25.1871 21.195 23.5632 19.3856 23.5632 17.1635C23.5632 14.9414 25.1556 13.132 27.1579 13.132C29.1761 13.132 30.7842 14.9572 30.7527 17.1635C30.7527 19.3856 29.1761 21.195 27.1579 21.195Z" fill="#717BF8"/>
</svg>
