<svg width="37" height="36" viewBox="0 0 37 36" fill="none" xmlns="http://www.w3.org/2000/svg">
<path fill-rule="evenodd" clip-rule="evenodd" d="M18.5149 0.299927C8.55312 0.299927 0.5 8.41242 0.5 18.4487C0.5 26.4712 5.65991 33.2621 12.8181 35.6656C13.713 35.8463 14.0409 35.2751 14.0409 34.7946C14.0409 34.3739 14.0114 32.9317 14.0114 31.429C9.00005 32.5109 7.95649 29.2656 7.95649 29.2656C7.15114 27.1622 5.95786 26.6216 5.95786 26.6216C4.31766 25.5099 6.07734 25.5099 6.07734 25.5099C7.89675 25.6301 8.85144 27.3728 8.85144 27.3728C10.4618 30.1369 13.0567 29.3559 14.1006 28.8751C14.2496 27.7032 14.7271 26.8919 15.2341 26.4413C11.2373 26.0206 7.03203 24.4582 7.03203 17.487C7.03203 15.5038 7.74741 13.8813 8.88094 12.6195C8.7021 12.1689 8.07559 10.3056 9.06015 7.81173C9.06015 7.81173 10.5812 7.33088 14.011 9.67465C15.4794 9.27738 16.9937 9.07529 18.5149 9.07359C20.036 9.07359 21.5866 9.28414 23.0184 9.67465C26.4485 7.33088 27.9696 7.81173 27.9696 7.81173C28.9542 10.3056 28.3273 12.1689 28.1485 12.6195C29.3119 13.8813 29.9978 15.5038 29.9978 17.487C29.9978 24.4582 25.7925 25.9903 21.7658 26.4413C22.4222 27.0121 22.9886 28.0937 22.9886 29.8065C22.9886 32.2403 22.9591 34.1935 22.9591 34.7942C22.9591 35.2751 23.2873 35.8463 24.1818 35.666C31.34 33.2617 36.4999 26.4712 36.4999 18.4487C36.5294 8.41242 28.4468 0.299927 18.5149 0.299927Z" fill="white"/>
</svg>
