<svg width="40" height="30" viewBox="0 0 40 30" fill="none" xmlns="http://www.w3.org/2000/svg">
<path d="M39.6016 7.00012C39.6016 7.00012 39.2109 4.24231 38.0078 3.03137C36.4844 1.43762 34.7812 1.42981 34 1.33606C28.4063 0.929809 20.0078 0.92981 20.0078 0.92981H19.9922C19.9922 0.92981 11.5938 0.929809 6 1.33606C5.21875 1.42981 3.51562 1.43762 1.99219 3.03137C0.789063 4.24231 0.40625 7.00012 0.40625 7.00012C0.40625 7.00012 0 10.2423 0 13.4767V16.5079C0 19.7423 0.398437 22.9845 0.398437 22.9845C0.398437 22.9845 0.789062 25.7423 1.98437 26.9532C3.50781 28.547 5.50781 28.4923 6.39844 28.6642C9.60156 28.9689 20 29.0626 20 29.0626C20 29.0626 28.4063 29.047 34 28.6486C34.7812 28.5548 36.4844 28.547 38.0078 26.9532C39.2109 25.7423 39.6016 22.9845 39.6016 22.9845C39.6016 22.9845 40 19.7501 40 16.5079V13.4767C40 10.2423 39.6016 7.00012 39.6016 7.00012ZM15.8672 20.1876V8.94543L26.6719 14.5861L15.8672 20.1876Z" fill="#FF0032"/>
</svg>
