<?xml version="1.0" encoding="UTF-8"?>
<svg width="831px" height="519px" viewBox="0 0 831 519" version="1.1" xmlns="http://www.w3.org/2000/svg" xmlns:xlink="http://www.w3.org/1999/xlink">
    <title>编组 4</title>
    <g id="页面-1" stroke="none" stroke-width="1" fill="none" fill-rule="evenodd">
        <g id="编组-4" transform="translate(-0.000000, 0.000000)" fill-rule="nonzero">
            <ellipse id="椭圆形" fill="#E6E6E6" cx="118" cy="509.23259" rx="118" ry="9"></ellipse>
            <path d="M156.218,114.46084 L109.14217,101.62198 C121.71269,89.75998 127.181093,78.5854133 125.54738,68.09828 L156.218,68.09828 L156.218,114.46084 Z" id="路径" fill="#9F616A"></path>
            <polygon id="路径" fill="#2F2E41" points="161.211 475.37602 146.005 477.51502 127.687 309.18402 98.443 476.80202 82.751 477.51502 82.751 264.96102 179.756 264.96102"></polygon>
            <path d="M90.64831,509.30938 L90.64831,509.30938 C95.559571,509.449699 99.9346924,506.225817 101.25538,501.49338 L102.3661,484.91859 L100.12704,473.16353 C94.21952,468.30864 88.24728,468.40977 82.21458,473.16353 L80.291,497.78547 C80.0629265,500.704793 81.0417739,503.589958 82.9991646,505.76782 C84.9565553,507.945682 87.7212861,509.225755 90.64831,509.30938 L90.64831,509.30938 Z" id="路径" fill="#2F2E41"></path>
            <path d="M153.41608,509.30938 L153.41608,509.30938 C158.327341,509.449699 162.702462,506.225817 164.02315,501.49338 L165.13387,484.91859 L162.89482,473.16353 C156.98729,468.30864 151.01506,468.40977 144.98235,473.16353 L143.05876,497.78548 C142.830692,500.704802 143.809543,503.589965 145.766935,505.767824 C147.724327,507.945684 150.489057,509.225754 153.41608,509.30938 L153.41608,509.30938 Z" id="路径" fill="#2F2E41"></path>
            <circle id="椭圆形" fill="#9F616A" cx="149.79858" cy="63.1054" r="27.10427"></circle>
            <path d="M184.03555,268.52719 L80.61137,268.52719 C94.01625,206.40301 93.97869,156.36896 83.30106,115.90453 C81.8927193,110.569959 84.7266016,105.030623 89.87668,103.05129 L117.70142,92.34947 C126.05501,103.13747 137.84312,107.84947 156.21801,100.90871 L170.79879,103.89964 C178.141128,105.396603 183.248405,112.087884 182.75579,119.56506 C181.68264,135.39065 182.10579,151.33732 181.18251,165.10306 C178.32335,207.7313 177.08855,240.96339 184.03555,268.52719 Z" id="路径" fill="#E6E6E6"></path>
            <path d="M135.53318,27.44189 C135.53318,27.44189 151.22512,9.61013 169.77018,26.72862 L174.76307,28.15516 L171.19672,31.00824 C171.19672,31.00824 189.74172,39.56748 188.31521,57.39924 C188.31521,57.39924 185.46213,56.68597 184.03559,57.39924 C182.60905,58.11251 181.89577,65.95848 181.89577,65.95848 C181.89577,65.95848 179.75596,60.25232 179.04269,59.53905 C178.32942,58.82578 168.34369,67.38505 151.93843,54.54616 C151.93843,54.54616 146.94554,67.38502 141.23943,65.95848 C135.53332,64.53194 127.68729,65.24521 124.12094,74.51773 C124.12085,74.51773 104.86256,33.14805 135.53318,27.44189 Z" id="路径" fill="#2F2E41"></path>
            <path d="M189.02844,252.8353 L179.87227,265.1073 C177.945931,267.689167 177.135841,270.935885 177.623492,274.120067 C178.111143,277.304249 179.85577,280.159717 182.46651,282.04674 L182.46651,282.04674 C185.85089,284.492937 190.261922,285.008528 194.119218,283.408787 C197.976514,281.809046 200.727928,278.322965 201.38768,274.19954 L204.00709,257.82822 L209,187.2144 L205.43365,151.55089 L182.609,160.11013 L189.02844,190.78075 L189.02844,252.8353 Z" id="路径" fill="#9F616A"></path>
            <path d="M179.75592,168.66937 L207.57346,155.83051 L206.14692,145.72469 C206.146915,128.599436 195.624742,113.233901 179.65782,107.04264 L171.19668,103.76179 L179.75592,168.66937 Z" id="路径" fill="#E6E6E6"></path>
            <path d="M78.47156,249.98217 L87.62773,262.25417 C89.5540692,264.836037 90.3641586,268.082755 89.8765077,271.266937 C89.3888568,274.451119 87.6442303,277.306587 85.03349,279.19361 L85.03349,279.19361 C81.6491105,281.639807 77.2380781,282.155398 73.3807822,280.555657 C69.5234863,278.955916 66.7720724,275.469835 66.11232,271.34641 L63.49291,254.97509 L58.5,184.3613 L62.06635,148.69779 L84.891,157.25703 L78.47156,187.92765 L78.47156,249.98217 Z" id="路径" fill="#9F616A"></path>
            <path d="M87.74408,165.8163 L59.92654,152.97744 L61.35308,142.87162 C61.3530853,125.746366 71.8752578,110.380831 87.84218,104.18957 L96.30332,100.90872 L87.74408,165.8163 Z" id="路径" fill="#E6E6E6"></path>
            <g id="编组-5" transform="translate(339.500000, 291.732580)">
                <path d="M483.5,222 L7.5,222 C3.35973777,221.995481 0,218.640262 0,214.5 L0,7.5 C0,3.35973777 3.35973777,0.00451927913 7.5,0 L483.5,0 C487.640262,0.00451927913 491,3.35973777 491,7.5 L491,214.5 C491,218.640262 487.640262,221.995481 483.5,222 L483.5,222 Z M7.5,3 C5.01584266,3.00271157 3,5.01584266 3,7.5 L3,214.5 C3,216.98416 5.01584038,218.997294 7.5,219 L483.5,219 C485.98416,218.997294 488,216.98416 488,214.5 L488,7.5 C488,5.01584266 485.984157,3.00271157 483.5,3 L7.5,3 Z" id="形状" fill="#E6E6E6"></path>
                <path d="M27,25.5 C24.5147186,25.5 22.5,27.5147186 22.5,30 C22.5,32.4852814 24.5147186,34.5 27,34.5 L90,34.5 C92.4852814,34.5 94.5,32.4852814 94.5,30 C94.5,27.5147186 92.4852814,25.5 90,25.5 L27,25.5 Z" id="路径" fill="#E6E6E6"></path>
                <path d="M458.29035,56.79515 L458.29035,140.24472 L33.45958,140.24472 L33.45958,96.30706 C36.4014,94.41794 39.36101,92.53769 42.34726,90.71953 C55.10105,82.91472 68.75255,75.61545 83.63051,72.91032 C90.666726,71.5984008 97.8763567,71.508398 104.94313,72.64426 C112.4088,73.87708 119.55447,76.44915 126.62907,79.03004 C133.60587,81.58435 140.60047,84.21845 147.89727,85.69963 C155.007868,87.0954821 162.307534,87.2395437 169.46767,86.12533 C183.12802,84.07657 195.96182,78.58658 208.74224,73.6199 C221.60273,68.62658 234.85424,63.9082 248.77235,63.28735 C262.51266,62.6665 276.08416,65.91263 289.12235,69.93919 C315.70541,78.14313 342.84835,90.31158 370.99564,81.96571 C399.57837,73.50459 425.86812,49.07901 457.54375,56.32512 C457.843555,56.3805865 458.110726,56.5487865 458.29035,56.79515 Z" id="路径" fill="#E6E6E6"></path>
                <path d="M458.29035,58.24972 C458.011519,58.7733412 457.409978,59.0374186 456.8358,58.88827 C453.061434,58.0230717 449.195218,57.6239501 445.3237,57.69984 C414.16648,58.24972 390.21099,83.33156 359.74559,87.08323 C332.2779,90.46236 306.42445,77.10547 280.59759,70.12548 C267.17859,66.49799 253.34276,64.57341 239.53353,67.03899 C225.83079,69.47799 212.97053,75.08329 200.05713,80.05891 C187.62261,84.8482 174.7003,89.30051 161.23699,89.52224 C146.43443,89.77055 133.10412,83.66859 119.37474,79.02118 C112.23511,76.59993 104.90921,74.68418 97.34388,74.49795 C89.9705451,74.4095623 82.6336582,75.5454537 75.63224,77.85933 C61.04253,82.49791 47.89854,90.76388 35.10036,98.9767 C34.8810519,99.1315894 34.6139993,99.2038567 34.34651,99.1807 C33.7809383,99.1050636 33.3210025,98.687689 33.1909746,98.1320948 C33.0609467,97.5765006 33.2879006,96.9983705 33.76117,96.67961 L34.34651,96.30706 C37.28218,94.41794 40.23561,92.53769 43.21562,90.71953 C55.94279,82.91472 69.56579,75.61545 84.41269,72.91032 C91.4339338,71.5984043 98.6289549,71.508396 105.68082,72.64426 C113.1309,73.87708 120.26165,76.44915 127.32149,79.03004 C134.28372,81.58435 141.26371,84.21845 148.54528,85.69963 C155.640702,87.0954753 162.925587,87.239546 170.07065,86.12533 C183.70248,84.07657 196.50949,78.58658 209.26323,73.6199 C222.09687,68.62658 235.3207,63.9082 249.20977,63.28735 C262.92139,62.6665 276.46456,65.91263 289.47554,69.93919 C316.0031,78.14313 343.08937,90.31158 371.1779,81.96571 C399.70096,73.50459 425.93583,49.07901 457.54533,56.32512 C457.844651,56.3806956 458.111279,56.5489034 458.29033,56.79512 C458.569818,57.2397087 458.569826,57.8051236 458.29035,58.24972 Z" id="路径" fill="#7D7FE9"></path>
                <circle id="椭圆形" fill="#7D7FE9" cx="91.99576" cy="73.72633" r="6.20838"></circle>
                <circle id="椭圆形" fill="#7D7FE9" cx="248.97916" cy="65.74412" r="6.20838"></circle>
                <circle id="椭圆形" fill="#7D7FE9" cx="440.55211" cy="57.76191" r="6.20838"></circle>
                <path d="M88.5,175.5 C86.0147186,175.5 84,177.514719 84,180 C84,182.485281 86.0147186,184.5 88.5,184.5 L151.5,184.5 C153.985281,184.5 156,182.485281 156,180 C156,177.514719 153.985281,175.5 151.5,175.5 L88.5,175.5 Z" id="路径" fill="#E6E6E6"></path>
                <circle id="椭圆形" fill="#7D7FE9" cx="48" cy="179.50001" r="17"></circle>
                <path d="M240.5,175.5 C238.014719,175.5 236,177.514719 236,180 C236,182.485281 238.014719,184.5 240.5,184.5 L303.5,184.5 C305.985281,184.5 308,182.485281 308,180 C308,177.514719 305.985281,175.5 303.5,175.5 L240.5,175.5 Z" id="路径" fill="#E6E6E6"></path>
                <circle id="椭圆形" fill="#7D7FE9" cx="200" cy="179.50001" r="17"></circle>
                <path d="M392.5,175.5 C390.014719,175.5 388,177.514719 388,180 C388,182.485281 390.014719,184.5 392.5,184.5 L455.5,184.5 C457.985281,184.5 460,182.485281 460,180 C460,177.514719 457.985281,175.5 455.5,175.5 L392.5,175.5 Z" id="路径" fill="#E6E6E6"></path>
                <circle id="椭圆形" fill="#7D7FE9" cx="352" cy="179.50001" r="17"></circle>
            </g>
            <circle id="椭圆形" fill="#FFFFFF" cx="626.67905" cy="150.00717" r="11"></circle>
            <path d="M676.81094,145.23258 C674.325659,145.23258 672.31094,147.247299 672.31094,149.73258 C672.31094,152.217861 674.325659,154.23258 676.81094,154.23258 L739.81094,154.23258 C742.296221,154.23258 744.31094,152.217861 744.31094,149.73258 C744.31094,147.247299 742.296221,145.23258 739.81094,145.23258 L676.81094,145.23258 Z" id="路径" fill="#FFFFFF"></path>
            <path d="M359.566138,0 C355.389511,0.00490452341 352.004911,3.38477066 352,7.55555556 L352,60.4444444 C352.004911,64.6152293 355.389511,67.9950955 359.566138,68 L630.433862,68 C634.610489,67.9950955 637.995089,64.6152293 638,60.4444444 L638,7.55555556 C637.995097,3.38476721 634.610492,0.00489621524 630.433862,0 L359.566138,0 Z" id="路径" fill="#7D7FE9"></path>
            <path d="M473.8125,27 C470.05006,27 467,30.1340068 467,34 C467,37.8659932 470.05006,41 473.8125,41 L569.1875,41 C572.94994,41 576,37.8659932 576,34 C576,30.1340068 572.94994,27 569.1875,27 L473.8125,27 Z" id="路径" fill="#FFFFFF"></path>
            <path d="M551.566138,99 C547.389511,99.0049045 544.004911,102.384771 544,106.555556 L544,159.444444 C544.004911,163.615229 547.389511,166.995095 551.566138,167 L822.433862,167 C826.610489,166.995095 829.995089,163.615229 830,159.444444 L830,106.555556 C829.995097,102.384767 826.610492,99.0048962 822.433862,99 L551.566138,99 Z" id="路径" fill="#7D7FE9"></path>
            <path d="M665.8125,126 C662.05006,126 659,129.134007 659,133 C659,136.865993 662.05006,140 665.8125,140 L761.1875,140 C764.94994,140 768,136.865993 768,133 C768,129.134007 764.94994,126 761.1875,126 L665.8125,126 Z" id="路径" fill="#FFFFFF"></path>
            <path d="M359.566138,196 C355.389511,196.004905 352.004911,199.384771 352,203.555556 L352,256.444444 C352.004911,260.615229 355.389511,263.995095 359.566138,264 L630.433862,264 C634.610489,263.995095 637.995089,260.615229 638,256.444444 L638,203.555556 C637.995097,199.384767 634.610492,196.004896 630.433862,196 L359.566138,196 Z" id="路径" fill="#7D7FE9"></path>
            <path d="M473.8125,223 C470.05006,223 467,226.134007 467,230 C467,233.865993 470.05006,237 473.8125,237 L569.1875,237 C572.94994,237 576,233.865993 576,230 C576,226.134007 572.94994,223 569.1875,223 L473.8125,223 Z" id="路径" fill="#FFFFFF"></path>
            <g id="iconfont-socialjavascript" transform="translate(378.000000, 16.000000)" fill="#FFFFFF">
                <path d="M19,1 L10.3636364,1 L10.3636364,22.6204989 C10.3636364,27.9702238 8.417,29.4639345 5.02938636,29.4639345 C3.44191477,29.4639345 2.01227273,29.2074366 0.900125,28.8470577 L0,35.1762767 C1.58693182,35.6913072 4.02227841,36 5.92746023,36 C13.7053693,36 19,32.5538127 19,22.6735078 L19,1 L19,1 Z" id="路径"></path>
                <path d="M34.9850402,0 C27.0333036,0 22,4.50002557 22,10.4481025 C22,15.5704894 25.8762187,18.7776193 31.5122455,20.846191 C35.5885848,22.2942423 37.199817,23.5880585 37.199817,25.7083828 C37.199817,28.03582 35.3373304,29.5361354 31.8145313,29.5361354 C28.5428839,29.5361354 25.5728036,28.4478979 23.5597902,27.3622174 L23.5597902,27.3600695 L22,33.826082 C23.9138259,34.9141149 27.4872455,36 31.3608973,36 C40.6725089,36 45,31.0342006 45,25.1894245 C45,20.2238296 42.2319911,17.0174157 36.2437768,14.7404015 C31.8143259,12.9821411 29.9526607,11.9998636 29.9526607,9.77562489 C29.9526607,8.01644402 31.5634821,6.41385071 34.8856473,6.41385071 C38.1555491,6.41385071 40.4040045,7.5089408 41.7142857,8.18233887 L43.6780134,1.6365496 C41.624442,0.738446852 38.8585893,0 34.9850402,0 L34.9850402,0 Z" id="路径"></path>
            </g>
            <path d="M598.795975,109.361405 L600.607043,109.762967 L602.07602,110.284997 L603.263276,110.88734 L604.168809,111.529838 L604.85299,112.212493 L605.356065,112.895148 L605.678032,113.557724 L605.879262,114.160067 L605.959754,114.682097 L606,115.083659 L605.979877,115.344674 L605.979877,126.066369 L605.879262,127.331288 L605.617663,128.435583 L605.195081,129.359175 L604.671884,130.122142 L604.068195,130.744562 L603.404136,131.246514 L602.699832,131.627998 L601.995528,131.909091 L601.33147,132.109872 L600.727781,132.250418 L600.204584,132.330731 L599.782001,132.370887 L587.768586,132.370887 L586.380101,132.471277 L585.192845,132.75237 L584.186696,133.194088 L583.361655,133.736196 L582.697596,134.378695 L582.154276,135.081428 L581.751817,135.804239 L581.449972,136.547128 L581.248742,137.249861 L581.107881,137.892359 L581.02739,138.434467 L580.987144,138.856107 L580.987144,145 L576.49972,145 L576.077138,144.939766 L575.513695,144.799219 L574.86976,144.558282 L574.165456,144.196877 L573.441029,143.674847 L572.716601,142.952036 L572.012297,142.028444 L571.368362,140.843837 L570.804919,139.378137 L570.382337,137.611266 L570.100615,135.503067 L570,133.033463 L570.120738,130.583938 L570.442705,128.495817 L570.925657,126.749024 L571.569592,125.32348 L572.294019,124.17903 L573.098938,123.295594 L573.944103,122.633017 L574.789268,122.151143 L575.594187,121.829894 L576.318614,121.629113 L576.962549,121.528723 L577.4455,121.508645 L577.767468,121.508645 L577.888206,121.528723 L594.308552,121.528723 L594.308552,119.862242 L582.556736,119.862242 L582.536613,114.34077 L582.496367,113.597881 L582.596982,112.915226 L582.818334,112.292805 L583.160425,111.730619 L583.663499,111.208589 L584.287311,110.746793 L585.051984,110.345231 L585.937395,109.983826 L586.963667,109.682655 L588.130799,109.441718 L589.41867,109.240937 L590.847401,109.120468 L592.39687,109.040156 L594.0872,109 L596.642817,109.10039 L598.795975,109.361405 Z M585.590476,113.587678 L585.152381,114.21327 L585,114.990521 L585.152381,115.767773 L585.590476,116.412322 L586.219048,116.829384 L587,117 L587.780952,116.829384 L588.409524,116.412322 L588.847619,115.767773 L589,114.990521 L588.847619,114.21327 L588.409524,113.587678 L587.780952,113.170616 L587,113 L586.219048,113.170616 L585.590476,113.587678 Z M611.922862,121.080312 L612.486305,121.200781 L613.13024,121.441718 L613.834544,121.803123 L614.558971,122.345231 L615.283399,123.047964 L615.987703,123.991634 L616.631638,125.176241 L617.195081,126.641941 L617.617663,128.408812 L617.899385,130.496933 L618,132.966537 L617.879262,135.436141 L617.557295,137.524261 L617.074343,139.250976 L616.430408,140.67652 L615.705981,141.82097 L614.901062,142.724484 L614.055897,143.387061 L613.210732,143.868935 L612.405813,144.190184 L611.681386,144.370887 L611.037451,144.471277 L610.5545,144.511433 L610.232532,144.491355 L593.691448,144.491355 L593.691448,146.137758 L605.443264,146.137758 L605.463387,151.679308 L605.503633,152.402119 L605.403018,153.084774 L605.181666,153.707195 L604.839575,154.289459 L604.336501,154.791411 L603.712689,155.273285 L602.948016,155.674847 L602.062605,156.016174 L601.036333,156.317345 L599.869201,156.57836 L598.58133,156.759063 L597.152599,156.89961 L595.60313,156.979922 L593.9128,157 L591.357183,156.919688 L589.204025,156.638595 L587.392957,156.237033 L585.92398,155.735081 L584.736724,155.132738 L583.831191,154.470162 L583.14701,153.787507 L582.643935,153.104852 L582.321968,152.442276 L582.120738,151.839933 L582.040246,151.337981 L582,150.936419 L582.020123,150.675404 L582.020123,139.953709 L582.120738,138.668712 L582.382337,137.584495 L582.804919,136.660904 L583.328116,135.897936 L583.931805,135.255438 L584.595864,134.773564 L585.300168,134.372002 L586.004472,134.090909 L586.66853,133.890128 L587.272219,133.76966 L587.795416,133.689347 L588.217999,133.649191 L588.479598,133.629113 L600.231414,133.629113 L601.619899,133.528723 L602.807155,133.24763 L603.813304,132.82599 L604.638345,132.263804 L605.302404,131.621305 L605.845724,130.918572 L606.248183,130.195761 L606.550028,129.47295 L606.751258,128.770218 L606.892119,128.127719 L606.97261,127.565533 L607.012856,127.143893 L607.012856,121 L611.218558,121 L611.50028,121.020078 L611.922862,121.080312 Z M598.590476,149.590476 L598.152381,150.219048 L598,151 L598.152381,151.780952 L598.590476,152.409524 L599.219048,152.847619 L600,153 L600.780952,152.847619 L601.409524,152.409524 L601.847619,151.780952 L602,151 L601.847619,150.219048 L601.409524,149.590476 L600.780952,149.152381 L600,149 L599.219048,149.152381 L598.590476,149.590476 L598.590476,149.590476 Z" id="形状" fill="#FFFFFF"></path>
            <g id="rust" transform="translate(380.000000, 206.000000)" fill="#FFFFFF">
                <path d="M47.6696334,23.406446 L45.6549812,22.1587855 C45.6381867,21.9627971 45.6192877,21.766995 45.5982874,21.5714128 L47.329471,19.9571508 C47.5031721,19.7923952 47.5801288,19.5499579 47.5332631,19.3151431 C47.4863973,19.0803284 47.3222759,18.8860377 47.0986466,18.8006343 L44.8855662,17.9722363 C44.8308706,17.7808413 44.7728181,17.5904221 44.7114355,17.4010671 L46.0923328,15.4829916 C46.2331236,15.2881113 46.2628165,15.0341373 46.1707782,14.8120189 C46.0787399,14.5899005 45.8781375,14.4314139 45.6408077,14.393314 L43.3082656,14.01456 C43.2172366,13.8382172 43.1234101,13.6633336 43.0268217,13.4899754 L44.0068133,11.3369509 C44.1080521,11.1182052 44.0857796,10.8630019 43.9521444,10.6645105 C43.8185092,10.466019 43.5917342,10.3485445 43.3507859,10.3566462 L40.9817977,10.4396885 C40.8602482,10.2857513 40.7353573,10.1344837 40.6072142,9.98599382 L41.1518789,7.67903709 C41.206464,7.44516118 41.1364208,7.19967101 40.9666525,7.02984849 C40.7968842,6.86002597 40.5514724,6.78996036 40.3176712,6.84456288 L38.0114511,7.38940163 C37.8609104,7.26290619 37.7090438,7.1379982 37.5558765,7.01469841 L37.6388923,4.64495361 C37.6503783,4.40379373 37.5347729,4.17422939 37.3342076,4.03992383 C37.1336424,3.90561827 36.877413,3.88618888 36.6589006,3.98871658 L34.5065635,4.97104668 C34.3324328,4.87585182 34.158302,4.78065691 33.9821465,4.68951288 L33.6014886,2.35420029 C33.5613328,2.11806463 33.4027356,1.91911697 33.1815337,1.8273999 C32.9603318,1.73568282 32.7075406,1.76405629 32.512159,1.90253097 L30.5926712,3.28386941 C30.4033648,3.22314198 30.2130065,3.16574613 30.0216844,3.11170845 L29.1935509,0.897921191 C29.1081748,0.674220442 28.9139461,0.510046552 28.6792063,0.46316585 C28.4444666,0.416285148 28.2021067,0.493266417 28.0374037,0.667022979 L26.4236571,2.40078501 C26.2282409,2.37877511 26.0324879,2.35986878 25.836472,2.34407315 L24.5892099,0.328777369 C24.4630688,0.124414848 24.2401019,0 24,0 C23.7598981,0 23.5369312,0.124414848 23.4107901,0.328777369 L22.163528,2.34407315 C21.9671247,2.36027652 21.7707214,2.38053076 21.5763429,2.40078501 L19.9605715,0.667022979 C19.7968791,0.491062442 19.5536982,0.412565157 19.3180622,0.459624867 C19.0824261,0.506684576 18.8880213,0.672573604 18.8044243,0.897921191 L17.9762909,3.11170845 C17.7839372,3.16639487 17.595633,3.22513211 17.405304,3.28386941 L15.487841,1.90253097 C15.2924594,1.76405629 15.0396682,1.73568282 14.8184663,1.8273999 C14.5972644,1.91911697 14.4386672,2.11806463 14.3985114,2.35420029 L14.0178535,4.68951288 C13.841567,4.78057093 13.6667392,4.8744274 13.4934365,4.97104668 L11.3410994,3.98871658 C11.1224786,3.88869548 10.8676416,3.90925402 10.6678699,4.04302822 C10.4680981,4.17680243 10.3519797,4.40464879 10.3611077,4.64495361 L10.4441235,7.01469841 C10.2902405,7.13622378 10.1383823,7.26179999 9.9885489,7.38940163 L7.68232881,6.84456288 C7.44852758,6.78996036 7.2031158,6.86002597 7.0333475,7.02984849 C6.86357921,7.19967101 6.79353597,7.44516118 6.84812106,7.67903709 L7.39076104,9.98599382 C7.26522493,10.1358751 7.13968878,10.2877818 7.01820226,10.4396885 L4.64921414,10.3566462 C4.40898606,10.3475153 4.18121247,10.4636708 4.04748099,10.6635064 C3.9137495,10.8633419 3.89319751,11.1182603 3.99318666,11.3369509 L4.97520308,13.4899754 C4.87855718,13.6633021 4.78473019,13.8381867 4.69375918,14.01456 L2.36121703,14.393314 C2.12515676,14.4334827 1.92627262,14.5921305 1.83458484,14.8134031 C1.74289706,15.0346756 1.77126148,15.2875476 1.90969197,15.4829916 L3.29058929,17.4010671 C3.22984601,17.5914568 3.17315226,17.7798212 3.11645856,17.9722363 L0.903378185,18.8006343 C0.679748866,18.8860377 0.515627398,19.0803284 0.468761666,19.3151431 C0.421895933,19.5499579 0.498852621,19.7923952 0.672553701,19.9571508 L2.40373733,21.5714128 C2.38173448,21.7668914 2.3628342,21.9627069 2.34704363,22.1587855 L0.332391304,23.406446 C0.126079424,23.5311507 0,23.7547154 0,23.9958441 C0,24.2369727 0.126079424,24.4605375 0.332391304,24.5852421 L2.34704363,25.8329027 C2.36324182,26.0293687 2.3834896,26.2258347 2.40373733,26.4202753 L0.672553701,28.0365628 C0.496649349,28.2003075 0.41817713,28.443566 0.465221813,28.6792774 C0.512266496,28.9149887 0.678102553,29.1094556 0.903378185,29.1930793 L3.11645856,30.0214772 C3.17112751,30.2138924 3.22984601,30.4042821 3.29058929,30.5926465 L1.90969197,32.510722 C1.76763444,32.7055948 1.73748747,32.9604801 1.83016132,33.1831339 C1.92283518,33.4057878 2.12490527,33.5639569 2.36324182,33.6003995 L4.69578397,33.9791536 C4.7868989,34.1553654 4.88003862,34.3295517 4.97722788,34.5037381 L3.9952114,36.6567627 C3.89522223,36.8754532 3.91577421,37.1303717 4.0495057,37.3302072 C4.18323719,37.5300427 4.41101079,37.6461983 4.65123888,37.6370674 L7.01820226,37.554025 C7.14171362,37.7079572 7.26522493,37.8598639 7.39278583,38.0097452 L6.8501458,40.3187273 C6.79520589,40.552498 6.8652252,40.798055 7.03518447,40.9676559 C7.20514375,41.1372568 7.45079172,41.2067015 7.6843536,41.1511761 L9.99057365,40.6083628 C10.1404071,40.7359644 10.2922653,40.8595152 10.4461483,40.9810406 L10.3631325,43.3507854 C10.3523893,43.5915911 10.4682959,43.820488 10.66873,43.9542915 C10.8691641,44.088095 11.1249473,44.1073265 11.3431242,44.004997 L13.4954612,43.0246923 C13.6695919,43.1219126 13.8437227,43.2150821 14.0198782,43.3062261 L14.4005362,45.6395133 C14.440113,45.87601 14.5984807,46.0755317 14.8197766,46.1676992 C15.0410726,46.2598667 15.294198,46.2317277 15.4898657,46.093208 L17.4073288,44.7118696 C17.5976577,44.7726323 17.7859619,44.8313695 17.9783156,44.886056 L18.8064491,47.0998432 C18.8891311,47.3260305 19.0836266,47.4928013 19.3197249,47.5399533 C19.5558233,47.5871053 19.7994263,47.5078288 19.9625963,47.3307414 L21.5783677,45.5990048 C21.7727462,45.6212845 21.9691495,45.6395133 22.1655528,45.6577421 L23.4128149,47.6730379 C23.539672,47.876414 23.762383,48 24.0020248,48 C24.2416665,48 24.4643776,47.876414 24.5912347,47.6730379 L25.8384967,45.6577421 C26.0349001,45.6395133 26.2313033,45.6212845 26.4256819,45.5990048 L28.0394285,47.3307414 C28.2041315,47.504498 28.4464913,47.5814793 28.6812311,47.5345986 C28.9159709,47.4877178 29.1101995,47.323544 29.1955757,47.0998432 L30.0237091,44.886056 C30.2160628,44.8313695 30.4063918,44.7726323 30.594696,44.7118696 L32.512159,46.093208 C32.7069697,46.2353109 32.9617735,46.2654675 33.1843563,46.172764 C33.406939,46.0800606 33.5650577,45.877926 33.6014886,45.6395133 L33.9821465,43.3062261 C34.1583021,43.2150821 34.3324328,43.1198872 34.5065635,43.0246923 L36.6589006,44.004997 C36.8772344,44.1036167 37.1309635,44.0827142 37.3302266,43.9496925 C37.5294897,43.8166708 37.6461506,43.5903124 37.6388923,43.3507854 L37.5558765,40.9810406 C37.7097595,40.8595152 37.8616177,40.7359644 38.0094264,40.6083628 L40.3156464,41.1511761 C40.5490188,41.205498 40.7939009,41.1356474 40.9635345,40.9663714 C41.1331682,40.7970954 41.2035914,40.5523056 41.1498542,40.3187273 L40.6072142,38.0097452 C40.7327503,37.8598639 40.8582864,37.7079572 40.979773,37.554025 L43.3487611,37.6370674 C43.589844,37.648557 43.819335,37.5329147 43.9535977,37.3322854 C44.0878604,37.1316561 44.1072836,36.8753448 44.0047886,36.6567627 L43.0247969,34.5037381 C43.1199614,34.3295518 43.2151259,34.1553654 43.3062408,33.9791536 L45.638783,33.6003995 C45.8748432,33.5602308 46.0737273,33.401583 46.1654151,33.1803105 C46.2571029,32.9590379 46.2287385,32.7061659 46.090308,32.510722 L44.7094107,30.5926465 L44.8835414,30.0214772 L47.0966218,29.1930793 C47.3218974,29.1094556 47.4877335,28.9149887 47.5347782,28.6792774 C47.5818229,28.443566 47.5033507,28.2003075 47.3274463,28.0365628 L45.5962627,26.4202753 C45.6165104,26.2258347 45.6367582,26.0293687 45.6529564,25.8329027 L47.6676087,24.5852421 C47.8739206,24.4605375 48,24.2369727 48,23.9958441 C48,23.7547154 47.8739206,23.5311507 47.6676087,23.406446 L47.6696334,23.406446 Z M34.1866489,40.1222613 C33.4156135,39.9572662 32.924278,39.198264 33.0892203,38.4269823 C33.2541626,37.6557006 34.0129225,37.1642081 34.7839579,37.3292031 C35.2827304,37.4362979 35.686499,37.8014346 35.843168,38.2870697 C35.999837,38.7727047 35.8856046,39.3050586 35.5435011,39.6835988 C35.2013976,40.062139 34.6833966,40.2293562 34.1846241,40.1222613 L34.1866489,40.1222613 Z M33.5022746,35.4921445 C33.1649806,35.4195246 32.8126619,35.4842347 32.5231582,35.6719782 C32.2336544,35.8597217 32.0307937,36.1550459 31.9593951,36.4927034 L31.2446491,39.8306004 C29.0376431,40.8331847 26.5876639,41.3901946 24.0060743,41.3901946 C21.4532578,41.3939007 18.9306286,40.8380537 16.6156413,39.761736 L15.9008953,36.4238391 C15.8295325,36.0862803 15.6265847,35.7911082 15.3369948,35.6036891 C15.047405,35.4162699 14.6950703,35.3520697 14.3580159,35.4253055 L11.4119665,36.0572375 C10.8645516,35.4933757 10.3558492,34.8931587 9.88933485,34.2606874 L24.2247502,34.2606874 C24.3867322,34.2606874 24.4960701,34.2323315 24.4960701,34.0844756 L24.4960701,29.0107912 C24.4960701,28.8629353 24.388757,28.8345794 24.2247502,28.8345794 L20.0314387,28.8345794 L20.0314387,25.6182078 L24.5669373,25.6182078 C24.9799917,25.6182078 26.7800177,25.7356824 27.3550541,28.0365628 C27.5352592,28.7434354 27.9300906,31.0463412 28.2014105,31.7835951 C28.4707058,32.6099677 29.5681345,34.2606873 30.7384551,34.2606874 L37.8818655,34.2606874 C37.9688563,34.2594539 38.0555744,34.2506438 38.1410368,34.2343569 C37.6457252,34.9074695 37.1030587,35.5443925 36.5171663,36.1402798 L33.5022746,35.4921445 L33.5022746,35.4921445 Z M13.6736415,40.0533969 C13.174869,40.1604917 12.6568681,39.9932745 12.3147646,39.6147344 C11.9726611,39.2361942 11.8584287,38.7038403 12.0150977,38.2182053 C12.1717667,37.7325702 12.5755353,37.3674335 13.0743078,37.2603387 C13.8453432,37.0947844 14.6045564,37.5858235 14.7700578,38.3571052 C14.9355592,39.1283869 14.4446769,39.8878426 13.6736415,40.0533969 Z M8.23509271,17.9924906 C8.46131915,18.4616396 8.41422094,19.016792 8.11219539,19.4410964 C7.81016983,19.8654008 7.30113903,20.0915332 6.78393844,20.0311629 C6.26673785,19.9707925 5.82343119,19.6334982 5.62718103,19.1510325 C5.33664993,18.4367844 5.66549518,17.6208181 6.37001076,17.3078432 C7.07452634,16.9948683 7.90018436,17.2979567 8.23509271,17.9924906 L8.23509271,17.9924906 Z M6.56465236,21.9562432 L9.63421306,20.5911081 C9.9495855,20.4510791 10.1963643,20.1913701 10.320177,19.8692023 C10.4439896,19.5470346 10.4346767,19.1888437 10.2942901,18.8735495 L9.66255991,17.4436009 L12.1489851,17.4436009 L12.1489851,28.6522914 L7.1336145,28.6522914 C6.51511727,26.4769687 6.32261017,24.2025961 6.56667716,21.9542178 L6.56465236,21.9562432 Z M20.0334635,20.8685911 L20.0334635,17.5651263 L25.953909,17.5651263 C26.2596502,17.5651263 28.1123204,17.9195753 28.1123204,19.3049646 C28.1123204,20.4554048 26.6909275,20.8685911 25.5226317,20.8685911 L20.0334635,20.8685911 L20.0334635,20.8685911 Z M41.5487351,23.8419119 C41.5487351,24.2794033 41.5325369,24.7148692 41.5001405,25.1442589 L39.7001144,25.1442589 C39.5199094,25.1442589 39.4470174,25.2617334 39.4470174,25.4399706 L39.4470174,26.2663431 C39.4470174,28.2127746 38.3495888,28.6360879 37.3878201,28.7434354 C36.4726212,28.846732 35.4582084,28.3606305 35.3326722,27.7995883 C34.792057,24.7614539 33.8930564,24.1112932 32.4716635,22.9912343 C34.2352436,21.8711754 36.0696908,20.2184303 36.0696908,18.0066685 C36.0696908,15.6186949 34.4316469,14.1138057 33.3159952,13.3745263 C31.7508432,12.3415606 30.0176348,12.1349675 29.5499115,12.1349675 L10.9361442,12.1349675 C13.5086112,9.25760865 16.958307,7.30972697 20.7502342,6.59341043 L22.9450916,8.89631628 C23.1825652,9.14631222 23.5098353,9.29134615 23.8544918,9.29932862 C24.1991483,9.30731109 24.5327779,9.17758402 24.7815636,8.93885016 L27.2355923,6.5893596 C32.2999698,7.53948963 36.6911119,10.6678169 39.2445398,15.144746 L37.5639756,18.9424139 C37.2740274,19.5990861 37.5690284,20.3666958 38.2240526,20.6599725 L41.459645,22.0980228 C41.5163387,22.6732429 41.5446856,23.2525138 41.5446856,23.8419119 L41.5487351,23.8419119 Z M22.9471164,4.6368519 C23.3156799,4.28517552 23.8438039,4.15690227 24.3325491,4.30035144 C24.8212943,4.44380062 25.1964087,4.83717888 25.3165904,5.33230443 C25.436772,5.82742998 25.2837624,6.34908147 24.9151988,6.70075783 C24.3392563,7.19781349 23.4748428,7.1557791 22.9498125,6.60518572 C22.4247822,6.05459235 22.4235964,5.18888245 22.9471164,4.6368519 L22.9471164,4.6368519 Z M39.6251977,18.061355 C39.7776773,17.7154598 40.0615807,17.4445451 40.4141654,17.308483 C40.7667501,17.1724209 41.1589864,17.1824139 41.50419,17.3362535 C42.0326605,17.5695247 42.3685017,18.0983974 42.3549839,18.6760583 C42.3414661,19.2537193 41.9812541,19.7662932 41.4424508,19.9745733 C40.9036476,20.1828533 40.2924683,20.0457808 39.8941368,19.6273245 C39.4958053,19.2088682 39.3888454,18.5915191 39.6231729,18.0633803 L39.6251977,18.061355 Z" id="形状"></path>
            </g>
        </g>
    </g>
</svg>