<?xml version="1.0" encoding="UTF-8"?>
<svg width="48px" height="35px" viewBox="0 0 48 35" version="1.1" xmlns="http://www.w3.org/2000/svg" xmlns:xlink="http://www.w3.org/1999/xlink">
    <title>discord</title>
    <g id="页面-1" stroke="none" stroke-width="1" fill="none" fill-rule="evenodd">
        <g id="discord" transform="translate(0.812, 0.3175)" fill="#B9B9BA" fill-rule="nonzero">
            <path d="M40.4860353,4.33247727 C39.8100353,3.31147727 38.8530353,2.53047727 37.7180353,2.07647727 C35.2540353,1.08847727 33.1350353,0.428477271 31.2390353,0.0564772709 C29.9090353,-0.203522729 28.5920353,0.450477271 27.9590353,1.68247727 L27.8010353,1.99047727 C26.3970353,1.83547727 24.9060353,1.78347727 23.2080353,1.82647727 C21.4670353,1.78447727 19.9710353,1.83547727 18.5650353,1.99047727 L18.4080353,1.68247727 C17.7750353,0.450477271 16.4560353,-0.202522729 15.1290353,0.0574772709 C13.2330353,0.428477271 11.1130353,1.08847727 8.65003531,2.07747727 C7.51603531,2.53147727 6.55903531,3.31147727 5.88203531,4.33347727 C1.16103531,11.4644773 -0.688964688,19.1564773 0.227035312,27.8504773 C0.259035312,28.1554773 0.429035312,28.4284773 0.688035312,28.5914773 C4.32003531,30.8814773 7.46303531,32.4494773 10.5790353,33.5274773 C11.8820353,33.9824773 13.3270353,33.4734773 14.0960353,32.2984773 L15.4670353,30.1974773 C14.3750353,29.7854773 13.3090353,29.2974773 12.2870353,28.7144773 C11.8080353,28.4414773 11.6410353,27.8304773 11.9140353,27.3514773 C12.1870353,26.8704773 12.7980353,26.7014773 13.2780353,26.9784773 C16.3190353,28.7124773 19.7570353,29.6294773 23.2200353,29.6294773 C26.6830353,29.6294773 30.1210353,28.7124773 33.1620353,26.9784773 C33.6410353,26.7014773 34.2520353,26.8704773 34.5260353,27.3514773 C34.7990353,27.8304773 34.6320353,28.4414773 34.1530353,28.7144773 C33.0970353,29.3174773 31.9930353,29.8194773 30.8620353,30.2384773 L32.2730353,32.3404773 C32.8540353,33.2054773 33.8130353,33.6974773 34.8010353,33.6974773 C35.1230353,33.6974773 35.4480353,33.6444773 35.7640353,33.5364773 C38.8890353,32.4574773 42.0380353,30.8874773 45.6780353,28.5924773 C45.9370353,28.4294773 46.1070353,28.1554773 46.1390353,27.8514773 C47.0570353,19.1564773 45.2070353,11.4634773 40.4860353,4.33247727 Z M16.7960353,21.6654773 C14.8700353,21.6654773 13.2850353,19.6364773 13.2850353,17.1704773 C13.2850353,14.7044773 14.8700353,12.6754773 16.7960353,12.6754773 C18.7220353,12.6754773 20.3070353,14.7044773 20.3070353,17.1704773 C20.3070353,19.6364773 18.7220353,21.6654773 16.7960353,21.6654773 Z M29.7890353,21.6394773 C27.8810353,21.6394773 26.3110353,19.5984773 26.3110353,17.1174773 C26.3110353,14.6364773 27.8810353,12.5954773 29.7890353,12.5954773 C31.6970353,12.5954773 33.2670353,14.6364773 33.2670353,17.1174773 C33.2670353,19.5984773 31.6970353,21.6394773 29.7890353,21.6394773 Z" id="形状"></path>
        </g>
    </g>
</svg>