<?xml version="1.0" encoding="UTF-8"?>
<svg width="200px" height="196px" viewBox="0 0 200 196" version="1.1" xmlns="http://www.w3.org/2000/svg" xmlns:xlink="http://www.w3.org/1999/xlink">
    <title>github</title>
    <g id="页面-1" stroke="none" stroke-width="1" fill="none" fill-rule="evenodd">
        <g id="github" transform="translate(-0, 0.7455)" fill="#B9B9BA" fill-rule="nonzero">
            <path d="M99.9107143,-2.77555756e-15 C44.7098215,-0.0223131258 0,44.6651869 0,99.8214369 C0,143.437508 27.96875,180.513401 66.9196428,194.129473 C72.1651785,195.446437 71.361607,191.718758 71.3616072,189.174115 L71.3616072,171.875008 C41.0714287,175.424116 39.84375,155.379473 37.8125,152.031258 C33.7053572,145.02233 23.9955357,143.236615 26.8973215,139.888401 C33.794643,136.339294 40.825893,140.781258 48.9732143,152.812508 C54.8660715,161.540187 66.361607,160.066973 72.1875,158.61608 C73.4598215,153.370544 76.1830357,148.683044 79.9330357,145.044651 C48.5491072,139.419651 35.46875,120.267865 35.46875,97.5 C35.46875,86.4509011 39.1071428,76.2946511 46.25,68.1026869 C41.6964285,54.5982226 46.6741072,43.0357226 47.34375,41.3169726 C60.3125,40.1562584 73.7946428,50.6026869 74.84375,51.4285798 C82.2098215,49.4419726 90.625,48.3928656 100.044643,48.3928654 C109.508929,48.3928654 117.946429,49.4866154 125.379464,51.4955441 C127.901786,49.5759013 140.401786,40.6026869 152.455357,41.6964369 C153.102679,43.4151869 157.96875,54.7098296 153.683036,68.0357226 C160.915179,76.2500084 164.598214,86.4955441 164.598214,97.5669726 C164.598214,120.379473 151.428571,139.55358 119.955357,145.089294 C125.400944,150.444666 128.465454,157.764099 128.459821,165.401794 L128.459821,190.513401 C128.638393,192.52233 128.459821,194.508937 131.808036,194.508937 C171.339286,181.183044 199.799107,143.839294 199.799107,99.8437584 C199.799107,44.6651869 155.066964,-2.77555756e-15 99.9107143,-2.77555756e-15 L99.9107143,-2.77555756e-15 Z" id="路径"></path>
        </g>
    </g>
</svg>