<?xml version="1.0" encoding="UTF-8"?>
<svg width="48px" height="48px" viewBox="0 0 48 48" version="1.1" xmlns="http://www.w3.org/2000/svg" xmlns:xlink="http://www.w3.org/1999/xlink">
    <title>logo-symbol</title>
    <g id="加油包" stroke="none" stroke-width="1" fill="none" fill-rule="evenodd">
        <g id="logo-symbol" fill="#3D3C60">
            <path d="M11.984726,16.6853 C11.984726,15.7688 12.729526,15.0258 13.648326,15.0258 C14.567126,15.0258 15.312026,15.7688 15.312026,16.6853 C15.312026,17.6018 14.567126,18.3447 13.648326,18.3447 C12.729526,18.3447 11.984726,17.6018 11.984726,16.6853 Z" id="路径" fill-rule="nonzero"></path>
            <path d="M34.351626,29.7765 C33.432826,29.7765 32.687926,30.5195 32.687926,31.436 C32.687926,32.3525 33.432826,33.0954 34.351626,33.0954 C35.270426,33.0954 36.015226,32.3525 36.015226,31.436 C36.015226,30.5195 35.270426,29.7765 34.351626,29.7765 Z" id="路径" fill-rule="nonzero"></path>
            <path d="M24.000026,0 C10.745126,0 0,10.7452 0,24 C0,37.2548 10.745126,48 24.000026,48 C37.254826,48 48.000026,37.2548 48.000026,24 C48.000026,10.7452 37.254826,0 24.000026,0 Z M13.648326,12.4445 C11.300326,12.4445 9.396796,14.3432 9.396796,16.6853 C9.396796,19.0274 11.300326,20.9261 13.648326,20.9261 C15.545226,20.9261 17.152026,19.687 17.699426,17.976 L19.563526,17.976 C21.299126,17.976 22.706026,19.3794 22.706026,21.1105 L22.706026,27.0108 C22.706026,30.1676 25.271626,32.7267 28.436426,32.7267 L30.300526,32.7267 C30.847926,34.4377 32.454726,35.6768 34.351626,35.6768 C36.699626,35.6768 38.603126,33.7781 38.603126,31.436 C38.603126,29.0938 36.699626,27.1952 34.351626,27.1952 C32.454726,27.1952 30.847926,28.4343 30.300526,30.1453 L28.436426,30.1453 C26.700826,30.1453 25.293926,28.7419 25.293926,27.0108 L25.293926,21.1105 C25.293926,17.9537 22.728326,15.3946 19.563526,15.3946 L17.699426,15.3946 C17.152026,13.6836 15.545226,12.4445 13.648326,12.4445 Z" id="形状"></path>
        </g>
    </g>
</svg>