<svg width="64" height="64" viewBox="0 0 64 64" fill="none" xmlns="http://www.w3.org/2000/svg">
<path fill-rule="evenodd" clip-rule="evenodd" d="M32 64C49.6731 64 64 49.6731 64 32C64 14.3269 49.6731 0 32 0C14.3269 0 0 14.3269 0 32C0 49.6731 14.3269 64 32 64ZM18 16.25C14.8244 16.25 12.25 18.8244 12.25 22C12.25 25.1756 14.8244 27.75 18 27.75C20.5654 27.75 22.7385 26.0699 23.4788 23.75H26C28.3472 23.75 30.25 25.6528 30.25 28V36C30.25 40.2802 33.7198 43.75 38 43.75H40.5212C41.2615 46.0699 43.4346 47.75 46 47.75C49.1756 47.75 51.75 45.1756 51.75 42C51.75 38.8244 49.1756 36.25 46 36.25C43.4346 36.25 41.2615 37.9301 40.5211 40.25H38C35.6528 40.25 33.75 38.3472 33.75 36V28C33.75 23.7198 30.2802 20.25 26 20.25H23.4788C22.7385 17.9301 20.5654 16.25 18 16.25ZM15.75 22C15.75 20.7574 16.7574 19.75 18 19.75C19.2426 19.75 20.25 20.7574 20.25 22C20.25 23.2426 19.2426 24.25 18 24.25C16.7574 24.25 15.75 23.2426 15.75 22ZM46 39.75C44.7574 39.75 43.75 40.7574 43.75 42C43.75 43.2426 44.7574 44.25 46 44.25C47.2426 44.25 48.25 43.2426 48.25 42C48.25 40.7574 47.2426 39.75 46 39.75Z" fill="black"/>
</svg>
