<svg width="49" height="48" viewBox="0 0 49 48" fill="none" xmlns="http://www.w3.org/2000/svg">
<path d="M12.3181 16.6853C12.3181 15.7688 13.0629 15.0258 13.9817 15.0258C14.9005 15.0258 15.6454 15.7688 15.6454 16.6853C15.6454 17.6018 14.9005 18.3447 13.9817 18.3447C13.0629 18.3447 12.3181 17.6018 12.3181 16.6853Z" fill="#F0F6FC"/>
<path d="M34.685 29.7765C33.7662 29.7765 33.0213 30.5195 33.0213 31.436C33.0213 32.3525 33.7662 33.0954 34.685 33.0954C35.6038 33.0954 36.3486 32.3525 36.3486 31.436C36.3486 30.5195 35.6038 29.7765 34.685 29.7765Z" fill="#F0F6FC"/>
<path fill-rule="evenodd" clip-rule="evenodd" d="M24.3334 0C11.0785 0 0.333374 10.7452 0.333374 24C0.333374 37.2548 11.0785 48 24.3334 48C37.5882 48 48.3334 37.2548 48.3334 24C48.3334 10.7452 37.5882 0 24.3334 0ZM13.9817 12.4445C11.6337 12.4445 9.73017 14.3432 9.73017 16.6853C9.73017 19.0274 11.6337 20.9261 13.9817 20.9261C15.8786 20.9261 17.4854 19.687 18.0328 17.976H19.8969C21.6325 17.976 23.0394 19.3794 23.0394 21.1105V27.0108C23.0394 30.1676 25.605 32.7267 28.7698 32.7267H30.6339C31.1813 34.4377 32.7881 35.6768 34.685 35.6768C37.033 35.6768 38.9365 33.7781 38.9365 31.436C38.9365 29.0938 37.033 27.1952 34.685 27.1952C32.7881 27.1952 31.1813 28.4343 30.6339 30.1453H28.7698C27.0342 30.1453 25.6273 28.7419 25.6273 27.0108V21.1105C25.6273 17.9537 23.0617 15.3946 19.8969 15.3946H18.0328C17.4854 13.6836 15.8786 12.4445 13.9817 12.4445Z" fill="#F0F6FC"/>
</svg>
