<svg width="64" height="64" viewBox="0 0 64 64" fill="none" xmlns="http://www.w3.org/2000/svg">
<circle cx="32" cy="32" r="32" fill="#2F3363"/>
<mask id="mask0_2033_2" style="mask-type:alpha" maskUnits="userSpaceOnUse" x="0" y="0" width="64" height="64">
<circle cx="32" cy="32" r="32" fill="#2F3363"/>
</mask>
<g mask="url(#mask0_2033_2)">
<g filter="url(#filter0_f_2033_2)">
<circle r="48" fill="#7D7FE9" fill-opacity="0.75"/>
</g>
<g filter="url(#filter1_d_2033_2)">
<path fill-rule="evenodd" clip-rule="evenodd" d="M12.25 22C12.25 18.8244 14.8244 16.25 18 16.25C20.5654 16.25 22.7385 17.9301 23.4788 20.25H26C30.2802 20.25 33.75 23.7198 33.75 28V36C33.75 38.3472 35.6528 40.25 38 40.25H40.5212C41.2615 37.9301 43.4346 36.25 46 36.25C49.1756 36.25 51.75 38.8244 51.75 42C51.75 45.1756 49.1756 47.75 46 47.75C43.4346 47.75 41.2615 46.0699 40.5212 43.75H38C33.7198 43.75 30.25 40.2802 30.25 36V28C30.25 25.6528 28.3472 23.75 26 23.75H23.4788C22.7385 26.0699 20.5654 27.75 18 27.75C14.8244 27.75 12.25 25.1756 12.25 22ZM18 19.75C16.7574 19.75 15.75 20.7574 15.75 22C15.75 23.2426 16.7574 24.25 18 24.25C19.2426 24.25 20.25 23.2426 20.25 22C20.25 20.7574 19.2426 19.75 18 19.75ZM43.75 42C43.75 40.7574 44.7574 39.75 46 39.75C47.2426 39.75 48.25 40.7574 48.25 42C48.25 43.2426 47.2426 44.25 46 44.25C44.7574 44.25 43.75 43.2426 43.75 42Z" fill="white"/>
</g>
</g>
<defs>
<filter id="filter0_f_2033_2" x="-78" y="-78" width="156" height="156" filterUnits="userSpaceOnUse" color-interpolation-filters="sRGB">
<feFlood flood-opacity="0" result="BackgroundImageFix"/>
<feBlend mode="normal" in="SourceGraphic" in2="BackgroundImageFix" result="shape"/>
<feGaussianBlur stdDeviation="15" result="effect1_foregroundBlur_2033_2"/>
</filter>
<filter id="filter1_d_2033_2" x="9.25" y="15.25" width="45.5" height="37.5" filterUnits="userSpaceOnUse" color-interpolation-filters="sRGB">
<feFlood flood-opacity="0" result="BackgroundImageFix"/>
<feColorMatrix in="SourceAlpha" type="matrix" values="0 0 0 0 0 0 0 0 0 0 0 0 0 0 0 0 0 0 127 0" result="hardAlpha"/>
<feOffset dy="2"/>
<feGaussianBlur stdDeviation="1.5"/>
<feComposite in2="hardAlpha" operator="out"/>
<feColorMatrix type="matrix" values="0 0 0 0 0 0 0 0 0 0 0 0 0 0 0 0 0 0 0.35 0"/>
<feBlend mode="normal" in2="BackgroundImageFix" result="effect1_dropShadow_2033_2"/>
<feBlend mode="normal" in="SourceGraphic" in2="effect1_dropShadow_2033_2" result="shape"/>
</filter>
</defs>
</svg>
