<?xml version="1.0" encoding="UTF-8"?>
<svg width="256px" height="256px" viewBox="0 0 256 256" version="1.1" xmlns="http://www.w3.org/2000/svg" xmlns:xlink="http://www.w3.org/1999/xlink">
    <title>aa</title>
    <g id="页面-1" stroke="none" stroke-width="1" fill="none" fill-rule="evenodd">
        <g id="aa" fill-rule="nonzero">
            <path d="M218.528375,218.429193 C193.501535,243.511794 159.171083,257.057143 123.75991,255.820832 C112.911872,255.461297 110.196763,242.530435 115.341832,234.744643 C137.558615,201.183911 209.217659,199.91934 240.84434,160.358093 C247.137363,152.37918 251.609926,143.120933 253.948771,133.231798 C254.643045,130.491893 255.510888,127.442044 255.969605,125.272437 C256.729816,160.119299 243.201724,193.76035 218.528375,218.379602 L218.528375,218.429193 Z" id="路径" fill="#00DEB9"></path>
            <path d="M218.453988,218.50358 C243.53531,193.475899 257.080429,159.146028 255.845628,123.735115 C255.486093,112.874678 242.542833,110.171967 234.769438,115.317037 C208.572975,132.661501 202.113743,180.144915 181.657442,215.18098 C169.953958,235.277747 149.522452,253.849589 125.396414,255.870423 C160.218983,256.656986 193.845663,243.154346 218.453988,218.50358 Z" id="路径" fill="#1D88E1"></path>
            <path d="M37.4963077,37.5458988 C62.5256692,12.4671364 96.854379,-1.07752457 132.264772,0.15425963 C143.137607,0.513794622 145.82792,13.4570543 140.68285,21.2304488 C118.478465,54.7911806 46.8070243,56.055752 15.1803427,95.6169988 C8.88731994,103.595912 4.4147571,112.854159 2.07591217,122.743294 C1.38163771,125.433608 0.52619238,128.483456 0.0302820465,130.653064 C-0.728474797,95.8064664 12.7993959,62.1659667 37.4715122,37.5458988 L37.4963077,37.5458988 Z" id="路径" fill="#00DEB9"></path>
            <path d="M37.5706943,37.4715122 C12.491932,62.5008737 -1.05272905,96.8295835 0.179055147,132.239977 C0.538590138,143.112811 13.4818498,145.803125 21.2552443,140.658055 C54.8159761,118.45367 56.0805475,46.7822287 95.6417944,15.1555472 C103.620707,8.86252442 112.878955,4.38996158 122.76809,2.05111666 C125.507994,1.35684219 128.557843,0.501396863 130.72745,0.0302820465 C95.8808529,-0.728474797 62.2403533,12.7993959 37.6202853,37.4715122 L37.5706943,37.4715122 Z" id="路径" fill="#1D88E1"></path>
            <path d="M54.5804187,232.835388 C14.7712167,164.151807 280.008859,130.603473 234.347915,56.7872197 C225.54987,43.678136 214.412765,32.3014776 201.493855,23.2264879 C233.529663,78.2229439 77.5162717,108.99418 29.3013895,155.312205 C15.2795248,168.763773 13.5438386,187.992696 24.8257987,203.750247 C33.1009569,214.99485 43.1504416,224.818221 54.5804187,232.835388 L54.5804187,232.835388 Z" id="路径" fill="#00DEB9"></path>
            <path d="M232.798195,54.5556232 C169.061319,17.6350989 137.0875,238.141629 74.8135603,240.521998 C69.2717624,240.745158 62.9117123,238.042447 56.7624242,234.323119 C43.6533405,225.525075 32.2766821,214.387969 23.2016924,201.46906 C88.6742542,239.62936 119.829821,11.163469 183.727867,15.5522755 C189.542416,15.9490038 196.869491,19.9782752 203.700656,24.862992 C214.942462,33.1454186 224.76883,43.1936862 232.798195,54.617612 L232.798195,54.5556232 Z" id="路径" fill="#1D88E1"></path>
        </g>
    </g>
</svg>