<?xml version="1.0" encoding="UTF-8"?>
<svg width="247px" height="100px" viewBox="0 0 247 100" version="1.1" xmlns="http://www.w3.org/2000/svg" xmlns:xlink="http://www.w3.org/1999/xlink">
    <title>logo-zh</title>
    <g id="加油包" stroke="none" stroke-width="1" fill="none" fill-rule="evenodd">
        <g id="logo-zh" fill="#3D3C60">
            <path d="M24.9682,34.7611 C24.9682,32.8517 26.5199,31.3039 28.4341,31.3039 C30.3483,31.3039 31.9001,32.8517 31.9001,34.7611 C31.9001,36.6704 30.3483,38.2182 28.4341,38.2182 C26.5199,38.2182 24.9682,36.6704 24.9682,34.7611 Z" id="路径" fill-rule="nonzero"></path>
            <path d="M71.5659,62.0344 C69.6517,62.0344 68.0999,63.5823 68.0999,65.4916 C68.0999,67.401 69.6517,68.9488 71.5659,68.9488 C73.48,68.9488 75.0318,67.401 75.0318,65.4916 C75.0318,63.5823 73.48,62.0344 71.5659,62.0344 Z" id="路径" fill-rule="nonzero"></path>
            <path d="M50,0 C22.3858,0 0,22.3858 0,50 C0,77.6142 22.3858,100 50,100 C77.6142,100 100,77.6142 100,50 C100,22.3858 77.6142,0 50,0 Z M28.4341,25.926 C23.5423,25.926 19.5767,29.8816 19.5767,34.7611 C19.5767,39.6405 23.5423,43.5961 28.4341,43.5961 C32.386,43.5961 35.7334,41.0146 36.8739,37.45 L40.7575,37.45 C44.3732,37.45 47.3043,40.3737 47.3043,43.9802 L47.3043,56.2725 C47.3043,62.8491 52.6492,68.1806 59.2425,68.1806 L63.1261,68.1806 C64.2666,71.7452 67.614,74.3267 71.5659,74.3267 C76.4577,74.3267 80.4233,70.3711 80.4233,65.4916 C80.4233,60.6122 76.4577,56.6566 71.5659,56.6566 C67.614,56.6566 64.2666,59.2381 63.1261,62.8027 L59.2425,62.8027 C55.6268,62.8027 52.6957,59.879 52.6957,56.2725 L52.6957,43.9802 C52.6957,37.4036 47.3508,32.0721 40.7575,32.0721 L36.8739,32.0721 C35.7334,28.5075 32.386,25.926 28.4341,25.926 Z" id="形状"></path>
            <path d="M156.52,73.88 L156.52,76.28 L150.28,76.28 L150.28,54.68 L184.6,54.68 L184.6,76.28 L178.12,76.28 L178.12,73.88 L156.52,73.88 Z M178.12,68.9 L178.12,59.72 L156.52,59.72 L156.52,68.9 L178.12,68.9 Z" id="形状"></path>
            <path d="M134.8,55.64 L130,54.74 C131.4,47.9 132.4,40.96 133,33.92 L137.8,34.4 C137.2,41.6 136.2,48.68 134.8,55.64 Z" id="路径" fill-rule="nonzero"></path>
            <path d="M151.12,44 L146.5,44.9 C145.74,40.62 145.2,37.8 144.88,36.44 L144.88,77 L138.52,77 L138.52,23 L144.88,23 L144.88,33.02 L148.6,32.12 C149.48,35.52 150.32,39.48 151.12,44 Z" id="路径" fill-rule="nonzero"></path>
            <path d="M147.52,45.8 L158.08,45.8 L159.46,39.92 L151.48,39.92 L151.48,35 L160.6,35 L161.74,30.08 L149.8,30.08 L149.8,24.8 L185.8,24.8 L185.8,30.08 L168.22,30.08 L167.08,35 L183.1,35 L183.1,45.8 L187.3,45.8 L187.3,51.08 L147.52,51.08 L147.52,45.8 Z M165.94,39.92 L164.56,45.8 L176.8,45.8 L176.8,39.92 L165.94,39.92 Z" id="形状"></path>
            <path d="M227.22,55.7 L221.4,56.78 C223.08,58.98 224.54,61.22 225.78,63.5 L231.78,62.42 C230.66,60.5 229.14,58.26 227.22,55.7 Z" id="路径" fill-rule="nonzero"></path>
            <path d="M197.22,42.32 L215.82,42.32 L215.82,44.42 L195.3,44.42 L195.3,48.5 L215.82,48.5 L215.82,50.78 L192.6,50.78 L192.6,55.1 L200.28,55.1 C198,57.66 195.34,60.16 192.3,62.6 L196.8,64.82 L196.8,68.3 L216,68.3 L216,70.82 L192.6,70.82 L192.6,76.1 L246,76.1 L246,70.82 L222.6,70.82 L222.6,68.3 L241.8,68.3 L241.8,65.18 L246.3,62.9 C243.9,60.18 241.32,57.58 238.56,55.1 L246,55.1 L246,50.78 L222.78,50.78 L222.78,48.5 L243.3,48.5 L243.3,44.42 L222.78,44.42 L222.78,42.32 L241.38,42.32 L241.38,23.9 L197.22,23.9 L197.22,42.32 Z M215.82,28.82 L215.82,31.82 L203.7,31.82 L203.7,28.82 L215.82,28.82 Z M234.9,31.82 L222.78,31.82 L222.78,28.82 L234.9,28.82 L234.9,31.82 Z M234.9,38.42 L222.78,38.42 L222.78,35.42 L234.9,35.42 L234.9,38.42 Z M215.82,38.42 L203.7,38.42 L203.7,35.42 L215.82,35.42 L215.82,38.42 Z M208.5,56.6 C209.58,59.04 210.38,61.34 210.9,63.5 L216,62.9 L216,64.1 L199.14,64.1 C201.74,61.86 204.02,59.56 205.98,57.2 L201.24,55.1 L237.24,55.1 L233.1,57.38 C235.98,59.94 238.28,62.18 240,64.1 L222.6,64.1 L222.6,59.3 L216,59.3 C215.52,57.98 215.02,56.78 214.5,55.7 L208.5,56.6 Z" id="形状"></path>
        </g>
    </g>
</svg>