<svg width="132" height="143" viewBox="0 0 132 143" fill="none" xmlns="http://www.w3.org/2000/svg">
<path fill-rule="evenodd" clip-rule="evenodd" d="M126 37.3729C126 35.9483 126.001 34.5236 125.992 33.0989C125.985 31.8988 125.971 30.6989 125.938 29.4994C125.868 26.8849 125.714 24.2479 125.249 21.6625C124.777 19.0399 124.007 16.599 122.793 14.216C121.6 11.8738 120.042 9.7306 118.183 7.8725C116.324 6.0144 114.18 4.45702 111.837 3.26475C109.451 2.05092 107.008 1.28111 104.382 0.809706C101.797 0.345436 99.1589 0.191504 96.5444 0.120873C95.344 0.0883977 94.1436 0.0747085 92.9429 0.0672813C91.5174 0.0585435 90.092 0.0592716 88.6666 0.0592716L72.116 0H59.7375L43.4798 0.0592716C42.0516 0.0592716 40.6234 0.0585435 39.1952 0.0672813C37.992 0.0747085 36.7894 0.0883977 35.5866 0.120873C32.966 0.191504 30.3224 0.345581 27.7306 0.810434C25.1016 1.28169 22.6544 2.05121 20.2658 3.26416C17.9178 4.45659 15.7693 6.0141 13.9064 7.8725C12.0438 9.73045 10.4825 11.8733 9.28731 14.215C8.07042 16.5991 7.29887 19.0415 6.82616 21.6656C6.36073 24.25 6.2065 26.886 6.13558 29.4994C6.10325 30.6991 6.08927 31.8989 6.08199 33.0989C6.07325 34.5238 6 36.2936 6 37.7183L6.00044 53.7508L6 66.2619L6.07398 82.635C6.07398 84.0616 6.0734 85.4882 6.08199 86.9148C6.08927 88.1165 6.10325 89.318 6.13573 90.5193C6.2065 93.1371 6.36102 95.7779 6.82689 98.3667C7.29946 100.993 8.07086 103.437 9.28672 105.823C10.4821 108.169 12.0436 110.315 13.9064 112.176C15.7692 114.036 17.917 115.596 20.2646 116.79C22.6547 118.005 25.103 118.776 27.7337 119.248C30.3243 119.713 32.967 119.867 35.5866 119.938C36.7894 119.97 37.9921 119.984 39.1953 119.991C40.6235 120 42.0516 120 43.4798 120L59.8844 120H72.2937L88.6666 119.999C90.092 119.999 91.5174 120 92.9429 119.991C94.1436 119.984 95.344 119.97 96.5444 119.938C99.16 119.867 101.798 119.713 104.385 119.247C107.009 118.775 109.452 118.005 111.836 116.79C114.179 115.596 116.323 114.037 118.183 112.176C120.042 110.315 121.6 108.169 122.793 105.824C124.007 103.437 124.777 100.992 125.249 98.3637C125.714 95.7758 125.868 93.1361 125.938 90.5193C125.971 89.3178 125.985 88.1164 125.992 86.9148C126.001 85.4882 126 84.0616 126 82.635C126 82.635 125.999 66.551 125.999 66.2619V53.7377C125.999 53.5242 126 37.3729 126 37.3729Z" fill="url(#paint0_linear_2466_23107)"/>
<g filter="url(#filter0_ii_2466_23107)">
<rect x="13.7417" y="7.7417" width="104.516" height="104.516" rx="52.2581" fill="url(#paint1_linear_2466_23107)"/>
</g>
<g filter="url(#filter1_dddddd_2466_23107)">
<path fill-rule="evenodd" clip-rule="evenodd" d="M15.9537 59.9998C15.9537 87.6395 38.3601 110.046 65.9998 110.046C93.6395 110.046 116.046 87.6395 116.046 59.9998C116.046 32.3601 93.6395 9.95368 65.9998 9.95368C38.3601 9.95368 15.9537 32.3601 15.9537 59.9998ZM65.9998 7.7417C37.1384 7.7417 13.7417 31.1384 13.7417 59.9998C13.7417 88.8611 37.1384 112.258 65.9998 112.258C94.8611 112.258 118.258 88.8611 118.258 59.9998C118.258 31.1384 94.8611 7.7417 65.9998 7.7417Z" fill="url(#paint2_linear_2466_23107)" shape-rendering="crispEdges"/>
</g>
<g filter="url(#filter2_dddddd_2466_23107)">
<path fill-rule="evenodd" clip-rule="evenodd" d="M34.2026 44.0732C34.2026 38.9733 38.3473 34.8391 43.4601 34.8391C47.5904 34.8391 51.0889 37.5372 52.2809 41.2628H56.34C63.231 41.2628 68.8173 46.835 68.8173 53.7087V66.556C68.8173 70.3255 71.8808 73.3812 75.6598 73.3812H79.7188C80.9108 69.6556 84.4094 66.9575 88.5397 66.9575C93.6524 66.9575 97.7971 71.0917 97.7971 76.1916C97.7971 81.2914 93.6524 85.4256 88.5397 85.4256C84.4094 85.4256 80.9108 82.7275 79.7188 79.0019H75.6598C68.7687 79.0019 63.1824 73.4297 63.1824 66.556V53.7087C63.1824 49.9392 60.1189 46.8835 56.34 46.8835H52.2809C51.0889 50.6091 47.5904 53.3072 43.4601 53.3072C38.3473 53.3072 34.2026 49.173 34.2026 44.0732ZM43.4601 40.4598C41.4594 40.4598 39.8376 42.0776 39.8376 44.0732C39.8376 46.0687 41.4594 47.6865 43.4601 47.6865C45.4607 47.6865 47.0825 46.0687 47.0825 44.0732C47.0825 42.0776 45.4607 40.4598 43.4601 40.4598ZM84.9172 76.1916C84.9172 74.196 86.5391 72.5783 88.5397 72.5783C90.5403 72.5783 92.1622 74.196 92.1622 76.1916C92.1622 78.1872 90.5403 79.8049 88.5397 79.8049C86.5391 79.8049 84.9172 78.1872 84.9172 76.1916Z" fill="white"/>
</g>
<defs>
<filter id="filter0_ii_2466_23107" x="13.7417" y="7.7417" width="104.516" height="110.516" filterUnits="userSpaceOnUse" color-interpolation-filters="sRGB">
<feFlood flood-opacity="0" result="BackgroundImageFix"/>
<feBlend mode="normal" in="SourceGraphic" in2="BackgroundImageFix" result="shape"/>
<feColorMatrix in="SourceAlpha" type="matrix" values="0 0 0 0 0 0 0 0 0 0 0 0 0 0 0 0 0 0 127 0" result="hardAlpha"/>
<feOffset dy="6"/>
<feGaussianBlur stdDeviation="15"/>
<feComposite in2="hardAlpha" operator="arithmetic" k2="-1" k3="1"/>
<feColorMatrix type="matrix" values="0 0 0 0 0 0 0 0 0 0 0 0 0 0 0 0 0 0 0.45 0"/>
<feBlend mode="normal" in2="shape" result="effect1_innerShadow_2466_23107"/>
<feColorMatrix in="SourceAlpha" type="matrix" values="0 0 0 0 0 0 0 0 0 0 0 0 0 0 0 0 0 0 127 0" result="hardAlpha"/>
<feOffset dy="4"/>
<feGaussianBlur stdDeviation="5"/>
<feComposite in2="hardAlpha" operator="arithmetic" k2="-1" k3="1"/>
<feColorMatrix type="matrix" values="0 0 0 0 0 0 0 0 0 0 0 0 0 0 0 0 0 0 0.5 0"/>
<feBlend mode="normal" in2="effect1_innerShadow_2466_23107" result="effect2_innerShadow_2466_23107"/>
</filter>
<filter id="filter1_dddddd_2466_23107" x="0.241699" y="7.7417" width="131.516" height="134.516" filterUnits="userSpaceOnUse" color-interpolation-filters="sRGB">
<feFlood flood-opacity="0" result="BackgroundImageFix"/>
<feColorMatrix in="SourceAlpha" type="matrix" values="0 0 0 0 0 0 0 0 0 0 0 0 0 0 0 0 0 0 127 0" result="hardAlpha"/>
<feOffset dy="1.09727"/>
<feGaussianBlur stdDeviation="0.448882"/>
<feColorMatrix type="matrix" values="0 0 0 0 0 0 0 0 0 0 0 0 0 0 0 0 0 0 0.0363503 0"/>
<feBlend mode="normal" in2="BackgroundImageFix" result="effect1_dropShadow_2466_23107"/>
<feColorMatrix in="SourceAlpha" type="matrix" values="0 0 0 0 0 0 0 0 0 0 0 0 0 0 0 0 0 0 127 0" result="hardAlpha"/>
<feOffset dy="2.06606"/>
<feGaussianBlur stdDeviation="0.845205"/>
<feColorMatrix type="matrix" values="0 0 0 0 0 0 0 0 0 0 0 0 0 0 0 0 0 0 0.045 0"/>
<feBlend mode="normal" in2="effect1_dropShadow_2466_23107" result="effect2_dropShadow_2466_23107"/>
<feColorMatrix in="SourceAlpha" type="matrix" values="0 0 0 0 0 0 0 0 0 0 0 0 0 0 0 0 0 0 127 0" result="hardAlpha"/>
<feOffset dy="3.68549"/>
<feGaussianBlur stdDeviation="1.5077"/>
<feColorMatrix type="matrix" values="0 0 0 0 0 0 0 0 0 0 0 0 0 0 0 0 0 0 0.0536497 0"/>
<feBlend mode="normal" in2="effect2_dropShadow_2466_23107" result="effect3_dropShadow_2466_23107"/>
<feColorMatrix in="SourceAlpha" type="matrix" values="0 0 0 0 0 0 0 0 0 0 0 0 0 0 0 0 0 0 127 0" result="hardAlpha"/>
<feOffset dy="6.89331"/>
<feGaussianBlur stdDeviation="2.81999"/>
<feColorMatrix type="matrix" values="0 0 0 0 0 0 0 0 0 0 0 0 0 0 0 0 0 0 0.0646969 0"/>
<feBlend mode="normal" in2="effect3_dropShadow_2466_23107" result="effect4_dropShadow_2466_23107"/>
<feColorMatrix in="SourceAlpha" type="matrix" values="0 0 0 0 0 0 0 0 0 0 0 0 0 0 0 0 0 0 127 0" result="hardAlpha"/>
<feOffset dy="16.5"/>
<feGaussianBlur stdDeviation="6.75"/>
<feColorMatrix type="matrix" values="0 0 0 0 0 0 0 0 0 0 0 0 0 0 0 0 0 0 0.09 0"/>
<feBlend mode="normal" in2="effect4_dropShadow_2466_23107" result="effect5_dropShadow_2466_23107"/>
<feColorMatrix in="SourceAlpha" type="matrix" values="0 0 0 0 0 0 0 0 0 0 0 0 0 0 0 0 0 0 127 0" result="hardAlpha"/>
<feOffset dy="4"/>
<feGaussianBlur stdDeviation="2"/>
<feComposite in2="hardAlpha" operator="out"/>
<feColorMatrix type="matrix" values="0 0 0 0 0 0 0 0 0 0 0 0 0 0 0 0 0 0 0.25 0"/>
<feBlend mode="normal" in2="effect5_dropShadow_2466_23107" result="effect6_dropShadow_2466_23107"/>
<feBlend mode="normal" in="SourceGraphic" in2="effect6_dropShadow_2466_23107" result="shape"/>
</filter>
<filter id="filter2_dddddd_2466_23107" x="20.7026" y="34.8391" width="90.5942" height="80.5864" filterUnits="userSpaceOnUse" color-interpolation-filters="sRGB">
<feFlood flood-opacity="0" result="BackgroundImageFix"/>
<feColorMatrix in="SourceAlpha" type="matrix" values="0 0 0 0 0 0 0 0 0 0 0 0 0 0 0 0 0 0 127 0" result="hardAlpha"/>
<feOffset dy="0.456597"/>
<feGaussianBlur stdDeviation="0.18679"/>
<feColorMatrix type="matrix" values="0 0 0 0 0 0 0 0 0 0 0 0 0 0 0 0 0 0 0.0253031 0"/>
<feBlend mode="normal" in2="BackgroundImageFix" result="effect1_dropShadow_2466_23107"/>
<feColorMatrix in="SourceAlpha" type="matrix" values="0 0 0 0 0 0 0 0 0 0 0 0 0 0 0 0 0 0 127 0" result="hardAlpha"/>
<feOffset dy="1.09727"/>
<feGaussianBlur stdDeviation="0.448882"/>
<feColorMatrix type="matrix" values="0 0 0 0 0 0 0 0 0 0 0 0 0 0 0 0 0 0 0.0363503 0"/>
<feBlend mode="normal" in2="effect1_dropShadow_2466_23107" result="effect2_dropShadow_2466_23107"/>
<feColorMatrix in="SourceAlpha" type="matrix" values="0 0 0 0 0 0 0 0 0 0 0 0 0 0 0 0 0 0 127 0" result="hardAlpha"/>
<feOffset dy="2.06606"/>
<feGaussianBlur stdDeviation="0.845205"/>
<feColorMatrix type="matrix" values="0 0 0 0 0 0 0 0 0 0 0 0 0 0 0 0 0 0 0.045 0"/>
<feBlend mode="normal" in2="effect2_dropShadow_2466_23107" result="effect3_dropShadow_2466_23107"/>
<feColorMatrix in="SourceAlpha" type="matrix" values="0 0 0 0 0 0 0 0 0 0 0 0 0 0 0 0 0 0 127 0" result="hardAlpha"/>
<feOffset dy="3.68549"/>
<feGaussianBlur stdDeviation="1.5077"/>
<feColorMatrix type="matrix" values="0 0 0 0 0 0 0 0 0 0 0 0 0 0 0 0 0 0 0.0536497 0"/>
<feBlend mode="normal" in2="effect3_dropShadow_2466_23107" result="effect4_dropShadow_2466_23107"/>
<feColorMatrix in="SourceAlpha" type="matrix" values="0 0 0 0 0 0 0 0 0 0 0 0 0 0 0 0 0 0 127 0" result="hardAlpha"/>
<feOffset dy="6.89331"/>
<feGaussianBlur stdDeviation="2.81999"/>
<feColorMatrix type="matrix" values="0 0 0 0 0 0 0 0 0 0 0 0 0 0 0 0 0 0 0.0646969 0"/>
<feBlend mode="normal" in2="effect4_dropShadow_2466_23107" result="effect5_dropShadow_2466_23107"/>
<feColorMatrix in="SourceAlpha" type="matrix" values="0 0 0 0 0 0 0 0 0 0 0 0 0 0 0 0 0 0 127 0" result="hardAlpha"/>
<feOffset dy="16.5"/>
<feGaussianBlur stdDeviation="6.75"/>
<feColorMatrix type="matrix" values="0 0 0 0 0 0 0 0 0 0 0 0 0 0 0 0 0 0 0.09 0"/>
<feBlend mode="normal" in2="effect5_dropShadow_2466_23107" result="effect6_dropShadow_2466_23107"/>
<feBlend mode="normal" in="SourceGraphic" in2="effect6_dropShadow_2466_23107" result="shape"/>
</filter>
<linearGradient id="paint0_linear_2466_23107" x1="66" y1="0" x2="66" y2="120" gradientUnits="userSpaceOnUse">
<stop stop-color="#F5F5F5"/>
<stop offset="1" stop-color="#D6D6D6"/>
</linearGradient>
<linearGradient id="paint1_linear_2466_23107" x1="65.9998" y1="-5.62523" x2="65.9998" y2="78.7498" gradientUnits="userSpaceOnUse">
<stop stop-color="#9599D2"/>
<stop offset="1" stop-color="#2F3363"/>
</linearGradient>
<linearGradient id="paint2_linear_2466_23107" x1="65.9998" y1="7.7417" x2="65.9998" y2="112.258" gradientUnits="userSpaceOnUse">
<stop stop-color="white" stop-opacity="0"/>
<stop offset="1" stop-color="white"/>
</linearGradient>
</defs>
</svg>
