<svg width="247" height="100" viewBox="0 0 247 100" fill="none" xmlns="http://www.w3.org/2000/svg">
<path d="M24.9682 34.7611C24.9682 32.8517 26.5199 31.3039 28.4341 31.3039C30.3483 31.3039 31.9001 32.8517 31.9001 34.7611C31.9001 36.6704 30.3483 38.2182 28.4341 38.2182C26.5199 38.2182 24.9682 36.6704 24.9682 34.7611Z" fill="#F0F6FC"/>
<path d="M71.5659 62.0344C69.6517 62.0344 68.0999 63.5823 68.0999 65.4916C68.0999 67.401 69.6517 68.9488 71.5659 68.9488C73.48 68.9488 75.0318 67.401 75.0318 65.4916C75.0318 63.5823 73.48 62.0344 71.5659 62.0344Z" fill="#F0F6FC"/>
<path fill-rule="evenodd" clip-rule="evenodd" d="M50 0C22.3858 0 0 22.3858 0 50C0 77.6142 22.3858 100 50 100C77.6142 100 100 77.6142 100 50C100 22.3858 77.6142 0 50 0ZM28.4341 25.926C23.5423 25.926 19.5767 29.8816 19.5767 34.7611C19.5767 39.6405 23.5423 43.5961 28.4341 43.5961C32.386 43.5961 35.7334 41.0146 36.8739 37.45H40.7575C44.3732 37.45 47.3043 40.3737 47.3043 43.9802V56.2725C47.3043 62.8491 52.6492 68.1806 59.2425 68.1806H63.1261C64.2666 71.7452 67.614 74.3267 71.5659 74.3267C76.4577 74.3267 80.4233 70.3711 80.4233 65.4916C80.4233 60.6122 76.4577 56.6566 71.5659 56.6566C67.614 56.6566 64.2666 59.2381 63.1261 62.8027H59.2425C55.6268 62.8027 52.6957 59.879 52.6957 56.2725V43.9802C52.6957 37.4036 47.3508 32.0721 40.7575 32.0721H36.8739C35.7334 28.5075 32.386 25.926 28.4341 25.926Z" fill="#F0F6FC"/>
<path fill-rule="evenodd" clip-rule="evenodd" d="M156.52 73.88V76.28H150.28V54.68H184.6V76.28H178.12V73.88H156.52ZM178.12 68.9V59.72H156.52V68.9H178.12Z" fill="#F0F6FC"/>
<path d="M134.8 55.64L130 54.74C131.4 47.9 132.4 40.96 133 33.92L137.8 34.4C137.2 41.6 136.2 48.68 134.8 55.64Z" fill="#F0F6FC"/>
<path d="M151.12 44L146.5 44.9C145.74 40.62 145.2 37.8 144.88 36.44V77H138.52V23H144.88V33.02L148.6 32.12C149.48 35.52 150.32 39.48 151.12 44Z" fill="#F0F6FC"/>
<path fill-rule="evenodd" clip-rule="evenodd" d="M147.52 45.8H158.08L159.46 39.92H151.48V35H160.6L161.74 30.08H149.8V24.8H185.8V30.08H168.22L167.08 35H183.1V45.8H187.3V51.08H147.52V45.8ZM165.94 39.92L164.56 45.8H176.8V39.92H165.94Z" fill="#F0F6FC"/>
<path d="M227.22 55.7L221.4 56.78C223.08 58.98 224.54 61.22 225.78 63.5L231.78 62.42C230.66 60.5 229.14 58.26 227.22 55.7Z" fill="#F0F6FC"/>
<path fill-rule="evenodd" clip-rule="evenodd" d="M197.22 42.32H215.82V44.42H195.3V48.5H215.82V50.78H192.6V55.1H200.28C198 57.66 195.34 60.16 192.3 62.6L196.8 64.82V68.3H216V70.82H192.6V76.1H246V70.82H222.6V68.3H241.8V65.18L246.3 62.9C243.9 60.18 241.32 57.58 238.56 55.1H246V50.78H222.78V48.5H243.3V44.42H222.78V42.32H241.38V23.9H197.22V42.32ZM215.82 28.82V31.82H203.7V28.82H215.82ZM234.9 31.82H222.78V28.82H234.9V31.82ZM234.9 38.42H222.78V35.42H234.9V38.42ZM215.82 38.42H203.7V35.42H215.82V38.42ZM208.5 56.6C209.58 59.04 210.38 61.34 210.9 63.5L216 62.9V64.1H199.14C201.74 61.86 204.02 59.56 205.98 57.2L201.24 55.1H237.24L233.1 57.38C235.98 59.94 238.28 62.18 240 64.1H222.6V59.3H216C215.52 57.98 215.02 56.78 214.5 55.7L208.5 56.6Z" fill="#F0F6FC"/>
</svg>
