<?xml version="1.0" encoding="UTF-8"?>
<svg width="351px" height="100px" viewBox="0 0 351 100" version="1.1" xmlns="http://www.w3.org/2000/svg" xmlns:xlink="http://www.w3.org/1999/xlink">
    <title>logo-en</title>
    <g id="加油包" stroke="none" stroke-width="1" fill="none" fill-rule="evenodd">
        <g id="logo-en" transform="translate(-0, 0)" fill="#3D3C60">
            <path d="M28.4341,31.3039 C26.5199,31.3039 24.9682,32.8517 24.9682,34.7611 C24.9682,36.6704 26.5199,38.2182 28.4341,38.2182 C30.3483,38.2182 31.9001,36.6704 31.9001,34.7611 C31.9001,32.8517 30.3483,31.3039 28.4341,31.3039 Z" id="路径" fill-rule="nonzero"></path>
            <path d="M68.0999,65.4916 C68.0999,63.5823 69.6517,62.0344 71.5659,62.0344 C73.48,62.0344 75.0318,63.5823 75.0318,65.4916 C75.0318,67.401 73.48,68.9488 71.5659,68.9488 C69.6517,68.9488 68.0999,67.401 68.0999,65.4916 Z" id="路径" fill-rule="nonzero"></path>
            <path d="M0,50 C0,22.3858 22.3858,0 50,0 C77.6142,0 100,22.3858 100,50 C100,77.6142 77.6142,100 50,100 C22.3858,100 0,77.6142 0,50 Z M19.5767,34.7611 C19.5767,29.8816 23.5423,25.926 28.4341,25.926 C32.386,25.926 35.7334,28.5075 36.8739,32.0721 L40.7575,32.0721 C47.3508,32.0721 52.6957,37.4036 52.6957,43.9802 L52.6957,56.2725 C52.6957,59.879 55.6268,62.8027 59.2425,62.8027 L63.1261,62.8027 C64.2666,59.2381 67.614,56.6566 71.5659,56.6566 C76.4577,56.6566 80.4233,60.6122 80.4233,65.4916 C80.4233,70.3711 76.4577,74.3267 71.5659,74.3267 C67.614,74.3267 64.2666,71.7452 63.1261,68.1806 L59.2425,68.1806 C52.6492,68.1806 47.3043,62.8491 47.3043,56.2725 L47.3043,43.9802 C47.3043,40.3737 44.3732,37.45 40.7575,37.45 L36.8739,37.45 C35.7334,41.0146 32.386,43.5961 28.4341,43.5961 C23.5423,43.5961 19.5767,39.6405 19.5767,34.7611 Z" id="形状"></path>
            <polygon id="路径" fill-rule="nonzero" points="237.44 46.49 234.56 72.05 227.24 72.05 233 27.95 250.22 56.45 267.5 27.95 273.26 72.05 265.94 72.05 263 46.49 250.22 68.15"></polygon>
            <path d="M131.62,41.21 C130.54,43.85 130,46.75 130,49.91 C130,53.03 130.54,55.93 131.62,58.61 C132.7,61.29 134.2,63.61 136.12,65.57 C138.08,67.53 140.4,69.07 143.08,70.19 C145.76,71.27 148.66,71.81 151.78,71.81 C154.94,71.81 157.84,71.27 160.48,70.19 C163.16,69.07 165.48,67.53 167.44,65.57 C169.4,63.61 170.92,61.29 172,58.61 C173.08,55.93 173.62,53.03 173.62,49.91 C173.62,46.75 173.08,43.85 172,41.21 C170.92,38.57 169.38,36.29 167.38,34.37 C165.42,32.41 163.12,30.89 160.48,29.81 C157.84,28.73 154.94,28.19 151.78,28.19 C148.7,28.19 145.82,28.73 143.14,29.81 C140.5,30.89 138.18,32.41 136.18,34.37 C134.22,36.29 132.7,38.57 131.62,41.21 Z M139.3,57.65 C138.1,55.37 137.5,52.79 137.5,49.91 C137.5,47.03 138.1,44.47 139.3,42.23 C140.54,39.95 142.24,38.17 144.4,36.89 C146.56,35.61 149.02,34.97 151.78,34.97 C154.62,34.97 157.1,35.61 159.22,36.89 C161.38,38.17 163.06,39.95 164.26,42.23 C165.46,44.47 166.06,47.03 166.06,49.91 C166.06,52.79 165.44,55.37 164.2,57.65 C163,59.89 161.32,61.65 159.16,62.93 C157.04,64.21 154.58,64.85 151.78,64.85 C149.02,64.85 146.56,64.21 144.4,62.93 C142.24,61.65 140.54,59.89 139.3,57.65 Z" id="形状"></path>
            <path d="M180.24,41.21 C179.16,43.85 178.62,46.75 178.62,49.91 C178.62,53.03 179.16,55.93 180.24,58.61 C181.32,61.29 182.82,63.61 184.74,65.57 C186.7,67.53 189.02,69.07 191.7,70.19 C194.38,71.27 197.28,71.81 200.4,71.81 C203.56,71.81 206.46,71.27 209.1,70.19 C211.78,69.07 214.1,67.53 216.06,65.57 C218.02,63.61 219.54,61.29 220.62,58.61 C221.7,55.93 222.24,53.03 222.24,49.91 C222.24,46.75 221.7,43.85 220.62,41.21 C219.54,38.57 218,36.29 216,34.37 C214.04,32.41 211.74,30.89 209.1,29.81 C206.46,28.73 203.56,28.19 200.4,28.19 C197.32,28.19 194.44,28.73 191.76,29.81 C189.12,30.89 186.8,32.41 184.8,34.37 C182.84,36.29 181.32,38.57 180.24,41.21 Z M187.92,57.65 C186.72,55.37 186.12,52.79 186.12,49.91 C186.12,47.03 186.72,44.47 187.92,42.23 C189.16,39.95 190.86,38.17 193.02,36.89 C195.18,35.61 197.64,34.97 200.4,34.97 C203.24,34.97 205.72,35.61 207.84,36.89 C210,38.17 211.68,39.95 212.88,42.23 C214.08,44.47 214.68,47.03 214.68,49.91 C214.68,52.79 214.06,55.37 212.82,57.65 C211.62,59.89 209.94,61.65 207.78,62.93 C205.66,64.21 203.2,64.85 200.4,64.85 C197.64,64.85 195.18,64.21 193.02,62.93 C190.86,61.65 189.16,59.89 187.92,57.65 Z" id="形状"></path>
            <path d="M279.88,41.21 C278.8,43.85 278.26,46.75 278.26,49.91 C278.26,53.03 278.8,55.93 279.88,58.61 C280.96,61.29 282.46,63.61 284.38,65.57 C286.34,67.53 288.66,69.07 291.34,70.19 C294.02,71.27 296.92,71.81 300.04,71.81 C303.2,71.81 306.1,71.27 308.74,70.19 C311.42,69.07 313.74,67.53 315.7,65.57 C317.66,63.61 319.18,61.29 320.26,58.61 C321.34,55.93 321.88,53.03 321.88,49.91 C321.88,46.75 321.34,43.85 320.26,41.21 C319.18,38.57 317.64,36.29 315.64,34.37 C313.68,32.41 311.38,30.89 308.74,29.81 C306.1,28.73 303.2,28.19 300.04,28.19 C296.96,28.19 294.08,28.73 291.4,29.81 C288.76,30.89 286.44,32.41 284.44,34.37 C282.48,36.29 280.96,38.57 279.88,41.21 Z M287.56,57.65 C286.36,55.37 285.76,52.79 285.76,49.91 C285.76,47.03 286.36,44.47 287.56,42.23 C288.8,39.95 290.5,38.17 292.66,36.89 C294.82,35.61 297.28,34.97 300.04,34.97 C302.88,34.97 305.36,35.61 307.48,36.89 C309.64,38.17 311.32,39.95 312.52,42.23 C313.72,44.47 314.32,47.03 314.32,49.91 C314.32,52.79 313.7,55.37 312.46,57.65 C311.26,59.89 309.58,61.65 307.42,62.93 C305.3,64.21 302.84,64.85 300.04,64.85 C297.28,64.85 294.82,64.21 292.66,62.93 C290.5,61.65 288.8,59.89 287.56,57.65 Z" id="形状"></path>
            <polygon id="路径" fill-rule="nonzero" points="326.88 29 333.96 29 333.96 64.64 350.64 64.64 350.64 71 326.88 71"></polygon>
        </g>
    </g>
</svg>