<svg width="21" height="20" viewBox="0 0 21 20" fill="none" xmlns="http://www.w3.org/2000/svg">
<path d="M7.02085 18.1745C6.68552 17.952 6.38854 17.6766 6.14151 17.3589C5.86941 17.0313 5.61726 16.6877 5.38643 16.3298C4.84499 15.5363 4.42028 14.6692 4.1253 13.755C3.77112 12.693 3.59961 11.675 3.59961 10.6794C3.59961 9.5675 3.84015 8.59683 4.31062 7.78121C4.65979 7.14402 5.17245 6.61138 5.79583 6.23812C6.40027 5.86269 7.09479 5.65723 7.8062 5.6434C8.05577 5.64411 8.32304 5.67916 8.60801 5.74854C8.81245 5.80642 9.06149 5.89775 9.36575 6.01139C9.75285 6.1606 9.96578 6.25193 10.038 6.27423C10.2647 6.35707 10.4554 6.39318 10.6051 6.39318C10.7187 6.39318 10.8791 6.35707 11.0612 6.30184C11.1637 6.26573 11.357 6.20201 11.6337 6.0836C11.9077 5.98377 12.1232 5.89828 12.2948 5.83456C12.5576 5.75704 12.8119 5.68535 13.0387 5.64924C13.3075 5.60704 13.5803 5.59581 13.8516 5.61579C14.322 5.64605 14.7852 5.74572 15.2264 5.91156C15.948 6.20201 16.5316 6.65549 16.966 7.30013C16.7825 7.41342 16.6102 7.54393 16.4514 7.68988C16.1064 7.99635 15.8123 8.35572 15.5801 8.75454C15.2765 9.29968 15.1193 9.9142 15.1239 10.5382C15.1351 11.3044 15.3315 11.9793 15.7186 12.5629C16.0036 12.995 16.3734 13.3648 16.8056 13.6498C17.027 13.799 17.2177 13.9015 17.4003 13.9706C17.3148 14.2361 17.2235 14.4931 17.1157 14.7479C16.8717 15.3197 16.5754 15.8678 16.2305 16.385C15.9236 16.8305 15.6831 17.1624 15.5004 17.3833C15.2158 17.7205 14.9418 17.978 14.6651 18.1575C14.3609 18.3593 14.0014 18.4671 13.6361 18.4671C13.3886 18.4765 13.1413 18.4466 12.9033 18.3784C12.6988 18.3094 12.4965 18.2345 12.2974 18.149C12.0905 18.0537 11.877 17.9733 11.6586 17.9085C11.1189 17.7706 10.5532 17.7697 10.013 17.9058C9.79161 17.9695 9.57868 18.0439 9.36841 18.1352C9.07264 18.2595 8.87617 18.3428 8.76253 18.3784C8.5358 18.4448 8.30056 18.4862 8.06267 18.5C7.69469 18.5 7.35166 18.3949 7.01182 18.1819L7.02085 18.1745ZM11.8742 5.1039C11.3931 5.34445 10.9338 5.44693 10.4777 5.41348C10.406 4.95416 10.4777 4.48423 10.6683 3.96969C10.831 3.53395 11.0707 3.13105 11.3761 2.78024C11.699 2.41124 12.0908 2.10876 12.5295 1.88975C12.9964 1.64903 13.4426 1.51912 13.8681 1.5C13.9233 1.98109 13.8681 2.45421 13.6913 2.96556C13.5275 3.41751 13.2881 3.83838 12.9835 4.21023C12.6726 4.58008 12.2907 4.88379 11.8604 5.10337L11.8742 5.1039Z" fill="white"/>
</svg>
