<svg width="21" height="20" viewBox="0 0 21 20" fill="none" xmlns="http://www.w3.org/2000/svg">
<g clip-path="url(#clip0_2462_14856)">
<path d="M6.39158 9.00074V12.2301H5.36283V8.17074H7.48533C8.3872 8.17074 8.69283 8.80886 8.69283 9.38511V12.2301H7.6672V9.39136C7.6672 9.14699 7.54345 9.00074 7.24095 9.00074H6.39158ZM13.3841 8.95199C13.0291 8.95199 12.7591 9.13074 12.6453 9.37824C12.5799 9.51538 12.5465 9.66565 12.5478 9.81761H14.1297C14.1103 9.37824 13.9085 8.95199 13.3841 8.95199ZM12.5472 10.5176C12.5472 11.042 12.8728 11.4326 13.4585 11.4326C13.911 11.4326 14.1353 11.3057 14.3991 11.042L15.0341 11.6507C14.6303 12.0514 14.201 12.2951 13.4491 12.2951C12.466 12.2951 11.5253 11.7582 11.5253 10.1957C11.5253 8.85761 12.346 8.10261 13.4266 8.10261C14.5235 8.10261 15.1553 8.98824 15.1553 10.147V10.5151H12.5478L12.5472 10.5176ZM10.656 12.2232C9.81908 12.2232 9.4647 11.6407 9.4647 11.0645V7.06386H10.4903V8.17074H11.2616V9.00074H10.4903V10.9995C10.4903 11.237 10.601 11.3676 10.8453 11.3676H11.2622V12.2239L10.656 12.2232ZM4.44845 7.61074H3.41345V6.62449H4.44845V7.61074ZM4.45158 12.272C3.67658 12.197 3.41345 11.7282 3.41345 11.1845V8.17011H4.44845V12.2751L4.45158 12.272ZM16.7891 12.1845C16.0141 12.1095 15.7541 11.6407 15.7541 11.1007V6.48824H16.7891V12.1882V12.1845ZM20.4116 7.15511C19.4741 2.57511 10.5841 2.28511 4.85845 5.77136V6.15886C10.5778 3.21636 18.6966 3.23574 19.4353 7.44824C19.6797 8.84449 18.8947 10.2964 17.4922 11.1332V12.227C19.1816 11.6082 20.9135 9.60324 20.4122 7.15511H20.4116ZM9.99845 15.1626C6.04658 15.527 1.92533 14.9507 1.34908 11.8651C1.06908 10.3414 1.76595 8.72699 2.68033 7.72449V7.19074C1.02658 8.64261 0.128452 10.482 0.645952 12.6532C1.30658 15.4395 4.8422 17.0182 10.236 16.4945C12.3716 16.2864 15.1678 15.5995 17.1078 14.5314V13.0176C15.3466 14.0689 12.4266 14.9382 9.99845 15.1626ZM17.9866 6.79074C17.9866 6.74199 17.9541 6.72574 17.8891 6.72574H17.8241V6.86886H17.8891C17.9541 6.86886 17.9866 6.84949 17.9866 6.80074V6.79074ZM18.0878 7.14511H18.0097C18.0063 7.14505 18.0031 7.14409 18.0002 7.14233C17.9974 7.14057 17.995 7.13808 17.9935 7.13511L17.8891 6.95636C17.8846 6.9524 17.8788 6.95018 17.8728 6.95011H17.8272V7.12574C17.8272 7.13574 17.8172 7.14511 17.8078 7.14511H17.7397C17.7297 7.14511 17.7203 7.13511 17.7203 7.12574V6.67949C17.7203 6.65699 17.7335 6.64386 17.7528 6.64011C17.7953 6.63761 17.8376 6.63657 17.8797 6.63699C18.0066 6.63699 18.0847 6.67261 18.0847 6.79324V6.79949C18.0847 6.87449 18.0453 6.91324 17.9903 6.93324L18.0978 7.11574C18.0978 7.11886 18.101 7.12574 18.101 7.12886C18.1041 7.13511 18.0978 7.14511 18.0878 7.14511ZM17.9053 6.55261C17.8147 6.55261 17.7277 6.58863 17.6636 6.65275C17.5995 6.71686 17.5635 6.80382 17.5635 6.89449C17.5666 7.08324 17.7197 7.23636 17.9085 7.23636C17.9981 7.23587 18.084 7.20002 18.1474 7.1366C18.2109 7.07318 18.2467 6.9873 18.2472 6.89761C18.2475 6.80655 18.2117 6.71908 18.1476 6.6544C18.0835 6.58972 17.9964 6.55311 17.9053 6.55261ZM17.9053 7.30824C17.7962 7.30824 17.6915 7.26488 17.6143 7.18769C17.5371 7.11051 17.4938 7.00583 17.4938 6.89667C17.4938 6.78752 17.5371 6.68284 17.6143 6.60566C17.6915 6.52847 17.7962 6.48511 17.9053 6.48511C18.1297 6.48511 18.3185 6.67074 18.3185 6.89824C18.3185 7.12574 18.1297 7.30824 17.9053 7.30824Z" fill="white"/>
</g>
<defs>
<clipPath id="clip0_2462_14856">
<rect width="20" height="20" fill="white" transform="translate(0.5)"/>
</clipPath>
</defs>
</svg>
