<?xml version="1.0" encoding="UTF-8"?>
<svg width="163px" height="200px" viewBox="0 0 163 200" version="1.1" xmlns="http://www.w3.org/2000/svg" xmlns:xlink="http://www.w3.org/1999/xlink">
    <title>macos1</title>
    <g id="页面-1" stroke="none" stroke-width="1" fill="none" fill-rule="evenodd">
        <g id="macos1" fill="#B9B9BA" fill-rule="nonzero">
            <path d="M157.560712,68.1804688 C145.827899,50.9978516 127.52868,48.63125 121.004071,48.35625 C105.43786,46.7730469 90.613446,57.5224609 82.722235,57.5224609 C74.8308288,57.5224609 62.6480163,48.5728516 49.7402038,48.80625 C32.765985,49.05625 17.1249694,58.6724609 8.37536004,73.8884766 C-9.26565559,104.487305 3.85875847,149.81875 21.0413757,174.634375 C29.4495788,186.792187 39.4655944,200.441602 52.6068053,199.95 C65.272821,199.45 70.0726257,191.750195 85.3554382,191.750195 C100.671454,191.750195 104.971258,199.95 118.370673,199.7 C132.003485,199.45 140.636298,187.317187 148.969501,175.125977 C158.61911,161.026563 162.585516,147.39375 162.818915,146.69375 C162.510516,146.552148 136.261688,136.494336 135.986688,106.245508 C135.736688,80.9382812 156.627313,68.7886719 157.56911,68.1804687 L157.560712,68.1804688 Z M121.212274,0 C111.154266,0.416601562 98.9798522,6.69960937 91.7552428,15.1328125 C85.2888366,22.6324219 80.2890319,34.5902344 81.8138366,46.0730469 C93.0468444,46.9480469 103.829462,40.3732422 110.812665,31.9070312 C117.787274,23.4740234 122.495477,11.7160156 121.212274,0 Z" id="形状"></path>
        </g>
    </g>
</svg>