<?xml version="1.0" encoding="UTF-8"?>
<svg width="82px" height="16px" viewBox="0 0 82 16" version="1.1" xmlns="http://www.w3.org/2000/svg" xmlns:xlink="http://www.w3.org/1999/xlink">
    <title>oomol</title>
    <g id="页面-1" stroke="none" stroke-width="1" fill="none" fill-rule="evenodd">
        <g id="oomol" transform="translate(0.8519, 0.3)" fill="#B9B9BA" fill-rule="nonzero">
            <path d="M3.580005,7.7 C3.580005,8.52667 3.740005,9.26 4.060005,9.9 C4.393335,10.5267 4.853335,11.02 5.440005,11.38 C6.040005,11.74 6.740005,11.92 7.540005,11.92 C8.326665,11.92 9.013335,11.74 9.600025,11.38 C10.200025,11.02 10.660025,10.5267 10.980025,9.9 C11.313325,9.26 11.480025,8.52667 11.480025,7.7 C11.480025,6.87333 11.320025,6.14667 11.000025,5.52 C10.680025,4.88 10.226625,4.38 9.640025,4.02 C9.053335,3.66 8.353335,3.48 7.540005,3.48 C6.740005,3.48 6.040005,3.66 5.440005,4.02 C4.853335,4.38 4.393335,4.88 4.060005,5.52 C3.740005,6.14667 3.580005,6.87333 3.580005,7.7 Z M0,7.7 C0,6.62 0.186665,5.63333 0.560005,4.74 C0.946665,3.84667 1.480005,3.07333 2.160005,2.42 C2.840005,1.76667 3.640005,1.26667 4.560005,0.92 C5.480005,0.56 6.473335,0.38 7.540005,0.38 C8.620005,0.38 9.613325,0.56 10.520025,0.92 C11.440025,1.26667 12.240025,1.76667 12.920025,2.42 C13.600025,3.07333 14.126625,3.84667 14.500025,4.74 C14.873325,5.63333 15.060025,6.62 15.060025,7.7 C15.060025,8.78 14.873325,9.7733 14.500025,10.68 C14.140025,11.5867 13.620025,12.3733 12.940025,13.04 C12.273325,13.7067 11.480025,14.2267 10.560025,14.6 C9.640025,14.96 8.633335,15.14 7.540005,15.14 C6.433335,15.14 5.420005,14.96 4.5,14.6 C3.580005,14.2267 2.780005,13.7067 2.100005,13.04 C1.433335,12.3733 0.913335,11.5867 0.540005,10.68 C0.180005,9.7733 0,8.78 0,7.7 Z M21.005825,7.7 C21.005825,8.52667 21.165825,9.26 21.485825,9.9 C21.819125,10.5267 22.279125,11.02 22.865825,11.38 C23.465825,11.74 24.165825,11.92 24.965825,11.92 C25.752425,11.92 26.439125,11.74 27.025825,11.38 C27.625825,11.02 28.085825,10.5267 28.405825,9.9 C28.739125,9.26 28.905825,8.52667 28.905825,7.7 C28.905825,6.87333 28.745825,6.14667 28.425825,5.52 C28.105825,4.88 27.652425,4.38 27.065825,4.02 C26.479125,3.66 25.779125,3.48 24.965825,3.48 C24.165825,3.48 23.465825,3.66 22.865825,4.02 C22.279125,4.38 21.819125,4.88 21.485825,5.52 C21.165825,6.14667 21.005825,6.87333 21.005825,7.7 Z M17.425825,7.7 C17.425825,6.62 17.612425,5.63333 17.985825,4.74 C18.372425,3.84667 18.905825,3.07333 19.585825,2.42 C20.265825,1.76667 21.065825,1.26667 21.985825,0.92 C22.905825,0.56 23.899125,0.38 24.965825,0.38 C26.045825,0.38 27.039125,0.56 27.945825,0.92 C28.865825,1.26667 29.665825,1.76667 30.345825,2.42 C31.025825,3.07333 31.552425,3.84667 31.925825,4.74 C32.299125,5.63333 32.485825,6.62 32.485825,7.7 C32.485825,8.78 32.299125,9.7733 31.925825,10.68 C31.565825,11.5867 31.045825,12.3733 30.365825,13.04 C29.699125,13.7067 28.905825,14.2267 27.985825,14.6 C27.065825,14.96 26.059125,15.14 24.965825,15.14 C23.859125,15.14 22.845825,14.96 21.925825,14.6 C21.005825,14.2267 20.205825,13.7067 19.525825,13.04 C18.859125,12.3733 18.339125,11.5867 17.965825,10.68 C17.605825,9.7733 17.425825,8.78 17.425825,7.7 Z M39.251525,7.56 L38.411525,14.7 L34.851525,14.7 L37.111525,0 L43.071525,8.54 L49.051525,0 L51.311525,14.7 L47.751525,14.7 L46.911525,7.56 L43.071525,13.4 L39.251525,7.56 Z M57.244025,7.7 C57.244025,8.52667 57.404025,9.26 57.724025,9.9 C58.057425,10.5267 58.517425,11.02 59.104025,11.38 C59.704025,11.74 60.404025,11.92 61.204025,11.92 C61.990725,11.92 62.677425,11.74 63.264025,11.38 C63.864025,11.02 64.324025,10.5267 64.644025,9.9 C64.977425,9.26 65.144025,8.52667 65.144025,7.7 C65.144025,6.87333 64.984025,6.14667 64.664025,5.52 C64.344025,4.88 63.890725,4.38 63.304025,4.02 C62.717425,3.66 62.017425,3.48 61.204025,3.48 C60.404025,3.48 59.704025,3.66 59.104025,4.02 C58.517425,4.38 58.057425,4.88 57.724025,5.52 C57.404025,6.14667 57.244025,6.87333 57.244025,7.7 Z M53.664025,7.7 C53.664025,6.62 53.850725,5.63333 54.224025,4.74 C54.610725,3.84667 55.144025,3.07333 55.824025,2.42 C56.504025,1.76667 57.304025,1.26667 58.224025,0.92 C59.144025,0.56 60.137425,0.38 61.204025,0.38 C62.284025,0.38 63.277425,0.56 64.184025,0.92 C65.104025,1.26667 65.904025,1.76667 66.584025,2.42 C67.264025,3.07333 67.790725,3.84667 68.164025,4.74 C68.537425,5.63333 68.724025,6.62 68.724025,7.7 C68.724025,8.78 68.537425,9.7733 68.164025,10.68 C67.804025,11.5867 67.284025,12.3733 66.604025,13.04 C65.937425,13.7067 65.144025,14.2267 64.224025,14.6 C63.304025,14.96 62.297425,15.14 61.204025,15.14 C60.097425,15.14 59.084025,14.96 58.164025,14.6 C57.244025,14.2267 56.444025,13.7067 55.764025,13.04 C55.097425,12.3733 54.577425,11.5867 54.204025,10.68 C53.844025,9.7733 53.664025,8.78 53.664025,7.7 Z M71.889825,0.699999 L75.269825,0.699999 L75.269825,11.8 L80.889825,11.8 L80.889825,14.699999 L71.889825,14.699999 L71.889825,0.699999 Z" id="形状"></path>
        </g>
    </g>
</svg>