<svg width="82" height="16" viewBox="0 0 82 16" fill="none" xmlns="http://www.w3.org/2000/svg">
<path d="M4.43188 8C4.43188 8.82667 4.59188 9.56 4.91188 10.2C5.24521 10.8267 5.70521 11.32 6.29188 11.68C6.89188 12.04 7.59188 12.22 8.39188 12.22C9.17854 12.22 9.86521 12.04 10.4519 11.68C11.0519 11.32 11.5119 10.8267 11.8319 10.2C12.1652 9.56 12.3319 8.82667 12.3319 8C12.3319 7.17333 12.1719 6.44667 11.8519 5.82C11.5319 5.18 11.0785 4.68 10.4919 4.32C9.90521 3.96 9.20521 3.78 8.39188 3.78C7.59188 3.78 6.89188 3.96 6.29188 4.32C5.70521 4.68 5.24521 5.18 4.91188 5.82C4.59188 6.44667 4.43188 7.17333 4.43188 8ZM0.851875 8C0.851875 6.92 1.03854 5.93333 1.41188 5.04C1.79854 4.14667 2.33188 3.37333 3.01188 2.72C3.69188 2.06667 4.49188 1.56667 5.41188 1.22C6.33188 0.86 7.32521 0.68 8.39188 0.68C9.47188 0.68 10.4652 0.86 11.3719 1.22C12.2919 1.56667 13.0919 2.06667 13.7719 2.72C14.4519 3.37333 14.9785 4.14667 15.3519 5.04C15.7252 5.93333 15.9119 6.92 15.9119 8C15.9119 9.08 15.7252 10.0733 15.3519 10.98C14.9919 11.8867 14.4719 12.6733 13.7919 13.34C13.1252 14.0067 12.3319 14.5267 11.4119 14.9C10.4919 15.26 9.48521 15.44 8.39188 15.44C7.28521 15.44 6.27188 15.26 5.35188 14.9C4.43188 14.5267 3.63188 14.0067 2.95188 13.34C2.28521 12.6733 1.76521 11.8867 1.39188 10.98C1.03188 10.0733 0.851875 9.08 0.851875 8ZM21.8577 8C21.8577 8.82667 22.0177 9.56 22.3377 10.2C22.671 10.8267 23.131 11.32 23.7177 11.68C24.3177 12.04 25.0177 12.22 25.8177 12.22C26.6043 12.22 27.291 12.04 27.8777 11.68C28.4777 11.32 28.9377 10.8267 29.2577 10.2C29.591 9.56 29.7577 8.82667 29.7577 8C29.7577 7.17333 29.5977 6.44667 29.2777 5.82C28.9577 5.18 28.5043 4.68 27.9177 4.32C27.331 3.96 26.631 3.78 25.8177 3.78C25.0177 3.78 24.3177 3.96 23.7177 4.32C23.131 4.68 22.671 5.18 22.3377 5.82C22.0177 6.44667 21.8577 7.17333 21.8577 8ZM18.2777 8C18.2777 6.92 18.4643 5.93333 18.8377 5.04C19.2243 4.14667 19.7577 3.37333 20.4377 2.72C21.1177 2.06667 21.9177 1.56667 22.8377 1.22C23.7577 0.86 24.751 0.68 25.8177 0.68C26.8977 0.68 27.891 0.86 28.7977 1.22C29.7177 1.56667 30.5177 2.06667 31.1977 2.72C31.8777 3.37333 32.4043 4.14667 32.7777 5.04C33.151 5.93333 33.3377 6.92 33.3377 8C33.3377 9.08 33.151 10.0733 32.7777 10.98C32.4177 11.8867 31.8977 12.6733 31.2177 13.34C30.551 14.0067 29.7577 14.5267 28.8377 14.9C27.9177 15.26 26.911 15.44 25.8177 15.44C24.711 15.44 23.6977 15.26 22.7777 14.9C21.8577 14.5267 21.0577 14.0067 20.3777 13.34C19.711 12.6733 19.191 11.8867 18.8177 10.98C18.4577 10.0733 18.2777 9.08 18.2777 8ZM40.1034 7.86L39.2634 15H35.7034L37.9634 0.3L43.9234 8.84L49.9034 0.3L52.1634 15H48.6034L47.7634 7.86L43.9234 13.7L40.1034 7.86ZM58.0959 8C58.0959 8.82667 58.2559 9.56 58.5759 10.2C58.9093 10.8267 59.3693 11.32 59.9559 11.68C60.5559 12.04 61.2559 12.22 62.0559 12.22C62.8426 12.22 63.5293 12.04 64.1159 11.68C64.7159 11.32 65.1759 10.8267 65.4959 10.2C65.8293 9.56 65.9959 8.82667 65.9959 8C65.9959 7.17333 65.8359 6.44667 65.5159 5.82C65.1959 5.18 64.7426 4.68 64.1559 4.32C63.5693 3.96 62.8693 3.78 62.0559 3.78C61.2559 3.78 60.5559 3.96 59.9559 4.32C59.3693 4.68 58.9093 5.18 58.5759 5.82C58.2559 6.44667 58.0959 7.17333 58.0959 8ZM54.5159 8C54.5159 6.92 54.7026 5.93333 55.0759 5.04C55.4626 4.14667 55.9959 3.37333 56.6759 2.72C57.3559 2.06667 58.1559 1.56667 59.0759 1.22C59.9959 0.86 60.9893 0.68 62.0559 0.68C63.1359 0.68 64.1293 0.86 65.0359 1.22C65.9559 1.56667 66.7559 2.06667 67.4359 2.72C68.1159 3.37333 68.6426 4.14667 69.0159 5.04C69.3893 5.93333 69.5759 6.92 69.5759 8C69.5759 9.08 69.3893 10.0733 69.0159 10.98C68.6559 11.8867 68.1359 12.6733 67.4559 13.34C66.7893 14.0067 65.9959 14.5267 65.0759 14.9C64.1559 15.26 63.1493 15.44 62.0559 15.44C60.9493 15.44 59.9359 15.26 59.0159 14.9C58.0959 14.5267 57.2959 14.0067 56.6159 13.34C55.9493 12.6733 55.4293 11.8867 55.0559 10.98C54.6959 10.0733 54.5159 9.08 54.5159 8ZM72.7417 0.999999H76.1217V12.1H81.7417V15H72.7417V0.999999Z" fill="black"/>
</svg>
