<?xml version="1.0" encoding="UTF-8"?>
<svg width="989px" height="752px" viewBox="0 0 989 752" version="1.1" xmlns="http://www.w3.org/2000/svg" xmlns:xlink="http://www.w3.org/1999/xlink">
    <title>编组 19</title>
    <g id="页面-1" stroke="none" stroke-width="1" fill="none" fill-rule="evenodd">
        <g id="编组-19" transform="translate(0.000000, 0.000000)" fill-rule="nonzero">
            <path d="M766.878273,385.539562 C766.988937,477.209355 731.556155,565.352207 668.028014,631.439562 C664.198054,635.449562 660.26472,639.362895 656.228014,643.179562 C650.078014,649.029562 643.721347,654.652895 637.158014,660.049562 C575.760409,710.633948 499.111796,739.059247 419.578014,740.739562 C416.928054,740.799562 414.268054,740.829562 411.598014,740.829562 C348.168014,740.829562 268.388014,706.949622 195.988014,660.049562 C189.998014,656.169562 184.061347,652.199562 178.178014,648.139562 C175.428014,646.259562 172.691347,644.352895 169.968014,642.419562 C142.044296,622.702224 115.53915,601.049003 90.6480136,577.619562 C74.3508761,562.324675 59.0684525,545.983338 44.8980136,528.699562 C-10.7319864,460.079502 -23.0019864,398.249562 56.3080136,385.539562 C65.6980136,384.039562 74.811347,382.436229 83.6480136,380.729562 C96.448067,378.269562 108.698067,375.612895 120.398014,372.759562 C136.158014,368.929562 150.964697,364.776229 164.818064,360.299562 C169.478064,358.799562 174.031397,357.269562 178.478064,355.709562 C244.218064,332.619562 288.218064,302.509612 318.168064,269.839562 C323.248064,264.309562 327.931397,258.712895 332.218064,253.049562 C338.776567,244.429339 344.733978,235.367926 350.048064,225.929562 C357.382641,212.815589 363.543297,199.078765 368.458064,184.879562 L368.728064,184.099562 C392.558064,115.359562 385.308064,51.599562 411.598064,30.259562 C523.978064,-60.970438 663.888064,68.949562 729.558064,222.159562 C732.868064,229.879562 735.981397,237.646229 738.898064,245.459562 C740.208064,248.949609 741.471397,252.446275 742.688064,255.949562 C745.88801,265.079502 748.791344,274.232835 751.398064,283.409562 C752.398064,286.909562 753.351414,290.406229 754.258114,293.899562 C755.228114,297.669562 756.158114,301.429562 757.018114,305.189562 C763.408014,332.719562 766.878273,359.869582 766.878273,385.539562 Z" id="路径" fill="#F2F2F2"></path>
            <path d="M419.578014,740.739582 C416.928054,740.799582 414.268054,740.829582 411.598014,740.829582 C348.168014,740.829582 268.388014,706.949642 195.988014,660.049582 C189.998014,656.169582 184.061347,652.199582 178.178014,648.139582 L183.338014,616.739582 L339.548014,595.999582 L417.948014,655.949582 L419.578014,740.739582 Z" id="路径" fill="#2F2E41"></path>
            <path d="M427.097954,180.049642 L404.837954,180.049642 C403.402359,180.050277 402.238738,181.213897 402.238104,182.649492 L402.238104,204.919492 C402.238778,205.607912 402.513219,206.267799 403.00092,206.75367 C403.488621,207.23954 404.149536,207.511497 404.837954,207.509592 L427.097954,207.509592 C428.530258,207.510098 429.693045,206.351787 429.698054,204.919492 L429.698054,182.649492 C429.693792,181.215306 428.53214,180.053766 427.097954,180.049642 L427.097954,180.049642 Z" id="路径" fill="#FFFFFF"></path>
            <path d="M427.097954,217.999592 L404.837954,217.999592 C403.402312,218.000254 402.238683,219.16395 402.238104,220.599592 L402.238104,242.869592 C402.238773,243.558005 402.513214,244.217887 403.000919,244.703744 C403.488624,245.189601 404.149543,245.461536 404.837954,245.459602 L427.097954,245.459602 C428.530248,245.460168 429.693055,244.301877 429.698054,242.869592 L429.698054,220.599592 C429.693863,219.165352 428.532194,218.003728 427.097954,217.999592 Z" id="路径" fill="#E6E6E6"></path>
            <path d="M427.097954,255.949542 L404.837954,255.949542 C403.402298,255.950265 402.238689,257.113986 402.238098,258.549642 L402.238098,280.809642 C402.236717,281.499589 402.510183,282.161677 402.998051,282.649545 C403.485918,283.137412 404.148006,283.410879 404.837954,283.409497 L427.097954,283.409497 C428.533609,283.408907 429.697331,282.245298 429.698054,280.809642 L429.698054,258.549642 C429.693858,257.115388 428.532208,255.953738 427.097954,255.949542 Z" id="路径" fill="#E6E6E6"></path>
            <path d="M429.658014,296.039632 C429.429027,294.804211 428.354401,293.905853 427.097954,293.899492 L404.837954,293.899492 C403.402316,293.900259 402.238733,295.063955 402.238098,296.499592 L402.238098,318.759592 C402.236704,319.449557 402.510161,320.111668 402.998027,320.599562 C403.485893,321.087456 404.147988,321.360952 404.837954,321.359597 L427.097954,321.359597 C428.533645,321.358952 429.697358,320.195283 429.698254,318.759592 L429.698254,296.499592 C429.700083,296.34532 429.686669,296.191233 429.658014,296.039632 L429.658014,296.039632 Z" id="路径" fill="#E6E6E6"></path>
            <path d="M428.108014,332.049642 C427.787787,331.917156 427.444564,331.849164 427.098014,331.849557 L404.838014,331.849557 C404.148049,331.848205 403.485955,332.121701 402.99809,332.609595 C402.510225,333.097488 402.236766,333.759598 402.238137,334.449562 L402.238137,356.709562 C402.235025,357.400066 402.507921,358.063198 402.996162,358.551487 C403.484403,359.039775 404.14751,359.312734 404.838014,359.309688 L427.098014,359.309688 C428.533719,359.308961 429.697413,358.145267 429.698114,356.709562 L429.698114,334.449562 C429.695569,333.403626 429.070195,332.459757 428.108014,332.049642 Z" id="路径" fill="#E6E6E6"></path>
            <path d="M473.858014,180.049642 L451.598014,180.049642 C450.162419,180.050277 448.998798,181.213897 448.998164,182.649492 L448.998164,204.919492 C448.998838,205.607912 449.273279,206.267799 449.76098,206.75367 C450.248681,207.23954 450.909596,207.511497 451.598014,207.509592 L473.858014,207.509592 C475.290318,207.510098 476.453105,206.351787 476.458114,204.919492 L476.458114,182.649492 C476.453852,181.215306 475.2922,180.053766 473.858014,180.049642 Z" id="路径" fill="#E6E6E6"></path>
            <path d="M473.858014,217.999592 L451.598014,217.999592 C450.162372,218.000254 448.998743,219.16395 448.998164,220.599592 L448.998164,242.869592 C448.998833,243.558005 449.273274,244.217887 449.760979,244.703744 C450.248684,245.189601 450.909603,245.461536 451.598014,245.459602 L473.858014,245.459602 C475.290308,245.460168 476.453115,244.301877 476.458114,242.869592 L476.458114,220.599592 C476.453923,219.165352 475.292254,218.003728 473.858014,217.999592 Z" id="路径" fill="#7D7FE9"></path>
            <path d="M473.858014,255.949542 L451.598014,255.949542 C450.162358,255.950265 448.998749,257.113986 448.998158,258.549642 L448.998158,280.809642 C448.996777,281.499589 449.270243,282.161677 449.758111,282.649545 C450.245978,283.137412 450.908066,283.410879 451.598014,283.409497 L473.858014,283.409497 C475.293669,283.408907 476.457391,282.245298 476.458114,280.809642 L476.458114,258.549642 C476.453918,257.115388 475.292268,255.953738 473.858014,255.949542 Z" id="路径" fill="#7D7FE9"></path>
            <path d="M473.858014,293.899492 L451.598014,293.899492 C450.47999,293.900341 449.488439,294.617805 449.138014,295.679492 C449.045512,295.943014 448.998118,296.220276 448.998118,296.499562 L448.998118,318.759562 C448.996724,319.449527 449.270181,320.111638 449.758047,320.599532 C450.245913,321.087426 450.908008,321.360922 451.597974,321.359567 L473.857974,321.359567 C475.293665,321.358922 476.457378,320.195253 476.458074,318.759562 L476.458074,296.499562 C476.453818,295.065353 475.292222,293.903753 473.858014,293.899492 L473.858014,293.899492 Z" id="路径" fill="#7D7FE9"></path>
            <path d="M473.858014,331.849557 L451.598014,331.849557 C450.908049,331.848205 450.245955,332.121701 449.75809,332.609595 C449.270225,333.097488 448.996766,333.759598 448.998158,334.449562 L448.998158,356.709562 C448.996766,357.399536 449.270222,358.061655 449.758084,358.549565 C450.245947,359.037474 450.90804,359.310993 451.598014,359.309667 L473.858014,359.309667 C475.293719,359.308961 476.457413,358.145267 476.458114,356.709562 L476.458114,334.449562 C476.457413,333.013873 475.293703,331.850208 473.858014,331.849557 Z" id="路径" fill="#E6E6E6"></path>
            <path d="M520.618014,180.049642 L498.358014,180.049642 C496.922419,180.050277 495.758798,181.213897 495.758164,182.649492 L495.758164,204.919492 C495.758838,205.607912 496.033279,206.267799 496.52098,206.75367 C497.008681,207.23954 497.669596,207.511497 498.358014,207.509592 L520.618014,207.509592 C522.050318,207.510098 523.213105,206.351787 523.218114,204.919492 L523.218114,182.649492 C523.213852,181.215306 522.0522,180.053766 520.618014,180.049642 L520.618014,180.049642 Z" id="路径" fill="#7D7FE9"></path>
            <path d="M520.618014,217.999592 L498.358014,217.999592 C496.922372,218.000254 495.758743,219.16395 495.758164,220.599592 L495.758164,242.869592 C495.758833,243.558005 496.033274,244.217887 496.520979,244.703744 C497.008684,245.189601 497.669603,245.461536 498.358014,245.459602 L520.618014,245.459602 C522.050308,245.460168 523.213115,244.301877 523.218114,242.869592 L523.218114,220.599592 C523.213923,219.165352 522.052254,218.003728 520.618014,217.999592 Z" id="路径" fill="#7D7FE9"></path>
            <path d="M520.618014,255.949542 L498.358014,255.949542 C496.922358,255.950265 495.758749,257.113986 495.758158,258.549642 L495.758158,280.809642 C495.756777,281.499589 496.030243,282.161677 496.518111,282.649545 C497.005978,283.137412 497.668066,283.410879 498.358014,283.409497 L520.618014,283.409497 C522.053669,283.408907 523.217391,282.245298 523.218114,280.809642 L523.218114,258.549642 C523.213918,257.115388 522.052268,255.953738 520.618014,255.949542 Z" id="路径" fill="#E6E6E6"></path>
            <path d="M520.618014,293.899492 L498.358014,293.899492 C496.922376,293.900259 495.758793,295.063955 495.758158,296.499592 L495.758158,318.759592 C495.756764,319.449557 496.030221,320.111668 496.518087,320.599562 C497.005953,321.087456 497.668048,321.360952 498.358014,321.359597 L520.618014,321.359597 C522.053705,321.358952 523.217418,320.195283 523.218114,318.759592 L523.218114,296.499592 C523.213874,295.065356 522.052249,293.903732 520.618014,293.899492 L520.618014,293.899492 Z" id="路径" fill="#7D7FE9"></path>
            <path d="M520.618014,331.849557 L498.358014,331.849557 C497.668049,331.848205 497.005955,332.121701 496.51809,332.609595 C496.030225,333.097488 495.756766,333.759598 495.758158,334.449562 L495.758158,356.709562 C495.756766,357.399536 496.030222,358.061655 496.518084,358.549565 C497.005947,359.037474 497.66804,359.310993 498.358014,359.309667 L520.618014,359.309667 C522.053719,359.308961 523.217413,358.145267 523.218114,356.709562 L523.218114,334.449562 C523.217413,333.013873 522.053703,331.850208 520.618014,331.849557 Z" id="路径" fill="#7D7FE9"></path>
            <path d="M567.378014,180.049642 L545.118014,180.049642 C543.68239,180.050266 542.51872,181.213869 542.518014,182.649492 L542.518014,204.919492 C542.518717,205.607929 542.793188,206.267822 543.280915,206.753691 C543.768642,207.239559 544.429579,207.511507 545.118014,207.509592 L567.378014,207.509592 C568.810318,207.510098 569.973105,206.351787 569.978114,204.919492 L569.978114,182.649492 C569.973852,181.215306 568.8122,180.053766 567.378014,180.049642 Z" id="路径" fill="#7D7FE9"></path>
            <path d="M567.378014,217.999592 L545.118014,217.999592 C543.682339,218.000232 542.518654,219.163917 542.518014,220.599592 L542.518014,242.869592 C542.518712,243.558022 542.793184,244.21791 543.280915,244.703765 C543.768646,245.18962 544.429586,245.461547 545.118014,245.459603 L567.378014,245.459603 C568.810308,245.460168 569.973115,244.301877 569.978114,242.869592 L569.978114,220.599592 C569.973923,219.165352 568.812254,218.003728 567.378014,217.999592 Z" id="路径" fill="#FFFFFF"></path>
            <path d="M567.378014,255.949542 L545.118014,255.949542 C543.682322,255.950237 542.518654,257.113951 542.518009,258.549642 L542.518009,280.809642 C542.516653,281.499607 542.790149,282.161703 543.278043,282.649569 C543.765937,283.137435 544.428049,283.410892 545.118014,283.409497 L567.378014,283.409497 C568.813669,283.408907 569.977391,282.245298 569.978114,280.809642 L569.978114,258.549642 C569.973918,257.115388 568.812268,255.953738 567.378014,255.949542 Z" id="路径" fill="#FFFFFF"></path>
            <path d="M567.378014,293.899492 L545.118014,293.899492 C543.682341,293.900231 542.518698,295.063919 542.518009,296.499592 L542.518009,318.759592 C542.516643,319.449574 542.79013,320.111691 543.278022,320.599583 C543.765915,321.087475 544.428031,321.360963 545.118014,321.359597 L567.378014,321.359597 C568.813705,321.358952 569.977418,320.195283 569.978114,318.759592 L569.978114,296.499592 C569.973874,295.065356 568.812249,293.903732 567.378014,293.899492 L567.378014,293.899492 Z" id="路径" fill="#E6E6E6"></path>
            <path d="M567.378014,331.849557 L545.118014,331.849557 C544.428031,331.848191 543.765915,332.121679 543.278022,332.609571 C542.79013,333.097463 542.516643,333.75958 542.518009,334.449562 L542.518009,356.709562 C542.516656,357.399549 542.790145,358.061669 543.278031,358.549574 C543.765917,359.037479 544.428026,359.310993 545.118014,359.309667 L567.378014,359.309667 C568.813719,359.308961 569.977413,358.145267 569.978114,356.709562 L569.978114,334.449562 C569.977413,333.013873 568.813703,331.850208 567.378014,331.849557 L567.378014,331.849557 Z" id="路径" fill="#7D7FE9"></path>
            <path d="M614.138014,180.049642 L591.868014,180.049642 C590.43581,180.054602 589.277537,181.21728 589.278013,182.649492 L589.278013,204.919492 C589.27829,206.34981 590.437696,207.509256 591.868014,207.509582 L614.138014,207.509582 C615.570318,207.510098 616.733105,206.351787 616.738114,204.919492 L616.738114,182.649492 C616.733852,181.215306 615.5722,180.053766 614.138014,180.049642 Z" id="路径" fill="#FFFFFF"></path>
            <path d="M614.138014,217.999592 L591.868014,217.999592 C590.435751,218.004552 589.277454,219.167321 589.278013,220.599592 L589.278013,242.869592 C589.278013,244.2999 590.437706,245.459592 591.868014,245.459592 L614.138014,245.459592 C615.570308,245.460168 616.733115,244.301877 616.738114,242.869592 L616.738114,220.599592 C616.733923,219.165352 615.572254,218.003728 614.138014,217.999592 L614.138014,217.999592 Z" id="路径" fill="#FFFFFF"></path>
            <path d="M614.138014,255.949542 L591.868014,255.949542 C590.435747,255.954584 589.277481,257.117366 589.278004,258.549642 L589.278004,280.809642 C589.276091,281.498047 589.548033,282.158952 590.033885,282.646653 C590.519738,283.134353 591.179607,283.408802 591.868014,283.409492 L614.138014,283.409492 C615.573669,283.408907 616.737391,282.245298 616.738114,280.809642 L616.738114,258.549642 C616.733918,257.115388 615.572268,255.953738 614.138014,255.949542 L614.138014,255.949542 Z" id="路径" fill="#FFFFFF"></path>
            <path d="M614.138014,293.899492 L591.868014,293.899492 C590.435765,293.904578 589.277525,295.067334 589.278003,296.499592 L589.278003,318.759592 C589.276078,319.448014 589.54801,320.108943 590.033862,320.59667 C590.519713,321.084398 591.179589,321.358875 591.868014,321.359592 L614.138014,321.359592 C615.573705,321.358952 616.737418,320.195283 616.738114,318.759592 L616.738114,296.499592 C616.733874,295.065356 615.572249,293.903732 614.138014,293.899492 L614.138014,293.899492 Z" id="路径" fill="#7D7FE9"></path>
            <path d="M614.138014,331.849562 L591.868014,331.849562 C591.17959,331.850282 590.519715,332.12476 590.033865,332.612487 C589.548014,333.100213 589.27608,333.761141 589.278003,334.449562 L589.278003,356.709562 C589.27608,357.397993 589.548011,358.058931 590.033858,358.546673 C590.519706,359.034415 591.179581,359.308916 591.868014,359.309662 L614.138014,359.309662 C615.573719,359.308961 616.737413,358.145267 616.738114,356.709562 L616.738114,334.449562 C616.737413,333.013873 615.573703,331.850208 614.138014,331.849562 L614.138014,331.849562 Z" id="路径" fill="#E6E6E6"></path>
            <path d="M660.898014,180.049642 L638.628014,180.049642 C637.19581,180.054602 636.037537,181.21728 636.038013,182.649492 L636.038013,204.919492 C636.03829,206.34981 637.197696,207.509256 638.628014,207.509582 L660.898014,207.509582 C662.330297,207.510048 663.493055,206.351767 663.498114,204.919492 L663.498114,182.649492 C663.493808,181.215324 662.332182,180.05381 660.898014,180.049642 Z" id="路径" fill="#FFFFFF"></path>
            <path d="M660.898014,217.999592 L638.628014,217.999592 C637.195751,218.004552 636.037454,219.167321 636.038013,220.599592 L636.038013,242.869592 C636.038013,244.2999 637.197706,245.459592 638.628014,245.459592 L660.898014,245.459592 C662.330287,245.460119 663.493066,244.301857 663.498114,242.869592 L663.498114,220.599592 C663.493874,219.165373 662.332233,218.003777 660.898014,217.999592 Z" id="路径" fill="#FFFFFF"></path>
            <path d="M660.898014,255.949542 L638.628014,255.949542 C637.195747,255.954584 636.037481,257.117366 636.038004,258.549642 L636.038004,280.809642 C636.036091,281.498047 636.308033,282.158952 636.793885,282.646653 C637.279738,283.134353 637.939607,283.408802 638.628014,283.409492 L660.898014,283.409492 C662.333651,283.408863 663.497347,282.245279 663.498114,280.809642 L663.498114,258.549642 C663.493874,257.115406 662.332249,255.953782 660.898014,255.949542 Z" id="路径" fill="#7D7FE9"></path>
            <path d="M660.898014,293.899492 L638.628014,293.899492 C637.195765,293.904578 636.037525,295.067334 636.038003,296.499592 L636.038003,318.759592 C636.036078,319.448014 636.30801,320.108943 636.793862,320.59667 C637.279713,321.084398 637.939589,321.358875 638.628014,321.359592 L660.898014,321.359592 C662.333687,321.358908 663.497374,320.195265 663.498114,318.759592 L663.498114,296.499592 C663.493825,295.065377 662.332229,293.903781 660.898014,293.899492 L660.898014,293.899492 Z" id="路径" fill="#E6E6E6"></path>
            <path d="M660.898014,331.849562 L638.628014,331.849562 C637.93959,331.850282 637.279715,332.12476 636.793865,332.612487 C636.308014,333.100213 636.03608,333.761141 636.038003,334.449562 L636.038003,356.709562 C636.03608,357.397993 636.308011,358.058931 636.793858,358.546673 C637.279706,359.034415 637.939581,359.308916 638.628014,359.309662 L660.898014,359.309662 C662.333698,359.308912 663.497363,358.145247 663.498114,356.709562 L663.498114,334.449562 C663.497369,333.013891 662.333684,331.850252 660.898014,331.849562 Z" id="路径" fill="#FFFFFF"></path>
            <path d="M707.658014,180.049642 L685.388014,180.049642 C683.95581,180.054602 682.797537,181.21728 682.798013,182.649492 L682.798013,204.919492 C682.79829,206.34981 683.957696,207.509256 685.388014,207.509582 L707.658014,207.509582 C709.090297,207.510048 710.253055,206.351767 710.258114,204.919492 L710.258114,182.649492 C710.253808,181.215324 709.092182,180.05381 707.658014,180.049642 L707.658014,180.049642 Z" id="路径" fill="#7D7FE9"></path>
            <path d="M707.658014,217.999592 L685.388014,217.999592 C683.955751,218.004552 682.797454,219.167321 682.798013,220.599592 L682.798013,242.869592 C682.798013,244.2999 683.957706,245.459592 685.388014,245.459592 L707.658014,245.459592 C709.090287,245.460119 710.253066,244.301857 710.258114,242.869592 L710.258114,220.599592 C710.253874,219.165373 709.092233,218.003777 707.658014,217.999592 Z" id="路径" fill="#7D7FE9"></path>
            <path d="M707.658014,255.949542 L685.388014,255.949542 C683.955747,255.954584 682.797481,257.117366 682.798004,258.549642 L682.798004,280.809642 C682.796091,281.498047 683.068033,282.158952 683.553885,282.646653 C684.039738,283.134353 684.699607,283.408802 685.388014,283.409492 L707.658014,283.409492 C709.093651,283.408863 710.257347,282.245279 710.258114,280.809642 L710.258114,258.549642 C710.253874,257.115406 709.092249,255.953782 707.658014,255.949542 Z" id="路径" fill="#E6E6E6"></path>
            <path d="M707.658014,293.899492 L685.388014,293.899492 C683.955765,293.904578 682.797525,295.067334 682.798003,296.499592 L682.798003,318.759592 C682.796078,319.448014 683.06801,320.108943 683.553862,320.59667 C684.039713,321.084398 684.699589,321.358875 685.388014,321.359592 L707.658014,321.359592 C709.093687,321.358908 710.257374,320.195265 710.258114,318.759592 L710.258114,296.499592 C710.253825,295.065377 709.092229,293.903781 707.658014,293.899492 L707.658014,293.899492 Z" id="路径" fill="#FFFFFF"></path>
            <path d="M707.658014,331.849562 L685.388014,331.849562 C684.69959,331.850282 684.039715,332.12476 683.553865,332.612487 C683.068014,333.100213 682.79608,333.761141 682.798003,334.449562 L682.798003,356.709562 C682.79608,357.397993 683.068011,358.058931 683.553858,358.546673 C684.039706,359.034415 684.699581,359.308916 685.388014,359.309662 L707.658014,359.309662 C709.093698,359.308912 710.257363,358.145247 710.258114,356.709562 L710.258114,334.449562 C710.257369,333.013891 709.093684,331.850252 707.658014,331.849562 Z" id="路径" fill="#7D7FE9"></path>
            <path d="M754.418014,180.049642 L732.148014,180.049642 C730.71581,180.054602 729.557537,181.21728 729.558013,182.649492 L729.558013,204.919492 C729.55829,206.34981 730.717696,207.509256 732.148014,207.509582 L754.418014,207.509582 C755.850283,207.510054 757.013016,206.351753 757.018014,204.919492 L757.018014,182.649492 C757.013763,181.215341 755.852165,180.05381 754.418014,180.049642 Z" id="路径" fill="#7D7FE9"></path>
            <path d="M754.418014,217.999592 L732.148014,217.999592 C730.715751,218.004552 729.557454,219.167321 729.558013,220.599592 L729.558013,242.869592 C729.558013,244.2999 730.717706,245.459592 732.148014,245.459592 L754.418014,245.459592 C755.850271,245.460119 757.013021,244.301841 757.018014,242.869592 L757.018014,220.599592 C757.013834,219.165386 755.852219,218.003772 754.418014,217.999592 Z" id="路径" fill="#7D7FE9"></path>
            <path d="M754.418014,255.949542 L732.148014,255.949542 C730.715747,255.954584 729.557481,257.117366 729.558004,258.549642 L729.558004,280.809642 C729.556091,281.498047 729.828033,282.158952 730.313885,282.646653 C730.799738,283.134353 731.459607,283.408802 732.148014,283.409492 L754.418014,283.409492 C755.853635,283.408863 757.017302,282.245263 757.018014,280.809642 L757.018014,258.549642 C757.013829,257.115422 755.852233,255.953782 754.418014,255.949542 L754.418014,255.949542 Z" id="路径" fill="#E6E6E6"></path>
            <path d="M754.418014,293.899492 L732.148014,293.899492 C730.715765,293.904578 729.557525,295.067334 729.558003,296.499592 L729.558003,318.759592 C729.556078,319.448014 729.82801,320.108943 730.313862,320.59667 C730.799713,321.084398 731.459589,321.358875 732.148014,321.359592 L754.418014,321.359592 C755.85367,321.358908 757.017329,320.195249 757.018014,318.759592 L757.018014,296.499592 C757.013785,295.065391 755.852215,293.903776 754.418014,293.899492 Z" id="路径" fill="#7D7FE9"></path>
            <path d="M754.418014,331.849562 L732.148014,331.849562 C731.45959,331.850282 730.799715,332.12476 730.313865,332.612487 C729.828014,333.100213 729.55608,333.761141 729.558003,334.449562 L729.558003,356.709562 C729.55608,357.397993 729.828011,358.058931 730.313858,358.546673 C730.799706,359.034415 731.459581,359.308916 732.148014,359.309662 L754.418014,359.309662 C755.853684,359.308917 757.017324,358.145233 757.018014,356.709562 L757.018014,334.449562 C757.017324,333.013907 755.853668,331.850252 754.418014,331.849562 L754.418014,331.849562 Z" id="路径" fill="#7D7FE9"></path>
            <path d="M801.178014,180.049642 L778.908014,180.049642 C777.47581,180.054602 776.317537,181.21728 776.318013,182.649492 L776.318013,204.919492 C776.31829,206.34981 777.477696,207.509256 778.908014,207.509582 L801.178014,207.509582 C802.610283,207.510054 803.773016,206.351753 803.778014,204.919492 L803.778014,182.649492 C803.773763,181.215341 802.612165,180.05381 801.178014,180.049642 L801.178014,180.049642 Z" id="路径" fill="#E6E6E6"></path>
            <path d="M801.178014,217.999592 L778.908014,217.999592 C777.475751,218.004552 776.317454,219.167321 776.318013,220.599592 L776.318013,242.869592 C776.318013,244.2999 777.477706,245.459592 778.908014,245.459592 L801.178014,245.459592 C802.610271,245.460119 803.773021,244.301841 803.778014,242.869592 L803.778014,220.599592 C803.773834,219.165386 802.612219,218.003772 801.178014,217.999592 L801.178014,217.999592 Z" id="路径" fill="#7D7FE9"></path>
            <path d="M801.178014,255.949542 L778.908014,255.949542 C777.475747,255.954584 776.317481,257.117366 776.318004,258.549642 L776.318004,280.809642 C776.316091,281.498047 776.588033,282.158952 777.073885,282.646653 C777.559738,283.134353 778.219607,283.408802 778.908014,283.409492 L801.178014,283.409492 C802.613635,283.408863 803.777302,282.245263 803.778014,280.809642 L803.778014,258.549642 C803.773829,257.115422 802.612233,255.953782 801.178014,255.949542 L801.178014,255.949542 Z" id="路径" fill="#7D7FE9"></path>
            <path d="M801.178014,293.899492 L778.908014,293.899492 C777.475765,293.904578 776.317525,295.067334 776.318003,296.499592 L776.318003,318.759592 C776.316078,319.448014 776.58801,320.108943 777.073862,320.59667 C777.559713,321.084398 778.219589,321.358875 778.908014,321.359592 L801.178014,321.359592 C802.61367,321.358908 803.777329,320.195249 803.778014,318.759592 L803.778014,296.499592 C803.773785,295.065391 802.612215,293.903776 801.178014,293.899492 Z" id="路径" fill="#7D7FE9"></path>
            <path d="M801.178014,331.849562 L778.908014,331.849562 C778.21959,331.850282 777.559715,332.12476 777.073865,332.612487 C776.588014,333.100213 776.31608,333.761141 776.318003,334.449562 L776.318003,356.709562 C776.31608,357.397993 776.588011,358.058931 777.073858,358.546673 C777.559706,359.034415 778.219581,359.308916 778.908014,359.309662 L801.178014,359.309662 C802.613684,359.308917 803.777324,358.145233 803.778014,356.709562 L803.778014,334.449562 C803.777324,333.013907 802.613668,331.850252 801.178014,331.849562 L801.178014,331.849562 Z" id="路径" fill="#E6E6E6"></path>
            <path d="M847.938014,180.049642 L825.668014,180.049642 C824.235804,180.054623 823.077518,181.217274 823.077924,182.649492 L823.077924,204.919492 C823.07826,206.34982 824.237686,207.509245 825.668014,207.509582 L847.938014,207.509582 C849.370283,207.510054 850.533016,206.351753 850.538014,204.919492 L850.538014,182.649492 C850.533763,181.215341 849.372165,180.05381 847.938014,180.049642 Z" id="路径" fill="#E6E6E6"></path>
            <path d="M847.938014,217.999592 L825.668014,217.999592 C824.235753,218.00459 823.077452,219.167322 823.077924,220.599592 L823.077924,242.869592 C823.078249,244.29991 824.237696,245.459316 825.668014,245.459592 L847.938014,245.459592 C849.370271,245.460119 850.533021,244.301841 850.538014,242.869592 L850.538014,220.599592 C850.533834,219.165386 849.372219,218.003772 847.938014,217.999592 L847.938014,217.999592 Z" id="路径" fill="#E6E6E6"></path>
            <path d="M847.938014,255.949542 L825.668014,255.949542 C824.235737,255.954595 823.077452,257.117356 823.077914,258.549642 L823.077914,280.809642 C823.07603,281.498053 823.347994,282.158956 823.83386,282.646652 C824.319725,283.134349 824.9796,283.408796 825.668014,283.409492 L847.938014,283.409492 C849.373635,283.408863 850.537302,282.245263 850.538014,280.809642 L850.538014,258.549642 C850.533829,257.115422 849.372233,255.953782 847.938014,255.949542 L847.938014,255.949542 Z" id="路径" fill="#7D7FE9"></path>
            <path d="M847.938014,293.899492 L825.668014,293.899492 C824.235755,293.904589 823.077496,295.067324 823.077914,296.499592 L823.077914,318.759592 C823.076017,319.448021 823.347971,320.108947 823.833836,320.59667 C824.3197,321.084393 824.979582,321.35887 825.668014,321.359592 L847.938014,321.359592 C849.37367,321.358908 850.537329,320.195249 850.538014,318.759592 L850.538014,296.499592 C850.533785,295.065391 849.372215,293.903776 847.938014,293.899492 Z" id="路径" fill="#E6E6E6"></path>
            <path d="M847.938014,331.849562 L825.668014,331.849562 C824.979583,331.850287 824.319702,332.124764 823.833839,332.612487 C823.347975,333.10021 823.07602,333.761134 823.077914,334.449562 L823.077914,356.709562 C823.07602,357.397999 823.347972,358.058934 823.833833,358.546672 C824.319693,359.034411 824.979574,359.308911 825.668014,359.309662 L847.938014,359.309662 C849.373684,359.308917 850.537324,358.145233 850.538014,356.709562 L850.538014,334.449562 C850.537324,333.013907 849.373668,331.850252 847.938014,331.849562 L847.938014,331.849562 Z" id="路径" fill="#E6E6E6"></path>
            <polygon id="路径" fill="#2F2E41" points="336.095004 660.051022 335.475004 660.051022 336.005004 659.981022"></polygon>
            <circle id="b6132315-04e2-4cdb-a713-107c9cd58b0b" fill="#FFB6B6" cx="282.814384" cy="176.732792" r="68.32185"></circle>
            <path d="M342.645954,126.640382 C342.645954,126.640382 360.515354,92.479472 321.202124,89.373892 C321.202124,89.373892 287.687234,58.971612 253.526324,83.815892 C253.526324,83.815892 234.893104,83.815892 224.703784,104.901562 C224.703784,104.901562 210.048784,99.343562 206.828274,114.218172 C206.828274,114.218172 196.104784,145.273632 206.828274,173.223502 C217.551754,201.173422 221.113644,204.278872 221.113644,204.278872 C221.113644,204.278872 203.492744,145.680492 246.383554,142.574872 C289.274364,139.469252 337.270254,112.665452 340.844694,146.826312 C344.419134,180.987172 349.797984,189.404152 349.797984,189.404152 C349.797984,189.404152 383.747564,140.615382 342.645954,126.640382 Z" id="f4304bdd-ba2d-4fff-b404-410205410c5d-251" fill="#2F2E41"></path>
            <path d="M459.548014,345.109572 L459.327914,346.269572 L456.857914,359.309572 L439.787974,449.509572 L438.777974,454.819632 L436.657974,466.049632 L433.758074,481.369572 L427.327894,515.319652 L425.488054,525.049652 L424.797994,528.699552 L424.557994,529.979552 L422.647994,540.049622 L422.067994,543.089532 L417.407994,577.619532 L413.337924,607.709532 L426.958044,621.329532 L418.837924,629.449532 L413.508094,659.979532 L413.517984,660.049602 L195.988094,660.049602 C187.18804,654.349522 178.514707,648.472812 169.968094,642.419472 L171.758094,629.019572 C171.758094,629.019572 177.918004,605.089512 175.327914,602.229572 C172.748084,599.369572 167.087914,594.259572 167.087914,594.259572 L174.218044,577.619572 L175.208044,575.309642 L173.548044,540.879582 L173.508124,540.049582 L172.958124,528.699482 L172.888054,527.239482 L172.778054,525.049542 L170.668054,481.369482 L170.628054,480.649392 L169.988164,467.409392 L169.388064,454.819552 L169.128064,449.509492 L166.558124,396.379492 L164.818124,360.299542 L163.298124,328.889542 L169.408124,326.819602 L234.758224,304.609512 L261.828044,269.419452 L318.168134,269.839452 L345.748214,270.049542 L391.768114,312.729472 L402.238204,317.729472 L402.318204,317.769472 L409.828084,321.359472 L428.868084,330.449472 L448.998214,340.069592 L459.328044,344.999522 L459.548014,345.109572 Z" id="路径" fill="#CACACA"></path>
            <path d="M269.108864,557.550902 C260.751177,560.788734 251.388594,560.158323 243.540406,555.829302 C235.692219,551.500281 230.164617,543.917339 228.444974,535.120902 L121.886154,520.002982 L158.928954,478.100982 L254.439954,498.881282 C269.744947,496.928855 284.091385,506.732317 287.833833,521.70058 C291.576281,536.668842 283.531795,552.070607 269.108864,557.550922 L269.108864,557.550902 Z" id="路径" fill="#FFB6B6"></path>
            <path d="M221.597954,481.369582 C219.624091,478.867168 216.829764,477.142382 213.708064,476.499582 L169.988064,467.409492 L165.498064,466.479562 C160.220474,465.378152 155.662757,462.078989 152.967974,457.409492 C151.585906,454.985965 150.749761,452.289856 150.517974,449.509592 C150.309582,446.981796 150.612263,444.437916 151.407974,442.029592 L166.557974,396.379592 L176.387924,366.759592 C177.579279,363.187247 178.28234,359.470269 178.478014,355.709592 C179.025685,345.302435 175.805742,335.046307 169.407944,326.819702 C157.859527,311.973455 137.955665,306.433944 120.397944,313.179562 C120.147944,313.269652 119.887944,313.369622 119.637944,313.469562 C107.204311,318.434274 97.8294563,328.957372 94.3279436,341.879562 L83.6479436,380.729562 L61.6179436,460.819652 C57.1552467,477.057817 60.0006516,494.434948 69.4092408,508.40177 C78.81783,522.368592 93.8527627,531.534388 110.577944,533.499582 L173.547944,540.879582 L202.687944,544.299582 C209.675638,545.139271 216.135575,540.468441 217.527944,533.569582 C217.575093,533.388485 217.61182,533.204834 217.637944,533.019532 L218.337944,528.699462 L224.268004,492.319582 L224.327934,491.949462 C224.952746,488.195559 223.961098,484.352487 221.597954,481.369582 Z" id="路径" fill="#CACACA"></path>
            <path d="M336.982574,558.717142 C345.713331,560.744015 354.893444,558.799603 362.052728,553.407109 C369.212012,548.014614 373.615046,539.727969 374.077064,530.776942 L477.439064,500.783272 L434.857514,464.523712 L343.231374,498.565192 C327.8039,498.790446 314.98316,510.519094 313.388908,525.865626 C311.794657,541.212159 321.930825,555.32565 336.982574,558.717192 L336.982574,558.717142 Z" id="路径" fill="#FFB6B6"></path>
            <path d="M528.758114,433.689532 L479.597954,320.549642 C475.577057,311.260882 468.395655,303.696814 459.327954,299.199542 C456.525157,297.81967 453.581429,296.746773 450.548054,295.999542 C450.077954,295.879542 449.607984,295.769542 449.138054,295.679472 C442.705771,294.275861 436.034064,294.399195 429.658054,296.039582 C417.87043,299.067805 407.928638,306.969603 402.318054,317.769582 C402.287681,317.813993 402.260928,317.860773 402.238054,317.909472 C395.953902,330.066357 395.816535,344.485168 401.867934,356.759572 L402.478044,357.979572 L437.218044,427.749572 C439.617345,432.575152 439.842592,438.195461 437.837159,443.197572 C435.831727,448.199683 431.786357,452.107828 426.718044,453.939512 L424.277984,454.819642 L380.397984,470.669492 C373.554492,473.111494 369.872478,480.532985 372.067984,487.459492 L372.177984,487.809592 L384.477984,527.169452 C384.537924,527.349502 384.597854,527.529562 384.667924,527.709452 C384.776055,528.049083 384.909771,528.380031 385.067924,528.699452 C387.768637,534.756266 394.473149,537.94951 400.877854,536.229452 L424.557914,529.979452 L429.387864,528.699452 L490.537864,512.549552 C506.820294,508.247019 520.413972,497.052354 527.759032,481.897176 C535.104092,466.741999 535.468912,449.135877 528.757954,433.689442 L528.758114,433.689532 Z" id="路径" fill="#CACACA"></path>
            <path d="M44.8980136,528.699602 C59.0684525,545.983378 74.3508761,562.324715 90.6480136,577.619602 L542.618014,577.619602 C551.684518,577.633865 559.02927,584.983091 559.038014,594.049602 L559.688014,708.579602 C587.492654,695.805052 613.531298,679.493507 637.158014,660.049602 C643.718014,654.659602 650.07468,649.036269 656.228014,643.179602 C660.258014,639.359602 664.191347,635.446269 668.028014,631.439602 C696.791824,601.474687 720.083875,566.702451 736.848014,528.699602 L44.8980136,528.699602 Z" id="路径" fill="#3F3D56"></path>
            <path d="M668.028014,631.439532 C664.198054,635.449532 660.264744,639.362865 656.228084,643.179532 L560.018014,643.179532 L560.018014,631.439532 L668.028014,631.439532 Z" id="路径" fill="#FFFFFF"></path>
            <path d="M458.648014,255.949542 C457.679869,254.162432 455.810516,253.049642 453.778014,253.049642 L125.938014,253.049642 C122.877801,253.057635 120.398014,255.53934 120.398014,258.599562 L120.398014,454.819662 L459.32802,454.819662 L459.32802,258.599562 C459.333184,257.672422 459.098987,256.759628 458.648014,255.949542 Z" id="路径" fill="#3F3D56"></path>
            <path d="M120.101144,449.507172 L120.101144,473.720982 C120.101144,475.748265 120.906441,477.692523 122.339937,479.126038 C123.773433,480.559553 125.717681,481.364897 127.744964,481.364902 L252.841674,481.364902 L252.841674,529.151492 L251.179824,529.151492 C250.916469,529.151466 250.663893,529.256065 250.477666,529.442277 C250.291439,529.62849 250.186818,529.881058 250.186824,530.144412 L250.186824,533.468152 C250.186797,533.73152 250.291408,533.984109 250.477637,534.170338 C250.663867,534.356568 250.916456,534.461152 251.179824,534.461152 L328.838224,534.461152 C329.101591,534.461152 329.354178,534.356564 329.540407,534.170335 C329.726636,533.984107 329.831248,533.731519 329.831224,533.468152 L329.831224,530.144412 C329.831229,529.881058 329.726609,529.62849 329.540382,529.442277 C329.354155,529.256065 329.101578,529.151466 328.838224,529.151492 L327.176374,529.151492 L327.176374,481.364902 L452.273084,481.364902 C454.300366,481.364897 456.244614,480.559553 457.67811,479.126038 C459.111606,477.692523 459.916904,475.748265 459.916904,473.720982 L459.916904,449.507172 L120.101144,449.507172 Z" id="路径" fill="#3F3D56"></path>
            <path d="M365.668008,172.999592 L360.668008,172.999592 C360.668008,135.199592 323.258014,110.429592 285.518014,110.409592 C280.028652,110.393543 274.551429,110.92619 269.168008,111.999592 C263.108014,113.209592 256.818014,114.659592 250.638014,116.549592 C226.268014,124.019592 203.668008,138.459592 203.668008,172.999592 C203.66281,179.707501 204.516416,186.388477 206.208014,192.879592 L201.368014,194.139592 C199.5728,187.236395 198.665478,180.132398 198.668008,172.999592 C198.668008,142.819592 211.058014,122.089592 232.458014,109.729592 C243.708014,103.229592 257.438014,99.039592 273.168008,96.999592 C279.713835,96.1287543 286.331401,95.9277143 292.918014,96.399592 C336.318014,99.519552 365.668008,132.799572 365.668008,172.999592 Z" id="路径" fill="#7D7FE9"></path>
            <path d="M373.998014,175.769552 L372.028014,161.209552 C371.542092,157.532578 369.770919,154.146096 367.028014,151.649552 C363.46017,148.351853 358.574621,146.87697 353.778014,147.649552 L350.648014,148.079552 C348.918032,148.307254 347.351351,149.21845 346.298014,150.609552 C345.235744,151.995885 344.771328,153.749143 345.008014,155.479552 L349.558014,189.019552 C349.942522,191.82303 352.077083,194.066333 354.858014,194.589552 C355.259673,194.670055 355.668367,194.710254 356.078014,194.709561 C356.372367,194.709561 356.666378,194.689458 356.958014,194.649552 L360.458014,194.179552 C364.770929,193.607239 368.656646,191.280874 371.198014,187.749552 C371.468014,187.369552 371.728014,186.979552 371.968014,186.579502 C373.842297,183.307453 374.557552,179.498649 373.998014,175.769552 Z" id="路径" fill="#7D7FE9"></path>
            <path d="M348.628014,148.689592 C347.710007,149.135654 346.911337,149.793785 346.298014,150.609592 C345.235744,151.995925 344.771328,153.749183 345.008014,155.479592 L349.558014,189.019592 C349.942522,191.82307 352.077083,194.066373 354.858014,194.589592 L348.628014,148.689592 Z" id="路径" fill="#FFFFFF"></path>
            <path d="M373.998014,175.769552 L372.028014,161.209552 C371.542092,157.532578 369.770919,154.146096 367.028014,151.649552 L371.558014,185.019552 C371.625896,185.55524 371.763738,186.079712 371.968014,186.579552 C373.842308,183.307488 374.557563,179.498665 373.998014,175.769552 Z" id="路径" fill="#3F3D56"></path>
            <ellipse id="椭圆形" fill="#3F3D56" transform="translate(357.487353, 179.323794) rotate(-7.725490) translate(-357.487353, -179.323794) " cx="357.487353" cy="179.323794" rx="2.5" ry="7"></ellipse>
            <ellipse id="椭圆形" fill="#3F3D56" transform="translate(354.487346, 161.323802) rotate(-7.725490) translate(-354.487346, -161.323802) " cx="354.487346" cy="161.323802" rx="2.5" ry="7"></ellipse>
            <ellipse id="椭圆形" fill="#3F3D56" transform="translate(373.487352, 168.323803) rotate(-7.725490) translate(-373.487352, -168.323803) " cx="373.487352" cy="168.323803" rx="2.5" ry="7"></ellipse>
            <path d="M285.518014,110.409562 C280.028652,110.393513 274.551429,110.92616 269.168014,111.999562 C263.108014,113.209562 256.818014,114.659562 250.638014,116.549562 C240.988014,116.079562 233.888014,113.579562 232.458014,109.729562 C243.708014,103.229562 257.438014,99.039562 273.168014,96.999562 C279.713835,96.1287243 286.331401,95.9276843 292.918014,96.399562 C294.328339,97.2263163 295.318119,98.6163749 295.638014,100.219562 C296.108014,103.699602 292.138014,107.399552 285.518014,110.409562 Z" id="路径" fill="#3F3D56"></path>
            <path d="M221.678014,207.699602 L213.978014,175.689602 C213.416578,173.328286 211.4928,171.534599 209.098014,171.139602 C208.767133,171.088106 208.432873,171.061365 208.098014,171.059602 C207.626302,171.061275 207.156418,171.118333 206.698014,171.229602 L203.718014,171.949602 C195.729094,173.881736 190.812369,181.916713 192.728014,189.909602 L196.178014,204.269602 C196.965739,207.650313 198.841847,210.678804 201.518014,212.889652 C201.9517,213.239682 202.405837,213.563588 202.878014,213.859652 C206.264465,215.982082 210.364998,216.645669 214.248014,215.699652 L217.218014,214.979652 C218.003319,214.796412 218.742168,214.452524 219.388014,213.969652 C221.352321,212.537487 222.25694,210.060629 221.678014,207.699602 Z" id="路径" fill="#7D7FE9"></path>
            <ellipse id="椭圆形" fill="#3F3D56" transform="translate(203.897957, 194.938038) rotate(-13.530510) translate(-203.897957, -194.938038) " cx="203.897957" cy="194.938038" rx="2.5" ry="7"></ellipse>
            <ellipse id="椭圆形" fill="#3F3D56" transform="translate(193.897961, 197.938035) rotate(-13.530510) translate(-193.897961, -197.938035) " cx="193.897961" cy="197.938035" rx="2.5" ry="7"></ellipse>
            <path d="M222.168014,207.579542 L214.468014,175.569542 C213.854635,173.014897 211.770355,171.076399 209.178014,170.649542 L219.688014,214.369542 C221.810539,212.815094 222.78904,210.136053 222.168014,207.579542 L222.168014,207.579542 Z" id="路径" fill="#FFFFFF"></path>
            <path d="M194.468014,183.569592 C194.25551,182.679428 193.856747,181.844413 193.298014,181.119592 C192.215604,183.922803 192.016703,186.990065 192.728014,189.909592 L196.178014,204.269592 C196.965739,207.650303 198.841847,210.678794 201.518014,212.889642 L194.468014,183.569592 Z" id="路径" fill="#3F3D56"></path>
            <g id="编组-17" transform="translate(228.000000, 295.000000)">
                <path d="M63.8658654,134.998189 C61.7799339,134.991221 59.7031165,134.721821 57.6840762,134.196303 L57.2861239,134.085889 L56.9169686,133.900419 C43.5707471,127.190217 32.3112615,118.32697 23.4512171,107.556766 C16.1169492,98.5890126 10.3988351,88.4070676 6.55397607,77.4687375 C1.95612442,64.3728864 -0.255893117,50.5546512 0.0235208539,36.6736877 C0.0291588879,36.3823162 0.0339313179,36.1573464 0.0339313179,36.0023502 C0.0339313179,29.2547137 3.76896303,23.3341691 9.54934415,20.918926 C13.9733668,19.0704357 54.1413479,2.52582704 57.0435856,1.33043255 C62.5092881,-1.41587152 68.3402159,0.87635246 69.2733238,1.27720074 C71.3663411,2.13532515 108.499183,17.3654745 116.523571,21.1971309 C124.793499,25.1461661 127,32.2404745 127,35.80973 C127,51.9689151 124.209173,67.0709602 118.705029,80.6963961 C114.259869,91.7251912 107.959668,101.906914 100.078912,110.79797 C84.8738734,127.956737 69.6648023,134.039614 69.5180211,134.093225 C67.70034,134.720408 65.7879305,135.026603 63.8658654,134.998189 Z M60.2891862,126.11389 C61.6077764,126.41034 64.6435692,126.855015 66.6222572,126.131184 C69.1359216,125.211923 81.8656539,118.592394 93.7612192,105.168408 C110.196781,86.6210813 118.536207,63.3054993 118.548401,35.8693472 C118.519044,35.3135027 118.125409,31.3490395 112.889961,28.8491496 C105.021172,25.0916172 66.4247469,9.26556159 66.0357889,9.10605239 L65.9291504,9.06071921 C65.1203048,8.72082844 62.5461476,8.0048961 60.7717356,8.9373342 L60.4164598,9.1034317 C59.9862447,9.28062388 17.3474616,26.8421179 12.800009,28.7421472 C9.61893739,30.071283 8.48553004,33.3640263 8.48553004,36.0023635 C8.48553004,36.1951668 8.48055531,36.4756165 8.47352766,36.8381024 C8.11009004,55.6109677 12.4421531,101.805139 60.2891862,126.11389 Z" id="形状" fill="#3F3D56"></path>
                <path d="M58.7959715,4.94526149 C58.7959715,4.94526149 15.6076728,22.733365 10.9803468,24.666855 C6.35302072,26.600345 4.03936935,31.2407184 4.03936935,35.8811051 C4.03936935,40.5214918 0.568892303,101.072156 58.7959715,130.348289 C58.7959715,130.348289 64.080647,131.814638 68.0900786,130.348289 C72.0995101,128.881941 123,104.133271 123,35.6877434 C123,35.6877434 123,28.7271833 114.902194,24.8602033 C106.804387,20.9932233 67.6528509,4.94526149 67.6528509,4.94526149 C67.6528509,4.94526149 62.8448714,2.81842314 58.7959715,4.94526149 Z" id="路径" fill="#7D7FE9"></path>
                <path d="M63,19 L63,114 C63,114 19.6186251,92.9424037 20.0025331,37.5823914 L63,19 Z" id="路径" fill="#000000" opacity="0.1"></path>
                <polygon id="路径" fill="#FFFFFF" points="63.7953064 87 50 69.2043186 58.0225583 62.9443626 64.5546173 71.3701923 86.6209536 48 94 55.0141115"></polygon>
            </g>
            <g id="github" transform="translate(823.000000, 17.000000)" fill="#3F3D56">
                <path d="M72.5026432,0.0212012666 C85.655146,0.0212012666 97.7856162,3.27029537 108.894054,9.76848357 C120.002491,16.2666718 128.797258,25.0846319 135.278355,36.2223639 C141.759452,47.3600959 145,59.5225559 145,72.7097437 C145,88.5470898 140.39028,102.792574 131.170841,115.446197 C121.951402,128.099819 110.041197,136.854176 95.4402275,141.709266 C93.7415388,142.023751 92.4833813,141.802905 91.6657552,141.046726 C90.8481291,140.290548 90.4393161,139.343558 90.4393161,138.205756 C90.4393161,138.014945 90.4551752,135.601534 90.4868934,130.965524 C90.5186117,126.329514 90.5344708,122.085727 90.5344708,118.234163 C90.5344708,112.114064 88.8974565,107.63353 85.6234278,104.79256 C89.2111148,104.414471 92.435804,103.847337 95.2974954,103.091159 C98.1591867,102.33498 101.117795,101.105307 104.17332,99.4021383 C107.228845,97.6989698 109.776878,95.6000444 111.81742,93.1053621 C113.857961,90.6106797 115.524931,87.2979818 116.818331,83.1672684 C118.111731,79.036555 118.756669,74.2874712 118.753144,68.9200173 C118.753144,61.4112354 116.266786,54.9112804 111.294068,49.4201523 C113.623598,43.6781427 113.371614,37.2417915 110.538117,30.1110988 C108.775991,29.5421982 106.227958,29.8884855 102.894017,31.1499609 C99.5600763,32.4114362 96.6649045,33.8001192 94.208502,35.3160098 L90.6190528,37.5898456 C84.7652728,35.950281 78.7229453,35.1304987 72.4920704,35.1304987 C66.2611956,35.1304987 60.2188681,35.950281 54.365088,37.5898456 C53.3571524,36.8972709 52.0196993,36.0456867 50.3527289,35.035093 C48.6857584,34.0244993 46.0584296,32.80896 42.4707426,31.3884751 C38.8830556,29.9679903 36.2081495,29.5421982 34.4460243,30.1110988 C31.6125269,37.2417915 31.360543,43.6781427 33.6900726,49.4201523 C28.7173551,54.9112804 26.2309964,61.4112354 26.2309964,68.9200173 C26.2309964,74.2839377 26.8759342,79.0171205 28.1658099,83.1195655 C29.4556856,87.2220106 31.1085591,90.5347085 33.1244303,93.0576592 C35.1403016,95.58061 37.6742377,97.6936695 40.7262387,99.3968379 C43.7782396,101.100006 46.7368479,102.32968 49.6020635,103.085858 C52.4672792,103.842037 55.6919684,104.409171 59.2761311,104.78726 C56.8232528,107.059329 55.2813932,110.308423 54.6505523,114.534542 C53.3289584,115.167047 51.9122097,115.640542 50.4003062,115.955027 C48.8884028,116.269513 47.0945593,116.426755 45.0187757,116.426755 C42.9429922,116.426755 40.8813057,115.748315 38.8337161,114.391434 C36.7861266,113.034553 35.0398605,111.062835 33.5949178,108.47628 C32.4001969,106.458626 30.8741964,104.817295 29.0169164,103.552286 C27.1596364,102.287277 25.6019177,101.529332 24.3437603,101.27845 L22.4565241,100.992233 C21.1349302,100.992233 20.2221493,101.133575 19.7181815,101.416259 C19.2142137,101.698942 19.0573845,102.06113 19.247694,102.502823 C19.4380036,102.944517 19.7217057,103.38621 20.0988005,103.827903 C20.4758953,104.269596 20.8847084,104.647685 21.3252397,104.96217 L21.9860367,105.433899 C23.3710671,106.066403 24.7402384,107.266041 26.0935506,109.032814 C27.4468628,110.799586 28.4389393,112.409115 29.0697802,113.861402 L30.0160414,116.039832 C30.8336675,118.439109 32.218698,120.379025 34.1711327,121.85958 C36.1235675,123.340135 38.2310693,124.287125 40.4936381,124.70055 C42.7562069,125.113974 44.9430044,125.334821 47.0540304,125.363089 C49.1650564,125.391358 50.9113226,125.280051 52.2928288,125.029169 L54.4655292,124.652847 C54.4655292,127.052123 54.4813883,129.843623 54.5131066,133.027347 C54.5448248,136.211071 54.5606839,137.93014 54.5606839,138.184555 C54.5606839,139.318823 54.1518709,140.265813 53.3342448,141.025525 C52.5166187,141.785237 51.2584612,142.006083 49.5597725,141.688064 C34.9588027,136.829441 23.0485982,128.075084 13.8291589,115.424995 C4.60971964,102.774906 0,88.5294221 0,72.6885424 C0,59.5013546 3.24054832,47.3388947 9.72164497,36.2011626 C16.2027416,25.0634306 24.9975087,16.2454705 36.1059463,9.7472823 C47.2143838,3.2490941 59.344854,0 72.4973568,0 L72.5026432,0.0212012666 Z M27.4732947,104.416238 C27.6636042,103.974545 27.4433386,103.596455 26.8124977,103.28197 C26.1816569,103.091159 25.7728438,103.154762 25.5860586,103.472781 C25.395749,103.914474 25.6160147,104.292564 26.2468555,104.607049 C26.8142598,104.985138 27.2230729,104.921535 27.4732947,104.416238 Z M30.4019468,107.63353 C30.8424782,107.319045 30.7790416,106.813748 30.2116373,106.117639 C29.5807965,105.548739 29.0768287,105.453333 28.6997339,105.831422 C28.2592025,106.145908 28.3226391,106.651205 28.8900434,107.347313 C29.5208842,107.979817 30.024852,108.075223 30.4019468,107.63353 Z M33.2354442,111.894985 C33.8028486,111.453292 33.8028486,110.854356 33.2354442,110.098177 C32.7314764,109.278395 32.1957903,109.08935 31.628386,109.531043 C31.0609817,109.845529 31.0609817,110.412663 31.628386,111.232445 C32.1957903,112.052227 32.7314764,112.273074 33.2354442,111.894985 L33.2354442,111.894985 Z M37.200226,115.870222 C37.7041939,115.364925 37.579083,114.765989 36.8248934,114.073415 C36.0707038,113.317236 35.441625,113.221831 34.9376572,113.787198 C34.3702529,114.292494 34.4953638,114.89143 35.3129899,115.584005 C36.0671795,116.340183 36.6962582,116.435589 37.200226,115.870222 Z M42.5817565,118.234163 C42.7720661,117.541589 42.363253,117.036292 41.3553174,116.718273 C40.4108182,116.467391 39.8134578,116.688238 39.563236,117.380812 C39.3130142,118.073387 39.7218273,118.546882 40.7896752,118.801297 C41.7341743,119.179386 42.3315348,118.990342 42.5817565,118.234163 Z M48.5289292,118.711192 C48.5289292,117.891409 47.9932432,117.545122 46.921871,117.67233 C45.9139354,117.67233 45.4099676,118.018617 45.4099676,118.711192 C45.4099676,119.530974 45.9456536,119.877261 47.0170258,119.750054 C48.0249614,119.750054 48.5289292,119.403766 48.5289292,118.711192 Z M54.0003281,117.762435 C53.8734551,117.06986 53.3078129,116.78541 52.3034015,116.909084 C51.2954659,117.099896 50.8549346,117.57339 50.9818076,118.329569 C51.1086806,119.085747 51.6743228,119.338396 52.6787342,119.087514 C53.6831456,118.836633 54.1236769,118.39494 54.0003281,117.762435 Z" id="形状"></path>
            </g>
            <g id="编组-18" transform="translate(804.000000, 478.000000)">
                <path d="M180.910649,166.469706 C169.055783,207.676425 134.441045,236.521562 98.3334847,261.025127 C93.2918986,264.447183 88.2487089,267.790514 83.2039156,271.055118 C83.1697429,271.070064 83.134526,271.10205 83.0999306,271.117395 C82.857216,271.27361 82.6140289,271.430148 82.3878848,271.587385 C81.3467042,272.259849 80.3051507,272.932761 79.2726097,273.597478 L79.839785,273.852813 C79.839785,273.852813 80.3966924,274.149537 79.7874009,273.90038 C79.6060456,273.824402 79.4160631,273.756122 79.2350806,273.679684 C58.2588795,265.203061 36.9101223,256.101765 20.835029,240.222257 C4.15947027,223.732425 -5.58566244,197.868874 3.44400593,176.206025 C4.63087998,173.368406 6.13004755,170.672337 7.91368463,168.167855 C8.64611724,167.117708 9.43496158,166.112611 10.2562632,165.126135 C20.3978579,152.724188 36.4323689,146.775231 52.1894898,149.568508 C67.9466108,152.361784 80.9706273,163.461968 86.249714,178.597551 C88.9024825,153.850223 68.5363187,133.120591 48.9369218,117.825264 C29.3288605,102.537572 7.0486136,85.8890341 3.25785219,61.2790885 C1.140933,47.5864282 5.89311787,34.3169259 14.5498448,23.664628 C14.8178564,23.3409634 15.0854827,23.0177472 15.361587,22.7029508 C25.8993401,10.2961663 40.7205643,2.32925928 56.8648584,0.393544971 C86.9312915,-2.73738031 116.136209,13.2085393 137.978811,34.1542466 C173.134259,67.8544526 194.387335,119.617925 180.910649,166.469706 Z" id="路径" fill="#F2F2F2"></path>
                <path d="M124.500936,112.850663 C130.272145,121.832378 134.703076,131.607956 137.653863,141.86882 C140.149259,151.039859 141.259894,160.532555 140.948939,170.032126 C140.408506,189.558188 134.40224,208.638848 124.952051,225.633366 C117.64087,238.519198 108.730838,250.429033 98.4337699,261.079741 C93.3914049,264.496628 88.3474361,267.834908 83.3018634,271.094581 C83.2676854,271.109505 83.232463,271.141442 83.1978623,271.156764 C82.9551101,271.312743 82.7118856,271.469045 82.4857064,271.626044 C81.444365,272.297492 80.4026506,272.969388 79.3699501,273.633101 C79.3699501,273.633101 80.4942437,274.184288 79.8848208,273.935507 C79.7034374,273.859644 79.5134256,273.791467 79.3324152,273.715144 C83.1478894,242.424605 71.5569698,211.226234 48.2386322,190.022444 C36.7192758,179.731913 22.9316655,172.310311 8,168.362771 C8.73254577,167.31421 9.52151199,166.310631 10.3429405,165.325646 C16.1098341,166.943284 21.7224537,169.067785 27.1152423,171.674333 C46.3927285,180.934366 62.1773308,196.157003 72.1326416,215.089017 C81.0662158,232.28002 84.9111008,251.66375 83.2158527,270.964283 C84.0778372,270.182921 84.9408786,269.384595 85.7778855,268.593806 C101.719994,253.726444 115.879773,236.661136 125.462657,216.966336 C133.776394,200.287606 137.862469,181.819809 137.360994,163.189535 C136.578903,142.875333 128.48738,124.059161 116.771932,107.678596 C104.222249,90.1474787 88.4886405,74.6370981 71.6871587,61.200422 C54.4784823,47.4131153 35.6478272,35.7840336 15.6150197,26.5724452 C14.6766104,26.134415 14.2464984,25.0372048 14.6371357,24.0778762 C14.7707387,23.6633196 15.0624935,23.3182508 15.4490033,23.1176517 C15.851819,22.9438866 16.3118794,22.9634392 16.6985086,23.1707557 C19.1718949,24.3097429 21.6281487,25.4643006 24.0646094,26.6687786 C44.3584973,36.7023671 63.3276799,49.2189382 80.5363788,63.9309493 C97.1588021,78.1067409 112.807904,94.3026354 124.500936,112.850663 Z" id="路径" fill="#FFFFFF"></path>
            </g>
        </g>
    </g>
</svg>