<svg width="296" height="572" viewBox="0 0 296 572" fill="none" xmlns="http://www.w3.org/2000/svg">
<path d="M180.854 467.625C184.081 463.808 184.081 458.192 180.854 454.375H227C230.659 454.375 233.625 457.341 233.625 461C233.625 464.659 230.659 467.625 227 467.625H180.854Z" stroke="#BABDDF" stroke-width="0.75"/>
<path d="M186.854 453.625C190.081 449.808 190.081 444.192 186.854 440.375H233C236.659 440.375 239.625 443.341 239.625 447C239.625 450.659 236.659 453.625 233 453.625H186.854Z" stroke="#BABDDF" stroke-width="0.75"/>
<path d="M233.146 439.625C229.919 435.808 229.919 430.192 233.146 426.375H187C183.341 426.375 180.375 429.341 180.375 433C180.375 436.659 183.341 439.625 187 439.625H233.146Z" stroke="#BABDDF" stroke-width="0.75"/>
<path d="M177.625 467.625V414.375H164.375V467.625H177.625Z" stroke="#BABDDF" stroke-width="0.75"/>
<path d="M177.625 419.625V418.375H164.375V419.625H177.625Z" stroke="#BABDDF" stroke-width="0.75"/>
<path d="M177.625 463.625V462.375H164.375V463.625H177.625Z" stroke="#BABDDF" stroke-width="0.75"/>
<path d="M150.258 467.324L164.04 415.888L151.242 412.459L137.46 463.895L150.258 467.324Z" stroke="#BABDDF" stroke-width="0.75"/>
<path d="M185 432H226" stroke="#BABDDF" stroke-width="0.75"/>
<path d="M185 434H219" stroke="#BABDDF" stroke-width="0.75"/>
<path d="M188 460H229" stroke="#BABDDF" stroke-width="0.75"/>
<path d="M194 446H228" stroke="#BABDDF" stroke-width="0.75"/>
<path d="M195 462L229 462" stroke="#BABDDF" stroke-width="0.75"/>
<path d="M194 448H235" stroke="#BABDDF" stroke-width="0.75"/>
<path d="M0.375 376.696V369.368C5.93125 369.171 10.375 364.604 10.375 359V356.258L36 346.402L61.625 356.258V359C61.625 364.604 66.0687 369.171 71.625 369.368V376.696C71.625 398.35 59.8853 418.301 40.9565 428.817L36 431.571L31.0436 428.817C12.1147 418.301 0.375 398.35 0.375 376.696Z" stroke="#ADAEE9" stroke-width="0.75"/>
<path d="M3.375 374.374V371.228C8.4709 371.031 12.5417 366.838 12.5417 361.694V359.328L36 350.401L59.4583 359.328V361.694C59.4583 366.838 63.5291 371.031 68.625 371.228V374.374C68.625 396.124 56.7819 416.149 37.7217 426.626L36 427.572L34.2783 426.626C15.2181 416.149 3.375 396.124 3.375 374.374Z" stroke="#ADAEE9" stroke-width="0.75"/>
<rect x="19.375" y="380.375" width="33.25" height="23.25" rx="5.625" stroke="#ADAEE9" stroke-width="0.75"/>
<path d="M46 380V372C46 368.686 43.3137 366 40 366H32C28.6863 366 26 368.686 26 372V380" stroke="#ADAEE9" stroke-width="0.75"/>
<path d="M44 380V371C44 369.343 42.6569 368 41 368H31C29.3431 368 28 369.343 28 371V380" stroke="#ADAEE9" stroke-width="0.75"/>
<mask id="path-19-inside-1_2161_858" fill="white">
<path fill-rule="evenodd" clip-rule="evenodd" d="M36 385C34.8954 385 34 385.895 34 387C34 387.682 34.3415 388.285 34.8629 388.646L34.1661 397.007C34.0767 398.08 34.9234 399 36 399C37.0766 399 37.9233 398.08 37.8339 397.007L37.1371 388.646C37.6585 388.285 38 387.682 38 387C38 385.895 37.1046 385 36 385Z"/>
</mask>
<path d="M34.8629 388.646L35.6103 388.708L35.6463 388.276L35.2898 388.029L34.8629 388.646ZM34.1661 397.007L34.9135 397.069L34.9135 397.069L34.1661 397.007ZM37.8339 397.007L38.5813 396.945L38.5813 396.945L37.8339 397.007ZM37.1371 388.646L36.7102 388.029L36.3537 388.276L36.3897 388.708L37.1371 388.646ZM34.75 387C34.75 386.31 35.3096 385.75 36 385.75V384.25C34.4812 384.25 33.25 385.481 33.25 387H34.75ZM35.2898 388.029C34.9621 387.802 34.75 387.426 34.75 387H33.25C33.25 387.939 33.7209 388.767 34.4359 389.262L35.2898 388.029ZM34.9135 397.069L35.6103 388.708L34.1155 388.583L33.4187 396.945L34.9135 397.069ZM36 398.25C35.3622 398.25 34.8605 397.705 34.9135 397.069L33.4187 396.945C33.2928 398.455 34.4846 399.75 36 399.75V398.25ZM37.0865 397.069C37.1395 397.705 36.6378 398.25 36 398.25V399.75C37.5154 399.75 38.7072 398.455 38.5813 396.945L37.0865 397.069ZM36.3897 388.708L37.0865 397.069L38.5813 396.945L37.8845 388.583L36.3897 388.708ZM37.25 387C37.25 387.426 37.0379 387.802 36.7102 388.029L37.5641 389.262C38.2791 388.767 38.75 387.939 38.75 387H37.25ZM36 385.75C36.6904 385.75 37.25 386.31 37.25 387H38.75C38.75 385.481 37.5188 384.25 36 384.25V385.75Z" fill="#ADAEE9" mask="url(#path-19-inside-1_2161_858)"/>
<rect x="108.375" y="218.375" width="187.25" height="121.25" rx="5.625" stroke="#7D7FE9" stroke-width="0.75"/>
<path fill-rule="evenodd" clip-rule="evenodd" d="M180.762 260.333C178.868 260.333 177.333 261.868 177.333 263.762C177.333 265.655 178.868 267.19 180.762 267.19C182.655 267.19 184.19 265.655 184.19 263.762C184.19 261.868 182.655 260.333 180.762 260.333ZM172 263.762C172 258.923 175.923 255 180.762 255C184.671 255 187.982 257.56 189.111 261.095H192.952C199.475 261.095 204.762 266.383 204.762 272.905V285.095C204.762 288.672 207.661 291.571 211.238 291.571H215.08C216.208 288.036 219.519 285.476 223.429 285.476C228.268 285.476 232.19 289.399 232.19 294.238C232.19 299.077 228.268 303 223.429 303C219.519 303 216.208 300.44 215.08 296.905H211.238C204.716 296.905 199.429 291.617 199.429 285.095V272.905C199.429 269.328 196.529 266.429 192.952 266.429H189.111C187.982 269.964 184.671 272.524 180.762 272.524C175.923 272.524 172 268.601 172 263.762ZM220 294.238C220 292.345 221.535 290.81 223.429 290.81C225.322 290.81 226.857 292.345 226.857 294.238C226.857 296.132 225.322 297.667 223.429 297.667C221.535 297.667 220 296.132 220 294.238Z" stroke="#7D7FE9" stroke-width="0.75"/>
<rect x="110.375" y="220.375" width="183.25" height="117.25" rx="2.625" stroke="#7D7FE9" stroke-width="0.75"/>
<path d="M188 354V340M216 354V340" stroke="#7D7FE9" stroke-width="0.75"/>
<rect x="137.375" y="354.375" width="129.25" height="3.25" rx="1.625" stroke="#7D7FE9" stroke-width="0.75"/>
<circle cx="202" cy="334" r="2" fill="#7D7FE9" fill-opacity="0.25"/>
<rect x="110.375" y="230.375" width="183.25" height="97.25" stroke="#7D7FE9" stroke-width="0.75"/>
<path d="M122 240H269" stroke="#7D7FE9" stroke-opacity="0.25" stroke-width="0.75"/>
<path d="M122 246H237" stroke="#7D7FE9" stroke-opacity="0.25" stroke-width="0.75"/>
<path d="M122 252H170" stroke="#7D7FE9" stroke-opacity="0.25" stroke-width="0.75"/>
<path d="M122 258H161" stroke="#7D7FE9" stroke-opacity="0.25" stroke-width="0.75"/>
<path d="M122 264H164" stroke="#7D7FE9" stroke-opacity="0.25" stroke-width="0.75"/>
<path d="M122 270H153" stroke="#7D7FE9" stroke-opacity="0.25" stroke-width="0.75"/>
<path d="M122 276H167" stroke="#7D7FE9" stroke-opacity="0.25" stroke-width="0.75"/>
<path d="M122 282H185" stroke="#7D7FE9" stroke-opacity="0.25" stroke-width="0.75"/>
<path d="M122 288H143" stroke="#7D7FE9" stroke-opacity="0.25" stroke-width="0.75"/>
<path d="M122 294H193" stroke="#7D7FE9" stroke-opacity="0.25" stroke-width="0.75"/>
<path d="M122 300H168" stroke="#7D7FE9" stroke-opacity="0.25" stroke-width="0.75"/>
<path d="M122 306H200" stroke="#7D7FE9" stroke-opacity="0.25" stroke-width="0.75"/>
<path d="M122 312H183" stroke="#7D7FE9" stroke-opacity="0.25" stroke-width="0.75"/>
<path d="M122 318H282" stroke="#7D7FE9" stroke-opacity="0.25" stroke-width="0.75"/>
<path fill-rule="evenodd" clip-rule="evenodd" d="M116 235C116 235.552 115.552 236 115 236C114.448 236 114 235.552 114 235C114 234.448 114.448 234 115 234C115.552 234 116 234.448 116 235ZM120 235C120 235.552 119.552 236 119 236C118.448 236 118 235.552 118 235C118 234.448 118.448 234 119 234C119.552 234 120 234.448 120 235ZM123 236C123.552 236 124 235.552 124 235C124 234.448 123.552 234 123 234C122.448 234 122 234.448 122 235C122 235.552 122.448 236 123 236Z" fill="#7D7FE9"/>
<circle cx="28" cy="105" r="0.625" stroke="white" stroke-width="0.75"/>
<path d="M56 127H40C38.3431 127 37 125.657 37 124V38C37 36.3431 38.3431 35 40 35H112C113.657 35 115 36.3431 115 38V94" stroke="#C2C7FF" stroke-width="0.75"/>
<path d="M82 34V34C82 32.8954 81.1046 32 80 32H79.75V31.75C79.75 29.6789 78.0711 28 76 28V28C73.9289 28 72.25 29.6789 72.25 31.75V32H72C70.8954 32 70 32.8954 70 34V34" stroke="#C2C7FF" stroke-width="0.75"/>
<path fill-rule="evenodd" clip-rule="evenodd" d="M41 42.625H40.625V43V120C40.625 121.864 42.136 123.375 44 123.375H44.2943H55.6248V174V174.375H55.9998H126H126.375V174V134H125.625V173.625H56.3748V97C56.3748 95.9398 55.8859 94.9938 55.1213 94.375H123C124.45 94.375 125.625 95.5503 125.625 97V105H126.375V97C126.375 95.136 124.864 93.625 123 93.625H111.375V43V42.625H111H41ZM110.625 93.625V43.375H41.375V120C41.375 121.45 42.5503 122.625 44 122.625H44.2943C45.6395 122.625 46.767 121.608 46.9054 120.27L49.3486 96.6527C49.5265 94.9324 50.9762 93.625 52.7057 93.625H53H110.625ZM46.4157 122.625H55.6248V97C55.6248 95.5503 54.4496 94.375 53 94.375H52.7057C51.3605 94.375 50.233 95.3919 50.0946 96.7299L47.6514 120.347C47.5557 121.272 47.0924 122.078 46.4157 122.625Z" fill="#C2C7FF"/>
<circle cx="124.384" cy="119.385" r="10.625" transform="rotate(-45 124.384 119.385)" stroke="#C2C7FF" stroke-width="0.75"/>
<mask id="path-48-inside-2_2161_858" fill="white">
<path fill-rule="evenodd" clip-rule="evenodd" d="M133.577 110.192C138.416 115.031 138.643 122.736 134.257 127.843L139.423 133.009C140.09 132.831 140.832 133.003 141.355 133.527L145.598 137.77C146.379 138.551 146.379 139.817 145.598 140.598C144.817 141.379 143.551 141.379 142.77 140.598L138.527 136.355C138.003 135.832 137.831 135.09 138.009 134.423L132.843 129.257C127.736 133.643 120.031 133.416 115.192 128.577C110.116 123.5 110.116 115.269 115.192 110.192C120.269 105.116 128.5 105.116 133.577 110.192Z"/>
</mask>
<path d="M134.257 127.843L133.688 127.355L133.236 127.882L133.727 128.374L134.257 127.843ZM139.423 133.009L138.893 133.539L139.199 133.845L139.617 133.734L139.423 133.009ZM138.009 134.423L138.734 134.617L138.845 134.199L138.539 133.893L138.009 134.423ZM132.843 129.257L133.374 128.727L132.882 128.236L132.355 128.688L132.843 129.257ZM134.827 128.332C139.465 122.929 139.226 114.78 134.107 109.662L133.047 110.723C137.606 115.282 137.82 122.542 133.688 127.355L134.827 128.332ZM139.954 132.479L134.788 127.313L133.727 128.374L138.893 133.539L139.954 132.479ZM139.617 133.734C140.036 133.622 140.499 133.731 140.825 134.057L141.886 132.997C141.165 132.276 140.145 132.04 139.23 132.284L139.617 133.734ZM140.825 134.057L145.068 138.3L146.128 137.239L141.886 132.997L140.825 134.057ZM145.068 138.3C145.556 138.788 145.556 139.579 145.068 140.068L146.128 141.128C147.202 140.054 147.202 138.313 146.128 137.239L145.068 138.3ZM145.068 140.068C144.579 140.556 143.788 140.556 143.3 140.068L142.239 141.128C143.313 142.202 145.054 142.202 146.128 141.128L145.068 140.068ZM143.3 140.068L139.057 135.825L137.997 136.886L142.239 141.128L143.3 140.068ZM139.057 135.825C138.731 135.499 138.622 135.036 138.734 134.617L137.284 134.23C137.04 135.145 137.276 136.165 137.997 136.886L139.057 135.825ZM132.313 129.788L137.479 134.954L138.539 133.893L133.374 128.727L132.313 129.788ZM114.662 129.107C119.78 134.226 127.929 134.465 133.332 129.826L132.355 128.688C127.542 132.82 120.282 132.606 115.723 128.047L114.662 129.107ZM114.662 109.662C109.292 115.032 109.292 123.738 114.662 129.107L115.723 128.047C110.939 123.263 110.939 115.507 115.723 110.723L114.662 109.662ZM134.107 109.662C128.738 104.292 120.032 104.292 114.662 109.662L115.723 110.723C120.507 105.939 128.263 105.939 133.047 110.723L134.107 109.662Z" fill="#C2C7FF" mask="url(#path-48-inside-2_2161_858)"/>
<path d="M141 103H141.375V102.625H141V103ZM141 107H140.625V107.905L141.265 107.265L141 107ZM145 103V102.625H144.845L144.735 102.735L145 103ZM132.375 96C132.375 92.3411 135.341 89.375 139 89.375V88.625C134.927 88.625 131.625 91.9269 131.625 96H132.375ZM139 102.625C135.341 102.625 132.375 99.6589 132.375 96H131.625C131.625 100.073 134.927 103.375 139 103.375V102.625ZM141 102.625H139V103.375H141V102.625ZM141.375 107V103H140.625V107H141.375ZM144.735 102.735L140.735 106.735L141.265 107.265L145.265 103.265L144.735 102.735ZM151 102.625H145V103.375H151V102.625ZM157.625 96C157.625 99.6589 154.659 102.625 151 102.625V103.375C155.073 103.375 158.375 100.073 158.375 96H157.625ZM151 89.375C154.659 89.375 157.625 92.3411 157.625 96H158.375C158.375 91.9269 155.073 88.625 151 88.625V89.375ZM139 89.375H151V88.625H139V89.375Z" fill="#C2C7FF"/>
<path d="M141 97.375C141.759 97.375 142.375 96.7594 142.375 96H141.625C141.625 96.3452 141.345 96.625 141 96.625V97.375ZM139.625 96C139.625 96.7594 140.241 97.375 141 97.375V96.625C140.655 96.625 140.375 96.3452 140.375 96H139.625ZM141 94.625C140.241 94.625 139.625 95.2406 139.625 96H140.375C140.375 95.6548 140.655 95.375 141 95.375V94.625ZM142.375 96C142.375 95.2406 141.759 94.625 141 94.625V95.375C141.345 95.375 141.625 95.6548 141.625 96H142.375ZM145 97.3751C145.759 97.3751 146.375 96.7595 146.375 96.0001H145.625C145.625 96.3453 145.345 96.6251 145 96.6251V97.3751ZM143.625 96.0001C143.625 96.7595 144.241 97.3751 145 97.3751V96.6251C144.655 96.6251 144.375 96.3453 144.375 96.0001H143.625ZM145 94.6251C144.241 94.6251 143.625 95.2407 143.625 96.0001H144.375C144.375 95.6549 144.655 95.3751 145 95.3751V94.6251ZM146.375 96.0001C146.375 95.2407 145.759 94.6251 145 94.6251V95.3751C145.345 95.3751 145.625 95.6549 145.625 96.0001H146.375ZM149.625 96.0001C149.625 96.3453 149.345 96.6251 149 96.6251V97.3751C149.759 97.3751 150.375 96.7595 150.375 96.0001H149.625ZM149 95.3751C149.345 95.3751 149.625 95.6549 149.625 96.0001H150.375C150.375 95.2407 149.759 94.6251 149 94.6251V95.3751ZM148.375 96.0001C148.375 95.6549 148.655 95.3751 149 95.3751V94.6251C148.241 94.6251 147.625 95.2407 147.625 96.0001H148.375ZM149 96.6251C148.655 96.6251 148.375 96.3453 148.375 96.0001H147.625C147.625 96.7595 148.241 97.3751 149 97.3751V96.6251Z" fill="#C2C7FF"/>
<path d="M222 4H215C208.373 4 203 9.37258 203 16V60C203 66.6274 208.373 72 215 72H270C276.627 72 282 66.6274 282 60V16C282 9.37258 276.627 4 270 4H264M230 4H256" stroke="#B2B8FE" stroke-width="0.75"/>
<path d="M208 19H231V67H214C210.686 67 208 64.3137 208 61V19Z" stroke="#B2B8FE" stroke-width="0.75"/>
<path d="M231 19H254V67H231V19Z" stroke="#B2B8FE" stroke-width="0.75"/>
<path d="M254 19H277V61C277 64.3137 274.314 67 271 67H254V19Z" stroke="#B2B8FE" stroke-width="0.75"/>
<path d="M208 35H277V51H208V35Z" stroke="#B2B8FE" stroke-width="0.75"/>
<rect x="223.375" y="0.375" width="1.25" height="7.25" rx="0.625" stroke="#B2B8FE" stroke-width="0.75"/>
<rect x="227.375" y="0.375" width="1.25" height="7.25" rx="0.625" stroke="#B2B8FE" stroke-width="0.75"/>
<rect x="257.375" y="0.375" width="1.25" height="7.25" rx="0.625" stroke="#B2B8FE" stroke-width="0.75"/>
<rect x="261.375" y="0.375" width="1.25" height="7.25" rx="0.625" stroke="#B2B8FE" stroke-width="0.75"/>
<circle cx="242" cy="44" r="3" stroke="#B2B8FE" stroke-width="0.75"/>
<path d="M217 56L223 62M223 56L217 62" stroke="#B2B8FE" stroke-width="0.75"/>
<rect x="41.375" y="508.375" width="151.25" height="63.25" rx="2.625" stroke="#BABDDF" stroke-width="0.75"/>
<path d="M49 540H45V568H53V559.6" stroke="#BABDDF" stroke-width="0.75"/>
<path d="M105 540H101V568H109V559.6" stroke="#BABDDF" stroke-width="0.75"/>
<path d="M161 540H157V568H165V559.6" stroke="#BABDDF" stroke-width="0.75"/>
<path d="M73 540H77V568H69V559.6" stroke="#BABDDF" stroke-width="0.75"/>
<path d="M129 540H133V568H125V559.6" stroke="#BABDDF" stroke-width="0.75"/>
<path d="M185 540H189V568H181V559.6" stroke="#BABDDF" stroke-width="0.75"/>
<path d="M81 540H77V568H85V559.6" stroke="#BABDDF" stroke-width="0.75"/>
<path d="M137 540H133V568H141V559.6" stroke="#BABDDF" stroke-width="0.75"/>
<path d="M97 540H101V568H93V559.6" stroke="#BABDDF" stroke-width="0.75"/>
<path d="M153 540H157V568H149V559.6" stroke="#BABDDF" stroke-width="0.75"/>
<path d="M53 560V568H61V560" stroke="#BABDDF" stroke-width="0.75"/>
<path d="M109 560V568H117V560" stroke="#BABDDF" stroke-width="0.75"/>
<path d="M165 560V568H173V560" stroke="#BABDDF" stroke-width="0.75"/>
<path d="M61 560V568H69V560" stroke="#BABDDF" stroke-width="0.75"/>
<path d="M117 560V568H125V560" stroke="#BABDDF" stroke-width="0.75"/>
<path d="M173 560V568H181V560" stroke="#BABDDF" stroke-width="0.75"/>
<path d="M85 560V568H93V560" stroke="#BABDDF" stroke-width="0.75"/>
<path d="M141 560V568H149V560" stroke="#BABDDF" stroke-width="0.75"/>
<rect x="51.375" y="539.375" width="3.25" height="19.25" stroke="#BABDDF" stroke-width="0.75"/>
<rect x="107.375" y="539.375" width="3.25" height="19.25" stroke="#BABDDF" stroke-width="0.75"/>
<rect x="163.375" y="539.375" width="3.25" height="19.25" stroke="#BABDDF" stroke-width="0.75"/>
<rect x="59.375" y="539.375" width="3.25" height="19.25" stroke="#BABDDF" stroke-width="0.75"/>
<rect x="115.375" y="539.375" width="3.25" height="19.25" stroke="#BABDDF" stroke-width="0.75"/>
<rect x="171.375" y="539.375" width="3.25" height="19.25" stroke="#BABDDF" stroke-width="0.75"/>
<rect x="67.375" y="539.375" width="3.25" height="19.25" stroke="#BABDDF" stroke-width="0.75"/>
<rect x="123.375" y="539.375" width="3.25" height="19.25" stroke="#BABDDF" stroke-width="0.75"/>
<rect x="179.375" y="539.375" width="3.25" height="19.25" stroke="#BABDDF" stroke-width="0.75"/>
<rect x="83.375" y="539.375" width="3.25" height="19.25" stroke="#BABDDF" stroke-width="0.75"/>
<rect x="139.375" y="539.375" width="3.25" height="19.25" stroke="#BABDDF" stroke-width="0.75"/>
<rect x="91.375" y="539.375" width="3.25" height="19.25" stroke="#BABDDF" stroke-width="0.75"/>
<rect x="147.375" y="539.375" width="3.25" height="19.25" stroke="#BABDDF" stroke-width="0.75"/>
<circle cx="61" cy="524" r="9.625" stroke="#BABDDF" stroke-width="0.75"/>
<circle cx="61" cy="524" r="7.625" stroke="#BABDDF" stroke-width="0.75"/>
<path d="M56 521H66" stroke="#BABDDF" stroke-width="0.75"/>
<path d="M56 523H66" stroke="#BABDDF" stroke-width="0.75"/>
<path d="M56 525H66" stroke="#BABDDF" stroke-width="0.75"/>
<path d="M56 527H66" stroke="#BABDDF" stroke-width="0.75"/>
<path d="M64 519V529" stroke="#BABDDF" stroke-width="0.75"/>
<path d="M62 519V529" stroke="#BABDDF" stroke-width="0.75"/>
<path d="M60 519V529" stroke="#BABDDF" stroke-width="0.75"/>
<path d="M58 519V529" stroke="#BABDDF" stroke-width="0.75"/>
<rect x="79.375" y="514.375" width="7.25" height="7.25" rx="3.625" stroke="#BABDDF" stroke-width="0.75"/>
<rect x="79.375" y="526.375" width="7.25" height="7.25" rx="3.625" stroke="#BABDDF" stroke-width="0.75"/>
<rect x="89.375" y="514.375" width="7.25" height="7.25" rx="1.625" stroke="#BABDDF" stroke-width="0.75"/>
<rect x="99.375" y="514.375" width="7.25" height="7.25" rx="1.625" stroke="#BABDDF" stroke-width="0.75"/>
<path d="M157 518V534" stroke="#BABDDF" stroke-width="0.75"/>
<path d="M83 518V522" stroke="#BABDDF" stroke-width="0.75"/>
<path d="M80.5 527.5L82.8284 529.828" stroke="#BABDDF" stroke-width="0.75"/>
<path d="M163 514V519M163 534V523" stroke="#BABDDF" stroke-width="0.75"/>
<path d="M169 514V528M169 534V532" stroke="#BABDDF" stroke-width="0.75"/>
<path d="M175 514V522M175 534V526" stroke="#BABDDF" stroke-width="0.75"/>
<path d="M181 514V516M181 534V520" stroke="#BABDDF" stroke-width="0.75"/>
<rect x="89.375" y="526.375" width="7.25" height="7.25" rx="1.625" stroke="#BABDDF" stroke-width="0.75"/>
<rect x="99.375" y="526.375" width="7.25" height="7.25" rx="1.625" stroke="#BABDDF" stroke-width="0.75"/>
<circle cx="116.5" cy="516.5" r="1.125" stroke="#BABDDF" stroke-width="0.75"/>
<circle cx="116.5" cy="526.5" r="1.125" stroke="#BABDDF" stroke-width="0.75"/>
<circle cx="121.5" cy="516.5" r="1.125" stroke="#BABDDF" stroke-width="0.75"/>
<circle cx="121.5" cy="526.5" r="1.125" stroke="#BABDDF" stroke-width="0.75"/>
<circle cx="126.5" cy="516.5" r="1.125" stroke="#BABDDF" stroke-width="0.75"/>
<circle cx="126.5" cy="526.5" r="1.125" stroke="#BABDDF" stroke-width="0.75"/>
<circle cx="131.5" cy="516.5" r="1.125" stroke="#BABDDF" stroke-width="0.75"/>
<circle cx="131.5" cy="526.5" r="1.125" stroke="#BABDDF" stroke-width="0.75"/>
<circle cx="136.5" cy="516.5" r="1.125" stroke="#BABDDF" stroke-width="0.75"/>
<circle cx="136.5" cy="526.5" r="1.125" stroke="#BABDDF" stroke-width="0.75"/>
<circle cx="141.5" cy="516.5" r="1.125" stroke="#BABDDF" stroke-width="0.75"/>
<circle cx="141.5" cy="526.5" r="1.125" stroke="#BABDDF" stroke-width="0.75"/>
<circle cx="116.5" cy="521.5" r="1.125" stroke="#BABDDF" stroke-width="0.75"/>
<circle cx="116.5" cy="531.5" r="1.125" stroke="#BABDDF" stroke-width="0.75"/>
<circle cx="121.5" cy="521.5" r="1.125" stroke="#BABDDF" stroke-width="0.75"/>
<circle cx="121.5" cy="531.5" r="1.125" stroke="#BABDDF" stroke-width="0.75"/>
<circle cx="126.5" cy="521.5" r="1.125" stroke="#BABDDF" stroke-width="0.75"/>
<circle cx="126.5" cy="531.5" r="1.125" stroke="#BABDDF" stroke-width="0.75"/>
<circle cx="131.5" cy="521.5" r="1.125" stroke="#BABDDF" stroke-width="0.75"/>
<circle cx="131.5" cy="531.5" r="1.125" stroke="#BABDDF" stroke-width="0.75"/>
<circle cx="136.5" cy="521.5" r="1.125" stroke="#BABDDF" stroke-width="0.75"/>
<circle cx="136.5" cy="531.5" r="1.125" stroke="#BABDDF" stroke-width="0.75"/>
<circle cx="141.5" cy="521.5" r="1.125" stroke="#BABDDF" stroke-width="0.75"/>
<circle cx="141.5" cy="531.5" r="1.125" stroke="#BABDDF" stroke-width="0.75"/>
<rect x="156.375" y="515.375" width="1.25" height="1.25" rx="0.625" stroke="#BABDDF" stroke-width="0.75"/>
<rect x="0.375" y="-0.375" width="1.25" height="1.25" rx="0.625" transform="matrix(1 0 0 -1 162 521.25)" stroke="#BABDDF" stroke-width="0.75"/>
<rect x="168.375" y="529.375" width="1.25" height="1.25" rx="0.625" stroke="#BABDDF" stroke-width="0.75"/>
<rect x="174.375" y="523.375" width="1.25" height="1.25" rx="0.625" stroke="#BABDDF" stroke-width="0.75"/>
<rect x="180.375" y="517.375" width="1.25" height="1.25" rx="0.625" stroke="#BABDDF" stroke-width="0.75"/>
<path d="M117 65.0002L121.237 61.0781L115.722 59.37L117 65.0002ZM201.551 26.5029C189.835 25.2992 171.974 25.618 155.523 30.3108C139.079 35.0017 123.938 44.0968 117.864 60.524L118.802 60.8708C124.716 44.8768 139.49 35.9244 155.797 31.2725C172.098 26.6226 189.826 26.3035 201.449 27.4976L201.551 26.5029Z" fill="#C2C7FF"/>
<path d="M104.5 263.5L99.5438 260.539L99.4578 266.312L104.5 263.5ZM72.0009 177.975C71.2898 192.038 71.8781 212.606 75.801 230.095C77.762 238.838 80.5636 246.845 84.4773 252.889C88.3941 258.937 93.4573 263.064 99.9377 263.929L100.07 262.937C93.9758 262.125 89.1364 258.244 85.3167 252.345C81.494 246.442 78.7254 238.564 76.7767 229.876C72.8803 212.505 72.2913 192.034 72.9996 178.025L72.0009 177.975Z" fill="#C2C7FF"/>
<path d="M69 401L73.9164 404.027L74.0796 398.256L69 401ZM140.999 442.97C140.169 429.357 125.248 402.822 73.5151 400.628L73.4727 401.627C124.843 403.806 139.21 430.066 140.001 443.03L140.999 442.97Z" fill="#C2C7FF"/>
<path d="M61.5 422.5L58.7899 427.598L64.5599 427.396L61.5 422.5ZM103.506 502.5C90.8924 502.342 64.8795 487.145 62.1571 426.981L61.1581 427.026C63.8899 487.396 90.0777 503.332 103.494 503.5L103.506 502.5Z" fill="#C2C7FF"/>
<path d="M102.5 286L97.5104 283.095L97.4897 288.869L102.5 286ZM37.9804 339.639C40.5253 330.811 46.5484 317.814 56.4397 306.877C66.3252 295.947 80.0491 287.1 98.0145 286.484L97.9802 285.484C79.6743 286.112 65.7121 295.134 55.6981 306.206C45.6899 317.272 39.6 330.411 37.0196 339.362L37.9804 339.639Z" fill="#C2C7FF"/>
</svg>
