<svg width="24" height="21" viewBox="0 0 24 21" fill="none" xmlns="http://www.w3.org/2000/svg">
<path d="M22.6549 16.3878C22.2066 16.4772 21.7791 16.6502 21.3949 16.8978C21.0183 17.293 20.5428 17.5803 20.0178 17.7299C20.0878 17.2598 20.3208 16.8308 20.6729 16.5138C20.9676 16.0639 21.18 15.5651 21.2999 15.0408C21.2993 14.7738 21.3779 14.5127 21.5256 14.2904C21.6734 14.0681 21.8837 13.8946 22.1301 13.7918C22.3764 13.689 22.6477 13.6616 22.9097 13.7129C23.1716 13.7643 23.4124 13.8921 23.6018 14.0803C23.7911 14.2685 23.9203 14.5086 23.9732 14.7702C24.0261 15.0319 24.0003 15.3033 23.8989 15.5503C23.7976 15.7972 23.6254 16.0086 23.4039 16.1577C23.1825 16.3067 22.9219 16.3868 22.6549 16.3878ZM20.1849 13.1547C19.7371 12.8578 19.2399 12.6431 18.7168 12.5206C18.4498 12.5206 18.1888 12.4415 17.9667 12.2931C17.7447 12.1448 17.5717 11.9339 17.4695 11.6872C17.3673 11.4405 17.3406 11.1691 17.3927 10.9072C17.4448 10.6453 17.5734 10.4048 17.7622 10.216C17.951 10.0271 18.1915 9.89856 18.4534 9.84647C18.7153 9.79438 18.9867 9.82111 19.2334 9.9233C19.4801 10.0255 19.691 10.1985 19.8393 10.4205C19.9877 10.6425 20.0668 10.9036 20.0668 11.1706C20.1548 11.6196 20.3258 12.0483 20.5709 12.4346C20.9636 12.8143 21.248 13.2917 21.3949 13.8177C20.9282 13.7432 20.5018 13.5089 20.1889 13.1547H20.1839L20.1849 13.1547ZM17.9608 8.39647C17.5537 4.98733 14.0236 2.31622 9.75244 2.31622C5.20223 2.31622 1.50008 5.34435 1.50008 9.0685C1.53596 10.0984 1.8234 11.1038 2.33729 11.997C2.85119 12.8902 3.57592 13.6441 4.44821 14.1927C4.73554 14.4045 5.03618 14.5975 5.34825 14.7707L4.98225 16.2318C5.11424 16.2938 5.24224 16.3598 5.37724 16.4168L7.22533 15.4928C7.49533 15.5628 7.77936 15.6078 8.06135 15.6558C8.24136 15.6878 8.42138 15.7208 8.60639 15.7428C9.75888 15.8881 10.9282 15.821 12.0565 15.5448C12.0915 16.0448 12.1827 16.5393 12.3285 17.0188C11.4841 17.2168 10.6198 17.3178 9.75242 17.3198C8.97429 17.3154 8.19875 17.23 7.43834 17.0648L4.08515 18.7389C3.95754 18.8042 3.81372 18.831 3.67116 18.8161C3.52861 18.8012 3.39345 18.7452 3.2821 18.6549C3.17026 18.5653 3.08643 18.4456 3.04053 18.3098C2.99463 18.1741 2.98858 18.028 3.02311 17.8889L3.62312 15.4728C2.54037 14.7842 1.64358 13.8399 1.01176 12.7231C0.379935 11.6063 0.0324795 10.3512 0 9.0685C0 4.51032 4.36617 0.816162 9.75242 0.816162C14.8666 0.816162 19.0548 4.1503 19.4628 8.38848C19.2279 8.35233 18.9912 8.32896 18.7538 8.31848C18.4888 8.32849 18.2238 8.35347 17.9607 8.39548L17.9608 8.39647ZM14.8456 13.7197C15.2947 13.6297 15.7217 13.4577 16.1057 13.2097C16.4828 12.8151 16.9586 12.5285 17.4837 12.3796C17.4122 12.8481 17.1803 13.2771 16.8277 13.5937C16.5327 14.0437 16.3207 14.5437 16.2007 15.0678C16.2011 15.3346 16.1224 15.5957 15.9745 15.8178C15.8266 16.04 15.6162 16.2133 15.3698 16.316C15.1235 16.4186 14.8522 16.4459 14.5903 16.3945C14.3285 16.343 14.0877 16.2151 13.8985 16.0268C13.7093 15.8386 13.5801 15.5985 13.5273 15.3369C13.4745 15.0753 13.5004 14.8039 13.6017 14.557C13.7031 14.3101 13.8754 14.0988 14.0967 13.9498C14.3181 13.8008 14.5787 13.7207 14.8456 13.7197ZM17.2777 16.9678C17.7238 17.2668 18.2198 17.4829 18.7418 17.6079C19.0088 17.6079 19.2698 17.687 19.4919 17.8354C19.7139 17.9837 19.8869 18.1946 19.9891 18.4413C20.0913 18.688 20.118 18.9594 20.0659 19.2213C20.0138 19.4832 19.8852 19.7237 19.6964 19.9125C19.5076 20.1013 19.2671 20.2299 19.0052 20.282C18.7433 20.3341 18.4719 20.3074 18.2252 20.2052C17.9785 20.103 17.7676 19.93 17.6193 19.708C17.4709 19.4859 17.3918 19.2249 17.3918 18.9579C17.3057 18.5083 17.1361 18.0789 16.8917 17.6919C16.5005 17.3105 16.2181 16.8317 16.0737 16.3048C16.5408 16.3817 16.9666 16.619 17.2777 16.9758V16.9678Z" fill="#838B95"/>
</svg>
