<?xml version="1.0" encoding="UTF-8"?>
<svg width="475px" height="401px" viewBox="0 0 475 401" version="1.1" xmlns="http://www.w3.org/2000/svg" xmlns:xlink="http://www.w3.org/1999/xlink">
    <title>编组 3</title>
    <g id="页面-1" stroke="none" stroke-width="1" fill="none" fill-rule="evenodd">
        <g id="编组-3" fill-rule="nonzero">
            <g id="编组-2" transform="translate(282.000000, 76.000000)">
                <path d="M187.298577,124 L4.70142326,124 C2.10611485,123.99706 0.00293322538,121.88933 0,119.288409 L0,6.45184882 C0.00211504981,4.54637864 1.5429019,3.00219686 3.44425983,3 L188.496126,3 C190.430379,3.00220315 191.997841,4.57308734 192,6.51152327 L192,119.288409 C191.997068,121.889331 189.893886,123.997062 187.298577,124 Z" id="路径" fill="#F2F2F2"></path>
                <path d="M182.456305,118 L11.5436608,118 C9.03825536,118 7,116.107182 7,113.780655 L7,16.129241 C7,14.403813 8.51039748,13 10.366953,13 L183.577227,13 C185.464568,13 187,14.4269556 187,16.1807875 L187,113.780655 C187,116.107182 184.961682,118 182.456305,118 Z" id="路径" fill="#FFFFFF"></path>
                <path d="M192,7 L0,7 L0,4.6431951 C0.00376350007,2.07924867 2.11457659,0.00212598443 4.71850653,0 L187.281468,0 C189.88541,0.00210436409 191.99624,2.07923698 192,4.6431951 L192,7 Z" id="路径" fill="#3F3D56"></path>
                <circle id="椭圆形" fill="#FFFFFF" cx="9" cy="3" r="1"></circle>
                <circle id="椭圆形" fill="#FFFFFF" cx="13" cy="3" r="1"></circle>
                <circle id="椭圆形" fill="#FFFFFF" cx="17" cy="3" r="1"></circle>
                <path d="M92.1303186,34 L58.8696814,34 C57.8370849,34 57,33.1045695 57,32 C57,30.8954305 57.8370849,30 58.8696814,30 L92.1303186,30 C93.1629151,30 94,30.8954305 94,32 C94,33.1045695 93.1629151,34 92.1303186,34 Z" id="路径" fill="#CCCCCC"></path>
                <path d="M133.130319,34 L99.8696815,34 C98.8370849,34 98,33.1045695 98,32 C98,30.8954305 98.8370849,30 99.8696815,30 L133.130319,30 C134.162915,30 135,30.8954305 135,32 C135,33.1045695 134.162915,34 133.130319,34 Z" id="路径" fill="#CCCCCC"></path>
                <path d="M133.118212,41 L74.8817884,41 C73.8425054,41 73,40.1045695 73,39 C73,37.8954305 73.8425054,37 74.8817884,37 L133.118212,37 C134.157495,37 135,37.8954305 135,39 C135,40.1045695 134.157495,41 133.118212,41 Z" id="路径" fill="#CCCCCC"></path>
                <path d="M92.1280113,27 L58.867374,27 C57.8356793,26.9986365 57,26.1036057 57,25 C57,23.8963943 57.8356793,23.0013635 58.867374,23 L92.1280113,23 C92.7965332,22.999119 93.4146262,23.3801234 93.7491255,23.9992876 C94.0836248,24.6184517 94.0836248,25.3815483 93.7491255,26.0007124 C93.4146262,26.6198766 92.7965332,27.000881 92.1280113,27 Z" id="路径" fill="#CCCCCC"></path>
                <path d="M110.156716,27 L100.843284,27 C99.8252665,27 99,26.1045695 99,25 C99,23.8954305 99.8252665,23 100.843284,23 L110.156716,23 C111.174734,23 112,23.8954305 112,25 C112,26.1045695 111.174734,27 110.156716,27 L110.156716,27 Z" id="路径" fill="#CCCCCC"></path>
                <path d="M68.1544414,41 L58.8410091,41 C57.8238805,40.9986365 57,40.1036057 57,39 C57,37.8963943 57.8238805,37.0013635 58.8410091,37 L68.1544414,37 C68.8135246,36.999119 69.4228909,37.3801234 69.7526675,37.9992876 C70.0824442,38.6184517 70.0824442,39.3815483 69.7526675,40.0007124 C69.4228909,40.6198766 68.8135246,41.000881 68.1544414,41 Z" id="路径" fill="#CCCCCC"></path>
                <path d="M92.1303186,100 L58.8696811,100 C57.8370847,100 57,99.1045694 57,98 C57,96.8954306 57.8370847,96 58.8696811,96 L92.1303186,96 C93.1629151,96 94,96.8954305 94,98 C94,99.1045695 93.1629151,100 92.1303186,100 L92.1303186,100 Z" id="路径" fill="#CCCCCC"></path>
                <path d="M133.130318,100 L99.8696813,100 C98.8370848,100 98,99.1045694 98,98 C98,96.8954306 98.8370848,96 99.8696813,96 L133.130318,96 C134.162915,96 135,96.8954305 135,98 C135,99.1045695 134.162915,100 133.130318,100 L133.130318,100 Z" id="路径" fill="#CCCCCC"></path>
                <path d="M133.115958,108 L74.8817179,108 C73.8424738,108 73,107.104569 73,106 C73,104.895431 73.8424738,104 74.8817179,104 L133.115958,104 C133.788785,103.999119 134.410857,104.380123 134.74751,104.999288 C135.084163,105.618452 135.084163,106.381548 134.74751,107.000712 C134.410857,107.619877 133.788785,108.000881 133.115958,108 Z" id="路径" fill="#CCCCCC"></path>
                <path d="M92.1303199,94 L58.8696801,94 C57.8370843,94 57,93.1045695 57,92 C57,90.8954305 57.8370843,90 58.8696801,90 L92.1303199,90 C93.1629157,90 94,90.8954305 94,92 C94,93.1045695 93.1629157,94 92.1303199,94 Z" id="路径" fill="#CCCCCC"></path>
                <path d="M110.156716,94 L100.843284,94 C99.8252665,94 99,93.1045695 99,92 C99,90.8954305 99.8252665,90 100.843284,90 L110.156716,90 C111.174734,90 112,90.8954305 112,92 C112,93.1045695 111.174734,94 110.156716,94 Z" id="路径" fill="#CCCCCC"></path>
                <path d="M68.1547641,108 L58.8429601,108 C57.8251214,108 57,107.104569 57,106 C57,104.895431 57.8251214,104 58.8429601,104 L68.1547641,104 C68.8137321,103.999119 69.4229918,104.380123 69.7527108,104.999288 C70.0824297,105.618452 70.0824297,106.381548 69.7527108,107.000712 C69.4229918,107.619877 68.8137321,108.000881 68.1547641,108 Z" id="路径" fill="#CCCCCC"></path>
                <path d="M83.2331233,80 C82.5240419,80.0015956 81.8430473,79.7234411 81.3384676,79.22611 L68.7784037,66.8447118 C68.2803387,66.3537182 68,65.6840515 68,64.9852786 C68,64.2865056 68.2803387,63.6168389 68.7784037,63.1258454 L81.2877109,50.7944018 C82.3722906,49.7304337 84.1126011,49.7359091 85.1904412,50.8066806 L85.1904412,50.8066806 C86.2698317,51.8866279 86.269856,53.6349861 85.1904955,54.7149633 L75.8950051,63.9944935 C75.2920238,64.5978695 75.2920238,65.5746082 75.8950051,66.1779842 L85.1400678,75.40712 C85.9121579,76.1763443 86.1433796,77.3344357 85.7257154,78.3403802 C85.3080513,79.3463246 84.3239417,80.0015642 83.2331233,80 L83.2331233,80 Z" id="路径" fill="#7D7FE9"></path>
                <path d="M103.768001,80 C102.677264,80.0015606 101.693227,79.3463211 101.275593,78.3403768 C100.85796,77.3344325 101.089165,76.1763413 101.861198,75.4071171 L111.105577,66.1779942 C111.708514,65.5746182 111.708514,64.5978796 111.105577,63.9945037 L101.810774,54.7149635 C101.291635,54.1966929 101,53.4937607 101,52.7608112 C101,52.0278617 101.291675,51.3249375 101.810828,50.8066814 L101.810828,50.8066814 C102.888587,49.7359088 104.628769,49.7304334 105.713267,50.7944026 L118.22165,63.1258443 C118.719681,63.6168366 119,64.2865037 119,64.9852772 C119,65.6840507 118.719681,66.3537178 118.22165,66.8447101 L105.662517,79.2261065 C105.157941,79.7233882 104.47702,80.0015366 103.768001,80 L103.768001,80 Z" id="路径" fill="#7D7FE9"></path>
            </g>
            <path d="M138.76565,148.861 C141.63541,145.69969 146.37496,146.62356 149.5284,148.85481 C153.58684,151.72639 154.74747,156.97037 155.34617,161.61876 C156.35969,169.4879 156.65958,180.61165 165.58309,183.9015 C169.70591,185.42147 174.42536,184.16628 177.90763,181.69821 C181.71125,179.00239 184.08382,174.85557 185.67298,170.55781 C187.59702,165.35441 188.71071,159.7883 189.65475,154.33523 C190.62015,148.75879 191.25288,143.12229 191.53703,137.46995 C191.81502,131.94005 191.63408,126.44648 191.41424,120.92018 C191.24259,116.60542 191.17712,112.07457 192.6346,107.94867 C194.1066,103.78167 197.52907,100.61217 202.02925,100.19412 C206.39732,99.78834 210.89606,101.63028 214.05637,104.60307 C221.63925,111.73604 221.99599,123.38077 223.69078,132.94471 C224.58122,137.96961 225.88289,143.05434 228.61148,147.42611 C230.85557,151.0216 233.97435,154.03591 237.56665,156.27229 C244.81214,160.78296 254.04501,162.09929 262.08509,159.00035 C269.93471,155.97482 276.25329,149.36096 278.98739,141.41133 C279.66261,139.44808 280.0797,137.42 280.29122,135.35655 C280.38956,134.39719 278.88886,134.40406 278.79122,135.35655 C277.89227,144.12599 272.26319,152.06801 264.54939,156.22732 C256.61214,160.50711 247.00006,159.9641 239.24521,155.52724 C235.43276,153.34599 232.11643,150.26936 229.81207,146.51746 C227.01748,141.96737 225.82077,136.66377 224.95018,131.45648 C223.37779,122.05148 222.66451,111.25308 215.61587,104.03188 C210.14932,98.4315 200.08982,96.18403 194.21481,102.42211 C188.16531,108.84546 189.97874,119.19247 190.17192,127.16613 C190.45483,138.84382 189.25083,150.54869 186.58199,161.92113 C185.42029,166.87136 184.08398,171.97605 181.16829,176.22072 C178.50368,180.09987 174.1487,183.10665 169.29931,183.05879 C164.46319,183.01106 161.06526,179.4567 159.34835,175.21913 C157.53701,170.74848 157.41832,165.92024 156.79154,161.20105 C156.21616,156.8689 155.16778,152.07494 151.91901,148.90448 C149.39268,146.43904 145.64492,144.85206 142.08927,145.41908 C140.38076,145.69154 138.86571,146.52168 137.70498,147.80033 C137.05741,148.51369 138.11512,149.5776 138.76564,148.86099 L138.76564,148.86099 L138.76565,148.861 Z" id="路径" fill="#7D7FE9"></path>
            <g id="编组" transform="translate(250.407312, 264.078139)" fill="#F2F2F2">
                <path d="M105.132628,45.1471806 C104.288328,43.7235306 100.635798,45.2478606 99.9642983,43.9558306 C99.2951683,42.6684806 102.688788,40.7069606 104.627628,36.2260306 C104.977298,35.4179606 107.180608,30.3257006 105.549508,28.7544106 C102.457768,25.7760506 88.3098883,38.0670006 83.3587783,34.0448206 C82.2721683,33.1621306 81.5130783,31.3999806 78.2244983,28.5389906 C76.9162083,27.4008406 76.1251283,26.8869506 75.3595083,27.0781406 C74.2731483,27.3494106 74.1870883,28.8033606 73.0221683,31.6621206 C71.2751583,35.9494106 70.2418983,35.6905306 69.2240083,39.1110906 C68.4683883,41.6503406 68.6409983,43.1266206 67.7518383,43.4142206 C66.4935983,43.8212306 65.3354583,41.1279006 63.7408483,41.3690506 C62.1136483,41.6151706 61.1298883,44.7511006 60.8191583,47.0990306 C60.2360283,51.5051006 61.8541283,54.4125106 62.7509783,57.4696706 C63.7255883,60.7920306 64.3040183,65.8446106 62.0532883,72.9972606 L39.7760983,135.763401 C44.6942183,122.883971 58.9345183,87.5780406 64.9182783,74.4581006 C66.6456983,70.6706506 68.5529783,66.8290106 72.4692383,65.3128406 C76.2396883,63.8530606 81.4179083,64.7246106 88.0195283,63.1342206 C88.7905283,62.9485206 90.9300483,62.4041506 91.1993383,61.1457306 C91.4219983,60.1053606 90.1635083,59.5246406 90.3568683,58.5502406 C90.6162083,57.2432306 93.0909983,57.2271806 96.1321983,55.7192806 C98.2766683,54.6559606 99.6126683,53.3914306 100.761528,52.3039706 C101.107898,51.9761206 106.256648,47.0423106 105.132678,45.1471706 L105.132618,45.1471706 L105.132628,45.1471806 Z" id="路径"></path>
                <path d="M17.4875183,78.1899006 C16.5451683,78.1935006 16.2394683,80.4260106 15.4115883,80.3828006 C14.5866683,80.3397706 14.6031183,78.1082006 12.9632883,75.8637006 C12.6675683,75.4589506 10.8039883,72.9082306 9.56213831,73.2554506 C7.20828831,73.9135306 9.15863831,84.4037306 5.75595831,85.6732706 C5.00922831,85.9519006 3.92529831,85.8160306 1.57226831,86.6046106 C0.636168306,86.9183306 0.155708306,87.1583206 0.028628306,87.5892606 C-0.151671694,88.2007106 0.537078306,88.6625006 1.60406831,90.0590506 C3.20422831,92.1535006 2.77902831,92.5859706 4.16415831,94.0724806 C5.19241831,95.1760006 5.96679831,95.5172406 5.85138831,96.0366206 C5.68811831,96.7716106 4.03204831,96.5629306 3.69031831,97.4151306 C3.34162831,98.2847906 4.59690831,99.6724206 5.65961831,100.502381 C7.65390831,102.059881 9.54773831,102.104581 11.3069883,102.546511 C13.2188183,103.026771 15.8655783,104.200721 18.7267283,107.369171 L43.1050883,136.412991 C38.2028083,130.283021 24.9831983,113.106901 20.2703683,106.384491 C18.9098683,104.443881 17.5746883,102.399321 17.9605283,100.039701 C18.3319583,97.7679406 20.2537983,95.4779306 21.3780083,91.7789306 C21.5093283,91.3469206 21.8594583,90.1397706 21.3195383,89.6445006 C20.8731583,89.2350506 20.2250283,89.6851806 19.8025683,89.3091106 C19.2359183,88.8046806 19.9420983,87.5854206 20.0794583,85.6577106 C20.1763183,84.2984006 19.9411483,83.2778306 19.7389083,82.4001706 C19.6779383,82.1355806 18.7419583,78.1849906 17.4875383,78.1898106 L17.4875383,78.1899006 L17.4875183,78.1899006 Z" id="路径"></path>
                <path d="M36.2871383,82.4099906 L35.7193883,77.3418106 L35.9787883,76.9575906 C37.1791383,75.1809206 37.7909483,73.4458406 37.7982783,71.7988706 C37.7994983,71.5370306 37.7872583,71.2751606 37.7750283,71.0084306 C37.7260783,69.9512406 37.6649183,68.6370906 38.3501283,67.1051406 C38.7343483,66.2510806 39.8135683,64.2737206 41.4360683,64.5184406 C41.8728983,64.5796306 42.2032783,64.7802806 42.4541083,65.0152106 C42.4908183,64.9564906 42.5287583,64.8977506 42.5691283,64.8341206 C43.0744683,64.0632506 43.4745883,63.7328906 43.8600183,63.4147506 C44.1561283,63.1700306 44.4620383,62.9179806 44.9416883,62.3208506 C45.1521383,62.0590106 45.3161083,61.8289706 45.4543883,61.6356406 C45.8740983,61.0507706 46.4222483,60.3532906 47.3888983,60.3653718 C48.4216083,60.4144806 48.9624483,61.2685506 49.3209683,61.8338506 C49.9609183,62.8420906 50.2508983,63.5689306 50.4430083,64.0510106 C50.5127683,64.2272206 50.5922983,64.4254306 50.6326783,64.4866206 C50.9654983,64.9760606 53.6709183,64.5184206 54.6901383,64.3520106 C56.9795083,63.9702406 58.9605283,63.6398806 59.7766883,65.0837306 C60.3615883,66.1164406 59.9271983,67.4819806 58.4466083,69.2513306 C57.9853083,69.8019606 57.4946383,70.2204206 57.0590383,70.5483606 C57.4199983,70.7637206 57.7429983,71.0940806 57.8739783,71.6129006 L57.8739783,71.6129006 C58.1823283,72.8413906 57.1263583,74.0723406 54.7366483,75.2763806 C54.1432083,75.5773706 53.3441883,75.9787406 52.2245983,76.1720706 C51.6972283,76.2626206 51.2224583,76.2846506 50.8162383,76.2968906 C50.8076583,76.5318106 50.7526083,76.7863306 50.6094483,77.0481706 C50.1897383,77.8190406 49.3161183,78.1861106 47.9994983,78.0980106 C46.5507383,78.0221406 45.3577483,77.7456206 44.3054383,77.5033406 C43.3865283,77.2928906 42.5948383,77.1142406 41.9732583,77.1558406 C40.8206383,77.2488306 39.9322683,78.1714306 38.8897883,79.3681206 L36.2871883,82.4099906 L36.2871583,82.4099906 L36.2871383,82.4099906 Z" id="路径"></path>
                <path d="M38.9209583,52.2340606 L34.1624183,54.0687806 L33.7249783,53.9153106 C31.7019383,53.2048606 29.8684383,53.0531606 28.2734683,53.4638306 C28.0198683,53.5290806 27.7696883,53.6073206 27.5147683,53.6868206 C26.5045783,54.0023106 25.2488983,54.3948306 23.5932583,54.1206006 C22.6696483,53.9656006 20.4832383,53.4232106 20.3084083,51.7917106 C20.2567983,51.3536606 20.3670983,50.9831806 20.5307283,50.6809606 C20.4645983,50.6603606 20.3981583,50.6385706 20.3263783,50.6156506 C19.4525383,50.3223506 19.0314883,50.0191206 18.6259683,49.7269806 C18.3141383,49.5026106 17.9927283,49.2706506 17.2934783,48.9581506 C16.9868083,48.8210006 16.7227083,48.7207506 16.5006283,48.6360406 C15.8284183,48.3784406 15.0147283,48.0250806 14.7813883,47.0869406 C14.5667883,46.0755906 15.2557583,45.3358106 15.7116283,44.8456106 C16.5245883,43.9708506 17.1540683,43.5059806 17.5716783,43.1978706 C17.7244183,43.0857206 17.8959883,42.9584906 17.9449383,42.9039206 C18.3339483,42.4578406 17.2050683,39.9569906 16.7855783,39.0133006 C15.8355983,36.8956506 15.0135483,35.0632306 16.2031783,33.9075306 C17.0537683,33.0798306 18.4848283,33.1536206 20.5718583,34.1369906 C21.2214883,34.4435406 21.7507183,34.8120106 22.1784283,35.1502006 C22.2951883,34.7464206 22.5327983,34.3501506 23.0014583,34.0919106 L23.0014583,34.0919106 C24.1115683,33.4820506 25.5700883,34.1912406 27.3409083,36.1973806 C27.7825883,36.6950606 28.3734983,37.3661406 28.8444783,38.4000806 C29.0658183,38.8872306 29.2075483,39.3408806 29.3224483,39.7307406 C29.5518783,39.6794406 29.8120083,39.6681506 30.1016183,39.7402006 C30.9537283,39.9506506 31.5304183,40.7026006 31.7791383,41.9985006 C32.0732383,43.4191206 32.1083583,44.6432406 32.1409283,45.7225906 C32.1704383,46.6648506 32.1984283,47.4759506 32.3963583,48.0666506 C32.7786783,49.1579906 33.8964183,49.7832606 35.3184183,50.4881306 L38.9209583,52.2340406 L38.9209583,52.2340706 L38.9209583,52.2340606 Z" id="路径"></path>
                <path d="M36.2871383,37.3030606 L35.7193883,32.2348806 L35.9787883,31.8506606 C37.1791383,30.0739906 37.7909483,28.3389106 37.7982783,26.6919406 C37.7994983,26.4301006 37.7872583,26.1682306 37.7750283,25.9015006 C37.7260783,24.8443106 37.6649183,23.5301606 38.3501283,21.9982106 C38.7343483,21.1441506 39.8135683,19.1667906 41.4360683,19.4115106 C41.8728983,19.4727006 42.2032783,19.6733506 42.4541083,19.9082806 C42.4908183,19.8495606 42.5287583,19.7908206 42.5691283,19.7271906 C43.0744683,18.9563206 43.4745883,18.6259606 43.8600183,18.3078206 C44.1561283,18.0631006 44.4620383,17.8110506 44.9416883,17.2139206 C45.1521383,16.9520806 45.3161083,16.7220406 45.4543883,16.5287106 C45.8740983,15.9438406 46.4222483,15.2463606 47.3888983,15.2584418 C48.4216083,15.3075506 48.9624483,16.1616206 49.3209683,16.7269206 C49.9609183,17.7351606 50.2508983,18.4620006 50.4430083,18.9440806 C50.5127683,19.1202906 50.5922983,19.3185006 50.6326783,19.3796906 C50.9654983,19.8691306 53.6709183,19.4114906 54.6901383,19.2450806 C56.9795083,18.8633106 58.9605283,18.5329506 59.7766883,19.9768006 C60.3615883,21.0095106 59.9271983,22.3750506 58.4466083,24.1444006 C57.9853083,24.6950306 57.4946383,25.1134906 57.0590383,25.4414306 C57.4199983,25.6567906 57.7429983,25.9871506 57.8739783,26.5059706 L57.8739783,26.5059706 C58.1823283,27.7344606 57.1263583,28.9654106 54.7366483,30.1694506 C54.1432083,30.4704406 53.3441883,30.8718106 52.2245983,31.0651406 C51.6972283,31.1556906 51.2224583,31.1777206 50.8162383,31.1899606 C50.8076583,31.4248806 50.7526083,31.6794006 50.6094483,31.9412406 C50.1897383,32.7121106 49.3161183,33.0791806 47.9994983,32.9910806 C46.5507383,32.9152106 45.3577483,32.6386906 44.3054383,32.3964106 C43.3865283,32.1859606 42.5948383,32.0073106 41.9732583,32.0489106 C40.8206383,32.1419006 39.9322683,33.0645006 38.8897883,34.2611906 L36.2871883,37.3030606 L36.2871583,37.3030606 L36.2871383,37.3030606 Z" id="路径"></path>
                <path d="M41.4727783,135.680851 L40.4106783,135.015161 L40.1537183,133.789121 L40.4106783,135.015161 L39.1723983,135.157101 C39.1528083,135.042081 39.0855183,134.777771 38.9839783,134.364191 C38.4296883,132.098081 36.7398983,125.201841 35.3302883,114.341151 C34.3464883,106.759701 33.7897583,98.9653606 33.6747383,91.1709806 C33.5597183,83.3644006 33.9292583,77.4543706 34.2253683,72.7043706 C34.4492783,69.1216706 34.7209383,65.7102606 34.9876683,62.3869306 C35.6973583,53.5084506 36.3666683,45.1218806 35.8686483,35.8371906 C35.7585383,33.7644106 35.5272483,29.4499806 33.0066483,24.8590106 C31.5444283,22.1964406 29.5303883,19.8324606 27.0195583,17.8355406 L28.5808683,15.8728906 C31.3523183,18.0802606 33.5804983,20.6987906 35.2042483,23.6550306 C37.9989583,28.7452106 38.2510283,33.4463206 38.3721583,35.7050806 C38.8787183,45.1537506 38.2020883,53.6211006 37.4850383,62.5852106 C37.2207283,65.8962806 36.9490883,69.2930006 36.7263983,72.8610306 C36.4327283,77.5670206 36.0668783,83.4256106 36.1806783,91.1318706 C36.2932583,98.8332206 36.8438583,106.532141 37.8141883,114.018161 C39.2066483,124.741821 40.8719883,131.535281 41.4189283,133.767121 C41.7101583,134.958921 41.7713183,135.208531 41.4727583,135.680851 L41.4727583,135.680851 L41.4727783,135.680851 Z" id="路径"></path>
                <path d="M22.4237083,21.8171606 C22.3209283,21.8171606 22.2169183,21.8147206 22.1116983,21.8073606 C19.9777283,21.6923406 18.0016183,20.4149006 16.2371883,18.0117406 C15.4100383,16.8811206 14.9866683,15.5914506 14.1423683,13.0194306 C14.0114483,12.6229806 13.3751583,10.6113806 12.9884983,7.84359064 C12.7351983,6.03509064 12.7670283,5.27892064 13.1255483,4.61083064 C13.5232183,3.86687064 14.1668383,3.34807064 14.8912083,2.99813064 C14.8594083,2.75829064 14.8850783,2.51113064 14.9891083,2.25906064 C15.4161383,1.21411064 16.5516383,1.35116064 17.1658983,1.41723064 C17.4766883,1.45638064 17.8645683,1.50778064 18.2830583,1.48574064 C18.9413483,1.45394064 19.2949883,1.25814064 19.8309083,0.964470643 C20.3436083,0.683040643 20.9810883,0.333090643 21.9269483,0.139760643 C23.7917283,-0.249339357 25.3542583,0.279260643 25.8693883,0.452990643 C28.5796583,1.35601064 29.9158383,3.46306064 31.4624683,5.90291064 C31.7708183,6.39235064 32.8292283,8.17391064 33.5278983,10.6162306 C34.0320183,12.3782206 33.9610683,13.1613306 33.8093283,13.7437606 C33.5009783,14.9404506 32.7729483,15.6256606 30.9240783,17.1380506 C28.9932283,18.7213906 28.0241483,19.5143006 27.1920883,19.9963906 C25.2551383,21.1147706 24.0388583,21.8171606 22.4237183,21.8171606 L22.4237183,21.8171606 L22.4237083,21.8171606 Z" id="路径"></path>
            </g>
            <path d="M219.8104,87.33546 L185.58979,87.33546 C184.72706,87.33546 184.02508,86.63347 184.02508,85.77074 C184.02508,84.90801 184.72707,84.20635 185.58979,84.20635 L219.8104,84.20635 C220.67313,84.20635 221.37479,84.90801 221.37479,85.77074 C221.37479,86.63347 220.67313,87.33546 219.8104,87.33546 L219.8104,87.33546 Z" id="路径" fill="#E6E6E6"></path>
            <path d="M272.8104,178.33546 L238.58979,178.33546 C237.72706,178.33546 237.02508,177.63347 237.02508,176.77074 C237.02508,175.90801 237.72707,175.20635 238.58979,175.20635 L272.8104,175.20635 C273.67313,175.20635 274.37479,175.90801 274.37479,176.77074 C274.37479,177.63347 273.67313,178.33546 272.8104,178.33546 L272.8104,178.33546 Z" id="路径" fill="#E6E6E6"></path>
            <path d="M300.8104,240.33546 L266.58979,240.33546 C265.72706,240.33546 265.02508,239.63347 265.02508,238.77074 C265.02508,237.90801 265.72707,237.20635 266.58979,237.20635 L300.8104,237.20635 C301.67313,237.20635 302.37479,237.90801 302.37479,238.77074 C302.37479,239.63347 301.67313,240.33546 300.8104,240.33546 L300.8104,240.33546 Z" id="路径" fill="#E6E6E6"></path>
            <path d="M144.8104,53.33546 L110.58979,53.33546 C109.72706,53.33546 109.02508,52.63347 109.02508,51.77074 C109.02508,50.90801 109.72707,50.20635 110.58979,50.20635 L144.8104,50.20635 C145.67313,50.20635 146.37479,50.90801 146.37479,51.77074 C146.37479,52.63347 145.67313,53.33546 144.8104,53.33546 L144.8104,53.33546 Z" id="路径" fill="#E6E6E6"></path>
            <path d="M0,398.59438 C0,399.335336 0.479852537,399.930286 1.07739809,399.930286 L473.922656,399.930286 C474.520147,399.930286 475,399.335336 475,398.59438 C475,397.853491 474.520147,397.258474 473.922656,397.258474 L1.07739809,397.258474 C0.479852537,397.258474 0,397.853491 0,398.59438 Z" id="路径" fill="#CCCCCC"></path>
            <path d="M283.24803,222.17969 L128.14794,222.17969 C127.59566,222.17969 127.14794,221.73197 127.14794,221.17969 L127.14794,73.17969 C127.14794,72.62696 127.59569,72.17969 128.14794,72.17969 C128.70019,72.17969 129.14794,72.62696 129.14794,73.17969 L129.14794,133.5679 C129.14794,181.40227 167.92536,220.17969 215.75973,220.17969 L283.24804,220.17969 C283.80029,220.17969 284.24804,220.62696 284.24804,221.17969 C284.24804,221.73242 283.80029,222.17969 283.24804,222.17969 L283.24803,222.17969 Z" id="路径" fill="#E6E6E6"></path>
            <path d="M160.8104,162.69908 L126.58979,162.69908 C125.72706,162.69908 125.02508,161.99709 125.02508,161.13436 C125.02508,160.27163 125.72707,159.56997 126.58979,159.56997 L160.8104,159.56997 C161.67313,159.56997 162.37479,160.27163 162.37479,161.13436 C162.37479,161.99709 161.67313,162.69908 160.8104,162.69908 L160.8104,162.69908 Z" id="路径" fill="#E6E6E6"></path>
            <g id="编组" transform="translate(5.138170, 64.467577)">
                <path d="M121.74147,102.684013 C127.16866,100.891723 130.64307,96.6386328 129.50188,93.1849228 C128.36069,89.7312128 123.03667,88.3852128 117.60778,90.1788728 C115.42933,90.8656228 113.44703,92.0640728 111.82671,93.6739828 L88.92738,101.558403 L92.85636,112.225523 L115.01391,103.320363 C117.27508,103.648573 119.58197,103.430373 121.74147,102.684003 L121.74147,102.684013 Z" id="uuid-5c502ea6-9d8d-47ac-9944-b5b4822d592a-177" fill="#FFB6B6"></path>
                <path d="M4.02891,163.821363 C4.2142,169.533843 7.31187,174.068673 10.94731,173.950153 C14.58275,173.831633 17.37863,169.105133 17.19251,163.390643 C17.14947,161.106923 16.56016,158.866703 15.47386,156.857443 L14.38313,132.663363 L3.04047,133.417213 L5.31997,157.188263 C4.36605,159.264473 3.92334,161.538973 4.02892,163.821373 L4.02891,163.821363 Z" id="uuid-ca9917be-6801-4c2d-b7fb-204f6c00dfb7-178" fill="#FFB6B6"></path>
                <g transform="translate(27.873153, 287.532433)" id="路径">
                    <polygon fill="#FFB6B6" points="2.34214674 39.31134 12.4666067 39.31036 15.0606367 0 2.34011674 0.2595"></polygon>
                    <path d="M37.0298067,39.08168 L37.0298067,39.08168 C37.3450467,39.6126 37.5113867,41.32618 37.5113867,41.9436 L37.5113867,41.9436 C37.5113867,43.84138 35.9729567,45.37988 34.0751067,45.37988 L2.72085674,45.37988 C1.42619674,45.37988 0.37660674,44.33035 0.37660674,43.03563 L0.37660674,41.73025 C0.37660674,41.73025 -1.17445326,37.80691 2.01890674,32.97118 C2.01890674,32.97118 5.98783674,36.75763 11.9184367,30.82703 L13.6673167,27.6588 L26.3268067,36.91731 L33.3437767,37.78103 C34.8789467,37.96998 36.2400167,37.75171 37.0296867,39.08166 L37.0298067,39.08166 L37.0298067,39.08168 Z" fill="#2F2E41"></path>
                </g>
                <g transform="translate(51.873153, 287.532433)" id="路径">
                    <polygon fill="#FFB6B6" points="2.34214674 39.31134 12.4666067 39.31036 15.0606367 0 2.34011674 0.2595"></polygon>
                    <path d="M37.0298067,39.08168 L37.0298067,39.08168 C37.3450467,39.6126 37.5113867,41.32618 37.5113867,41.9436 L37.5113867,41.9436 C37.5113867,43.84138 35.9729567,45.37988 34.0751067,45.37988 L2.72085674,45.37988 C1.42619674,45.37988 0.37660674,44.33035 0.37660674,43.03563 L0.37660674,41.73025 C0.37660674,41.73025 -1.17445326,37.80691 2.01890674,32.97118 C2.01890674,32.97118 5.98783674,36.75763 11.9184367,30.82703 L13.6673167,27.6588 L26.3268067,36.91731 L33.3437767,37.78103 C34.8789467,37.96998 36.2400167,37.75171 37.0296867,39.08166 L37.0298067,39.08166 L37.0298067,39.08168 Z" fill="#2F2E41"></path>
                </g>
                <circle id="椭圆形" fill="#FFB6B6" cx="36.10679" cy="19.1539428" r="14.89321"></circle>
                <polygon id="路径" fill="#2F2E41" points="15.5 143.032423 22.5 243.032423 26.5 310.032423 45.5 309.032423 43.5 236.032423 47.5 191.032423 53.5 309.032423 68.62205 309.032423 74.5 144.032423 42 139.532423"></polygon>
                <path d="M41.5,31.0324228 C37.26413,35.1099328 27.47488,32.4063228 22.5,31.0324228 C19.76163,30.2761928 18.10904,29.4967828 17.5,28.0324228 C17.07663,27.0144828 17.3172,26.0492728 16.5,24.0324228 C16.02136,22.8510228 15.76892,22.7628928 15.5,22.0324228 C14.75034,19.9961728 15.79163,18.1819628 16.5,16.0324228 C17.97809,11.5471928 16.21335,11.0435328 17.5,8.03242278 C19.43433,3.50556278 24.69617,1.66377278 26.5,1.03242278 C29.86783,-0.146407218 32.67654,-0.0217772178 33.5,0.0324227822 C38.77545,0.379712782 42.30237,3.08674278 43.5,4.03242278 C45.92767,5.94941278 47.11844,7.97712278 49.5,12.0324228 C51.57245,15.5613528 51.72351,16.9156028 51.5,18.0324228 C51.15942,19.7342028 50.17798,19.7405528 49.5,22.0324228 C48.73041,24.6339828 49.6058,25.9414828 48.5,27.0324228 C47.7525,27.7698528 47.05783,27.4630828 45.5,28.0324228 C43.35593,28.8159928 42.29758,30.2647228 41.5,31.0324228 Z" id="路径" fill="#2F2E41"></path>
                <path d="M53.5,46.0324228 C53.5,46.0324228 38.5,27.0324228 19.5,34.0324228 L13.34646,46.0324228 L11.29056,47.9785028 C2.6664,56.1419928 -1.34607,68.0521428 0.58015,79.7700028 L9.5,134.032423 C9.5,134.032423 8.5,155.032423 15.5,161.032423 C15.5,161.032423 25.5,142.032423 49.5,151.032423 C73.5,160.032423 78.5,155.032423 78.5,155.032423 L70.5,98.0324228 L53.5,46.0324228 L53.5,46.0324228 Z" id="路径" fill="#2F2E41"></path>
                <path d="M48.5,49.0324228 L43.5,60.0324228 L62.5,124.032423 L114.5,105.032423 L107.5,93.0324228 L82.5,100.032423 C82.5,100.032423 63.5,44.0324228 48.5,49.0324228 Z" id="路径" fill="#2F2E41"></path>
                <polygon id="路径" fill="#2F2E41" points="13 149.532423 2 149.532423 -1.42108547e-14 69.5324228 13 96.5324228"></polygon>
            </g>
            <circle id="椭圆形" fill="#3F3D56" cx="138.63817" cy="148.5" r="4.5"></circle>
            <circle id="椭圆形" fill="#3F3D56" cx="168.63817" cy="183.5" r="4.5"></circle>
            <circle id="椭圆形" fill="#3F3D56" cx="202.63817" cy="99.5" r="4.5"></circle>
            <circle id="椭圆形" fill="#3F3D56" cx="252.63817" cy="159.5" r="4.5"></circle>
            <circle id="椭圆形" fill="#3F3D56" cx="281.63817" cy="135.5" r="4.5"></circle>
            <g id="编组" transform="translate(222.127020, -0.000000)">
                <path d="M50.93824,40.02396 L59.16816,43.92252 C55.79261,39.2117 52.88398,31.85447 51.32679,26.00003 C48.69025,31.45346 44.44007,38.12613 40.23304,42.11197 L48.93116,39.8743 C43.57142,66.14224 23.41206,85.00003 0.32679,85.00003 L0,85.94883 C24.11316,85.94883 45.46577,67.35244 50.93824,40.02395 L50.93824,40.02396 Z" id="路径" fill="#3F3D56"></path>
                <path d="M26.05903,0 L78.05903,0 C80.2646,0 82.05903,1.79443 82.05903,4 C82.05903,6.20557 80.2646,8 78.05903,8 L26.05903,8 C23.85346,8 22.05903,6.20557 22.05903,4 C22.05903,1.79443 23.85346,0 26.05903,0 Z" id="路径" fill="#7D7FE9"></path>
            </g>
            <path d="M283.31639,230.36426 C282.76805,230.36426 282.21483,230.24219 281.68797,229.99512 C280.38865,229.38477 279.57274,228.16407 279.50633,226.73047 L278.96727,215.10449 C278.89793,213.61133 279.67723,212.2539 281.00145,211.56054 C282.32518,210.86718 283.88573,211.00195 285.07274,211.9082 L292.99071,217.96386 C293.94286,218.6914 294.4868,219.79687 294.482921,220.99413 C294.47948,222.19335 293.9287,223.29393 292.97216,224.01659 L285.59325,229.58788 C284.9121,230.10155 284.11962,230.36426 283.31639,230.36426 L283.31639,230.36426 Z" id="路径" fill="#E6E6E6"></path>
            <path d="M137.34464,74.14915 C137.34464,74.69749 137.22257,75.25071 136.9755,75.77757 C136.36515,77.07689 135.14445,77.8928 133.71085,77.95921 L122.08487,78.49827 C120.59171,78.56761 119.23428,77.78831 118.54092,76.46409 C117.84756,75.14036 117.98233,73.57981 118.88858,72.3928 L124.94424,64.47483 C125.67178,63.52268 126.77725,62.97874 127.97451,62.9826192 C129.17373,62.98606 130.27431,63.53684 130.99697,64.49338 L136.56826,71.87229 C137.08193,72.55344 137.34464,73.34592 137.34464,74.14915 L137.34464,74.14915 Z" id="路径" fill="#E6E6E6"></path>
            <path d="M202.26889,63.85272 C196.34875,62.43458 190.02344,63.71808 184.96275,67.06112 C179.65607,70.56666 176.14244,76.18015 174.95315,82.39902 C172.49952,95.2292 179.99576,108.04634 191.84308,113.15286 C204.29746,118.52104 219.11328,114.91902 228.15755,104.9559 C232.6404,100.01762 235.44211,93.77022 236.28562,87.16365 C237.1166,80.65524 236.16886,73.14613 232.22791,67.71424 C228.31879,62.32622 221.80947,60.51813 215.52291,59.63515 C209.42312,58.7784 201.33105,58.40601 198.03283,64.86238 C197.40398,66.09337 197.10842,67.41988 197.1781,68.80049 C197.22658,69.76112 198.72688,69.76691 198.6781,68.80049 C198.52575,65.7818 200.53827,63.25942 203.11789,61.9027 C206.10755,60.33032 209.71359,60.46348 212.97403,60.81394 C218.86024,61.44664 225.5431,62.57532 229.78792,67.09613 C234.01635,71.59949 235.28387,78.46214 235.02139,84.43998 C234.74742,90.67953 232.59761,96.82081 228.83055,101.81098 C221.39689,111.65825 208.39086,116.34314 196.42579,113.16202 C184.76744,110.06244 184.61501,103.14367 184.80749,90.89124 C184.91017,84.3547 178.73568,74.06606 183.77686,69.80647 C188.71256,65.636 195.55349,63.78602 201.87016,65.29915 C202.8084,65.5239 203.20877,64.07787 202.26892,63.85273 L202.26892,63.85273 L202.26889,63.85272 Z" id="路径" fill="#7D7FE9"></path>
        </g>
    </g>
</svg>