<?xml version="1.0" encoding="UTF-8"?>
<svg width="176px" height="124px" viewBox="0 0 176 124" version="1.1" xmlns="http://www.w3.org/2000/svg" xmlns:xlink="http://www.w3.org/1999/xlink">
    <title>youtube</title>
    <g id="页面-1" stroke="none" stroke-width="1" fill="none" fill-rule="evenodd">
        <g id="youtube" transform="translate(0.5, 0.6719)" fill="#B9B9BA" fill-rule="nonzero">
            <path d="M171.347656,19.1601563 C169.335938,11.6210938 163.398438,5.68359375 155.878906,3.671875 C142.226563,0 87.5,0 87.5,0 C87.5,0 32.7734375,0 19.1210937,3.65234375 C11.5820312,5.6640625 5.6640625,11.6015625 3.65234375,19.140625 C0,32.8125 0,61.328125 0,61.328125 C0,61.328125 0,89.84375 3.65234375,103.496094 C5.6640625,111.035156 11.6015625,116.972656 19.1210938,118.984375 C32.7734375,122.65625 87.5,122.65625 87.5,122.65625 C87.5,122.65625 142.226563,122.65625 155.878906,118.984375 C163.417969,116.972656 169.335938,111.035156 171.347656,103.496094 C175,89.84375 175,61.328125 175,61.328125 C175,61.328125 175,32.8125 171.347656,19.1601563 Z M70.1171875,87.5 L70.1171875,35.15625 L115.429688,61.1328125 L70.1171875,87.5 Z" id="形状"></path>
        </g>
    </g>
</svg>