<svg width="22" height="22" viewBox="0 0 22 22" fill="none" xmlns="http://www.w3.org/2000/svg">
<path d="M11 0.52L11.08 0.44C12.9467 0.44 14.68 0.92 16.28 1.88C17.9333 2.84 19.2133 4.12 20.12 5.72C21.08 7.32 21.56 9.08 21.56 11C21.56 12.8667 21.08 14.6 20.12 16.2C19.2133 17.8 17.9333 19.08 16.28 20.04C14.68 21 12.9467 21.48 11.08 21.48H10.2C9.4 21.4267 8.81333 21.1333 8.44 20.6C8.06667 20.0133 7.90667 19.3467 7.96 18.6C8.06667 17.8533 8.38667 17.2133 8.92 16.68C9.45333 16.0933 9.69333 15.4533 9.64 14.76C9.64 14.0133 9.37333 13.3733 8.84 12.84C8.30667 12.3067 7.66667 12.04 6.92 12.04C6.17333 11.9867 5.53333 12.2267 5 12.76C4.46667 13.24 3.85333 13.5333 3.16 13.64C2.46667 13.7467 1.85333 13.64 1.32 13.32C0.84 12.9467 0.573333 12.3867 0.52 11.64V11C0.52 9.61333 0.786667 8.28 1.32 7C1.85333 5.72 2.6 4.6 3.56 3.64C4.57333 2.62667 5.72 1.85333 7 1.32C8.28 0.786666 9.61333 0.52 11 0.52ZM11 20.04H11.08C12.68 20.04 14.1733 19.64 15.56 18.84C16.9467 18.04 18.04 16.9467 18.84 15.56C19.64 14.1733 20.04 12.68 20.04 11.08C20.04 9.42667 19.64 7.93333 18.84 6.6C18.04 5.21333 16.9467 4.12 15.56 3.32C14.1733 2.46667 12.6533 2.04 11 2.04C9.4 2.04 7.90667 2.46667 6.52 3.32C5.18667 4.12 4.09333 5.21333 3.24 6.6C2.44 7.93333 2.04 9.42667 2.04 11.08V11.64C2.04 11.8 2.09333 11.9333 2.2 12.04C2.30667 12.1467 2.41333 12.2 2.52 12.2C3.05333 12.3067 3.50667 12.1467 3.88 11.72C4.73333 10.8667 5.74667 10.44 6.92 10.44C8.09333 10.44 9.08 10.8667 9.88 11.72C10.7333 12.5733 11.16 13.5867 11.16 14.76C11.16 15.88 10.76 16.8667 9.96 17.72C9.53333 18.1467 9.37333 18.68 9.48 19.32C9.48 19.5333 9.53333 19.6933 9.64 19.8C9.8 19.9067 9.98667 19.9867 10.2 20.04H11ZM12.52 5C12.52 4.57333 12.36 4.22667 12.04 3.96C11.7733 3.64 11.4267 3.48 11 3.48C10.5733 3.48 10.2 3.64 9.88 3.96C9.61333 4.22667 9.48 4.57333 9.48 5C9.48 5.42667 9.61333 5.8 9.88 6.12C10.2 6.38667 10.5733 6.52 11 6.52C11.4267 6.52 11.7733 6.38667 12.04 6.12C12.36 5.8 12.52 5.42667 12.52 5ZM17 15.48C17 15.1067 16.84 14.7867 16.52 14.52C16.2533 14.2 15.9067 14.04 15.48 14.04C15.0533 14.04 14.7067 14.2 14.44 14.52C14.1733 14.7867 14.0133 15.1333 13.96 15.56C13.96 15.9333 14.0933 16.28 14.36 16.6C14.68 16.8667 15.0533 17 15.48 17C15.9067 17 16.2533 16.8667 16.52 16.6C16.84 16.28 17 15.9067 17 15.48ZM6.52 8.04C6.09333 8.04 5.72 7.90667 5.4 7.64C5.13333 7.32 5 6.94667 5 6.52C5 6.09333 5.13333 5.74667 5.4 5.48C5.72 5.16 6.09333 5 6.52 5C6.94667 5 7.29333 5.16 7.56 5.48C7.82667 5.74667 7.96 6.09333 7.96 6.52C8.01333 6.94667 7.88 7.32 7.56 7.64C7.29333 7.90667 6.94667 8.04 6.52 8.04ZM17 6.52C17 6.09333 16.84 5.74667 16.52 5.48C16.2533 5.16 15.9067 5 15.48 5C15.0533 5 14.7067 5.16 14.44 5.48C14.1733 5.74667 14.0133 6.09333 13.96 6.52C13.96 6.94667 14.0933 7.32 14.36 7.64C14.68 7.90667 15.0533 8.04 15.48 8.04C15.9067 8.04 16.2533 7.90667 16.52 7.64C16.84 7.32 17 6.94667 17 6.52ZM18.52 11C18.52 10.5733 18.36 10.2267 18.04 9.96C17.7733 9.64 17.4267 9.48 17 9.48C16.5733 9.48 16.2 9.64 15.88 9.96C15.6133 10.2267 15.48 10.5733 15.48 11C15.48 11.4267 15.6133 11.8 15.88 12.12C16.2 12.3867 16.5733 12.52 17 12.52C17.4267 12.52 17.7733 12.3867 18.04 12.12C18.36 11.8 18.52 11.4267 18.52 11Z" fill="#838B95"/>
</svg>
