<svg width="22" height="22" viewBox="0 0 22 22" fill="none" xmlns="http://www.w3.org/2000/svg">
<path d="M5.16 2.28C6.70667 1.21333 8.41333 0.626667 10.28 0.52C12.2 0.359999 13.9867 0.706666 15.64 1.56C17.3467 2.36 18.7333 3.56 19.8 5.16C20.8667 6.70667 21.4533 8.41333 21.56 10.28C21.6667 12.1467 21.2933 13.9333 20.44 15.64C19.5867 17.3467 18.36 18.7333 16.76 19.8C15.2133 20.8133 13.5067 21.3733 11.64 21.48C9.82667 21.5867 8.06667 21.24 6.36 20.44C4.70667 19.64 3.34667 18.44 2.28 16.84C1.21333 15.24 0.626667 13.5333 0.52 11.72C0.413333 9.85333 0.76 8.09333 1.56 6.44C2.36 4.73333 3.56 3.34667 5.16 2.28ZM6.04 18.52C7.37333 19.3733 8.84 19.88 10.44 20.04C12.04 20.1467 13.56 19.8533 15 19.16C16.44 18.4133 17.6133 17.3733 18.52 16.04C19.4267 14.7067 19.9333 13.24 20.04 11.64C20.1467 9.98667 19.8267 8.44 19.08 7C18.3867 5.56 17.3467 4.41333 15.96 3.56C14.6267 2.65333 13.16 2.14667 11.56 2.04C10.0133 1.93333 8.52 2.25333 7.08 3C5.64 3.69333 4.46667 4.70667 3.56 6.04C2.65333 7.37333 2.14667 8.84 2.04 10.44C1.93333 12.04 2.22667 13.56 2.92 15C3.61333 16.3867 4.65333 17.56 6.04 18.52ZM8.76 9.48C8.76 9.90667 8.6 10.28 8.28 10.6C8.01333 10.8667 7.66667 11 7.24 11C6.81333 11 6.44 10.8667 6.12 10.6C5.85333 10.28 5.72 9.90667 5.72 9.48C5.72 9.05333 5.85333 8.70667 6.12 8.44C6.44 8.12 6.81333 7.96 7.24 7.96C7.66667 7.96 8.01333 8.12 8.28 8.44C8.6 8.70667 8.76 9.05333 8.76 9.48ZM16.28 9.48C16.28 9.90667 16.12 10.28 15.8 10.6C15.5333 10.8667 15.1867 11 14.76 11C14.3333 11 13.96 10.8667 13.64 10.6C13.3733 10.28 13.24 9.90667 13.24 9.48C13.24 9.05333 13.3733 8.70667 13.64 8.44C13.96 8.12 14.3333 7.96 14.76 7.96C15.1867 7.96 15.5333 8.12 15.8 8.44C16.12 8.70667 16.28 9.05333 16.28 9.48ZM11 15.48C10.1467 15.48 9.37333 15.2667 8.68 14.84C7.98667 14.4133 7.42667 13.8533 7 13.16L5.72 13.88C6.25333 14.84 7 15.6133 7.96 16.2C8.97333 16.7333 10.04 17 11.16 17C12.28 16.9467 13.2933 16.6267 14.2 16.04C15.16 15.4533 15.88 14.6533 16.36 13.64L15.08 13C14.7067 13.7467 14.1467 14.36 13.4 14.84C12.6533 15.2667 11.8533 15.48 11 15.48Z" fill="#838B95"/>
</svg>
