<svg width="100" height="100" viewBox="0 0 100 100" fill="none" xmlns="http://www.w3.org/2000/svg">
<path d="M71.5654 62.0342C73.4795 62.0342 75.032 63.582 75.0322 65.4912C75.0322 67.4006 73.4796 68.9492 71.5654 68.9492C69.6514 68.949 68.0996 67.4004 68.0996 65.4912C68.0998 63.5822 69.6516 62.0344 71.5654 62.0342Z" fill="#F6F8FA"/>
<path d="M28.4346 31.3037C30.3485 31.3039 31.9002 32.8517 31.9004 34.7607C31.9004 36.6699 30.3486 38.2175 28.4346 38.2178C26.5204 38.2178 24.9678 36.6701 24.9678 34.7607C24.9679 32.8515 26.5205 31.3037 28.4346 31.3037Z" fill="#F6F8FA"/>
<path fill-rule="evenodd" clip-rule="evenodd" d="M50 0C77.6142 4.12327e-06 100 22.3858 100 50C100 77.6142 77.6142 100 50 100C22.3858 100 4.1238e-06 77.6142 0 50C0 22.3858 22.3858 0 50 0ZM28.4346 25.9258C23.5429 25.9258 19.5773 29.8814 19.5771 34.7607C19.5771 39.6402 23.5428 43.5957 28.4346 43.5957C32.3862 43.5955 35.7335 41.0146 36.874 37.4502H40.7578C44.3733 37.4504 47.3047 40.374 47.3047 43.9805V56.2725C47.3047 62.849 52.649 68.1805 59.2422 68.1807H63.126C64.2664 71.7451 67.6138 74.327 71.5654 74.3271C76.4572 74.3271 80.4229 70.3707 80.4229 65.4912C80.4226 60.6119 76.4571 56.6562 71.5654 56.6562C67.6138 56.6564 64.2664 59.2382 63.126 62.8027H59.2422C55.6267 62.8026 52.6953 59.8789 52.6953 56.2725V43.9805C52.6953 37.4039 47.351 32.0724 40.7578 32.0723H36.874C35.7336 28.5078 32.3862 25.926 28.4346 25.9258Z" fill="#F6F8FA"/>
</svg>
