<svg width="24" height="24" viewBox="0 0 24 24" fill="none" xmlns="http://www.w3.org/2000/svg">
<rect x="1.75" y="1.75" width="20.5" height="20.5" rx="10.25" stroke="#7D7FE9" stroke-width="1.5"/>
<path fill-rule="evenodd" clip-rule="evenodd" d="M6 8.76701C6 7.79112 6.79312 7 7.77148 7C8.56185 7 9.23133 7.5163 9.45943 8.22922H10.2362C11.5548 8.22922 12.6238 9.29551 12.6238 10.6108V13.0693C12.6238 13.7906 13.21 14.3753 13.9332 14.3753H14.7099C14.938 13.6624 15.6075 13.1461 16.3978 13.1461C17.3762 13.1461 18.1693 13.9372 18.1693 14.9131C18.1693 15.889 17.3762 16.6801 16.3978 16.6801C15.6075 16.6801 14.938 16.1638 14.7099 15.4509H13.9332C12.6145 15.4509 11.5455 14.3846 11.5455 13.0693V10.6108C11.5455 9.88953 10.9593 9.30479 10.2362 9.30479H9.45943C9.23133 10.0177 8.56185 10.534 7.77148 10.534C6.79312 10.534 6 9.7429 6 8.76701ZM7.77148 8.07557C7.38864 8.07557 7.07829 8.38514 7.07829 8.76701C7.07829 9.14888 7.38864 9.45845 7.77148 9.45845C8.15432 9.45845 8.46467 9.14888 8.46467 8.76701C8.46467 8.38514 8.15432 8.07557 7.77148 8.07557ZM15.7046 14.9131C15.7046 14.5313 16.015 14.2217 16.3978 14.2217C16.7807 14.2217 17.091 14.5313 17.091 14.9131C17.091 15.295 16.7807 15.6046 16.3978 15.6046C16.015 15.6046 15.7046 15.295 15.7046 14.9131Z" fill="#7D7FE9"/>
</svg>
