<svg width="123" height="50" viewBox="0 0 123 50" fill="none" xmlns="http://www.w3.org/2000/svg">
<path d="M12.4689 17.3805C12.4689 16.4258 13.2438 15.6519 14.1997 15.6519C15.1557 15.6519 15.9306 16.4258 15.9306 17.3805C15.9306 18.3352 15.1557 19.1091 14.1997 19.1091C13.2438 19.1091 12.4689 18.3352 12.4689 17.3805Z" fill="#0D1117"/>
<path d="M35.7393 31.0172C34.7834 31.0172 34.0085 31.7911 34.0085 32.7458C34.0085 33.7005 34.7834 34.4744 35.7393 34.4744C36.6953 34.4744 37.4702 33.7005 37.4702 32.7458C37.4702 31.7911 36.6953 31.0172 35.7393 31.0172Z" fill="#0D1117"/>
<path fill-rule="evenodd" clip-rule="evenodd" d="M24.9695 0C11.1792 0 0 11.1929 0 25C0 38.8071 11.1792 50 24.9695 50C38.7598 50 49.9391 38.8071 49.9391 25C49.9391 11.1929 38.7598 0 24.9695 0ZM14.1997 12.963C11.7568 12.963 9.77644 14.9408 9.77644 17.3805C9.77644 19.8203 11.7568 21.798 14.1997 21.798C16.1733 21.798 17.8449 20.5073 18.4145 18.725H20.3539C22.1596 18.725 23.6233 20.1868 23.6233 21.9901V28.1362C23.6233 31.4246 26.2925 34.0903 29.5852 34.0903H31.5246C32.0942 35.8726 33.7658 37.1633 35.7393 37.1633C38.1823 37.1633 40.1627 35.1855 40.1627 32.7458C40.1627 30.3061 38.1823 28.3283 35.7393 28.3283C33.7658 28.3283 32.0942 29.619 31.5246 31.4014H29.5852C27.7795 31.4014 26.3158 29.9395 26.3158 28.1362V21.9901C26.3158 18.7018 23.6466 16.0361 20.3539 16.0361H18.4145C17.8449 14.2538 16.1733 12.963 14.1997 12.963Z" fill="#0D1117"/>
<path fill-rule="evenodd" clip-rule="evenodd" d="M78.1647 36.94V38.14H75.0485V27.34H92.1876V38.14H88.9515V36.94H78.1647ZM88.9515 34.45V29.86H78.1647V34.45H88.9515Z" fill="#0D1117"/>
<path d="M67.3179 27.82L64.9208 27.37C65.62 23.95 66.1194 20.48 66.419 16.96L68.8161 17.2C68.5164 20.8 68.0171 24.34 67.3179 27.82Z" fill="#0D1117"/>
<path d="M75.468 22L73.1608 22.45C72.7812 20.31 72.5116 18.9 72.3518 18.22V38.5H69.1756V11.5H72.3518V16.51L74.2095 16.06C74.649 17.76 75.0685 19.74 75.468 22Z" fill="#0D1117"/>
<path fill-rule="evenodd" clip-rule="evenodd" d="M73.6702 22.9H78.9437L79.6329 19.96H75.6478V17.5H80.2022L80.7715 15.04H74.8088V12.4H92.7868V15.04H84.0076L83.4383 17.5H91.4385V22.9H93.5359V25.54H73.6702V22.9ZM82.8689 19.96L82.1798 22.9H88.2923V19.96H82.8689Z" fill="#0D1117"/>
<path d="M113.472 27.85L110.565 28.39C111.404 29.49 112.133 30.61 112.753 31.75L115.749 31.21C115.19 30.25 114.43 29.13 113.472 27.85Z" fill="#0D1117"/>
<path fill-rule="evenodd" clip-rule="evenodd" d="M98.4899 21.16H107.779V22.21H97.5311V24.25H107.779V25.39H96.1827V27.55H100.018C98.8794 28.83 97.551 30.08 96.0329 31.3L98.2801 32.41V34.15H107.868V35.41H96.1827V38.05H122.85V35.41H111.164V34.15H120.753V32.59L123 31.45C121.801 30.09 120.513 28.79 119.135 27.55H122.85V25.39H111.254V24.25H121.502V22.21H111.254V21.16H120.543V11.95H98.4899V21.16ZM107.779 14.41V15.91H101.726V14.41H107.779ZM117.307 15.91H111.254V14.41H117.307V15.91ZM117.307 19.21H111.254V17.71H117.307V19.21ZM107.779 19.21H101.726V17.71H107.779V19.21ZM104.123 28.3C104.662 29.52 105.062 30.67 105.322 31.75L107.868 31.45V32.05H99.4487C100.747 30.93 101.886 29.78 102.865 28.6L100.497 27.55H118.476L116.408 28.69C117.846 29.97 118.995 31.09 119.854 32.05H111.164V29.65H107.868C107.629 28.99 107.379 28.39 107.119 27.85L104.123 28.3Z" fill="#0D1117"/>
</svg>
