<svg width="18" height="12" viewBox="0 0 18 12" fill="none" xmlns="http://www.w3.org/2000/svg">
<path d="M10.28 11.52H8.76L7.56 8.32H2.68L1.48 11.52H0.04L4.44 0H5.8L10.28 11.52ZM7.08 7.12L5.32 2.16C5.26667 2 5.21333 1.76 5.16 1.44H5.08C5.02667 1.76 4.97333 2 4.92 2.16L3.08 7.12H7.08ZM17.64 11.52H16.28V10.24C15.6933 11.2533 14.84 11.76 13.72 11.76C12.92 11.76 12.28 11.5467 11.8 11.12C11.32 10.6933 11.08 10.1067 11.08 9.36C11.08 7.81333 11.9867 6.90667 13.8 6.64L16.28 6.32C16.28 4.93333 15.72 4.24 14.6 4.24C13.64 4.24 12.76 4.56 11.96 5.2V3.92C12.76 3.38667 13.6933 3.12 14.76 3.12C16.68 3.12 17.64 4.13333 17.64 6.16V11.52ZM16.28 7.36L14.36 7.68C13.72 7.73333 13.24 7.86667 12.92 8.08C12.6 8.29333 12.44 8.69333 12.44 9.28C12.44 9.65333 12.5733 9.97333 12.84 10.24C13.16 10.5067 13.56 10.64 14.04 10.64C14.68 10.64 15.2133 10.4267 15.64 10C16.0667 9.52 16.28 8.93333 16.28 8.24V7.36Z" fill="#838B95"/>
</svg>
