<svg width="196" height="95" viewBox="0 0 196 95" fill="none" xmlns="http://www.w3.org/2000/svg">
<path d="M46.877 75.2002C46.8769 78.7334 46.1773 81.7336 44.7773 84.2002C43.444 86.6669 41.5767 88.6329 39.1768 90.0996C36.8435 91.6329 34.1438 92.7337 31.0771 93.4004C28.0771 94.0671 24.8766 94.4004 21.4766 94.4004C18.6767 94.4004 15.9768 94.1 13.377 93.5C10.7103 92.9 8.31009 92.1665 6.17676 91.2998C3.97686 90.4332 2.04356 89.5329 0.376953 88.5996L11.0771 75.2002C12.1438 76.0001 13.4104 76.6999 14.877 77.2998C16.3436 77.9664 17.7768 78.2998 19.1768 78.2998C20.7101 78.2998 22.1432 77.7329 23.4766 76.5996C24.8766 75.4663 25.5771 73.4663 25.5771 70.5996V0H46.877V75.2002Z" fill="#F0F6FC"/>
<path d="M137.473 23C140.206 23 142.74 23.3004 145.073 23.9004C147.473 24.4337 149.74 25.1663 151.873 26.0996C154.006 26.9663 156.106 28.0002 158.173 29.2002L153.073 40.7002C150.94 38.8336 148.54 37.3335 145.873 36.2002C143.273 35.0002 140.973 34.4004 138.973 34.4004C137.706 34.4004 136.773 34.6331 136.173 35.0996C135.64 35.5662 135.373 36.1332 135.373 36.7998C135.373 37.7331 135.773 38.4996 136.573 39.0996C137.373 39.6329 138.573 40.1669 140.173 40.7002C141.773 41.2335 143.806 41.9671 146.272 42.9004C148.606 43.7671 150.74 44.7671 152.673 45.9004C154.673 46.967 156.273 48.3665 157.473 50.0996C158.739 51.8329 159.373 54.1333 159.373 57C159.373 62.2 157.806 66.0333 154.673 68.5C151.606 70.9666 147.24 72.2001 141.573 72.2002C138.173 72.2002 134.973 71.8669 131.973 71.2002C129.039 70.5335 126.273 69.6003 123.673 68.4004C121.073 67.2004 118.573 65.8331 116.173 64.2998L122.473 52.5C125.272 54.6332 127.706 56.2331 129.772 57.2998C131.839 58.3665 133.607 59.0671 135.073 59.4004C136.54 59.7336 137.673 59.9004 138.473 59.9004C139.739 59.9004 140.672 59.6329 141.272 59.0996C141.872 58.5663 142.173 57.8335 142.173 56.9004C142.173 56.1005 141.906 55.4337 141.373 54.9004C140.906 54.3004 139.973 53.6996 138.573 53.0996C137.24 52.4996 135.24 51.767 132.573 50.9004C130.373 50.1671 128.272 49.2669 126.272 48.2002C124.273 47.0669 122.64 45.5667 121.373 43.7002C120.173 41.7669 119.573 39.2998 119.573 36.2998C119.573 33.4332 120.34 31.0329 121.873 29.0996C123.406 27.0998 125.506 25.5996 128.173 24.5996C130.839 23.533 133.939 23 137.473 23Z" fill="#F0F6FC"/>
<path fill-rule="evenodd" clip-rule="evenodd" d="M84.2188 22.9004C89.4187 22.9004 94.0525 23.9004 98.1191 25.9004C102.186 27.8337 105.386 30.6003 107.719 34.2002C110.119 37.8002 111.318 42.0668 111.318 47C111.318 51.8666 110.119 56.1002 107.719 59.7002C105.386 63.3 102.186 66.0997 98.1191 68.0996C94.0525 70.0329 89.4187 71 84.2188 71C79.0854 71 74.4517 70.0329 70.3184 68.0996C66.252 66.0997 63.052 63.3 60.7188 59.7002C58.3854 56.1002 57.2188 51.8666 57.2188 47C57.2188 42.0668 58.3855 37.8002 60.7188 34.2002C63.052 30.6003 66.2519 27.8337 70.3184 25.9004C74.4517 23.9004 79.0854 22.9004 84.2188 22.9004ZM84.2188 36.9004C82.5523 36.9004 81.019 37.2998 79.6191 38.0996C78.2192 38.8996 77.0854 40.0664 76.2188 41.5996C75.4187 43.0663 75.0186 44.8667 75.0186 47C75.0186 49.1333 75.4188 50.9667 76.2188 52.5C77.0854 53.9666 78.2192 55.1004 79.6191 55.9004C81.019 56.6335 82.5523 57 84.2188 57C85.8852 57 87.4185 56.6335 88.8184 55.9004C90.2183 55.1004 91.3521 53.9666 92.2188 52.5C93.0854 50.9667 93.5185 49.1333 93.5186 47C93.5186 44.8667 93.0854 43.0663 92.2188 41.5996C91.3521 40.0664 90.2183 38.8996 88.8184 38.0996C87.4185 37.2998 85.8852 36.9004 84.2188 36.9004Z" fill="#F0F6FC"/>
<path d="M186.841 24H195.141V38H186.841V70H170.341V38H162.041V24H170.341V8H186.841V24Z" fill="#F0F6FC"/>
</svg>
