<svg width="24" height="25" viewBox="0 0 24 25" fill="none" xmlns="http://www.w3.org/2000/svg">
<path d="M20.317 4.71759C18.7873 4.0157 17.147 3.49859 15.4319 3.20241C15.4007 3.1967 15.3695 3.21098 15.3534 3.23955C15.1424 3.61477 14.9087 4.10427 14.7451 4.48901C12.9004 4.21284 11.0652 4.21284 9.25832 4.48901C9.09465 4.09571 8.85248 3.61477 8.64057 3.23955C8.62448 3.21194 8.59328 3.19765 8.56205 3.20241C6.84791 3.49764 5.20756 4.01476 3.67694 4.71759C3.66368 4.7233 3.65233 4.73283 3.64479 4.7452C0.533392 9.39356 -0.31895 13.9277 0.0991801 18.4056C0.101072 18.4275 0.11337 18.4484 0.130398 18.4617C2.18321 19.9693 4.17171 20.8845 6.12328 21.4911C6.15451 21.5007 6.18761 21.4892 6.20748 21.4635C6.66913 20.8331 7.08064 20.1683 7.43348 19.4693C7.4543 19.4284 7.43442 19.3798 7.39186 19.3636C6.73913 19.116 6.1176 18.8141 5.51973 18.4713C5.47244 18.4437 5.46865 18.376 5.51216 18.3436C5.63797 18.2494 5.76382 18.1513 5.88395 18.0522C5.90569 18.0341 5.93598 18.0303 5.96153 18.0417C9.88928 19.835 14.1415 19.835 18.023 18.0417C18.0485 18.0294 18.0788 18.0332 18.1015 18.0513C18.2216 18.1503 18.3475 18.2494 18.4742 18.3436C18.5177 18.376 18.5149 18.4437 18.4676 18.4713C17.8697 18.8208 17.2482 19.116 16.5945 19.3627C16.552 19.3788 16.533 19.4284 16.5538 19.4693C16.9143 20.1674 17.3258 20.8321 17.7789 21.4626C17.7978 21.4892 17.8319 21.5007 17.8631 21.4911C19.8241 20.8845 21.8126 19.9693 23.8654 18.4617C23.8834 18.4484 23.8948 18.4284 23.8967 18.4065C24.3971 13.2296 23.0585 8.73265 20.3482 4.74615C20.3416 4.73283 20.3303 4.7233 20.317 4.71759ZM8.02002 15.679C6.8375 15.679 5.86313 14.5933 5.86313 13.2601C5.86313 11.9268 6.8186 10.8411 8.02002 10.8411C9.23087 10.8411 10.1958 11.9363 10.1769 13.2601C10.1769 14.5933 9.22141 15.679 8.02002 15.679ZM15.9947 15.679C14.8123 15.679 13.8379 14.5933 13.8379 13.2601C13.8379 11.9268 14.7933 10.8411 15.9947 10.8411C17.2056 10.8411 18.1705 11.9363 18.1516 13.2601C18.1516 14.5933 17.2056 15.679 15.9947 15.679Z" fill="#838B95"/>
</svg>
