<svg width="24" height="25" viewBox="0 0 24 25" fill="none" xmlns="http://www.w3.org/2000/svg">
<g clip-path="url(#clip0_4327_1584)">
<path fill-rule="evenodd" clip-rule="evenodd" d="M12.0099 0.562012C5.36875 0.562012 0 5.97034 0 12.6612C0 18.0095 3.43994 22.5368 8.21205 24.1391C8.80869 24.2596 9.02724 23.8788 9.02724 23.5585C9.02724 23.278 9.00757 22.3165 9.00757 21.3147C5.6667 22.036 4.97099 19.8724 4.97099 19.8724C4.43409 18.4702 3.63858 18.1098 3.63858 18.1098C2.54511 17.3686 3.71823 17.3686 3.71823 17.3686C4.93117 17.4488 5.56763 18.6106 5.56763 18.6106C6.64118 20.4533 8.37111 19.9327 9.06706 19.6121C9.16638 18.8308 9.48473 18.29 9.82275 17.9896C7.15817 17.7091 4.35469 16.6675 4.35469 12.02C4.35469 10.698 4.8316 9.61629 5.58729 8.77505C5.46807 8.47464 5.0504 7.23245 5.70677 5.56988C5.70677 5.56988 6.72083 5.24931 9.00732 6.81183C9.98625 6.54698 10.9958 6.41225 12.0099 6.41112C13.024 6.41112 14.0577 6.55149 15.0123 6.81183C17.299 5.24931 18.3131 5.56988 18.3131 5.56988C18.9695 7.23245 18.5515 8.47464 18.4323 8.77505C19.2079 9.61629 19.6652 10.698 19.6652 12.02C19.6652 16.6675 16.8617 17.689 14.1772 17.9896C14.6148 18.3702 14.9924 19.0912 14.9924 20.2331C14.9924 21.8556 14.9727 23.1578 14.9727 23.5582C14.9727 23.8788 15.1915 24.2596 15.7879 24.1394C20.56 22.5365 23.9999 18.0095 23.9999 12.6612C24.0196 5.97034 18.6312 0.562012 12.0099 0.562012Z" fill="#838B95"/>
</g>
<defs>
<clipPath id="clip0_4327_1584">
<rect width="24" height="24" fill="white" transform="translate(0 0.562012)"/>
</clipPath>
</defs>
</svg>
