<svg width="24" height="22" viewBox="0 0 24 22" fill="none" xmlns="http://www.w3.org/2000/svg">
<path d="M16.0121 16.9337C15.9778 16.9678 15.9513 17.0089 15.9346 17.0542C15.9179 17.0995 15.9112 17.148 15.9152 17.1961C15.9191 17.2443 15.9335 17.291 15.9574 17.333C15.9813 17.375 16.0141 17.4113 16.0535 17.4393C16.7725 18.1127 17.2354 19.0149 17.3629 19.9917C17.4291 20.2348 17.5605 20.4552 17.7427 20.6291C17.925 20.803 18.1513 20.9239 18.3972 20.9787C18.6431 21.0335 18.8993 21.0201 19.1382 20.94C19.377 20.8599 19.5895 20.7161 19.7527 20.5242C19.9158 20.3322 20.0235 20.0994 20.0641 19.8507C20.1046 19.6021 20.0766 19.3471 19.9829 19.1132C19.8892 18.8793 19.7334 18.6755 19.5324 18.5236C19.3314 18.3717 19.0927 18.2776 18.8422 18.2514C17.9323 18.0813 17.103 17.6186 16.4803 16.9337C16.4182 16.8717 16.334 16.8369 16.2462 16.8369C16.1584 16.8369 16.0742 16.8717 16.0121 16.9337Z" fill="#FB6500"/>
<path d="M21.6309 14.7417C21.4066 14.9655 21.2662 15.2595 21.2331 15.5746C21.065 16.4854 20.6037 17.3162 19.9196 17.9406C19.8859 17.9728 19.8594 18.0118 19.8419 18.055C19.8243 18.0982 19.816 18.1446 19.8176 18.1912C19.8191 18.2378 19.8305 18.2835 19.851 18.3254C19.8714 18.3673 19.9005 18.4044 19.9362 18.4343C19.972 18.4642 20.0137 18.4862 20.0585 18.4989C20.1034 18.5116 20.1504 18.5147 20.1966 18.508C20.2427 18.5013 20.2869 18.485 20.3263 18.46C20.3657 18.4351 20.3993 18.4021 20.4251 18.3632C21.0983 17.6439 22.0006 17.1811 22.9776 17.0538C23.1825 16.9984 23.3719 16.8965 23.5311 16.7562C23.6904 16.6158 23.8152 16.4407 23.896 16.2444C23.9767 16.0481 24.0112 15.8358 23.9968 15.624C23.9824 15.4122 23.9195 15.2066 23.8129 15.023C23.7063 14.8394 23.5589 14.6828 23.3821 14.5653C23.2053 14.4478 23.0038 14.3726 22.7933 14.3454C22.5828 14.3182 22.3688 14.3398 22.168 14.4085C21.9671 14.4772 21.7848 14.5913 21.635 14.7417H21.6309Z" fill="#0082EF"/>
<path d="M17.7323 10.8383C17.5479 11.0231 17.4196 11.2563 17.3621 11.511C17.3046 11.7656 17.3203 12.0313 17.4074 12.2774C17.4945 12.5235 17.6494 12.74 17.8543 12.9018C18.0591 13.0636 18.3056 13.1642 18.5652 13.1919C19.476 13.36 20.3068 13.8213 20.9312 14.5054C20.9634 14.5391 21.0024 14.5656 21.0456 14.5831C21.0887 14.6007 21.1351 14.609 21.1817 14.6074C21.2283 14.6059 21.2741 14.5945 21.316 14.574C21.3579 14.5536 21.395 14.5245 21.4249 14.4888C21.4548 14.453 21.4768 14.4113 21.4895 14.3665C21.5022 14.3216 21.5053 14.2746 21.4986 14.2284C21.4919 14.1823 21.4755 14.1381 21.4506 14.0987C21.4256 14.0593 21.3927 14.0257 21.3538 13.9999C20.6348 13.3265 20.172 12.4243 20.0445 11.4474C19.9798 11.2143 19.8553 11.0022 19.6831 10.8322C19.511 10.6623 19.2973 10.5404 19.0633 10.4788C18.8294 10.4171 18.5834 10.4179 18.3499 10.481C18.1163 10.5441 17.9034 10.6673 17.7323 10.8383Z" fill="#2DBC00"/>
<path d="M17.052 13.001L17.0272 13.0259C16.3516 13.77 15.4339 14.2502 14.4374 14.3809C14.2024 14.4428 13.9879 14.5658 13.8159 14.7376C13.6439 14.9093 13.5204 15.1235 13.4581 15.3585C13.3958 15.5934 13.3968 15.8407 13.4611 16.0751C13.5254 16.3095 13.6507 16.5227 13.8242 16.693C14.009 16.8773 14.2422 17.0057 14.4968 17.0632C14.7515 17.1207 15.0172 17.105 15.2633 17.0179C15.5094 16.9308 15.7258 16.7759 15.8876 16.571C16.0494 16.3661 16.15 16.1197 16.1777 15.8601C16.3473 14.9489 16.81 14.1181 17.4954 13.4941C17.5608 13.4353 17.6002 13.353 17.6048 13.2652C17.6095 13.1773 17.5791 13.0913 17.5203 13.0259C17.4615 12.9605 17.3791 12.9211 17.2913 12.9165C17.2035 12.9118 17.1174 12.9422 17.052 13.001Z" fill="#FFCC00"/>
<path d="M8.69045 1.05523C6.20841 1.32869 3.95844 2.38946 2.34244 4.0469C1.70018 4.7016 1.17808 5.43915 0.792736 6.22644C0.191738 7.43618 -0.0755723 8.78437 0.0183899 10.1319C0.112352 11.4794 0.564183 12.7775 1.32726 13.8921C1.76648 14.5551 2.48747 15.3838 3.14629 15.9722L2.84797 18.3175L2.81481 18.4169C2.80651 18.4459 2.80651 18.4791 2.80238 18.5081L2.79409 18.5827L2.80238 18.6573C2.81335 18.7843 2.85637 18.9066 2.92742 19.0125C2.99847 19.1185 3.09524 19.2046 3.20866 19.263C3.32209 19.3214 3.44846 19.35 3.57597 19.3463C3.70347 19.3425 3.82794 19.3065 3.93773 19.2415H3.95015L3.99573 19.2083L4.70844 18.852L6.8341 17.7829C7.84421 18.0733 8.89081 18.2171 9.9418 18.2098C11.2414 18.2127 12.5316 17.9883 13.7539 17.5468C13.4562 17.4485 13.2007 17.2517 13.0298 16.9888C12.8588 16.726 12.7825 16.4127 12.8133 16.1006C11.5491 16.5071 10.2129 16.6398 8.8935 16.4902L8.68217 16.4611C8.20579 16.3989 7.73482 16.3006 7.27335 16.167C7.14887 16.1283 7.01783 16.1153 6.88819 16.1288C6.75854 16.1424 6.633 16.1821 6.5192 16.2457L6.4612 16.2747L4.71261 17.3023L4.63801 17.3479C4.59658 17.3727 4.57586 17.381 4.55514 17.381C4.524 17.3789 4.49491 17.3647 4.47403 17.3415C4.45315 17.3183 4.44211 17.2879 4.44325 17.2567L4.50956 16.9874L4.5883 16.6932L4.71261 16.2084L4.85763 15.6697C4.90476 15.523 4.9045 15.3652 4.8569 15.2187C4.8093 15.0722 4.71676 14.9444 4.59243 14.8534C3.90521 14.3433 3.30852 13.7214 2.82727 13.0137C2.22402 12.1362 1.86601 11.1137 1.79025 10.0516C1.71449 8.98949 1.92372 7.92644 2.39632 6.97229C2.71124 6.34245 3.1256 5.75822 3.6394 5.23197C4.96535 3.86458 6.82997 2.99443 8.8935 2.77068C9.6068 2.69199 10.3266 2.69199 11.0399 2.77068C13.091 3.00685 14.9473 3.88945 16.265 5.24854C16.7746 5.77479 17.189 6.36732 17.4956 6.99715C17.9058 7.83417 18.113 8.7209 18.113 9.62834C18.113 9.72364 18.1047 9.81893 18.1006 9.9101C18.3648 9.74735 18.6763 9.67845 18.9845 9.71454C19.2928 9.75063 19.5799 9.88959 19.7994 10.109L19.8616 10.1836C19.968 8.83022 19.7074 7.47321 19.1075 6.25545C18.7148 5.45252 18.1973 4.71689 17.5743 4.07591C15.8783 2.37092 13.6438 1.30638 11.2512 1.0635C10.4005 0.966699 9.54174 0.963937 8.69045 1.05523Z" fill="#0082EF"/>
</svg>
