<svg width="24" height="25" viewBox="0 0 24 25" fill="none" xmlns="http://www.w3.org/2000/svg">
<path d="M22.6549 18.3876C22.2066 18.477 21.7791 18.65 21.3949 18.8976C21.0183 19.2928 20.5428 19.5801 20.0178 19.7296C20.0878 19.2596 20.3208 18.8306 20.6729 18.5136C20.9676 18.0636 21.18 17.5648 21.2999 17.0405C21.2993 16.7736 21.3779 16.5125 21.5256 16.2902C21.6734 16.0679 21.8837 15.8944 22.1301 15.7916C22.3764 15.6888 22.6477 15.6613 22.9097 15.7127C23.1716 15.764 23.4124 15.8919 23.6018 16.0801C23.7911 16.2683 23.9203 16.5084 23.9732 16.77C24.0261 17.0316 24.0003 17.3031 23.8989 17.55C23.7976 17.797 23.6254 18.0083 23.4039 18.1574C23.1825 18.3065 22.9219 18.3866 22.6549 18.3876ZM20.1849 15.1544C19.7371 14.8576 19.2399 14.6429 18.7168 14.5204C18.4498 14.5204 18.1888 14.4412 17.9667 14.2929C17.7447 14.1445 17.5717 13.9337 17.4695 13.687C17.3673 13.4403 17.3406 13.1688 17.3927 12.907C17.4448 12.6451 17.5734 12.4045 17.7622 12.2157C17.951 12.0269 18.1915 11.8983 18.4534 11.8462C18.7153 11.7941 18.9867 11.8209 19.2334 11.9231C19.4801 12.0252 19.691 12.1983 19.8393 12.4203C19.9877 12.6423 20.0668 12.9033 20.0668 13.1703C20.1548 13.6194 20.3258 14.048 20.5709 14.4344C20.9636 14.814 21.248 15.2914 21.3949 15.8175C20.9282 15.743 20.5018 15.5086 20.1889 15.1544H20.1839L20.1849 15.1544ZM17.9608 10.3962C17.5537 6.98709 14.0236 4.31597 9.75244 4.31597C5.20223 4.31597 1.50008 7.34411 1.50008 11.0683C1.53596 12.0981 1.8234 13.1036 2.33729 13.9968C2.85119 14.89 3.57592 15.6438 4.44821 16.1925C4.73554 16.4042 5.03618 16.5973 5.34825 16.7705L4.98225 18.2316C5.11424 18.2936 5.24224 18.3596 5.37724 18.4166L7.22533 17.4925C7.49533 17.5625 7.77936 17.6075 8.06135 17.6555C8.24136 17.6875 8.42137 17.7205 8.60639 17.7425C9.75888 17.8878 10.9282 17.8207 12.0565 17.5445C12.0915 18.0445 12.1827 18.539 12.3285 19.0186C11.4841 19.2166 10.6198 19.3175 9.75242 19.3196C8.97429 19.3152 8.19875 19.2297 7.43834 19.0646L4.08515 20.7387C3.95754 20.804 3.81372 20.8308 3.67116 20.8159C3.52861 20.8009 3.39345 20.745 3.2821 20.6547C3.17026 20.5651 3.08643 20.4453 3.04053 20.3096C2.99463 20.1738 2.98858 20.0277 3.02311 19.8887L3.62312 17.4726C2.54037 16.784 1.64358 15.8397 1.01176 14.7229C0.379935 13.6061 0.0324795 12.351 0 11.0683C0 6.51008 4.36617 2.81592 9.75242 2.81592C14.8666 2.81592 19.0548 6.15005 19.4628 10.3882C19.2279 10.3521 18.9912 10.3287 18.7538 10.3182C18.4888 10.3282 18.2238 10.3532 17.9607 10.3952L17.9608 10.3962ZM14.8456 15.7194C15.2947 15.6294 15.7217 15.4574 16.1057 15.2094C16.4828 14.8148 16.9586 14.5282 17.4837 14.3794C17.4122 14.8478 17.1803 15.2769 16.8277 15.5935C16.5327 16.0435 16.3207 16.5435 16.2007 17.0675C16.2011 17.3344 16.1224 17.5954 15.9745 17.8176C15.8266 18.0397 15.6162 18.2131 15.3698 18.3157C15.1235 18.4184 14.8522 18.4457 14.5903 18.3942C14.3285 18.3427 14.0877 18.2148 13.8985 18.0266C13.7093 17.8384 13.5801 17.5983 13.5273 17.3367C13.4745 17.0751 13.5004 16.8037 13.6017 16.5568C13.7031 16.3099 13.8754 16.0986 14.0967 15.9495C14.3181 15.8005 14.5787 15.7204 14.8456 15.7194ZM17.2777 18.9676C17.7238 19.2666 18.2198 19.4826 18.7418 19.6076C19.0088 19.6076 19.2698 19.6868 19.4919 19.8351C19.7139 19.9835 19.8869 20.1943 19.9891 20.441C20.0913 20.6877 20.118 20.9592 20.0659 21.221C20.0138 21.4829 19.8852 21.7235 19.6964 21.9123C19.5076 22.1011 19.2671 22.2297 19.0052 22.2818C18.7433 22.3339 18.4719 22.3071 18.2252 22.2049C17.9785 22.1028 17.7676 21.9297 17.6193 21.7077C17.4709 21.4857 17.3918 21.2247 17.3918 20.9577C17.3057 20.5081 17.1361 20.0787 16.8917 19.6916C16.5005 19.3103 16.2181 18.8314 16.0737 18.3046C16.5408 18.3814 16.9666 18.6187 17.2777 18.9756V18.9676Z" fill="#838B95"/>
</svg>
