<svg width="24" height="25" viewBox="0 0 24 25" fill="none" xmlns="http://www.w3.org/2000/svg">
<path d="M23.7609 7.76182C23.7609 7.76182 23.5266 6.10713 22.8047 5.38057C21.8906 4.42432 20.8688 4.41963 20.4 4.36338C17.0438 4.11963 12.0047 4.11963 12.0047 4.11963H11.9953C11.9953 4.11963 6.95625 4.11963 3.6 4.36338C3.13125 4.41963 2.10938 4.42432 1.19531 5.38057C0.473438 6.10713 0.24375 7.76182 0.24375 7.76182C0.24375 7.76182 0 9.70713 0 11.6478V13.4665C0 15.4071 0.239062 17.3524 0.239062 17.3524C0.239062 17.3524 0.473437 19.0071 1.19062 19.7337C2.10469 20.6899 3.30469 20.6571 3.83906 20.7603C5.76094 20.9431 12 20.9993 12 20.9993C12 20.9993 17.0438 20.9899 20.4 20.7509C20.8688 20.6946 21.8906 20.6899 22.8047 19.7337C23.5266 19.0071 23.7609 17.3524 23.7609 17.3524C23.7609 17.3524 24 15.4118 24 13.4665V11.6478C24 9.70713 23.7609 7.76182 23.7609 7.76182ZM9.52031 15.6743V8.929L16.0031 12.3134L9.52031 15.6743Z" fill="#838B95"/>
</svg>
