<svg width="400" height="300" viewBox="0 0 400 300" fill="none" xmlns="http://www.w3.org/2000/svg">
  <defs>
    <linearGradient id="green-gradient" x1="0%" y1="0%" x2="100%" y2="100%">
      <stop offset="0%" stop-color="#43e97b"/>
      <stop offset="100%" stop-color="#38f9d7"/>
    </linearGradient>
  </defs>

  <!-- 编辑器窗口 -->
  <rect x="60" y="50" width="280" height="200" rx="10" fill="url(#green-gradient)" opacity="0.2"/>

  <!-- 标题栏 -->
  <rect x="60" y="50" width="280" height="30" rx="10" fill="url(#green-gradient)" opacity="0.6"/>
  <circle cx="80" cy="65" r="5" fill="white" opacity="0.8"/>
  <circle cx="100" cy="65" r="5" fill="white" opacity="0.8"/>
  <circle cx="120" cy="65" r="5" fill="white" opacity="0.8"/>

  <!-- 代码行 -->
  <rect x="80" y="100" width="100" height="6" rx="3" fill="#43e97b" opacity="0.7"/>
  <rect x="100" y="120" width="120" height="6" rx="3" fill="#38f9d7" opacity="0.6"/>
  <rect x="100" y="140" width="80" height="6" rx="3" fill="#43e97b" opacity="0.6"/>
  <rect x="80" y="160" width="140" height="6" rx="3" fill="#38f9d7" opacity="0.7"/>
  <rect x="100" y="180" width="60" height="6" rx="3" fill="#43e97b" opacity="0.5"/>

  <!-- 光标 -->
  <rect x="165" y="118" width="2" height="10" fill="#43e97b"/>

  <!-- 装饰元素 -->
  <circle cx="320" cy="180" r="30" fill="#43e97b" opacity="0.2"/>
  <circle cx="290" cy="220" r="20" fill="#38f9d7" opacity="0.15"/>
</svg>
