<svg width="50" height="50" viewBox="0 0 50 50" fill="none" xmlns="http://www.w3.org/2000/svg">
<g clip-path="url(#clip0_3255_377)">
<path d="M49.4749 9.33748C48.9457 9.07915 48.7166 9.5729 48.4082 9.82498C48.302 9.90623 48.2124 10.0125 48.1228 10.1083C47.3478 10.9354 46.4436 11.4771 45.2624 11.4125C43.5353 11.3166 42.0603 11.8583 40.7561 13.1791C40.4791 11.55 39.5582 10.5791 38.1582 9.95415C37.4249 9.62915 36.6832 9.30623 36.1686 8.59998C35.8103 8.0979 35.7124 7.53748 35.5332 6.98748C35.4186 6.65415 35.3041 6.31456 34.9228 6.25831C34.5061 6.19373 34.3436 6.54165 34.1811 6.83331C33.5291 8.02498 33.277 9.33748 33.302 10.6666C33.3582 13.6583 34.6207 16.0416 37.1311 17.7354C37.4166 17.9291 37.4895 18.125 37.3999 18.4083C37.2291 18.9916 37.0249 19.5583 36.8457 20.1437C36.7312 20.5166 36.5603 20.5958 36.1603 20.4354C34.8088 19.8545 33.5811 19.0201 32.5436 17.9771C30.7582 16.2521 29.1457 14.3479 27.1332 12.8562C26.6669 12.5117 26.1881 12.1844 25.6978 11.875C23.6457 9.88123 25.9686 8.24373 26.5061 8.04998C27.0686 7.84581 26.6999 7.14998 24.8832 7.15831C23.0666 7.16665 21.4041 7.7729 19.2853 8.58331C18.9705 8.70396 18.6465 8.7994 18.3166 8.86873C16.3366 8.49568 14.3117 8.42403 12.3103 8.65623C8.38323 9.09373 5.24781 10.9521 2.94156 14.1208C0.170728 17.9291 -0.481355 22.2583 0.316562 26.7708C1.15615 31.5291 3.58531 35.4687 7.31656 38.5479C11.1874 41.7416 15.6436 43.3062 20.7291 43.0062C23.8166 42.8291 27.2561 42.4146 31.1332 39.1312C32.1124 39.6187 33.1374 39.8125 34.8416 39.9583C36.1541 40.0812 37.4166 39.8958 38.3937 39.6917C39.9249 39.3666 39.8186 37.9479 39.2666 37.6896C34.777 35.5979 35.7624 36.45 34.8645 35.7604C37.1478 33.0604 40.5853 30.2562 41.9312 21.1708C42.0353 20.4479 41.9457 19.9937 41.9312 19.4104C41.9228 19.0562 42.0041 18.9166 42.4103 18.8771C43.5375 18.7601 44.6309 18.424 45.6291 17.8875C48.5374 16.2979 49.7124 13.6896 49.9895 10.5604C50.0312 10.0812 49.9811 9.58956 49.4749 9.33748ZM24.127 37.5C19.7749 34.0791 17.6645 32.9521 16.7936 33C15.977 33.05 16.1249 33.9812 16.3041 34.5896C16.4916 35.1896 16.7353 35.6021 17.077 36.1291C17.3145 36.4771 17.477 36.9958 16.8416 37.3854C15.4395 38.2521 13.0041 37.0937 12.8895 37.0375C10.0541 35.3666 7.68115 33.1625 6.0124 30.1479C4.3999 27.2458 3.4624 24.1333 3.30823 20.8104C3.26656 20.0062 3.50198 19.7229 4.30198 19.5771C5.35221 19.3761 6.42829 19.3486 7.4874 19.4958C11.9291 20.1458 15.7082 22.1312 18.8791 25.275C20.6874 27.0666 22.0561 29.2062 23.4666 31.2979C24.9666 33.5187 26.5791 35.6354 28.6332 37.3687C29.3582 37.9771 29.9353 38.4396 30.4895 38.7791C28.8186 38.9666 26.0311 39.0083 24.127 37.5ZM26.2103 24.0833C26.21 23.9798 26.2348 23.8778 26.2827 23.7861C26.3306 23.6943 26.4001 23.6156 26.4852 23.5567C26.5703 23.4979 26.6685 23.4606 26.7712 23.4482C26.874 23.4358 26.9782 23.4485 27.0749 23.4854C27.1981 23.5296 27.3045 23.6112 27.3792 23.7187C27.4539 23.8263 27.4932 23.9545 27.4916 24.0854C27.4918 24.17 27.4753 24.2538 27.4429 24.3319C27.4104 24.4101 27.3628 24.481 27.3027 24.5405C27.2425 24.6 27.1712 24.647 27.0927 24.6787C27.0143 24.7103 26.9303 24.7261 26.8457 24.725C26.7618 24.7253 26.6786 24.7088 26.6011 24.6766C26.5236 24.6443 26.4533 24.5969 26.3943 24.5372C26.3353 24.4774 26.2888 24.4065 26.2576 24.3286C26.2264 24.2506 26.2089 24.1673 26.2103 24.0833ZM32.6895 27.4083C32.2728 27.5771 31.8582 27.7229 31.4603 27.7416C30.8617 27.7625 30.2743 27.5756 29.7978 27.2125C29.227 26.7333 28.8186 26.4666 28.6478 25.6333C28.5889 25.2261 28.6002 24.8118 28.6811 24.4083C28.827 23.7271 28.6645 23.2896 28.1832 22.8937C27.7936 22.5687 27.2957 22.4791 26.7499 22.4791C26.563 22.4683 26.3815 22.4126 26.2207 22.3166C25.9916 22.2041 25.8041 21.9208 25.9832 21.5708C26.0416 21.4583 26.3166 21.1833 26.3832 21.1333C27.1249 20.7125 27.9811 20.85 28.7707 21.1666C29.5041 21.4666 30.0582 22.0166 30.8561 22.7958C31.6707 23.7354 31.8186 23.9958 32.2832 24.7C32.6499 25.2521 32.9832 25.8187 33.2103 26.4666C33.3499 26.8729 33.1707 27.2041 32.6895 27.4083Z" fill="#4D6BFE"/>
</g>
<defs>
<clipPath id="clip0_3255_377">
<rect width="50" height="50" fill="white"/>
</clipPath>
</defs>
</svg>
