<svg width="40" height="40" viewBox="0 0 40 40" fill="none" xmlns="http://www.w3.org/2000/svg">
<g clip-path="url(#clip0_3021_7508)">
<path d="M39.58 7.47008C39.1567 7.26342 38.9734 7.65842 38.7267 7.86008C38.6417 7.92508 38.57 8.01008 38.4984 8.08675C37.8784 8.74842 37.155 9.18175 36.21 9.13008C34.8284 9.05342 33.6484 9.48675 32.605 10.5434C32.3834 9.24008 31.6467 8.46342 30.5267 7.96342C29.94 7.70341 29.3467 7.44508 28.935 6.88008C28.6484 6.47841 28.57 6.03008 28.4267 5.59008C28.335 5.32342 28.2434 5.05175 27.9384 5.00675C27.605 4.95508 27.475 5.23342 27.345 5.46675C26.8234 6.42008 26.6217 7.47008 26.6417 8.53342C26.6867 10.9267 27.6967 12.8334 29.705 14.1884C29.9334 14.3434 29.9917 14.5001 29.92 14.7267C29.7834 15.1934 29.62 15.6467 29.4767 16.1151C29.385 16.4134 29.2484 16.4767 28.9284 16.3484C27.8471 15.8837 26.865 15.2161 26.035 14.3817C24.6067 13.0017 23.3167 11.4784 21.7067 10.2851C21.3337 10.0094 20.9506 9.7476 20.5584 9.50008C18.9167 7.90508 20.775 6.59508 21.205 6.44008C21.655 6.27675 21.36 5.72008 19.9067 5.72675C18.4534 5.73342 17.1234 6.21842 15.4284 6.86675C15.1765 6.96327 14.9173 7.03962 14.6534 7.09508C13.0694 6.79664 11.4495 6.73932 9.84837 6.92508C6.7067 7.27508 4.19837 8.76175 2.35337 11.2967C0.136705 14.3434 -0.384962 17.8067 0.253372 21.4167C0.925038 25.2234 2.86837 28.3751 5.85337 30.8384C8.95004 33.3934 12.515 34.6451 16.5834 34.4051C19.0534 34.2634 21.805 33.9318 24.9067 31.3051C25.69 31.6951 26.51 31.8501 27.8734 31.9667C28.9234 32.0651 29.9334 31.9167 30.715 31.7534C31.94 31.4934 31.855 30.3584 31.4134 30.1517C27.8217 28.4784 28.61 29.1601 27.8917 28.6084C29.7184 26.4484 32.4684 24.2051 33.545 16.9367C33.6284 16.3584 33.5567 15.9951 33.545 15.5284C33.5384 15.2451 33.6034 15.1334 33.9284 15.1017C34.8301 15.0082 35.7048 14.7393 36.5034 14.3101C38.83 13.0384 39.77 10.9517 39.9917 8.44841C40.025 8.06508 39.985 7.67175 39.58 7.47008ZM19.3017 30.0001C15.82 27.2634 14.1317 26.3617 13.435 26.4001C12.7817 26.4401 12.9 27.1851 13.0434 27.6718C13.1934 28.1518 13.3884 28.4817 13.6617 28.9034C13.8517 29.1817 13.9817 29.5967 13.4734 29.9084C12.3517 30.6017 10.4034 29.6751 10.3117 29.6301C8.04337 28.2934 6.14504 26.5301 4.81004 24.1184C3.52004 21.7967 2.77004 19.3067 2.64671 16.6484C2.61337 16.0051 2.80171 15.7784 3.44171 15.6617C4.28189 15.501 5.14275 15.479 5.99004 15.5967C9.54337 16.1167 12.5667 17.7051 15.1034 20.2201C16.55 21.6534 17.645 23.3651 18.7734 25.0384C19.9734 26.8151 21.2634 28.5084 22.9067 29.8951C23.4867 30.3818 23.9484 30.7517 24.3917 31.0234C23.055 31.1734 20.825 31.2067 19.3017 30.0001ZM20.9684 19.2667C20.9681 19.184 20.988 19.1023 21.0263 19.0289C21.0646 18.9556 21.1202 18.8926 21.1883 18.8455C21.2564 18.7984 21.3349 18.7686 21.4171 18.7587C21.4993 18.7487 21.5827 18.7589 21.66 18.7884C21.7586 18.8238 21.8437 18.889 21.9035 18.9751C21.9633 19.0611 21.9947 19.1637 21.9934 19.2684C21.9936 19.3361 21.9804 19.4031 21.9544 19.4656C21.9285 19.5282 21.8903 19.5849 21.8422 19.6325C21.7942 19.6801 21.7371 19.7177 21.6743 19.743C21.6116 19.7684 21.5444 19.781 21.4767 19.7801C21.4095 19.7803 21.343 19.7671 21.281 19.7413C21.219 19.7155 21.1627 19.6776 21.1156 19.6298C21.0684 19.582 21.0312 19.5253 21.0062 19.463C20.9812 19.4006 20.9673 19.3339 20.9684 19.2667ZM26.1517 21.9267C25.8184 22.0617 25.4867 22.1784 25.1684 22.1934C24.6895 22.2101 24.2195 22.0605 23.8384 21.7701C23.3817 21.3867 23.055 21.1734 22.9184 20.5067C22.8713 20.181 22.8803 19.8495 22.945 19.5267C23.0617 18.9817 22.9317 18.6317 22.5467 18.3151C22.235 18.0551 21.8367 17.9834 21.4 17.9834C21.2505 17.9747 21.1053 17.9301 20.9767 17.8534C20.7934 17.7634 20.6434 17.5367 20.7867 17.2567C20.8334 17.1667 21.0534 16.9467 21.1067 16.9067C21.7 16.5701 22.385 16.6801 23.0167 16.9334C23.6034 17.1734 24.0467 17.6134 24.685 18.2367C25.3367 18.9884 25.455 19.1967 25.8267 19.7601C26.12 20.2017 26.3867 20.6551 26.5684 21.1734C26.68 21.4984 26.5367 21.7634 26.1517 21.9267Z" fill="#656C76"/>
</g>
<defs>
<clipPath id="clip0_3021_7508">
<rect width="40" height="40" fill="white"/>
</clipPath>
</defs>
</svg>
