<svg width="50" height="50" viewBox="0 0 50 50" fill="none" xmlns="http://www.w3.org/2000/svg">
<path d="M11.0626 32.825C11.4209 25.0125 14.9855 20.3271 16.373 18.7854C9.58136 23.0729 5.07095 30.5729 3.1272 36.0937V38.4271C3.1272 44.8187 8.80428 50 15.8126 50C17.3737 50.002 18.9237 49.7378 20.3959 49.2187C21.1314 48.9687 21.8543 48.7021 22.5605 48.4312C24.4626 46.5583 25.998 44.4521 27.2334 42.1979C17.073 47.2625 10.6209 42.3479 11.0605 32.8229L11.0626 32.825Z" fill="#1E37FC"/>
<path d="M47.0207 21.4229C44.4957 19.5459 38.4603 16.4146 31.6103 15.5896C32.2249 23.4896 31.8041 33.8521 27.2353 42.2C25.991 44.4958 24.4158 46.596 22.5603 48.4333C30.402 45.4167 36.6145 41.2313 40.4686 37.5604C46.3436 31.9708 47.4541 26.7729 47.4707 23.6854C47.4759 22.9099 47.3227 22.1414 47.0207 21.4271V21.4229Z" fill="#37E1BE"/>
<path d="M29.7979 3.88958C26.9896 1.45833 23.4333 0 19.5625 0C15.6917 0 12.2563 1.41042 9.46875 3.76458C5.81458 6.85417 3.38958 11.5771 3.125 16.9271V36.0958C5.06667 30.575 9.57708 23.075 16.3687 18.7896C17.4104 18.1271 18.5042 17.55 19.6375 17.0625C23.5604 15.3937 27.7167 15.1208 31.6083 15.5917C31.1458 9.69583 30.1125 5.17083 29.7958 3.88958H29.7979Z" fill="#A569FF"/>
<path d="M36.0521 10.3354C35.2992 9.57853 34.5492 8.8188 33.8021 8.05619C33.3813 7.61244 32.9729 7.18328 32.5813 6.76036L29.8042 3.88953C30.1188 5.17078 31.1542 9.69369 31.6146 15.5916C38.4646 16.4145 44.5 19.5458 47.0229 21.4249C44.3021 18.7687 39.7834 14.1604 36.0521 10.3354Z" fill="#1E37FC"/>
</svg>
