<svg width="40" height="40" viewBox="0 0 40 40" fill="none" xmlns="http://www.w3.org/2000/svg">
<path d="M8.84998 26.26C9.13665 20.01 11.9883 16.2617 13.0983 15.0283C7.66498 18.4583 4.05665 24.4583 2.50165 28.875V30.7417C2.50165 35.855 7.04331 40 12.65 40C13.8988 40.0016 15.1388 39.7903 16.3166 39.375C16.905 39.175 17.4833 38.9617 18.0483 38.745C19.57 37.2467 20.7983 35.5617 21.7866 33.7583C13.6583 37.81 8.49665 33.8783 8.84831 26.2583L8.84998 26.26Z" fill="#838B95"/>
<path d="M37.6167 17.1383C35.5967 15.6367 30.7683 13.1317 25.2883 12.4717C25.78 18.7917 25.4433 27.0817 21.7883 33.76C20.7929 35.5966 19.5328 37.2768 18.0483 38.7467C24.3217 36.3333 29.2917 32.985 32.375 30.0483C37.075 25.5767 37.9633 21.4183 37.9767 18.9483C37.9808 18.3279 37.8583 17.7132 37.6167 17.1417V17.1383Z" fill="#656C76"/>
<path d="M23.8383 3.11167C21.5917 1.16667 18.7467 0 15.65 0C12.5533 0 9.805 1.12833 7.575 3.01167C4.65167 5.48333 2.71167 9.26167 2.5 13.5417V28.8767C4.05333 24.46 7.66167 18.46 13.095 15.0317C13.9283 14.5017 14.8033 14.04 15.71 13.65C18.8483 12.315 22.1733 12.0967 25.2867 12.4733C24.9167 7.75667 24.09 4.13667 23.8367 3.11167H23.8383Z" fill="#656C76"/>
<path d="M28.8417 8.26848C28.2393 7.66302 27.6393 7.05524 27.0417 6.44515C26.705 6.09015 26.3783 5.74682 26.065 5.40848L23.8433 3.11182C24.095 4.13682 24.9233 7.75515 25.2917 12.4735C30.7717 13.1318 35.6 15.6368 37.6183 17.1402C35.4417 15.0152 31.8267 11.3285 28.8417 8.26848Z" fill="#838B95"/>
</svg>
