<svg width="40" height="40" viewBox="0 0 40 40" fill="none" xmlns="http://www.w3.org/2000/svg">
<g clip-path="url(#clip0_3021_7492)">
<path fill-rule="evenodd" clip-rule="evenodd" d="M15.45 25.4835L28.7467 15.6552C29.3983 15.1718 30.33 15.3602 30.6417 16.1085C32.275 20.0568 31.545 24.8002 28.2917 28.0568C25.04 31.3135 20.5133 32.0268 16.3767 30.4002L11.8583 32.4952C18.34 36.9302 26.21 35.8335 31.1283 30.9068C35.03 27.0002 36.2383 21.6752 35.1083 16.8735L35.1183 16.8852C33.48 9.83183 35.5217 7.01183 39.7017 1.24683C39.8017 1.11016 39.9017 0.973496 40 0.833496L34.4983 6.34183V6.32516L15.445 25.4868M12.705 27.8718C8.05167 23.4218 8.855 16.5368 12.8233 12.5652C15.7583 9.62683 20.5683 8.42683 24.7667 10.1902L29.275 8.10683C28.3379 7.41752 27.3127 6.85698 26.2267 6.44016C23.4963 5.32266 20.4965 5.03749 17.6045 5.62051C14.7125 6.20354 12.0574 7.62873 9.97333 9.71683C5.75167 13.9435 4.42333 20.4435 6.70333 25.9902C8.40667 30.1352 5.615 33.0668 2.80333 36.0268C1.805 37.0768 0.805 38.1252 0 39.2352L12.7 27.8768" fill="#656C76"/>
</g>
<defs>
<clipPath id="clip0_3021_7492">
<rect width="40" height="40" fill="white"/>
</clipPath>
</defs>
</svg>
