<svg width="50" height="49" viewBox="0 0 50 49" fill="none" xmlns="http://www.w3.org/2000/svg">
<path fill-rule="evenodd" clip-rule="evenodd" d="M19.3125 30.8541L35.9333 18.5687C36.7479 17.9645 37.9125 18.2 38.3021 19.1354C40.3438 24.0708 39.4312 30 35.3646 34.0708C31.3 38.1416 25.6417 39.0333 20.4708 37L14.8229 39.6187C22.925 45.1625 32.7625 43.7916 38.9104 37.6333C43.7875 32.75 45.2979 26.0937 43.8854 20.0916L43.8979 20.1062C41.85 11.2895 44.4021 7.76454 49.6271 0.558293C49.7521 0.387459 49.8771 0.216626 50 0.041626L43.1229 6.92704V6.90621L19.3062 30.8583M15.8812 33.8395C10.0646 28.277 11.0687 19.6708 16.0292 14.7062C19.6979 11.0333 25.7104 9.53329 30.9583 11.7375L36.5938 9.13329C35.4224 8.27166 34.1409 7.57097 32.7833 7.04996C29.3704 5.65308 25.6206 5.29661 22.0056 6.0254C18.3906 6.75418 15.0718 8.53567 12.4667 11.1458C7.18958 16.4291 5.52917 24.5541 8.37917 31.4875C10.5083 36.6687 7.01875 40.3333 3.50417 44.0333C2.25625 45.3458 1.00625 46.6562 0 48.0437L15.875 33.8458" fill="#000000"/>
</svg>
