<svg width="50" height="50" viewBox="0 0 50 50" fill="none" xmlns="http://www.w3.org/2000/svg">
<path d="M7.1416 7.08337H14.2854V14.225H7.1416V7.08337ZM35.7124 7.08337H42.8583V14.225H35.7124V7.08337Z" fill="#FFD700"/>
<path d="M7.1416 14.225H21.427V21.3687H7.14368L7.1416 14.225ZM28.5708 14.225H42.8562V21.3687H28.5708V14.225Z" fill="#FFAF00"/>
<path d="M7.1416 21.3708H42.8583V28.5125H7.1416V21.3708Z" fill="#FF8205"/>
<path d="M7.1416 28.5125H14.2854V35.6541H7.1416V28.5125ZM21.4291 28.5125H28.5729V35.6541H21.4291V28.5125ZM35.7124 28.5125H42.8583V35.6541H35.7124V28.5125Z" fill="#FA500F"/>
<path d="M0 35.6542H21.4292V42.7979H0V35.6542ZM28.5708 35.6542H50V42.7979H28.5708V35.6542Z" fill="#E10500"/>
</svg>
