<svg width="40" height="40" viewBox="0 0 40 40" fill="none" xmlns="http://www.w3.org/2000/svg">
<path d="M5.71332 5.6665H11.4283V11.3798H5.71332V5.6665ZM28.57 5.6665H34.2867V11.3798H28.57V5.6665Z" fill="#656C76"/>
<path d="M5.71332 11.3799H17.1417V17.0949H5.71498L5.71332 11.3799ZM22.8567 11.3799H34.285V17.0949H22.8567V11.3799Z" fill="#656C76"/>
<path d="M5.71332 17.0967H34.2867V22.81H5.71332V17.0967Z" fill="#656C76"/>
<path d="M5.71332 22.8101H11.4283V28.5234H5.71332V22.8101ZM17.1433 22.8101H22.8583V28.5234H17.1433V22.8101ZM28.57 22.8101H34.2867V28.5234H28.57V22.8101Z" fill="#656C76"/>
<path d="M0 28.5234H17.1433V34.2384H0V28.5234ZM22.8567 28.5234H40V34.2384H22.8567V28.5234Z" fill="#656C76"/>
</svg>
