<?xml version="1.0" encoding="UTF-8"?>
<svg width="64px" height="64px" viewBox="0 0 64 64" version="1.1" xmlns="http://www.w3.org/2000/svg" xmlns:xlink="http://www.w3.org/1999/xlink">
    <title>下载 3</title>
    <path fill="#2F3363" fill-rule="evenodd" d="M32,0 A32,32 0 1 1 32,64 A32,32 0 1 1 32,0 Z M12.25,22 C12.25,18.8244 14.8244,16.25 18,16.25 C20.5654,16.25 22.7385,17.9301 23.4788,20.25 L26,20.25 C30.2802,20.25 33.75,23.7198 33.75,28 L33.75,36 C33.75,38.3472 35.6528,40.25 38,40.25 L40.5212,40.25 C41.2615,37.9301 43.4346,36.25 46,36.25 C49.1756,36.25 51.75,38.8244 51.75,42 C51.75,45.1756 49.1756,47.75 46,47.75 C43.4346,47.75 41.2615,46.0699 40.5212,43.75 L38,43.75 C33.7198,43.75 30.25,40.2802 30.25,36 L30.25,28 C30.25,25.6528 28.3472,23.75 26,23.75 L23.4788,23.75 C22.7385,26.0699 20.5654,27.75 18,27.75 C14.8244,27.75 12.25,25.1756 12.25,22 Z M18,19.75 C16.7574,19.75 15.75,20.7574 15.75,22 C15.75,23.2426 16.7574,24.25 18,24.25 C19.2426,24.25 20.25,23.2426 20.25,22 C20.25,20.7574 19.2426,19.75 18,19.75 Z M46,39.75 C44.7574,39.75 43.75,40.7574 43.75,42 C43.75,43.2426 44.7574,44.25 46,44.25 C47.2426,44.25 48.25,43.2426 48.25,42 C48.25,40.7574 47.2426,39.75 46,39.75 Z"></path>
</svg>
