<svg width="50" height="50" viewBox="0 0 50 50" fill="none" xmlns="http://www.w3.org/2000/svg">
<path fill-rule="evenodd" clip-rule="evenodd" d="M44.8959 20.8417C45.4161 19.2993 45.5964 17.6627 45.4245 16.0441C45.2526 14.4255 44.7326 12.8633 43.9001 11.4646C41.3647 7.11043 36.2709 4.86876 31.2959 5.92293C30.194 4.70292 28.8463 3.73003 27.3414 3.06826C25.8365 2.40649 24.2086 2.07082 22.5647 2.08335C17.4792 2.07293 12.9667 5.30418 11.4022 10.0792C9.79394 10.4011 8.27255 11.0613 6.93892 12.016C5.60529 12.9707 4.4899 14.1981 3.66675 15.6167C2.42253 17.7297 1.89078 20.1869 2.15 22.6253C2.40922 25.0637 3.44568 27.3541 5.10633 29.1583C4.58552 30.7008 4.40467 32.3378 4.57621 33.9567C4.74774 35.5757 5.2676 37.1384 6.10008 38.5375C8.6355 42.8917 13.7292 45.1313 18.7042 44.0792C19.8058 45.299 21.1532 46.2716 22.6577 46.933C24.1623 47.5945 25.7899 47.9297 27.4334 47.9167C32.523 47.9292 37.0376 44.6958 38.6022 39.9167C40.2115 39.5948 41.7339 38.9342 43.0683 37.9788C44.4027 37.0233 45.5186 35.7949 46.3417 34.375C47.5836 32.2621 48.1136 29.8061 47.8537 27.369C47.5937 24.932 46.5576 22.643 44.898 20.8396L44.8959 20.8417ZM27.4355 44.9208C25.4034 44.9257 23.433 44.223 21.8626 42.9333C21.9334 42.8958 22.0563 42.8292 22.1376 42.7792L31.3876 37.5083C31.6184 37.3795 31.8105 37.1912 31.9439 36.9629C32.0773 36.7346 32.147 36.4748 32.1459 36.2104V23.3438L36.0563 25.5708C36.098 25.5917 36.1251 25.6313 36.1313 25.675V36.3313C36.1251 41.0688 32.2355 44.9104 27.4355 44.9208ZM8.73341 37.0417C7.71388 35.3074 7.34603 33.2665 7.69591 31.2854C7.76258 31.3271 7.88341 31.4 7.96883 31.4479L17.2188 36.7188C17.6876 36.9896 18.2688 36.9896 18.7397 36.7188L30.0313 30.2854V34.7396C30.0322 34.7625 30.0276 34.7852 30.0178 34.8059C30.008 34.8266 29.9933 34.8446 29.9751 34.8583L20.6251 40.1833C16.4605 42.55 11.1417 41.1417 8.7355 37.0375L8.73341 37.0417ZM6.298 17.1167C7.32152 15.3708 8.92503 14.0394 10.8292 13.3542L10.8251 13.6688V24.2104C10.8238 24.4751 10.8935 24.7353 11.0268 24.9639C11.1602 25.1925 11.3524 25.3813 11.5834 25.5104L22.8751 31.9417L18.9667 34.1708C18.9474 34.1833 18.9253 34.1907 18.9024 34.1925C18.8795 34.1943 18.8565 34.1905 18.8355 34.1813L9.48341 28.85C5.32716 26.475 3.90216 21.2292 6.29591 17.1208L6.298 17.1167ZM38.4167 24.4917L27.1251 18.0583L31.0334 15.8333C31.0526 15.8206 31.0746 15.8128 31.0975 15.8106C31.1204 15.8084 31.1434 15.812 31.1647 15.8208L40.5167 21.1479C44.6792 23.5229 46.1063 28.7771 43.7022 32.8833C42.6778 34.6281 41.0756 35.9598 39.173 36.6479V25.7917C39.1743 25.5275 39.1049 25.2678 38.9719 25.0396C38.8389 24.8113 38.6472 24.6229 38.4167 24.4938V24.4917ZM42.3063 18.7146C42.2153 18.6593 42.1237 18.6051 42.0313 18.5521L32.7813 13.2813C32.5503 13.1484 32.2885 13.0784 32.022 13.0784C31.7554 13.0784 31.4936 13.1484 31.2626 13.2813L19.9709 19.7146V15.2604C19.97 15.2376 19.9746 15.2148 19.9844 15.1941C19.9942 15.1735 20.0089 15.1555 20.0272 15.1417L29.3751 9.81876C33.5417 7.45001 38.8647 8.86043 41.2647 12.9708C42.2792 14.7063 42.6501 16.7396 42.3063 18.7146ZM17.8459 26.6521L13.9355 24.4271C13.9151 24.4171 13.8975 24.4021 13.8844 24.3836C13.8713 24.365 13.8631 24.3434 13.8605 24.3208V13.6646C13.8626 8.92085 17.7626 5.0771 22.5709 5.08126C24.6042 5.08126 26.5709 5.78543 28.1355 7.06876C28.0647 7.10626 27.9438 7.17293 27.8626 7.22085L18.6126 12.4917C18.3813 12.6202 18.1888 12.8085 18.0551 13.0368C17.9213 13.265 17.8512 13.525 17.8522 13.7896L17.8459 26.65V26.6521ZM19.9709 22.1354L25.0001 19.2708L30.0292 22.1354V27.8646L25.0001 30.7292L19.9688 27.8646V22.1354H19.9709Z" fill="white"/>
</svg>
