<svg width="38" height="38" viewBox="0 0 38 38" fill="none" xmlns="http://www.w3.org/2000/svg">
<path fill-rule="evenodd" clip-rule="evenodd" d="M34.9167 15.6734C35.3328 14.4396 35.4771 13.1303 35.3396 11.8354C35.2021 10.5405 34.786 9.29072 34.12 8.17177C32.0917 4.68844 28.0167 2.89511 24.0367 3.73844C23.1552 2.76244 22.077 1.98413 20.8731 1.45471C19.6692 0.925286 18.3668 0.656754 17.0517 0.666774C12.9833 0.658441 9.37335 3.24344 8.12168 7.06344C6.8351 7.32099 5.61799 7.84916 4.55109 8.61292C3.48419 9.37667 2.59187 10.3586 1.93335 11.4934C0.937979 13.1839 0.512576 15.1496 0.719953 17.1003C0.92733 19.051 1.75649 20.8834 3.08501 22.3268C2.66836 23.5608 2.52369 24.8703 2.66092 26.1655C2.79814 27.4607 3.21403 28.7108 3.88001 29.8301C5.90835 33.3134 9.98335 35.1051 13.9633 34.2634C14.8446 35.2393 15.9225 36.0174 17.1261 36.5465C18.3298 37.0757 19.6319 37.3439 20.9467 37.3334C25.0183 37.3434 28.63 34.7568 29.8817 30.9334C31.1691 30.6759 32.3871 30.1475 33.4546 29.3831C34.5221 28.6187 35.4148 27.636 36.0733 26.5001C37.0668 24.8098 37.4909 22.8449 37.2829 20.8953C37.0749 18.9457 36.246 17.1145 34.9183 15.6718L34.9167 15.6734ZM20.9483 34.9368C19.3227 34.9407 17.7463 34.3785 16.49 33.3468C16.5467 33.3168 16.645 33.2634 16.71 33.2234L24.11 29.0068C24.2947 28.9037 24.4484 28.753 24.5551 28.5704C24.6618 28.3878 24.7176 28.1799 24.7167 27.9684V17.6751L27.845 19.4568C27.8783 19.4734 27.9 19.5051 27.905 19.5401V28.0651C27.9 31.8551 24.7883 34.9284 20.9483 34.9368ZM5.98668 28.6334C5.17106 27.246 4.87678 25.6133 5.15668 24.0284C5.21001 24.0618 5.30668 24.1201 5.37501 24.1584L12.775 28.3751C13.15 28.5918 13.615 28.5918 13.9917 28.3751L23.025 23.2284V26.7918C23.0257 26.8101 23.022 26.8283 23.0142 26.8448C23.0064 26.8614 22.9946 26.8758 22.98 26.8868L15.5 31.1468C12.1683 33.0401 7.91335 31.9134 5.98835 28.6301L5.98668 28.6334ZM4.03835 12.6934C4.85716 11.2968 6.13998 10.2316 7.66335 9.68344L7.66001 9.93511V18.3684C7.659 18.5802 7.71473 18.7883 7.82142 18.9712C7.92811 19.1541 8.08186 19.3051 8.26668 19.4084L17.3 24.5534L14.1733 26.3368C14.1579 26.3467 14.1402 26.3526 14.1219 26.3541C14.1036 26.3556 14.0852 26.3525 14.0683 26.3451L6.58668 22.0801C3.26168 20.1801 2.12168 15.9834 4.03668 12.6968L4.03835 12.6934ZM29.7333 18.5934L20.7 13.4468L23.8267 11.6668C23.842 11.6566 23.8596 11.6503 23.8779 11.6486C23.8962 11.6469 23.9147 11.6497 23.9317 11.6568L31.4133 15.9184C34.7433 17.8184 35.885 22.0218 33.9617 25.3068C33.1422 26.7026 31.8604 27.7679 30.3383 28.3184V19.6334C30.3394 19.4221 30.2839 19.2144 30.1775 19.0318C30.0711 18.8492 29.9177 18.6984 29.7333 18.5951V18.5934ZM32.845 13.9718C32.7722 13.9275 32.6989 13.8842 32.625 13.8418L25.225 9.62511C25.0402 9.51879 24.8307 9.46284 24.6175 9.46284C24.4043 9.46284 24.1948 9.51879 24.01 9.62511L14.9767 14.7718V11.2084C14.976 11.1901 14.9797 11.172 14.9875 11.1554C14.9953 11.1389 15.0071 11.1245 15.0217 11.1134L22.5 6.85511C25.8333 4.96011 30.0917 6.08844 32.0117 9.37677C32.8233 10.7651 33.12 12.3918 32.845 13.9718ZM13.2767 20.3218L10.1483 18.5418C10.132 18.5338 10.118 18.5218 10.1075 18.5069C10.097 18.4921 10.0904 18.4748 10.0883 18.4568V9.93177C10.09 6.13677 13.21 3.06177 17.0567 3.06511C18.6833 3.06511 20.2567 3.62844 21.5083 4.65511C21.4517 4.68511 21.355 4.73844 21.29 4.77677L13.89 8.99344C13.705 9.09629 13.551 9.24687 13.444 9.4295C13.337 9.61213 13.2809 9.82011 13.2817 10.0318L13.2767 20.3201V20.3218ZM14.9767 16.7084L19 14.4168L23.0233 16.7084V21.2918L19 23.5834L14.975 21.2918V16.7084H14.9767Z" fill="#656C76"/>
</svg>
