<svg width="50" height="50" viewBox="0 0 50 50" fill="none" xmlns="http://www.w3.org/2000/svg">
<path d="M26.2583 2.79169C27.077 4.22919 27.8916 5.67085 28.7041 7.1146C28.737 7.17234 28.7846 7.22032 28.842 7.25363C28.8995 7.28694 28.9648 7.30439 29.0312 7.30419H40.5979C40.9604 7.30419 41.2687 7.53335 41.527 7.98544L44.5562 13.3396C44.952 14.0417 45.0562 14.3354 44.6062 15.0834C44.0645 15.9792 43.5375 16.8834 43.0229 17.7917L42.2583 19.1625C42.0375 19.5709 41.7937 19.7459 42.175 20.2292L47.7 29.8896C48.0583 30.5167 47.9312 30.9188 47.6104 31.4938C46.7 33.1292 45.7729 34.7521 44.8291 36.3688C44.4979 36.9354 44.0958 37.15 43.4125 37.1396C41.7937 37.1063 40.1791 37.1188 38.5645 37.1729C38.5299 37.1747 38.4963 37.1852 38.4668 37.2034C38.4373 37.2216 38.4129 37.247 38.3958 37.2771C36.5329 40.5777 34.6545 43.8694 32.7604 47.1521C32.4083 47.7625 31.9687 47.9084 31.25 47.9104C29.1729 47.9167 27.0791 47.9188 24.9645 47.9146C24.7677 47.9141 24.5744 47.8616 24.4043 47.7624C24.2342 47.6633 24.0933 47.521 23.9958 47.35L21.2145 42.5104C21.1984 42.4788 21.1735 42.4524 21.1429 42.4343C21.1123 42.4162 21.0772 42.4072 21.0416 42.4084H10.3791C9.78538 42.4709 9.22704 42.4063 8.70204 42.2167L5.36246 36.4459C5.26369 36.275 5.21134 36.0813 5.21061 35.8839C5.20988 35.6866 5.26079 35.4924 5.35829 35.3209L7.87288 30.9042C7.90869 30.8417 7.92754 30.771 7.92754 30.699C7.92754 30.627 7.90869 30.5562 7.87288 30.4938C6.56302 28.226 5.26093 25.9538 3.96663 23.6771L2.32079 20.7709C1.98746 20.125 1.96038 19.7375 2.51871 18.7604C3.48746 17.0667 4.44996 15.375 5.40829 13.6854C5.68329 13.1979 6.04163 12.9896 6.62496 12.9875C8.42287 12.9799 10.2208 12.9792 12.0187 12.9854C12.0641 12.9851 12.1086 12.9728 12.1478 12.9497C12.1869 12.9267 12.2193 12.8937 12.2416 12.8542L18.0875 2.65627C18.1761 2.50113 18.304 2.37208 18.4583 2.2821C18.6126 2.19213 18.788 2.14442 18.9666 2.14377C20.0583 2.14169 21.1604 2.14377 22.2645 2.13127L24.3833 2.08335C25.0937 2.0771 25.8916 2.15002 26.2583 2.79169ZM19.1083 3.63127C19.0863 3.63125 19.0648 3.63702 19.0457 3.648C19.0267 3.65897 19.0109 3.67475 19 3.69377L13.0291 14.1417C13.0005 14.1909 12.9594 14.2318 12.9101 14.2603C12.8608 14.2888 12.8048 14.3039 12.7479 14.3042H6.77704C6.66038 14.3042 6.63121 14.3563 6.69163 14.4584L18.7958 35.6167C18.8479 35.7042 18.8229 35.7459 18.725 35.7479L12.902 35.7792C12.8169 35.7763 12.7327 35.7975 12.659 35.8402C12.5854 35.883 12.5252 35.9456 12.4854 36.0209L9.73537 40.8334C9.64371 40.9959 9.69163 41.0792 9.87704 41.0792L21.7854 41.0959C21.8812 41.0959 21.952 41.1375 22.002 41.2229L24.925 46.3354C25.0208 46.5042 25.1166 46.5063 25.2145 46.3354L35.6437 28.0854L37.275 25.2063C37.2849 25.1885 37.2994 25.1737 37.317 25.1634C37.3346 25.1531 37.3546 25.1476 37.375 25.1476C37.3953 25.1476 37.4153 25.1531 37.4329 25.1634C37.4505 25.1737 37.465 25.1885 37.475 25.2063L40.4416 30.4771C40.4639 30.5165 40.4963 30.5493 40.5355 30.572C40.5747 30.5947 40.6192 30.6066 40.6645 30.6063L46.4208 30.5646C46.4355 30.5647 46.4501 30.5609 46.4629 30.5536C46.4757 30.5463 46.4863 30.5357 46.4937 30.5229C46.5008 30.5102 46.5046 30.4959 46.5046 30.4813C46.5046 30.4667 46.5008 30.4523 46.4937 30.4396L40.452 19.8438C40.4303 19.8084 40.4188 19.7676 40.4188 19.7261C40.4188 19.6845 40.4303 19.6438 40.452 19.6084L41.0625 18.5521L43.3958 14.4334C43.4458 14.3479 43.4208 14.3042 43.3229 14.3042H19.1666C19.0437 14.3042 19.0145 14.25 19.077 14.1438L22.0645 8.92502C22.0869 8.88946 22.0988 8.84829 22.0988 8.80627C22.0988 8.76425 22.0869 8.72308 22.0645 8.68752L19.2187 3.69585C19.2078 3.67614 19.1918 3.65973 19.1724 3.64837C19.153 3.637 19.1308 3.63109 19.1083 3.63127ZM32.2125 20.3396C32.3083 20.3396 32.3333 20.3813 32.2833 20.4646L30.55 23.5167L25.1062 33.0688C25.096 33.0874 25.0809 33.1028 25.0625 33.1135C25.0442 33.1241 25.0233 33.1295 25.002 33.1292C24.9809 33.1291 24.9602 33.1235 24.9419 33.1129C24.9236 33.1023 24.9084 33.0871 24.8979 33.0688L17.7041 20.5021C17.6625 20.4313 17.6833 20.3938 17.7625 20.3896L18.2125 20.3646L32.2166 20.3396H32.2125Z" fill="#615CED"/>
</svg>
