<svg width="40" height="40" viewBox="0 0 40 40" fill="none" xmlns="http://www.w3.org/2000/svg">
<path d="M21.0066 2.23345C21.6616 3.38345 22.3133 4.53678 22.9633 5.69178C22.9896 5.73797 23.0277 5.77635 23.0736 5.803C23.1196 5.82965 23.1718 5.84361 23.225 5.84345H32.4783C32.7683 5.84345 33.015 6.02678 33.2216 6.38845L35.645 10.6718C35.9616 11.2334 36.045 11.4684 35.685 12.0668C35.2516 12.7834 34.83 13.5068 34.4183 14.2334L33.8066 15.3301C33.63 15.6568 33.435 15.7968 33.74 16.1834L38.16 23.9118C38.4466 24.4134 38.345 24.7351 38.0883 25.1951C37.36 26.5034 36.6183 27.8018 35.8633 29.0951C35.5983 29.5485 35.2766 29.7201 34.73 29.7118C33.435 29.6851 32.1433 29.6951 30.8516 29.7384C30.824 29.7399 30.7971 29.7483 30.7735 29.7628C30.7499 29.7774 30.7303 29.7977 30.7166 29.8218C29.2264 32.4622 27.7236 35.0956 26.2083 37.7218C25.9266 38.2101 25.575 38.3268 25 38.3284C23.3383 38.3335 21.6633 38.3351 19.9716 38.3318C19.8141 38.3313 19.6596 38.2894 19.5235 38.21C19.3874 38.1307 19.2747 38.0169 19.1966 37.8801L16.9716 34.0084C16.9587 33.9831 16.9388 33.962 16.9143 33.9475C16.8898 33.9331 16.8617 33.9259 16.8333 33.9268H8.30331C7.82831 33.9768 7.38165 33.9251 6.96165 33.7734L4.28998 29.1568C4.21097 29.0201 4.16909 28.8651 4.1685 28.7072C4.16792 28.5493 4.20865 28.3941 4.28665 28.2568L6.29831 24.7234C6.32697 24.6735 6.34204 24.6169 6.34204 24.5593C6.34204 24.5017 6.32697 24.4451 6.29831 24.3951C5.25043 22.5809 4.20875 20.7631 3.17331 18.9418L1.85665 16.6168C1.58998 16.1001 1.56831 15.7901 2.01498 15.0084C2.78998 13.6534 3.55998 12.3001 4.32665 10.9484C4.54665 10.5584 4.83331 10.3918 5.29998 10.3901C6.73831 10.3841 8.17665 10.3835 9.61498 10.3884C9.65131 10.3882 9.68693 10.3783 9.71824 10.3599C9.74954 10.3414 9.77544 10.3151 9.79331 10.2834L14.47 2.12511C14.5409 2.001 14.6432 1.89776 14.7667 1.82578C14.8901 1.7538 15.0304 1.71563 15.1733 1.71511C16.0466 1.71345 16.9283 1.71511 17.8116 1.70511L19.5066 1.66678C20.075 1.66178 20.7133 1.72011 21.0066 2.23345ZM15.2866 2.90511C15.2691 2.9051 15.2518 2.90972 15.2366 2.91849C15.2214 2.92727 15.2088 2.9399 15.2 2.95511L10.4233 11.3134C10.4004 11.3528 10.3676 11.3855 10.3281 11.4083C10.2886 11.4312 10.2439 11.4433 10.1983 11.4434H5.42165C5.32831 11.4434 5.30498 11.4851 5.35331 11.5668L15.0366 28.4935C15.0783 28.5634 15.0583 28.5968 14.98 28.5984L10.3216 28.6234C10.2535 28.6212 10.1862 28.6381 10.1272 28.6723C10.0683 28.7065 10.0202 28.7565 9.98831 28.8168L7.78831 32.6668C7.71498 32.7968 7.75331 32.8634 7.90165 32.8634L17.4283 32.8768C17.505 32.8768 17.5616 32.9101 17.6016 32.9784L19.94 37.0684C20.0166 37.2034 20.0933 37.2051 20.1716 37.0684L28.515 22.4684L29.82 20.1651C29.8279 20.1509 29.8395 20.139 29.8536 20.1308C29.8677 20.1225 29.8837 20.1182 29.9 20.1182C29.9163 20.1182 29.9323 20.1225 29.9464 20.1308C29.9604 20.139 29.972 20.1509 29.98 20.1651L32.3533 24.3818C32.3711 24.4133 32.3971 24.4395 32.4284 24.4577C32.4598 24.4759 32.4954 24.4853 32.5316 24.4851L37.1366 24.4518C37.1484 24.4519 37.1601 24.4489 37.1703 24.443C37.1806 24.4371 37.1891 24.4287 37.195 24.4184C37.2007 24.4083 37.2037 24.3968 37.2037 24.3851C37.2037 24.3734 37.2007 24.362 37.195 24.3518L32.3616 15.8751C32.3443 15.8468 32.3351 15.8142 32.3351 15.7809C32.3351 15.7477 32.3443 15.7151 32.3616 15.6868L32.85 14.8418L34.7166 11.5468C34.7566 11.4784 34.7366 11.4434 34.6583 11.4434H15.3333C15.235 11.4434 15.2116 11.4001 15.2616 11.3151L17.6516 7.14011C17.6696 7.11166 17.6791 7.07873 17.6791 7.04511C17.6791 7.0115 17.6696 6.97856 17.6516 6.95011L15.375 2.95678C15.3663 2.94101 15.3535 2.92789 15.3379 2.91879C15.3224 2.9097 15.3047 2.90497 15.2866 2.90511ZM25.77 16.2718C25.8466 16.2718 25.8666 16.3051 25.8266 16.3718L24.44 18.8134L20.085 26.4551C20.0768 26.47 20.0647 26.4823 20.05 26.4909C20.0353 26.4994 20.0186 26.5037 20.0016 26.5034C19.9847 26.5034 19.9682 26.4989 19.9535 26.4904C19.9389 26.4819 19.9268 26.4698 19.9183 26.4551L14.1633 16.4018C14.13 16.3451 14.1466 16.3151 14.21 16.3118L14.57 16.2918L25.7733 16.2718H25.77Z" fill="#656C76"/>
</svg>
