<svg width="40" height="40" viewBox="0 0 40 40" fill="none" xmlns="http://www.w3.org/2000/svg">
<path fill-rule="evenodd" clip-rule="evenodd" d="M34.4383 0H31.5366C22.2449 0 16.8899 5.93333 16.8899 15.03V16.5917C14.3855 15.8738 11.7149 15.9951 9.2858 16.9371C6.85673 17.8792 4.80264 19.5902 3.43707 21.809C2.0715 24.0278 1.46946 26.6325 1.72286 29.2254C1.97626 31.8184 3.07117 34.2573 4.84046 36.1697C6.60975 38.0821 8.95623 39.3631 11.5217 39.8171C14.0872 40.271 16.7308 39.873 19.0489 38.6839C21.367 37.4947 23.2323 35.5796 24.3601 33.231C25.4879 30.8824 25.8162 28.2293 25.2949 25.6767H34.4383C35.5977 25.6767 36.7097 25.2161 37.5295 24.3962C38.3494 23.5764 38.8099 22.4644 38.8099 21.305C38.8099 20.1456 38.3494 19.0336 37.5295 18.2138C36.7097 17.3939 35.5977 16.9333 34.4383 16.9333H25.3416V14.645C25.3416 11.1617 27.8583 8.645 31.5366 8.645H34.4383C35.57 8.62278 36.6478 8.15761 37.4403 7.3494C38.2328 6.54119 38.6767 5.45442 38.6767 4.3225C38.6767 3.19058 38.2328 2.10381 37.4403 1.2956C36.6478 0.487394 35.57 0.0222233 34.4383 0ZM17.1499 28.065C17.1704 27.5929 17.0964 27.1215 16.9323 26.6783C16.7682 26.2352 16.5173 25.8293 16.1942 25.4844C15.8712 25.1395 15.4826 24.8626 15.0511 24.6699C14.6196 24.4772 14.1541 24.3725 13.6816 24.3621C13.2092 24.3517 12.7394 24.4357 12.2999 24.6091C11.8604 24.7826 11.4599 25.0421 11.1219 25.3724C10.784 25.7027 10.5154 26.0972 10.3319 26.5326C10.1484 26.9681 10.0537 27.4358 10.0533 27.9083C10.0525 28.8368 10.4155 29.7286 11.0645 30.3926C11.7134 31.0565 12.5967 31.4399 13.5249 31.4604C14.4531 31.4809 15.3525 31.1369 16.0301 30.5022C16.7077 29.8675 17.1097 28.9926 17.1499 28.065Z" fill="#656C76"/>
</svg>
