<svg width="50" height="50" viewBox="0 0 50 50" fill="none" xmlns="http://www.w3.org/2000/svg">
<path fill-rule="evenodd" clip-rule="evenodd" d="M43.048 0H39.4209C27.8064 0 21.1126 7.41667 21.1126 18.7875V20.7396C17.982 19.8422 14.6438 19.9939 11.6074 21.1714C8.5711 22.349 6.00348 24.4877 4.29652 27.2612C2.58955 30.0347 1.83701 33.2906 2.15376 36.5318C2.4705 39.773 3.83914 42.8216 6.05076 45.2121C8.26237 47.6027 11.1955 49.2039 14.4023 49.7713C17.6092 50.3388 20.9136 49.8413 23.8113 48.3548C26.7089 46.8683 29.0406 44.4745 30.4503 41.5388C31.8601 38.6031 32.2705 35.2867 31.6189 32.0958H43.048C44.4973 32.0958 45.8873 31.5201 46.9121 30.4953C47.9369 29.4705 48.5126 28.0805 48.5126 26.6313C48.5126 25.182 47.9369 23.792 46.9121 22.7672C45.8873 21.7424 44.4973 21.1667 43.048 21.1667H31.6772V18.3063C31.6772 13.9521 34.823 10.8063 39.4209 10.8063H43.048C44.4627 10.7785 45.81 10.197 46.8006 9.18675C47.7912 8.17649 48.3461 6.81802 48.3461 5.40313C48.3461 3.98823 47.7912 2.62976 46.8006 1.6195C45.81 0.609243 44.4627 0.0277792 43.048 0ZM21.4376 35.0813C21.4632 34.4911 21.3707 33.9018 21.1656 33.3479C20.9604 32.794 20.6468 32.2866 20.243 31.8555C19.8392 31.4244 19.3534 31.0783 18.8141 30.8374C18.2747 30.5965 17.6927 30.4657 17.1022 30.4526C16.5117 30.4396 15.9245 30.5446 15.3751 30.7614C14.8256 30.9783 14.325 31.3027 13.9026 31.7155C13.4802 32.1284 13.1444 32.6215 12.915 33.1658C12.6857 33.7101 12.5673 34.2947 12.5668 34.8854C12.5658 36.046 13.0196 37.1607 13.8308 37.9907C14.642 38.8207 15.7461 39.2998 16.9063 39.3255C18.0666 39.3511 19.1908 38.9211 20.0378 38.1277C20.8848 37.3344 21.3873 36.2407 21.4376 35.0813Z" fill="#7C3AED"/>
</svg>
