<svg width="17" height="17" viewBox="0 0 17 17" fill="none" xmlns="http://www.w3.org/2000/svg">
<g clip-path="url(#clip0_3395_10267)">
<path d="M14.0447 3.2704C13.0249 2.80248 11.9313 2.45774 10.7879 2.26029C10.7671 2.25648 10.7463 2.266 10.7356 2.28505C10.5949 2.53519 10.4392 2.86152 10.3301 3.11802C9.10027 2.93391 7.87679 2.93391 6.67221 3.11802C6.5631 2.85582 6.40166 2.53519 6.26038 2.28505C6.24966 2.26664 6.22886 2.25711 6.20803 2.26029C5.06527 2.45711 3.97171 2.80185 2.95129 3.2704C2.94246 3.27421 2.93488 3.28057 2.92986 3.28881C0.855594 6.38772 0.287367 9.41046 0.56612 12.3957C0.567381 12.4103 0.57558 12.4243 0.586932 12.4332C1.95547 13.4382 3.28114 14.0483 4.58219 14.4528C4.60301 14.4591 4.62507 14.4515 4.63832 14.4343C4.94608 14.0141 5.22043 13.5709 5.45565 13.1049C5.46953 13.0776 5.45628 13.0452 5.42791 13.0344C4.99275 12.8693 4.5784 12.6681 4.17982 12.4395C4.14829 12.4211 4.14577 12.376 4.17477 12.3544C4.25865 12.2916 4.34255 12.2262 4.42264 12.1602C4.43713 12.1481 4.45732 12.1456 4.47435 12.1532C7.09286 13.3487 9.9277 13.3487 12.5153 12.1532C12.5323 12.1449 12.5525 12.1475 12.5677 12.1595C12.6478 12.2256 12.7316 12.2916 12.8161 12.3544C12.8451 12.376 12.8433 12.4211 12.8117 12.4395C12.4131 12.6725 11.9988 12.8693 11.563 13.0338C11.5346 13.0446 11.522 13.0776 11.5359 13.1049C11.7762 13.5703 12.0505 14.0134 12.3526 14.4337C12.3652 14.4515 12.3879 14.4591 12.4087 14.4528C13.7161 14.0483 15.0417 13.4382 16.4103 12.4332C16.4223 12.4243 16.4298 12.411 16.4311 12.3964C16.7647 8.94506 15.8723 5.94711 14.0655 3.28944C14.0611 3.28057 14.0535 3.27421 14.0447 3.2704ZM5.84668 10.578C5.05833 10.578 4.40876 9.85425 4.40876 8.96539C4.40876 8.07653 5.04574 7.35277 5.84668 7.35277C6.65392 7.35277 7.29721 8.08289 7.28459 8.96539C7.28459 9.85425 6.64761 10.578 5.84668 10.578ZM11.1632 10.578C10.3748 10.578 9.72526 9.85425 9.72526 8.96539C9.72526 8.07653 10.3622 7.35277 11.1632 7.35277C11.9704 7.35277 12.6137 8.08289 12.6011 8.96539C12.6011 9.85425 11.9704 10.578 11.1632 10.578Z" fill="#F0F6FC"/>
</g>
<defs>
<clipPath id="clip0_3395_10267">
<rect width="16" height="16" fill="white" transform="translate(0.5 0.5)"/>
</clipPath>
</defs>
</svg>
