<svg width="17" height="17" viewBox="0 0 17 17" fill="none" xmlns="http://www.w3.org/2000/svg">
<path fill-rule="evenodd" clip-rule="evenodd" d="M8.50674 1.41998C4.52203 1.41998 1.30078 4.66498 1.30078 8.67948C1.30078 11.8885 3.36475 14.6048 6.22801 15.5662C6.586 15.6385 6.71712 15.41 6.71712 15.2179C6.71712 15.0496 6.70532 14.4727 6.70532 13.8716C4.7008 14.3044 4.28338 13.0062 4.28338 13.0062C3.96124 12.1649 3.48393 11.9487 3.48393 11.9487C2.82785 11.504 3.53172 11.504 3.53172 11.504C4.25948 11.552 4.64136 12.2491 4.64136 12.2491C5.28549 13.3548 6.32345 13.0424 6.74102 12.85C6.80061 12.3813 6.99162 12.0568 7.19443 11.8765C5.59568 11.7082 3.91359 11.0833 3.91359 8.2948C3.91359 7.50155 4.19974 6.85255 4.65316 6.34781C4.58162 6.16756 4.33102 5.42224 4.72484 4.4247C4.72484 4.4247 5.33328 4.23236 6.70518 5.16987C7.29253 5.01096 7.89827 4.93013 8.50674 4.92945C9.11518 4.92945 9.73541 5.01367 10.3082 5.16987C11.6802 4.23236 12.2886 4.4247 12.2886 4.4247C12.6825 5.42224 12.4317 6.16756 12.3602 6.34781C12.8255 6.85255 13.0999 7.50155 13.0999 8.2948C13.0999 11.0833 11.4178 11.6961 9.8071 11.8765C10.0696 12.1049 10.2962 12.5375 10.2962 13.2226C10.2962 14.1961 10.2844 14.9774 10.2844 15.2177C10.2844 15.41 10.4157 15.6385 10.7735 15.5664C13.6368 14.6047 15.7007 11.8885 15.7007 8.67948C15.7126 4.66498 12.4795 1.41998 8.50674 1.41998Z" fill="#F0F6FC"/>
</svg>
