<svg width="17" height="17" viewBox="0 0 17 17" fill="none" xmlns="http://www.w3.org/2000/svg">
<g clip-path="url(#clip0_3395_10295)">
<path d="M2.35078 1.89999H9.85078C10.4304 1.89999 10.9008 2.37039 10.9008 2.94999V8.64999C10.9008 8.92847 10.7902 9.19554 10.5932 9.39246C10.3963 9.58937 10.1293 9.69999 9.85078 9.69999H6.13738L4.59298 11.2438C4.47061 11.3657 4.31489 11.4487 4.14545 11.4822C3.97601 11.5157 3.80043 11.4984 3.64085 11.4323C3.48127 11.3662 3.34482 11.2543 3.24871 11.1108C3.1526 10.9673 3.10113 10.7985 3.10078 10.6258V9.69999H2.35078C2.0723 9.69999 1.80523 9.58937 1.60832 9.39246C1.41141 9.19554 1.30078 8.92847 1.30078 8.64999V2.94999C1.30078 2.37039 1.77118 1.89999 2.35078 1.89999ZM2.20078 2.94999V8.64999C2.20078 8.73279 2.26798 8.79999 2.35078 8.79999H3.55078C3.67013 8.79999 3.78459 8.8474 3.86898 8.9318C3.95337 9.01619 4.00078 9.13065 4.00078 9.24999V10.564L5.63278 8.93199C5.67451 8.89017 5.72407 8.85698 5.77864 8.83433C5.8332 8.81168 5.8917 8.80001 5.95078 8.79999H9.85078C9.89056 8.79999 9.92872 8.78419 9.95685 8.75606C9.98498 8.72793 10.0008 8.68978 10.0008 8.64999V2.94999C10.0008 2.91021 9.98498 2.87206 9.95685 2.84393C9.92872 2.8158 9.89056 2.79999 9.85078 2.79999H2.35078C2.311 2.79999 2.27285 2.8158 2.24472 2.84393C2.21658 2.87206 2.20078 2.91021 2.20078 2.94999Z" fill="#F0F6FC"/>
<path d="M14.8012 6.55C14.8012 6.51022 14.7854 6.47206 14.7572 6.44393C14.7291 6.4158 14.691 6.4 14.6512 6.4H12.5512C12.4318 6.4 12.3174 6.35259 12.233 6.2682C12.1486 6.18381 12.1012 6.06935 12.1012 5.95C12.1012 5.83065 12.1486 5.71619 12.233 5.6318C12.3174 5.54741 12.4318 5.5 12.5512 5.5H14.6512C15.2308 5.5 15.7012 5.9704 15.7012 6.55V12.25C15.7012 12.5285 15.5905 12.7955 15.3936 12.9925C15.1967 13.1894 14.9296 13.3 14.6512 13.3H13.9012V14.2258C13.9011 14.3987 13.8498 14.5676 13.7537 14.7113C13.6577 14.855 13.5212 14.967 13.3615 15.0332C13.2018 15.0993 13.026 15.1166 12.8565 15.0829C12.687 15.0492 12.5312 14.966 12.409 14.8438L10.8646 13.3H7.75117C7.47269 13.3 7.20562 13.1894 7.00871 12.9925C6.8118 12.7955 6.70117 12.5285 6.70117 12.25V11.371C6.70117 11.2517 6.74858 11.1372 6.83297 11.0528C6.91737 10.9684 7.03182 10.921 7.15117 10.921C7.27052 10.921 7.38498 10.9684 7.46937 11.0528C7.55376 11.1372 7.60117 11.2517 7.60117 11.371V12.25C7.60117 12.3328 7.66837 12.4 7.75117 12.4H11.0512C11.1705 12.4001 11.2849 12.4476 11.3692 12.532L13.0012 14.164V12.85C13.0012 12.7307 13.0486 12.6162 13.133 12.5318C13.2174 12.4474 13.3318 12.4 13.4512 12.4H14.6512C14.691 12.4 14.7291 12.3842 14.7572 12.3561C14.7854 12.3279 14.8012 12.2898 14.8012 12.25V6.55Z" fill="#F0F6FC"/>
</g>
<defs>
<clipPath id="clip0_3395_10295">
<rect width="14.4" height="14.4" fill="white" transform="translate(1.30078 1.29999)"/>
</clipPath>
</defs>
</svg>
