<svg width="17" height="17" viewBox="0 0 17 17" fill="none" xmlns="http://www.w3.org/2000/svg">
<g clip-path="url(#clip0_3395_10307)">
<path d="M11.3306 12.3908C11.3891 12.3908 11.4455 12.4143 11.4869 12.4557C11.902 12.9122 12.455 13.2204 13.0615 13.3338C13.2285 13.3513 13.3877 13.4142 13.5216 13.5154C13.6556 13.6166 13.7592 13.7526 13.8216 13.9084C13.8841 14.0643 13.903 14.2344 13.8759 14.4002C13.8489 14.5659 13.7772 14.7211 13.6685 14.849C13.5598 14.977 13.418 15.073 13.2588 15.1264C13.0995 15.1798 12.9286 15.1887 12.7646 15.1522C12.6007 15.1156 12.4498 15.0349 12.3283 14.919C12.2069 14.8031 12.1193 14.6563 12.0752 14.4943C11.9901 13.8431 11.6815 13.2413 11.2021 12.7924C11.1759 12.7737 11.1539 12.7496 11.1381 12.7217C11.1222 12.6937 11.1126 12.6624 11.1099 12.6303C11.1073 12.5982 11.1117 12.5659 11.1228 12.5358C11.134 12.5056 11.1519 12.4784 11.1748 12.4557C11.2162 12.4144 11.2721 12.3909 11.3306 12.3908Z" fill="#F0F6FC"/>
<path d="M6.29352 1.87013C6.861 1.80927 7.43347 1.81107 8.00055 1.8756C9.59563 2.03752 11.0855 2.74714 12.2162 3.8838C12.6315 4.31111 12.9762 4.80164 13.2381 5.33692C13.638 6.14876 13.8117 7.05343 13.7408 7.95567L13.6994 7.90606C13.553 7.75983 13.3619 7.66687 13.1564 7.64278C12.9509 7.61873 12.7431 7.66476 12.567 7.77325C12.5697 7.71248 12.5752 7.64888 12.5752 7.58536C12.5751 6.98049 12.4372 6.38939 12.1638 5.83146C11.9594 5.41156 11.6829 5.01627 11.3431 4.66544C10.4647 3.75946 9.22723 3.17094 7.85993 3.01349C7.38446 2.96103 6.90454 2.96105 6.42907 3.01349C5.05343 3.16265 3.8103 3.74296 2.92633 4.6545C2.58381 5.00532 2.30737 5.39479 2.09743 5.81466C1.78236 6.45076 1.64301 7.15973 1.69352 7.86778C1.74406 8.57577 1.9828 9.25751 2.38493 9.84239C2.70575 10.3142 3.10338 10.7289 3.56149 11.069C3.64433 11.1296 3.70592 11.2147 3.73766 11.3123C3.7694 11.41 3.76986 11.5153 3.73844 11.6131L3.64157 11.9721L3.55875 12.2955L3.50641 12.4916L3.46227 12.6709C3.46151 12.6917 3.46867 12.7121 3.48258 12.7275C3.49646 12.743 3.5158 12.7523 3.53649 12.7537C3.5503 12.7537 3.56433 12.7484 3.59196 12.7318L3.64157 12.7014L4.80719 12.0162L4.84586 11.9971C4.92171 11.9547 5.00555 11.928 5.09196 11.919C5.17839 11.9099 5.26601 11.9185 5.34899 11.9443C5.6566 12.0334 5.9705 12.0994 6.28805 12.1408L6.42907 12.16C7.30861 12.2597 8.19925 12.1711 9.04196 11.9002C9.02137 12.1082 9.0725 12.3171 9.18649 12.4924C9.30047 12.6676 9.47079 12.7987 9.6693 12.8643C8.85444 13.1586 7.99428 13.3084 7.1279 13.3065C6.42723 13.3113 5.72943 13.2153 5.05602 13.0217L3.63883 13.7346L3.16383 13.9721L3.13336 13.9943H3.12516C3.05197 14.0376 2.96876 14.0614 2.88375 14.0639C2.79879 14.0664 2.71441 14.0473 2.63883 14.0084C2.5633 13.9695 2.49866 13.9122 2.45133 13.8416C2.40401 13.771 2.37546 13.6895 2.36813 13.6049L2.36266 13.5549L2.36813 13.5053C2.37088 13.486 2.3708 13.4637 2.37633 13.4443L2.3986 13.3783L2.59743 11.8147C2.15824 11.4224 1.67774 10.8699 1.38493 10.4279C0.87624 9.6849 0.574935 8.8196 0.51227 7.9213C0.449629 7.02295 0.62762 6.12389 1.02829 5.31739C1.28516 4.7926 1.63338 4.30108 2.06149 3.86466C3.13882 2.7597 4.63884 2.05244 6.29352 1.87013Z" fill="#F0F6FC"/>
<path d="M15.2787 10.7721C15.4125 10.7263 15.5552 10.7118 15.6955 10.7299C15.8358 10.748 15.9702 10.7984 16.0881 10.8768C16.2059 10.9551 16.3041 11.0595 16.3752 11.1818C16.4462 11.3042 16.4882 11.4414 16.4978 11.5826C16.5074 11.7237 16.4844 11.8651 16.4306 11.9959C16.3768 12.1268 16.2934 12.2437 16.1873 12.3373C16.0812 12.4308 15.955 12.4988 15.8185 12.5358C15.1672 12.6206 14.5658 12.9293 14.117 13.4088C14.0998 13.4347 14.0772 13.4566 14.0509 13.4733C14.0247 13.4899 13.995 13.5008 13.9642 13.5053C13.9335 13.5097 13.9023 13.5075 13.8724 13.499C13.8425 13.4906 13.8146 13.476 13.7908 13.4561C13.767 13.4361 13.7478 13.4113 13.7341 13.3834C13.7205 13.3555 13.7129 13.325 13.7119 13.294C13.7108 13.2629 13.7162 13.2317 13.7279 13.2029C13.7396 13.1742 13.7574 13.1482 13.7798 13.1268C14.2359 12.7105 14.5435 12.1566 14.6556 11.5494C14.6777 11.3395 14.7711 11.1435 14.9205 10.9943H14.9232C15.023 10.894 15.1448 10.8179 15.2787 10.7721Z" fill="#F0F6FC"/>
<path d="M12.0275 9.77755C12.086 9.78067 12.1411 9.80702 12.1802 9.8506C12.2194 9.89414 12.2395 9.95152 12.2365 10.01C12.2334 10.0685 12.207 10.1235 12.1634 10.1627C11.7065 10.5787 11.398 11.1326 11.2849 11.74C11.2665 11.9131 11.1994 12.0773 11.0916 12.2139C10.9837 12.3504 10.8396 12.4539 10.6756 12.5119C10.5115 12.57 10.3343 12.5803 10.1646 12.542C9.99492 12.5037 9.83936 12.4183 9.71618 12.2955C9.60053 12.182 9.51686 12.0397 9.47399 11.8834C9.43113 11.7271 9.4305 11.5623 9.47204 11.4057C9.51358 11.2491 9.59565 11.1061 9.71032 10.9916C9.82497 10.8772 9.96811 10.7954 10.1248 10.7541C10.7891 10.667 11.401 10.3467 11.8513 9.8506L11.8677 9.83419C11.9113 9.79499 11.969 9.77444 12.0275 9.77755Z" fill="#F0F6FC"/>
<path d="M12.7326 8.15372C12.8883 8.11166 13.0524 8.11146 13.2084 8.15255C13.3643 8.19364 13.5069 8.27482 13.6216 8.3881C13.7363 8.50138 13.8192 8.64289 13.8623 8.79825C13.9473 9.44944 14.256 10.0509 14.7353 10.4998C14.7612 10.517 14.7831 10.5396 14.7998 10.5658C14.8164 10.5921 14.8273 10.6214 14.8318 10.6522C14.8363 10.6829 14.834 10.7144 14.8256 10.7443C14.8171 10.7742 14.8025 10.8018 14.7826 10.8256C14.7626 10.8494 14.7379 10.869 14.7099 10.8826C14.682 10.8962 14.6515 10.9038 14.6205 10.9049C14.5894 10.9059 14.5586 10.9002 14.5298 10.8885C14.5011 10.8768 14.4751 10.8593 14.4537 10.8369C14.0375 10.3809 13.4835 10.0733 12.8763 9.96114C12.7033 9.94267 12.5387 9.87566 12.4021 9.76778C12.2656 9.65992 12.1625 9.51542 12.1045 9.35138C12.0464 9.18733 12.0357 9.01018 12.074 8.84044C12.1123 8.6707 12.198 8.5152 12.3209 8.392C12.4349 8.27799 12.5769 8.19578 12.7326 8.15372Z" fill="#F0F6FC"/>
</g>
<defs>
<clipPath id="clip0_3395_10307">
<rect width="16" height="16" fill="white" transform="translate(0.5 0.5)"/>
</clipPath>
</defs>
</svg>
