<svg width="17" height="17" viewBox="0 0 17 17" fill="none" xmlns="http://www.w3.org/2000/svg">
<g clip-path="url(#clip0_3395_10270)">
<path d="M16.3406 5.30004C16.3406 5.30004 16.1844 4.19692 15.7031 3.71254C15.0938 3.07504 14.4125 3.07192 14.1 3.03442C11.8625 2.87192 8.50313 2.87192 8.50313 2.87192H8.49687C8.49687 2.87192 5.1375 2.87192 2.9 3.03442C2.5875 3.07192 1.90625 3.07504 1.29688 3.71254C0.815625 4.19692 0.6625 5.30004 0.6625 5.30004C0.6625 5.30004 0.5 6.59692 0.5 7.89067V9.10317C0.5 10.3969 0.659375 11.6938 0.659375 11.6938C0.659375 11.6938 0.815625 12.7969 1.29375 13.2813C1.90313 13.9188 2.70313 13.8969 3.05938 13.9657C4.34063 14.0875 8.5 14.125 8.5 14.125C8.5 14.125 11.8625 14.1188 14.1 13.9594C14.4125 13.9219 15.0938 13.9188 15.7031 13.2813C16.1844 12.7969 16.3406 11.6938 16.3406 11.6938C16.3406 11.6938 16.5 10.4 16.5 9.10317V7.89067C16.5 6.59692 16.3406 5.30004 16.3406 5.30004ZM6.84688 10.575V6.07817L11.1687 8.33442L6.84688 10.575Z" fill="#F0F6FC"/>
</g>
<defs>
<clipPath id="clip0_3395_10270">
<rect width="16" height="16" fill="white" transform="translate(0.5 0.5)"/>
</clipPath>
</defs>
</svg>
