<svg width="400" height="300" viewBox="0 0 400 300" fill="none" xmlns="http://www.w3.org/2000/svg">
  <rect width="400" height="300" fill="#F0FDF4" rx="8"/>
  
  <!-- Central sharing hub -->
  <circle cx="200" cy="150" r="40" fill="#10B981"/>
  <text x="200" y="155" text-anchor="middle" fill="white" font-family="Arial" font-size="14" font-weight="bold">分享</text>
  
  <!-- Connected nodes -->
  <circle cx="100" cy="80" r="25" fill="#059669"/>
  <circle cx="300" cy="80" r="25" fill="#059669"/>
  <circle cx="100" cy="220" r="25" fill="#059669"/>
  <circle cx="300" cy="220" r="25" fill="#059669"/>
  
  <!-- Connection lines -->
  <line x1="125" y1="95" x2="175" y2="135" stroke="#10B981" stroke-width="3"/>
  <line x1="275" y1="95" x2="225" y2="135" stroke="#10B981" stroke-width="3"/>
  <line x1="125" y1="205" x2="175" y2="165" stroke="#10B981" stroke-width="3"/>
  <line x1="275" y1="205" x2="225" y2="165" stroke="#10B981" stroke-width="3"/>
  
  <!-- Flow icons -->
  <rect x="85" y="65" width="30" height="30" fill="white" rx="4"/>
  <rect x="285" y="65" width="30" height="30" fill="white" rx="4"/>
  <rect x="85" y="205" width="30" height="30" fill="white" rx="4"/>
  <rect x="285" y="205" width="30" height="30" fill="white" rx="4"/>
  
  <!-- Labels -->
  <text x="100" y="50" text-anchor="middle" fill="#059669" font-family="Arial" font-size="12">工作流A</text>
  <text x="300" y="50" text-anchor="middle" fill="#059669" font-family="Arial" font-size="12">工作流B</text>
  <text x="100" y="250" text-anchor="middle" fill="#059669" font-family="Arial" font-size="12">工作流C</text>
  <text x="300" y="250" text-anchor="middle" fill="#059669" font-family="Arial" font-size="12">工作流D</text>
  
  <!-- Title -->
  <text x="200" y="30" text-anchor="middle" fill="#059669" font-family="Arial" font-size="16" font-weight="bold">Flow 社区</text>
</svg>