<?xml version="1.0" encoding="UTF-8" standalone="no"?>
<!DOCTYPE svg PUBLIC "-//W3C//DTD SVG 1.1//EN" "http://www.w3.org/Graphics/SVG/1.1/DTD/svg11.dtd">
<svg xmlns="http://www.w3.org/2000/svg" version="1.1" viewBox="0.00 0.00 256.00 256.00" width="128" height="128">
<g stroke-width="2.00" fill="none" stroke-linecap="butt">
<path stroke="#fac190" vector-effect="non-scaling-stroke" d="
  M 195.88 119.36
  Q 192.45 126.73 189.75 134.23
  Q 187.23 141.23 178.69 147.69
  C 171.90 152.82 165.25 153.38 157.00 153.48
  Q 114.26 154.04 74.75 154.47
  Q 72.87 154.49 71.25 155.71
  A 1.21 1.21 0.0 0 0 71.33 157.69
  Q 72.58 158.50 74.25 158.52
  Q 100.68 158.83 155.64 159.46
  Q 165.85 159.57 168.70 160.99
  C 175.55 164.40 176.50 171.31 174.87 178.26
  Q 174.13 181.46 173.42 184.75"
/>
<path stroke="#fdd7a0" vector-effect="non-scaling-stroke" d="
  M 200.65 121.09
  Q 199.67 123.00 199.02 124.88
  Q 197.33 129.75 195.84 135.37
  C 193.38 144.58 198.36 152.82 208.26 153.31
  Q 216.68 153.73 228.03 154.67
  A 1.64 1.63 5.9 0 1 229.52 156.50
  L 229.51 156.57
  A 2.04 2.03 -89.1 0 1 227.68 158.35
  Q 217.68 159.25 210.13 159.49
  C 197.23 159.90 187.01 166.80 181.34 178.39
  Q 180.43 180.24 179.28 184.75"
/>
</g>
<path fill="#f58220" d="
  M 195.88 119.36
  Q 192.45 126.73 189.75 134.23
  Q 187.23 141.23 178.69 147.69
  C 171.90 152.82 165.25 153.38 157.00 153.48
  Q 114.26 154.04 74.75 154.47
  Q 72.87 154.49 71.25 155.71
  A 1.21 1.21 0.0 0 0 71.33 157.69
  Q 72.58 158.50 74.25 158.52
  Q 100.68 158.83 155.64 159.46
  Q 165.85 159.57 168.70 160.99
  C 175.55 164.40 176.50 171.31 174.87 178.26
  Q 174.13 181.46 173.42 184.75
  L 5.91 184.72
  A 1.89 1.89 0.0 0 1 4.03 183.04
  C 1.72 163.04 13.68 145.62 33.43 140.66
  Q 36.25 139.95 39.02 140.07
  A 1.02 1.02 0.0 0 0 40.07 138.90
  Q 38.12 125.55 45.61 116.57
  C 54.76 105.62 69.65 103.84 81.62 111.62
  A 0.55 0.55 0.0 0 0 82.41 111.41
  C 83.06 110.18 83.15 108.58 83.84 107.12
  Q 94.88 84.04 117.89 75.66
  C 138.53 68.15 161.28 72.87 177.72 87.51
  Q 188.68 97.27 193.87 113.01
  Q 195.06 116.62 195.88 119.36
  Z"
/>
<path fill="#ffffff" d="
  M 195.88 119.36
  Q 198.14 121.05 200.65 121.09
  Q 199.67 123.00 199.02 124.88
  Q 197.33 129.75 195.84 135.37
  C 193.38 144.58 198.36 152.82 208.26 153.31
  Q 216.68 153.73 228.03 154.67
  A 1.64 1.63 5.9 0 1 229.52 156.50
  L 229.51 156.57
  A 2.04 2.03 -89.1 0 1 227.68 158.35
  Q 217.68 159.25 210.13 159.49
  C 197.23 159.90 187.01 166.80 181.34 178.39
  Q 180.43 180.24 179.28 184.75
  L 173.42 184.75
  Q 174.13 181.46 174.87 178.26
  C 176.50 171.31 175.55 164.40 168.70 160.99
  Q 165.85 159.57 155.64 159.46
  Q 100.68 158.83 74.25 158.52
  Q 72.58 158.50 71.33 157.69
  A 1.21 1.21 0.0 0 1 71.25 155.71
  Q 72.87 154.49 74.75 154.47
  Q 114.26 154.04 157.00 153.48
  C 165.25 153.38 171.90 152.82 178.69 147.69
  Q 187.23 141.23 189.75 134.23
  Q 192.45 126.73 195.88 119.36
  Z"
/>
<path fill="#faae40" d="
  M 179.28 184.75
  Q 180.43 180.24 181.34 178.39
  C 187.01 166.80 197.23 159.90 210.13 159.49
  Q 217.68 159.25 227.68 158.35
  A 2.04 2.03 -89.1 0 0 229.51 156.57
  L 229.52 156.50
  A 1.64 1.63 5.9 0 0 228.03 154.67
  Q 216.68 153.73 208.26 153.31
  C 198.36 152.82 193.38 144.58 195.84 135.37
  Q 197.33 129.75 199.02 124.88
  Q 199.67 123.00 200.65 121.09
  Q 217.92 120.20 231.64 129.85
  C 244.35 138.81 252.56 153.65 252.46 169.50
  Q 252.42 177.11 250.90 183.48
  A 1.61 1.60 -83.1 0 1 249.34 184.71
  L 179.28 184.75
  Z"
/>
</svg>