<svg width="32" height="32" viewBox="0 0 32 32" fill="none" xmlns="http://www.w3.org/2000/svg">
<path d="M5 11.5C5 9.567 6.567 8 8.5 8H27V26.5C27 27.8807 25.8807 29 24.5 29H9.75C7.12665 29 5 26.8734 5 24.25V11.5Z" fill="url(#paint0_radial_353_13399)"/>
<path d="M5 11.5C5 9.567 6.567 8 8.5 8H27V26.5C27 27.8807 25.8807 29 24.5 29H9.75C7.12665 29 5 26.8734 5 24.25V11.5Z" fill="url(#paint1_radial_353_13399)" fill-opacity="0.7"/>
<path d="M5 15.5C5 13.567 6.567 12 8.5 12H19.5H18.5C17.1193 12 16 13.1193 16 14.5V18.5C16 19.8807 14.8807 21 13.5 21H9.5C7.01472 21 5 23.0147 5 25.5V15.5Z" fill="url(#paint2_linear_353_13399)"/>
<path d="M5 15.5C5 13.567 6.567 12 8.5 12H19.5H18.5C17.1193 12 16 13.1193 16 14.5V18.5C16 19.8807 14.8807 21 13.5 21H9.5C7.01472 21 5 23.0147 5 25.5V15.5Z" fill="url(#paint3_linear_353_13399)" fill-opacity="0.3"/>
<path d="M5 7.75C5 5.12665 7.12665 3 9.75 3H19V12H9.75C7.12665 12 5 14.1266 5 16.75V7.75Z" fill="url(#paint4_linear_353_13399)"/>
<path d="M5 7.75C5 5.12665 7.12665 3 9.75 3H19V12H9.75C7.12665 12 5 14.1266 5 16.75V7.75Z" fill="url(#paint5_radial_353_13399)"/>
<path d="M5 7.75C5 5.12665 7.12665 3 9.75 3H19V12H9.75C7.12665 12 5 14.1266 5 16.75V7.75Z" fill="url(#paint6_linear_353_13399)"/>
<path d="M18.5 3H24.5C25.8807 3 27 4.11929 27 5.5V9.5C27 10.8807 25.8807 12 24.5 12H18.5C17.1193 12 16 10.8807 16 9.5V5.5C16 4.11929 17.1193 3 18.5 3Z" fill="url(#paint7_radial_353_13399)"/>
<path d="M11.25 14H4.75C3.23122 14 2 15.2312 2 16.75V23.25C2 24.7688 3.23122 26 4.75 26H11.25C12.7688 26 14 24.7688 14 23.25V16.75C14 15.2312 12.7688 14 11.25 14Z" fill="url(#paint8_radial_353_13399)"/>
<path d="M11.25 14H4.75C3.23122 14 2 15.2312 2 16.75V23.25C2 24.7688 3.23122 26 4.75 26H11.25C12.7688 26 14 24.7688 14 23.25V16.75C14 15.2312 12.7688 14 11.25 14Z" fill="url(#paint9_radial_353_13399)" fill-opacity="0.3"/>
<path d="M10.9925 23.25H9.2378L8.13603 21.1785C8.09673 21.106 8.0665 21.0486 8.04534 21.0063C8.02721 20.9609 8.00756 20.9096 7.9864 20.8522H7.96827C7.94106 20.9247 7.91537 20.9836 7.89119 21.0289C7.86701 21.0743 7.83829 21.1302 7.80504 21.1967L6.66246 23.25H5.00754L6.99345 19.9955L5.14356 16.75H6.87556L7.85491 18.5994C7.89421 18.6749 7.92746 18.7414 7.95466 18.7988C7.98489 18.8532 8.01512 18.9182 8.04534 18.9937H8.06348C8.1058 18.9061 8.13905 18.8366 8.16323 18.7852C8.19043 18.7338 8.22671 18.6659 8.27205 18.5812L9.28767 16.75H10.9381L9.06097 19.9456L10.9925 23.25Z" fill="white"/>
<defs>
<radialGradient id="paint0_radial_353_13399" cx="0" cy="0" r="1" gradientUnits="userSpaceOnUse" gradientTransform="translate(27 30.75) rotate(-133.911) scale(29.9592 23.2587)">
<stop offset="0.0647233" stop-color="#379539"/>
<stop offset="0.422149" stop-color="#297C2D"/>
<stop offset="0.703448" stop-color="#15561C"/>
</radialGradient>
<radialGradient id="paint1_radial_353_13399" cx="0" cy="0" r="1" gradientUnits="userSpaceOnUse" gradientTransform="translate(11.7222 15.5833) rotate(-136.332) scale(12.1444 9.39125)">
<stop stop-color="#073B10"/>
<stop offset="0.992234" stop-color="#084A13" stop-opacity="0"/>
</radialGradient>
<linearGradient id="paint2_linear_353_13399" x1="5" y1="18.75" x2="16.1044" y2="18.75" gradientUnits="userSpaceOnUse">
<stop stop-color="#52D17C"/>
<stop offset="0.328512" stop-color="#4AA647"/>
</linearGradient>
<linearGradient id="paint3_linear_353_13399" x1="15.875" y1="12" x2="15.875" y2="21.377" gradientUnits="userSpaceOnUse">
<stop stop-color="#29852F"/>
<stop offset="0.499968" stop-color="#4AA647" stop-opacity="0"/>
</linearGradient>
<linearGradient id="paint4_linear_353_13399" x1="5.51568" y1="14.3474" x2="18.4512" y2="3.1282" gradientUnits="userSpaceOnUse">
<stop stop-color="#66D052"/>
<stop offset="1" stop-color="#85E972"/>
</linearGradient>
<radialGradient id="paint5_radial_353_13399" cx="0" cy="0" r="1" gradientUnits="userSpaceOnUse" gradientTransform="translate(18.496 8.9604) rotate(-180) scale(7.01464 14.8509)">
<stop offset="0.292495" stop-color="#4EB43B"/>
<stop offset="1" stop-color="#72CC61" stop-opacity="0"/>
</radialGradient>
<linearGradient id="paint6_linear_353_13399" x1="11.3114" y1="9.52731" x2="5" y2="9.52731" gradientUnits="userSpaceOnUse">
<stop offset="0.183694" stop-color="#C0E075" stop-opacity="0"/>
<stop offset="1" stop-color="#D1EB95"/>
</linearGradient>
<radialGradient id="paint7_radial_353_13399" cx="0" cy="0" r="1" gradientUnits="userSpaceOnUse" gradientTransform="translate(28.4014 13.2595) rotate(-140.399) scale(16.0951 16.1219)">
<stop offset="0.439983" stop-color="#79E96D"/>
<stop offset="1" stop-color="#D0EB76"/>
</radialGradient>
<radialGradient id="paint8_radial_353_13399" cx="0" cy="0" r="1" gradientUnits="userSpaceOnUse" gradientTransform="translate(2 14) rotate(45) scale(16.9706 48.3105)">
<stop stop-color="#20A85E"/>
<stop offset="0.94375" stop-color="#09442A"/>
</radialGradient>
<radialGradient id="paint9_radial_353_13399" cx="0" cy="0" r="1" gradientUnits="userSpaceOnUse" gradientTransform="translate(8 21.2) rotate(90) scale(8.4 9.675)">
<stop offset="0.580357" stop-color="#33A662" stop-opacity="0"/>
<stop offset="0.973806" stop-color="#98F0B0"/>
</radialGradient>
</defs>
</svg>
